<?xml version="1.0" encoding="utf-8" standalone="no"?>
<!DOCTYPE svg PUBLIC "-//W3C//DTD SVG 1.1//EN"
  "http://www.w3.org/Graphics/SVG/1.1/DTD/svg11.dtd">
<svg xmlns:xlink="http://www.w3.org/1999/xlink" width="414pt" height="180pt" viewBox="0 0 414 180" xmlns="http://www.w3.org/2000/svg" version="1.1">
 <metadata>
  <rdf:RDF xmlns:dc="http://purl.org/dc/elements/1.1/" xmlns:cc="http://creativecommons.org/ns#" xmlns:rdf="http://www.w3.org/1999/02/22-rdf-syntax-ns#">
   <cc:Work>
    <dc:type rdf:resource="http://purl.org/dc/dcmitype/StillImage"/>
    <dc:date>2026-04-07T19:19:56.983225</dc:date>
    <dc:format>image/svg+xml</dc:format>
    <dc:creator>
     <cc:Agent>
      <dc:title>Matplotlib v3.10.7, https://matplotlib.org/</dc:title>
     </cc:Agent>
    </dc:creator>
   </cc:Work>
  </rdf:RDF>
 </metadata>
 <defs>
  <style type="text/css">*{stroke-linejoin: round; stroke-linecap: butt}</style>
 </defs>
 <g id="figure_1">
  <g id="patch_1">
   <path d="M 0 180 
L 414 180 
L 414 0 
L 0 0 
L 0 180 
z
" style="fill: none"/>
  </g>
  <g id="axes_1">
   <g id="patch_2">
    <path d="M 58.11 139.811563 
L 403.2 139.811563 
L 403.2 10.8 
L 58.11 10.8 
L 58.11 139.811563 
z
" style="fill: none"/>
   </g>
   <g id="matplotlib.axis_1">
    <g id="xtick_1">
     <g id="line2d_1">
      <defs>
       <path id="m6b77913650" d="M 0 0 
L 0 3.5 
" style="stroke: #000000; stroke-width: 0.8"/>
      </defs>
      <g>
       <use xlink:href="#m6b77913650" x="112.625255" y="139.811563" style="stroke: #000000; stroke-width: 0.8"/>
      </g>
     </g>
     <g id="text_1">
      <!-- 200 -->
      <g transform="translate(104.03588 153.650156) scale(0.09 -0.09)">
       <defs>
        <path id="DejaVuSans-32" d="M 1228 531 
L 3431 531 
L 3431 0 
L 469 0 
L 469 531 
Q 828 903 1448 1529 
Q 2069 2156 2228 2338 
Q 2531 2678 2651 2914 
Q 2772 3150 2772 3378 
Q 2772 3750 2511 3984 
Q 2250 4219 1831 4219 
Q 1534 4219 1204 4116 
Q 875 4013 500 3803 
L 500 4441 
Q 881 4594 1212 4672 
Q 1544 4750 1819 4750 
Q 2544 4750 2975 4387 
Q 3406 4025 3406 3419 
Q 3406 3131 3298 2873 
Q 3191 2616 2906 2266 
Q 2828 2175 2409 1742 
Q 1991 1309 1228 531 
z
" transform="scale(0.015625)"/>
        <path id="DejaVuSans-30" d="M 2034 4250 
Q 1547 4250 1301 3770 
Q 1056 3291 1056 2328 
Q 1056 1369 1301 889 
Q 1547 409 2034 409 
Q 2525 409 2770 889 
Q 3016 1369 3016 2328 
Q 3016 3291 2770 3770 
Q 2525 4250 2034 4250 
z
M 2034 4750 
Q 2819 4750 3233 4129 
Q 3647 3509 3647 2328 
Q 3647 1150 3233 529 
Q 2819 -91 2034 -91 
Q 1250 -91 836 529 
Q 422 1150 422 2328 
Q 422 3509 836 4129 
Q 1250 4750 2034 4750 
z
" transform="scale(0.015625)"/>
       </defs>
       <use xlink:href="#DejaVuSans-32"/>
       <use xlink:href="#DejaVuSans-30" transform="translate(63.623047 0)"/>
       <use xlink:href="#DejaVuSans-30" transform="translate(127.246094 0)"/>
      </g>
     </g>
    </g>
    <g id="xtick_2">
     <g id="line2d_2">
      <g>
       <use xlink:href="#m6b77913650" x="167.603022" y="139.811563" style="stroke: #000000; stroke-width: 0.8"/>
      </g>
     </g>
     <g id="text_2">
      <!-- 210 -->
      <g transform="translate(159.013647 153.650156) scale(0.09 -0.09)">
       <defs>
        <path id="DejaVuSans-31" d="M 794 531 
L 1825 531 
L 1825 4091 
L 703 3866 
L 703 4441 
L 1819 4666 
L 2450 4666 
L 2450 531 
L 3481 531 
L 3481 0 
L 794 0 
L 794 531 
z
" transform="scale(0.015625)"/>
       </defs>
       <use xlink:href="#DejaVuSans-32"/>
       <use xlink:href="#DejaVuSans-31" transform="translate(63.623047 0)"/>
       <use xlink:href="#DejaVuSans-30" transform="translate(127.246094 0)"/>
      </g>
     </g>
    </g>
    <g id="xtick_3">
     <g id="line2d_3">
      <g>
       <use xlink:href="#m6b77913650" x="222.580789" y="139.811563" style="stroke: #000000; stroke-width: 0.8"/>
      </g>
     </g>
     <g id="text_3">
      <!-- 220 -->
      <g transform="translate(213.991414 153.650156) scale(0.09 -0.09)">
       <use xlink:href="#DejaVuSans-32"/>
       <use xlink:href="#DejaVuSans-32" transform="translate(63.623047 0)"/>
       <use xlink:href="#DejaVuSans-30" transform="translate(127.246094 0)"/>
      </g>
     </g>
    </g>
    <g id="xtick_4">
     <g id="line2d_4">
      <g>
       <use xlink:href="#m6b77913650" x="277.558556" y="139.811563" style="stroke: #000000; stroke-width: 0.8"/>
      </g>
     </g>
     <g id="text_4">
      <!-- 230 -->
      <g transform="translate(268.969181 153.650156) scale(0.09 -0.09)">
       <defs>
        <path id="DejaVuSans-33" d="M 2597 2516 
Q 3050 2419 3304 2112 
Q 3559 1806 3559 1356 
Q 3559 666 3084 287 
Q 2609 -91 1734 -91 
Q 1441 -91 1130 -33 
Q 819 25 488 141 
L 488 750 
Q 750 597 1062 519 
Q 1375 441 1716 441 
Q 2309 441 2620 675 
Q 2931 909 2931 1356 
Q 2931 1769 2642 2001 
Q 2353 2234 1838 2234 
L 1294 2234 
L 1294 2753 
L 1863 2753 
Q 2328 2753 2575 2939 
Q 2822 3125 2822 3475 
Q 2822 3834 2567 4026 
Q 2313 4219 1838 4219 
Q 1578 4219 1281 4162 
Q 984 4106 628 3988 
L 628 4550 
Q 988 4650 1302 4700 
Q 1616 4750 1894 4750 
Q 2613 4750 3031 4423 
Q 3450 4097 3450 3541 
Q 3450 3153 3228 2886 
Q 3006 2619 2597 2516 
z
" transform="scale(0.015625)"/>
       </defs>
       <use xlink:href="#DejaVuSans-32"/>
       <use xlink:href="#DejaVuSans-33" transform="translate(63.623047 0)"/>
       <use xlink:href="#DejaVuSans-30" transform="translate(127.246094 0)"/>
      </g>
     </g>
    </g>
    <g id="xtick_5">
     <g id="line2d_5">
      <g>
       <use xlink:href="#m6b77913650" x="332.536324" y="139.811563" style="stroke: #000000; stroke-width: 0.8"/>
      </g>
     </g>
     <g id="text_5">
      <!-- 240 -->
      <g transform="translate(323.946949 153.650156) scale(0.09 -0.09)">
       <defs>
        <path id="DejaVuSans-34" d="M 2419 4116 
L 825 1625 
L 2419 1625 
L 2419 4116 
z
M 2253 4666 
L 3047 4666 
L 3047 1625 
L 3713 1625 
L 3713 1100 
L 3047 1100 
L 3047 0 
L 2419 0 
L 2419 1100 
L 313 1100 
L 313 1709 
L 2253 4666 
z
" transform="scale(0.015625)"/>
       </defs>
       <use xlink:href="#DejaVuSans-32"/>
       <use xlink:href="#DejaVuSans-34" transform="translate(63.623047 0)"/>
       <use xlink:href="#DejaVuSans-30" transform="translate(127.246094 0)"/>
      </g>
     </g>
    </g>
    <g id="xtick_6">
     <g id="line2d_6">
      <g>
       <use xlink:href="#m6b77913650" x="387.514091" y="139.811563" style="stroke: #000000; stroke-width: 0.8"/>
      </g>
     </g>
     <g id="text_6">
      <!-- 250 -->
      <g transform="translate(378.924716 153.650156) scale(0.09 -0.09)">
       <defs>
        <path id="DejaVuSans-35" d="M 691 4666 
L 3169 4666 
L 3169 4134 
L 1269 4134 
L 1269 2991 
Q 1406 3038 1543 3061 
Q 1681 3084 1819 3084 
Q 2600 3084 3056 2656 
Q 3513 2228 3513 1497 
Q 3513 744 3044 326 
Q 2575 -91 1722 -91 
Q 1428 -91 1123 -41 
Q 819 9 494 109 
L 494 744 
Q 775 591 1075 516 
Q 1375 441 1709 441 
Q 2250 441 2565 725 
Q 2881 1009 2881 1497 
Q 2881 1984 2565 2268 
Q 2250 2553 1709 2553 
Q 1456 2553 1204 2497 
Q 953 2441 691 2322 
L 691 4666 
z
" transform="scale(0.015625)"/>
       </defs>
       <use xlink:href="#DejaVuSans-32"/>
       <use xlink:href="#DejaVuSans-35" transform="translate(63.623047 0)"/>
       <use xlink:href="#DejaVuSans-30" transform="translate(127.246094 0)"/>
      </g>
     </g>
    </g>
    <g id="text_7">
     <!-- Altitude [km] -->
     <g transform="translate(197.860469 167.120313) scale(0.1 -0.1)">
      <defs>
       <path id="DejaVuSans-41" d="M 2188 4044 
L 1331 1722 
L 3047 1722 
L 2188 4044 
z
M 1831 4666 
L 2547 4666 
L 4325 0 
L 3669 0 
L 3244 1197 
L 1141 1197 
L 716 0 
L 50 0 
L 1831 4666 
z
" transform="scale(0.015625)"/>
       <path id="DejaVuSans-6c" d="M 603 4863 
L 1178 4863 
L 1178 0 
L 603 0 
L 603 4863 
z
" transform="scale(0.015625)"/>
       <path id="DejaVuSans-74" d="M 1172 4494 
L 1172 3500 
L 2356 3500 
L 2356 3053 
L 1172 3053 
L 1172 1153 
Q 1172 725 1289 603 
Q 1406 481 1766 481 
L 2356 481 
L 2356 0 
L 1766 0 
Q 1100 0 847 248 
Q 594 497 594 1153 
L 594 3053 
L 172 3053 
L 172 3500 
L 594 3500 
L 594 4494 
L 1172 4494 
z
" transform="scale(0.015625)"/>
       <path id="DejaVuSans-69" d="M 603 3500 
L 1178 3500 
L 1178 0 
L 603 0 
L 603 3500 
z
M 603 4863 
L 1178 4863 
L 1178 4134 
L 603 4134 
L 603 4863 
z
" transform="scale(0.015625)"/>
       <path id="DejaVuSans-75" d="M 544 1381 
L 544 3500 
L 1119 3500 
L 1119 1403 
Q 1119 906 1312 657 
Q 1506 409 1894 409 
Q 2359 409 2629 706 
Q 2900 1003 2900 1516 
L 2900 3500 
L 3475 3500 
L 3475 0 
L 2900 0 
L 2900 538 
Q 2691 219 2414 64 
Q 2138 -91 1772 -91 
Q 1169 -91 856 284 
Q 544 659 544 1381 
z
M 1991 3584 
L 1991 3584 
z
" transform="scale(0.015625)"/>
       <path id="DejaVuSans-64" d="M 2906 2969 
L 2906 4863 
L 3481 4863 
L 3481 0 
L 2906 0 
L 2906 525 
Q 2725 213 2448 61 
Q 2172 -91 1784 -91 
Q 1150 -91 751 415 
Q 353 922 353 1747 
Q 353 2572 751 3078 
Q 1150 3584 1784 3584 
Q 2172 3584 2448 3432 
Q 2725 3281 2906 2969 
z
M 947 1747 
Q 947 1113 1208 752 
Q 1469 391 1925 391 
Q 2381 391 2643 752 
Q 2906 1113 2906 1747 
Q 2906 2381 2643 2742 
Q 2381 3103 1925 3103 
Q 1469 3103 1208 2742 
Q 947 2381 947 1747 
z
" transform="scale(0.015625)"/>
       <path id="DejaVuSans-65" d="M 3597 1894 
L 3597 1613 
L 953 1613 
Q 991 1019 1311 708 
Q 1631 397 2203 397 
Q 2534 397 2845 478 
Q 3156 559 3463 722 
L 3463 178 
Q 3153 47 2828 -22 
Q 2503 -91 2169 -91 
Q 1331 -91 842 396 
Q 353 884 353 1716 
Q 353 2575 817 3079 
Q 1281 3584 2069 3584 
Q 2775 3584 3186 3129 
Q 3597 2675 3597 1894 
z
M 3022 2063 
Q 3016 2534 2758 2815 
Q 2500 3097 2075 3097 
Q 1594 3097 1305 2825 
Q 1016 2553 972 2059 
L 3022 2063 
z
" transform="scale(0.015625)"/>
       <path id="DejaVuSans-20" transform="scale(0.015625)"/>
       <path id="DejaVuSans-5b" d="M 550 4863 
L 1875 4863 
L 1875 4416 
L 1125 4416 
L 1125 -397 
L 1875 -397 
L 1875 -844 
L 550 -844 
L 550 4863 
z
" transform="scale(0.015625)"/>
       <path id="DejaVuSans-6b" d="M 581 4863 
L 1159 4863 
L 1159 1991 
L 2875 3500 
L 3609 3500 
L 1753 1863 
L 3688 0 
L 2938 0 
L 1159 1709 
L 1159 0 
L 581 0 
L 581 4863 
z
" transform="scale(0.015625)"/>
       <path id="DejaVuSans-6d" d="M 3328 2828 
Q 3544 3216 3844 3400 
Q 4144 3584 4550 3584 
Q 5097 3584 5394 3201 
Q 5691 2819 5691 2113 
L 5691 0 
L 5113 0 
L 5113 2094 
Q 5113 2597 4934 2840 
Q 4756 3084 4391 3084 
Q 3944 3084 3684 2787 
Q 3425 2491 3425 1978 
L 3425 0 
L 2847 0 
L 2847 2094 
Q 2847 2600 2669 2842 
Q 2491 3084 2119 3084 
Q 1678 3084 1418 2786 
Q 1159 2488 1159 1978 
L 1159 0 
L 581 0 
L 581 3500 
L 1159 3500 
L 1159 2956 
Q 1356 3278 1631 3431 
Q 1906 3584 2284 3584 
Q 2666 3584 2933 3390 
Q 3200 3197 3328 2828 
z
" transform="scale(0.015625)"/>
       <path id="DejaVuSans-5d" d="M 1947 4863 
L 1947 -844 
L 622 -844 
L 622 -397 
L 1369 -397 
L 1369 4416 
L 622 4416 
L 622 4863 
L 1947 4863 
z
" transform="scale(0.015625)"/>
      </defs>
      <use xlink:href="#DejaVuSans-41"/>
      <use xlink:href="#DejaVuSans-6c" transform="translate(68.408203 0)"/>
      <use xlink:href="#DejaVuSans-74" transform="translate(96.191406 0)"/>
      <use xlink:href="#DejaVuSans-69" transform="translate(135.400391 0)"/>
      <use xlink:href="#DejaVuSans-74" transform="translate(163.183594 0)"/>
      <use xlink:href="#DejaVuSans-75" transform="translate(202.392578 0)"/>
      <use xlink:href="#DejaVuSans-64" transform="translate(265.771484 0)"/>
      <use xlink:href="#DejaVuSans-65" transform="translate(329.248047 0)"/>
      <use xlink:href="#DejaVuSans-20" transform="translate(390.771484 0)"/>
      <use xlink:href="#DejaVuSans-5b" transform="translate(422.558594 0)"/>
      <use xlink:href="#DejaVuSans-6b" transform="translate(461.572266 0)"/>
      <use xlink:href="#DejaVuSans-6d" transform="translate(519.482422 0)"/>
      <use xlink:href="#DejaVuSans-5d" transform="translate(616.894531 0)"/>
     </g>
    </g>
   </g>
   <g id="matplotlib.axis_2">
    <g id="ytick_1">
     <g id="line2d_7">
      <defs>
       <path id="md5bc9721d9" d="M 0 0 
L -3.5 0 
" style="stroke: #000000; stroke-width: 0.8"/>
      </defs>
      <g>
       <use xlink:href="#md5bc9721d9" x="58.11" y="137.79664" style="stroke: #000000; stroke-width: 0.8"/>
      </g>
     </g>
     <g id="text_8">
      <!-- $\mathdefault{10^{-13}}$ -->
      <g transform="translate(26 141.215937) scale(0.09 -0.09)">
       <defs>
        <path id="DejaVuSans-2212" d="M 678 2272 
L 4684 2272 
L 4684 1741 
L 678 1741 
L 678 2272 
z
" transform="scale(0.015625)"/>
       </defs>
       <use xlink:href="#DejaVuSans-31" transform="translate(0 0.765625)"/>
       <use xlink:href="#DejaVuSans-30" transform="translate(63.623047 0.765625)"/>
       <use xlink:href="#DejaVuSans-2212" transform="translate(128.203125 39.046875) scale(0.7)"/>
       <use xlink:href="#DejaVuSans-31" transform="translate(186.855469 39.046875) scale(0.7)"/>
       <use xlink:href="#DejaVuSans-33" transform="translate(231.391602 39.046875) scale(0.7)"/>
      </g>
     </g>
    </g>
    <g id="ytick_2">
     <g id="line2d_8">
      <g>
       <use xlink:href="#md5bc9721d9" x="58.11" y="100.264771" style="stroke: #000000; stroke-width: 0.8"/>
      </g>
     </g>
     <g id="text_9">
      <!-- $\mathdefault{10^{-12}}$ -->
      <g transform="translate(26 103.684068) scale(0.09 -0.09)">
       <use xlink:href="#DejaVuSans-31" transform="translate(0 0.765625)"/>
       <use xlink:href="#DejaVuSans-30" transform="translate(63.623047 0.765625)"/>
       <use xlink:href="#DejaVuSans-2212" transform="translate(128.203125 39.046875) scale(0.7)"/>
       <use xlink:href="#DejaVuSans-31" transform="translate(186.855469 39.046875) scale(0.7)"/>
       <use xlink:href="#DejaVuSans-32" transform="translate(231.391602 39.046875) scale(0.7)"/>
      </g>
     </g>
    </g>
    <g id="ytick_3">
     <g id="line2d_9">
      <g>
       <use xlink:href="#md5bc9721d9" x="58.11" y="62.732901" style="stroke: #000000; stroke-width: 0.8"/>
      </g>
     </g>
     <g id="text_10">
      <!-- $\mathdefault{10^{-11}}$ -->
      <g transform="translate(26 66.152198) scale(0.09 -0.09)">
       <use xlink:href="#DejaVuSans-31" transform="translate(0 0.684375)"/>
       <use xlink:href="#DejaVuSans-30" transform="translate(63.623047 0.684375)"/>
       <use xlink:href="#DejaVuSans-2212" transform="translate(128.203125 38.965625) scale(0.7)"/>
       <use xlink:href="#DejaVuSans-31" transform="translate(186.855469 38.965625) scale(0.7)"/>
       <use xlink:href="#DejaVuSans-31" transform="translate(231.391602 38.965625) scale(0.7)"/>
      </g>
     </g>
    </g>
    <g id="ytick_4">
     <g id="line2d_10">
      <g>
       <use xlink:href="#md5bc9721d9" x="58.11" y="25.201032" style="stroke: #000000; stroke-width: 0.8"/>
      </g>
     </g>
     <g id="text_11">
      <!-- $\mathdefault{10^{-10}}$ -->
      <g transform="translate(26 28.620329) scale(0.09 -0.09)">
       <use xlink:href="#DejaVuSans-31" transform="translate(0 0.765625)"/>
       <use xlink:href="#DejaVuSans-30" transform="translate(63.623047 0.765625)"/>
       <use xlink:href="#DejaVuSans-2212" transform="translate(128.203125 39.046875) scale(0.7)"/>
       <use xlink:href="#DejaVuSans-31" transform="translate(186.855469 39.046875) scale(0.7)"/>
       <use xlink:href="#DejaVuSans-30" transform="translate(231.391602 39.046875) scale(0.7)"/>
      </g>
     </g>
    </g>
    <g id="ytick_5">
     <g id="line2d_11">
      <defs>
       <path id="m4f84ac8691" d="M 0 0 
L -2 0 
" style="stroke: #000000; stroke-width: 0.6"/>
      </defs>
      <g>
       <use xlink:href="#m4f84ac8691" x="58.11" y="139.514004" style="stroke: #000000; stroke-width: 0.6"/>
      </g>
     </g>
    </g>
    <g id="ytick_6">
     <g id="line2d_12">
      <g>
       <use xlink:href="#m4f84ac8691" x="58.11" y="126.498422" style="stroke: #000000; stroke-width: 0.6"/>
      </g>
     </g>
    </g>
    <g id="ytick_7">
     <g id="line2d_13">
      <g>
       <use xlink:href="#m4f84ac8691" x="58.11" y="119.889388" style="stroke: #000000; stroke-width: 0.6"/>
      </g>
     </g>
    </g>
    <g id="ytick_8">
     <g id="line2d_14">
      <g>
       <use xlink:href="#m4f84ac8691" x="58.11" y="115.200203" style="stroke: #000000; stroke-width: 0.6"/>
      </g>
     </g>
    </g>
    <g id="ytick_9">
     <g id="line2d_15">
      <g>
       <use xlink:href="#m4f84ac8691" x="58.11" y="111.562989" style="stroke: #000000; stroke-width: 0.6"/>
      </g>
     </g>
    </g>
    <g id="ytick_10">
     <g id="line2d_16">
      <g>
       <use xlink:href="#m4f84ac8691" x="58.11" y="108.591169" style="stroke: #000000; stroke-width: 0.6"/>
      </g>
     </g>
    </g>
    <g id="ytick_11">
     <g id="line2d_17">
      <g>
       <use xlink:href="#m4f84ac8691" x="58.11" y="106.078531" style="stroke: #000000; stroke-width: 0.6"/>
      </g>
     </g>
    </g>
    <g id="ytick_12">
     <g id="line2d_18">
      <g>
       <use xlink:href="#m4f84ac8691" x="58.11" y="103.901985" style="stroke: #000000; stroke-width: 0.6"/>
      </g>
     </g>
    </g>
    <g id="ytick_13">
     <g id="line2d_19">
      <g>
       <use xlink:href="#m4f84ac8691" x="58.11" y="101.982135" style="stroke: #000000; stroke-width: 0.6"/>
      </g>
     </g>
    </g>
    <g id="ytick_14">
     <g id="line2d_20">
      <g>
       <use xlink:href="#m4f84ac8691" x="58.11" y="88.966552" style="stroke: #000000; stroke-width: 0.6"/>
      </g>
     </g>
    </g>
    <g id="ytick_15">
     <g id="line2d_21">
      <g>
       <use xlink:href="#m4f84ac8691" x="58.11" y="82.357518" style="stroke: #000000; stroke-width: 0.6"/>
      </g>
     </g>
    </g>
    <g id="ytick_16">
     <g id="line2d_22">
      <g>
       <use xlink:href="#m4f84ac8691" x="58.11" y="77.668334" style="stroke: #000000; stroke-width: 0.6"/>
      </g>
     </g>
    </g>
    <g id="ytick_17">
     <g id="line2d_23">
      <g>
       <use xlink:href="#m4f84ac8691" x="58.11" y="74.03112" style="stroke: #000000; stroke-width: 0.6"/>
      </g>
     </g>
    </g>
    <g id="ytick_18">
     <g id="line2d_24">
      <g>
       <use xlink:href="#m4f84ac8691" x="58.11" y="71.0593" style="stroke: #000000; stroke-width: 0.6"/>
      </g>
     </g>
    </g>
    <g id="ytick_19">
     <g id="line2d_25">
      <g>
       <use xlink:href="#m4f84ac8691" x="58.11" y="68.546662" style="stroke: #000000; stroke-width: 0.6"/>
      </g>
     </g>
    </g>
    <g id="ytick_20">
     <g id="line2d_26">
      <g>
       <use xlink:href="#m4f84ac8691" x="58.11" y="66.370115" style="stroke: #000000; stroke-width: 0.6"/>
      </g>
     </g>
    </g>
    <g id="ytick_21">
     <g id="line2d_27">
      <g>
       <use xlink:href="#m4f84ac8691" x="58.11" y="64.450266" style="stroke: #000000; stroke-width: 0.6"/>
      </g>
     </g>
    </g>
    <g id="ytick_22">
     <g id="line2d_28">
      <g>
       <use xlink:href="#m4f84ac8691" x="58.11" y="51.434683" style="stroke: #000000; stroke-width: 0.6"/>
      </g>
     </g>
    </g>
    <g id="ytick_23">
     <g id="line2d_29">
      <g>
       <use xlink:href="#m4f84ac8691" x="58.11" y="44.825649" style="stroke: #000000; stroke-width: 0.6"/>
      </g>
     </g>
    </g>
    <g id="ytick_24">
     <g id="line2d_30">
      <g>
       <use xlink:href="#m4f84ac8691" x="58.11" y="40.136464" style="stroke: #000000; stroke-width: 0.6"/>
      </g>
     </g>
    </g>
    <g id="ytick_25">
     <g id="line2d_31">
      <g>
       <use xlink:href="#m4f84ac8691" x="58.11" y="36.499251" style="stroke: #000000; stroke-width: 0.6"/>
      </g>
     </g>
    </g>
    <g id="ytick_26">
     <g id="line2d_32">
      <g>
       <use xlink:href="#m4f84ac8691" x="58.11" y="33.52743" style="stroke: #000000; stroke-width: 0.6"/>
      </g>
     </g>
    </g>
    <g id="ytick_27">
     <g id="line2d_33">
      <g>
       <use xlink:href="#m4f84ac8691" x="58.11" y="31.014792" style="stroke: #000000; stroke-width: 0.6"/>
      </g>
     </g>
    </g>
    <g id="ytick_28">
     <g id="line2d_34">
      <g>
       <use xlink:href="#m4f84ac8691" x="58.11" y="28.838246" style="stroke: #000000; stroke-width: 0.6"/>
      </g>
     </g>
    </g>
    <g id="ytick_29">
     <g id="line2d_35">
      <g>
       <use xlink:href="#m4f84ac8691" x="58.11" y="26.918396" style="stroke: #000000; stroke-width: 0.6"/>
      </g>
     </g>
    </g>
    <g id="ytick_30">
     <g id="line2d_36">
      <g>
       <use xlink:href="#m4f84ac8691" x="58.11" y="13.902814" style="stroke: #000000; stroke-width: 0.6"/>
      </g>
     </g>
    </g>
    <g id="text_12">
     <!-- $\rho$ [kg/m$^3$] -->
     <g transform="translate(19.9 99.055781) rotate(-90) scale(0.1 -0.1)">
      <defs>
       <path id="DejaVuSans-Oblique-3c1" d="M 1203 2875 
Q 1453 3194 1981 3475 
Q 2188 3584 2756 3584 
Q 3394 3584 3694 3078 
Q 3994 2572 3834 1747 
Q 3672 922 3175 415 
Q 2678 -91 2041 -91 
Q 1656 -91 1409 63 
Q 1163 213 1044 525 
L 681 -1331 
L 103 -1331 
L 697 1716 
Q 838 2438 1203 2875 
z
M 3238 1747 
Q 3359 2381 3169 2744 
Q 2978 3103 2522 3103 
Q 2066 3103 1734 2744 
Q 1403 2381 1281 1747 
Q 1156 1113 1347 750 
Q 1538 391 1994 391 
Q 2450 391 2781 750 
Q 3113 1113 3238 1747 
z
" transform="scale(0.015625)"/>
       <path id="DejaVuSans-67" d="M 2906 1791 
Q 2906 2416 2648 2759 
Q 2391 3103 1925 3103 
Q 1463 3103 1205 2759 
Q 947 2416 947 1791 
Q 947 1169 1205 825 
Q 1463 481 1925 481 
Q 2391 481 2648 825 
Q 2906 1169 2906 1791 
z
M 3481 434 
Q 3481 -459 3084 -895 
Q 2688 -1331 1869 -1331 
Q 1566 -1331 1297 -1286 
Q 1028 -1241 775 -1147 
L 775 -588 
Q 1028 -725 1275 -790 
Q 1522 -856 1778 -856 
Q 2344 -856 2625 -561 
Q 2906 -266 2906 331 
L 2906 616 
Q 2728 306 2450 153 
Q 2172 0 1784 0 
Q 1141 0 747 490 
Q 353 981 353 1791 
Q 353 2603 747 3093 
Q 1141 3584 1784 3584 
Q 2172 3584 2450 3431 
Q 2728 3278 2906 2969 
L 2906 3500 
L 3481 3500 
L 3481 434 
z
" transform="scale(0.015625)"/>
       <path id="DejaVuSans-2f" d="M 1625 4666 
L 2156 4666 
L 531 -594 
L 0 -594 
L 1625 4666 
z
" transform="scale(0.015625)"/>
      </defs>
      <use xlink:href="#DejaVuSans-Oblique-3c1" transform="translate(0 0.765625)"/>
      <use xlink:href="#DejaVuSans-20" transform="translate(63.476562 0.765625)"/>
      <use xlink:href="#DejaVuSans-5b" transform="translate(95.263672 0.765625)"/>
      <use xlink:href="#DejaVuSans-6b" transform="translate(134.277344 0.765625)"/>
      <use xlink:href="#DejaVuSans-67" transform="translate(192.1875 0.765625)"/>
      <use xlink:href="#DejaVuSans-2f" transform="translate(255.664062 0.765625)"/>
      <use xlink:href="#DejaVuSans-6d" transform="translate(289.355469 0.765625)"/>
      <use xlink:href="#DejaVuSans-33" transform="translate(387.724609 39.046875) scale(0.7)"/>
      <use xlink:href="#DejaVuSans-5d" transform="translate(434.995117 0.765625)"/>
     </g>
    </g>
   </g>
   <g id="line2d_37">
    <path d="M 387.514091 181 
L 387.444593 122.346503 
L 387.406306 123.625528 
L 387.397291 124.881088 
L 387.338853 120.387247 
L 387.300166 123.228905 
L 387.224044 127.918637 
L 387.278891 123.064813 
L 387.180296 124.571451 
L 387.161708 122.639078 
L 387.080992 125.343037 
L 387.025291 128.209237 
L 387.013661 125.213352 
L 386.953064 127.526362 
L 386.940455 126.305854 
L 386.901651 133.026409 
L 386.888392 130.824709 
L 386.861393 133.3852 
L 386.791114 129.076914 
L 386.73207 127.938567 
L 386.716922 131.048292 
L 386.70162 130.568594 
L 386.686165 130.142508 
L 386.573742 123.382111 
L 386.557081 124.477697 
L 386.488944 124.995674 
L 386.364018 120.24579 
L 386.212454 123.773363 
L 386.153228 123.361461 
L 386.113033 124.588932 
L 386.030965 123.928625 
L 385.989107 126.631942 
L 385.860328 120.723689 
L 385.816355 121.35738 
L 385.704186 123.659703 
L 385.681377 126.409728 
L 385.588938 126.247531 
L 385.47078 126.099724 
L 385.325388 121.174746 
L 385.300791 121.53099 
L 385.226393 124.215191 
L 385.201396 123.695191 
L 385.100456 119.802018 
L 385.074989 120.174254 
L 384.998044 123.153529 
L 384.946311 122.112616 
L 384.920317 121.530761 
L 384.894239 122.653445 
L 384.841841 123.659696 
L 384.815523 124.729603 
L 384.762658 122.399312 
L 384.736113 123.500095 
L 384.682808 121.496077 
L 384.629225 121.961432 
L 384.602333 123.071453 
L 384.548354 121.283331 
L 384.52127 120.251832 
L 384.494125 122.783817 
L 384.46692 121.600004 
L 384.357534 125.293004 
L 384.330055 124.265587 
L 384.302527 122.757103 
L 384.219661 124.094447 
L 384.164201 124.302007 
L 384.136412 121.957578 
L 384.108585 124.617134 
L 384.024898 123.468631 
L 383.96895 123.762583 
L 383.940935 122.396719 
L 383.884829 124.243555 
L 383.856742 121.890839 
L 383.828635 122.995703 
L 383.80051 123.180821 
L 383.772367 122.41514 
L 383.716038 123.649121 
L 383.575045 125.638946 
L 383.462202 124.412483 
L 383.434002 125.448367 
L 383.405809 125.417401 
L 383.377626 122.773099 
L 383.293153 124.64719 
L 383.265027 125.67479 
L 383.208835 125.565622 
L 383.180773 124.439586 
L 383.124727 125.430134 
L 382.985162 130.360499 
L 382.846607 124.819533 
L 382.791528 122.26812 
L 382.682033 122.727568 
L 382.654807 122.818062 
L 382.627644 123.889681 
L 382.600545 122.426668 
L 382.573511 120.352958 
L 382.519645 123.09234 
L 382.492816 123.234311 
L 382.466059 122.401998 
L 382.439374 124.070359 
L 382.307107 128.696089 
L 382.386231 124.007642 
L 382.280898 127.009631 
L 382.228739 127.639726 
L 382.202794 126.13139 
L 382.17694 127.103469 
L 382.125516 125.488135 
L 382.099948 125.313019 
L 381.94868 127.41505 
L 381.92384 125.928363 
L 381.874496 128.559251 
L 381.849995 128.166313 
L 381.825611 128.596397 
L 381.7772 133.947401 
L 381.705509 131.128218 
L 381.634976 123.960605 
L 381.565636 124.084788 
L 381.43065 120.807003 
L 381.322031 123.972646 
L 381.300739 122.984331 
L 381.237741 121.804977 
L 381.196481 122.047816 
L 381.135712 121.794525 
L 381.115756 123.554786 
L 381.095952 121.145581 
L 380.999216 122.853122 
L 380.980329 122.004455 
L 380.961596 123.084819 
L 380.943017 122.203144 
L 380.888217 127.286201 
L 380.817358 124.405858 
L 380.749056 121.007261 
L 380.715866 123.468077 
L 380.635714 129.287801 
L 380.589582 127.893358 
L 380.460121 120.942268 
L 380.446564 123.626967 
L 380.433171 123.669014 
L 380.393976 122.176812 
L 380.368662 124.113186 
L 380.356248 124.110848 
L 380.251806 128.167729 
L 380.241007 127.7598 
L 380.089752 119.794723 
L 380.014643 122.419817 
L 379.988384 118.510131 
L 379.827253 128.972429 
L 379.797307 124.33958 
L 379.707829 118.984032 
L 379.748517 125.778449 
L 379.684438 120.80618 
L 379.607555 125.804525 
L 379.654639 120.190306 
L 379.570609 122.323149 
L 379.552977 122.432233 
L 379.54685 123.49263 
L 379.514282 119.822649 
L 379.447054 121.599782 
L 379.395697 117.57178 
L 379.348636 122.008803 
L 379.338742 121.198777 
L 379.308077 122.522713 
L 379.264874 127.930297 
L 379.182838 127.846516 
L 379.157891 123.94059 
L 379.09259 129.88283 
L 379.065299 126.654023 
L 379.051404 125.129353 
L 379.008721 129.658362 
L 378.964552 126.433492 
L 378.934287 129.034967 
L 378.871814 127.144112 
L 378.790117 124.523389 
L 378.773301 126.234684 
L 378.756328 129.458835 
L 378.721914 125.08524 
L 378.669127 125.59269 
L 378.559409 122.477591 
L 378.54059 125.338107 
L 378.444251 123.473901 
L 378.34424 126.96069 
L 378.323808 125.338113 
L 378.261674 124.546464 
L 378.282524 126.011007 
L 378.240686 125.526926 
L 378.219561 126.042526 
L 378.155378 122.025858 
L 378.089998 122.072844 
L 378.067942 122.084486 
L 378.045757 124.924604 
L 378.001002 121.842465 
L 377.955741 122.926352 
L 377.932922 121.919484 
L 377.886915 122.991902 
L 377.863728 124.791138 
L 377.84042 122.874334 
L 377.793446 123.550198 
L 377.769783 121.768422 
L 377.722107 124.620751 
L 377.698098 124.483305 
L 377.673976 126.312386 
L 377.600951 124.269633 
L 377.526966 123.69665 
L 377.502097 124.694151 
L 377.426894 124.277463 
L 377.401631 124.162443 
L 377.376273 124.737658 
L 377.24811 122.458474 
L 377.196229 119.484992 
L 377.091463 120.181377 
L 377.065069 121.270984 
L 377.038596 119.919021 
L 377.012045 120.695832 
L 376.985418 119.354658 
L 376.905087 119.910389 
L 376.878164 120.065983 
L 376.71519 125.373046 
L 376.687803 124.313832 
L 376.577679 122.694412 
L 376.550012 123.710945 
L 376.494528 123.535726 
L 376.410947 120.909735 
L 376.355008 121.022603 
L 376.326978 122.083418 
L 376.298909 120.554444 
L 376.24266 118.66825 
L 376.186269 120.013728 
L 376.158024 120.223098 
L 376.129748 118.140476 
L 376.073105 118.657904 
L 375.959494 121.569891 
L 375.931033 120.653832 
L 375.87405 121.784952 
L 375.845532 121.843288 
L 375.788449 119.569622 
L 375.731313 119.859141 
L 375.702729 122.581585 
L 375.61693 121.164776 
L 375.58832 118.852745 
L 375.502476 119.409763 
L 375.473861 120.503958 
L 375.416638 118.555666 
L 375.388033 118.775299 
L 375.359434 117.642696 
L 375.302256 119.055733 
L 375.27368 117.949656 
L 375.245114 118.28537 
L 375.216558 117.75524 
L 375.188014 118.028927 
L 375.159484 116.995463 
L 375.130967 118.635993 
L 375.045513 120.131252 
L 375.017064 119.364924 
L 374.988636 119.511025 
L 374.96023 119.118061 
L 374.931846 119.362512 
L 374.87515 116.411103 
L 374.818557 117.104831 
L 374.677574 121.687806 
L 374.649474 120.692842 
L 374.621411 123.51373 
L 374.593385 122.243844 
L 374.537453 122.020701 
L 374.50955 124.962508 
L 374.426119 124.191009 
L 374.398406 123.982114 
L 374.370745 125.823364 
L 374.343138 122.310373 
L 374.315587 123.315226 
L 374.288093 121.441999 
L 374.205967 123.001821 
L 374.151529 121.701631 
L 374.097357 122.644533 
L 374.043462 122.506874 
L 374.016622 121.36056 
L 373.989856 124.259221 
L 373.93655 122.640505 
L 373.910014 122.464241 
L 373.883559 123.460256 
L 373.857184 120.500085 
L 373.830893 122.180417 
L 373.804685 122.045134 
L 373.752529 124.697953 
L 373.700729 122.289569 
L 373.674966 122.238041 
L 373.623719 121.071151 
L 373.572853 122.067401 
L 373.497291 121.968422 
L 373.373388 119.234564 
L 373.348922 120.315967 
L 373.324563 119.447967 
L 373.22821 119.771283 
L 373.204397 121.446901 
L 373.13363 119.875654 
L 373.110268 119.927187 
L 372.97253 121.172464 
L 372.949986 120.167848 
L 372.905257 122.854982 
L 372.883074 122.726208 
L 372.731256 119.52432 
L 372.68901 122.382749 
L 372.606055 120.969909 
L 372.565354 120.854216 
L 372.545199 121.885935 
L 372.505284 120.121545 
L 372.427031 117.636116 
L 372.388692 118.722484 
L 372.295133 120.374649 
L 372.332165 117.643517 
L 372.276812 118.899348 
L 372.258621 118.170403 
L 372.204826 119.584495 
L 372.169608 118.348166 
L 372.152191 118.580957 
L 372.134902 117.88721 
L 372.100704 118.245868 
L 372.033818 116.392725 
L 372.017407 116.688455 
L 371.937183 121.491284 
L 371.8905 121.402909 
L 371.875179 121.377702 
L 371.785738 116.751569 
L 371.75685 117.260008 
L 371.645737 120.977255 
L 371.632334 119.361957 
L 371.619036 118.544905 
L 371.566885 121.21948 
L 371.554104 121.201391 
L 371.541425 121.18455 
L 371.491707 118.528554 
L 371.443545 120.534502 
L 371.351696 126.009814 
L 371.318747 123.32509 
L 371.214558 121.039208 
L 371.234721 124.644785 
L 371.204599 122.742313 
L 371.146513 121.442973 
L 371.184923 123.437069 
L 371.137103 123.151551 
L 371.064485 128.942764 
L 371.029918 122.713999 
L 370.948159 117.761684 
L 370.886775 121.101119 
L 370.879312 122.112883 
L 370.813877 117.475659 
L 370.806772 118.584433 
L 370.799694 117.833445 
L 370.743818 121.746677 
L 370.723105 119.114371 
L 370.716217 120.894964 
L 370.640484 115.982422 
L 370.619654 117.676983 
L 370.605672 115.917847 
L 370.541321 118.856109 
L 370.519185 116.893019 
L 370.384646 123.324045 
L 370.376172 121.851771 
L 370.367629 121.636358 
L 370.359016 123.351172 
L 370.305824 126.839717 
L 370.240383 124.373575 
L 370.220991 125.879598 
L 370.119148 119.970205 
L 370.108497 121.006093 
L 370.053887 117.196892 
L 370.042685 117.38295 
L 370.01999 118.652918 
L 370.008495 116.460781 
L 369.985201 116.92396 
L 369.973399 115.791423 
L 369.937357 118.004747 
L 369.875078 115.955108 
L 369.755548 119.978987 
L 369.741653 118.987187 
L 369.699213 121.709954 
L 369.684813 118.822172 
L 369.640846 119.68106 
L 369.549396 115.568571 
L 369.517842 117.514019 
L 369.48574 116.506253 
L 369.46948 117.62399 
L 369.403044 119.591219 
L 369.386083 117.156801 
L 369.36898 117.325901 
L 369.26335 119.061206 
L 369.226984 117.708105 
L 369.208582 116.995434 
L 369.171339 118.837007 
L 368.976432 126.448352 
L 368.852739 118.067406 
L 368.745896 124.193179 
L 368.724124 120.593233 
L 368.702217 120.440749 
L 368.635709 122.792349 
L 368.590719 121.076506 
L 368.568031 119.158205 
L 368.499204 120.49573 
L 368.452692 123.329441 
L 368.382002 121.209845 
L 368.334271 122.139795 
L 368.261785 118.858692 
L 368.212878 118.842786 
L 368.113693 123.009885 
L 368.088617 122.697388 
L 368.038141 122.163662 
L 367.987236 118.992373 
L 367.910094 120.320653 
L 367.753107 126.275976 
L 367.700019 124.952175 
L 367.67334 123.017399 
L 367.646575 126.312224 
L 367.565772 123.025485 
L 367.456917 124.982588 
L 367.429515 124.423075 
L 367.319205 120.949595 
L 367.207839 119.365734 
L 367.123672 122.516757 
L 367.095503 121.385309 
L 367.067279 120.036789 
L 367.039002 123.037225 
L 367.010675 123.463721 
L 366.982298 122.940465 
L 366.896894 130.237465 
L 366.839754 127.81575 
L 366.725066 121.208226 
L 366.60994 123.563978 
L 366.436703 120.359436 
L 366.407789 120.932259 
L 366.292082 124.781511 
L 366.263153 124.197016 
L 366.176387 121.509344 
L 366.118581 124.98604 
L 366.060825 122.969017 
L 366.003132 117.661408 
L 365.916733 118.481502 
L 365.859242 122.098126 
L 365.801853 120.30906 
L 365.7732 118.349977 
L 365.715984 119.342202 
L 365.687423 121.150669 
L 365.601948 120.578201 
L 365.573529 119.275133 
L 365.54515 120.974244 
L 365.516811 120.669839 
L 365.488515 121.629557 
L 365.432055 121.1251 
L 365.263824 116.39251 
L 365.235964 119.129665 
L 365.180406 116.446143 
L 365.097481 115.019389 
L 365.069951 115.312 
L 365.015061 115.833234 
L 364.987701 114.672964 
L 364.933153 115.279018 
L 364.878836 118.795679 
L 364.797807 118.753484 
L 364.664009 117.636446 
L 364.637444 117.624901 
L 364.584516 120.471233 
L 364.479495 119.84396 
L 364.349857 116.860776 
L 364.324156 119.662474 
L 364.272985 117.728908 
L 364.247516 115.307723 
L 364.196815 117.141667 
L 364.171583 119.971636 
L 364.09637 119.573722 
L 364.021898 116.821145 
L 363.972667 116.898091 
L 363.875219 117.008318 
L 363.827008 115.66477 
L 363.707992 119.990699 
L 363.591178 116.485986 
L 363.568083 116.629475 
L 363.545077 117.343664 
L 363.499333 116.863163 
L 363.476594 115.459809 
L 363.408912 117.369182 
L 363.386529 115.876969 
L 363.364235 116.063037 
L 363.342029 115.297773 
L 363.319911 116.963293 
L 363.27594 119.647734 
L 363.232325 116.604698 
L 363.146157 113.092809 
L 363.082438 113.951671 
L 363.04038 113.107306 
L 362.957245 116.573555 
L 362.916158 114.393337 
L 362.875384 117.266698 
L 362.774817 120.121199 
L 362.676207 115.438093 
L 362.656718 116.522852 
L 362.637305 116.63823 
L 362.617967 115.76383 
L 362.560404 117.007338 
L 362.522397 116.140369 
L 362.447249 118.112578 
L 362.484681 114.766247 
L 362.4101 116.245245 
L 362.37323 116.328407 
L 362.336634 115.024824 
L 362.282238 115.418059 
L 362.210607 118.490286 
L 362.157534 117.217437 
L 362.105004 117.080365 
L 362.070279 119.92981 
L 362.001522 117.42445 
L 361.950545 117.480543 
L 361.933661 119.282829 
L 361.850039 117.536837 
L 361.83347 117.448401 
L 361.816952 118.47168 
L 361.784062 115.220115 
L 361.767689 114.494223 
L 361.735079 117.36637 
L 361.702646 117.40067 
L 361.606339 114.895893 
L 361.654313 117.438348 
L 361.574542 116.11604 
L 361.558696 116.824005 
L 361.527103 113.905988 
L 361.479943 115.83465 
L 361.46428 115.886639 
L 361.339862 120.014714 
L 361.324411 119.770623 
L 361.201451 116.507935 
L 361.186149 117.552099 
L 361.170858 114.937045 
L 361.125045 116.242438 
L 361.003045 111.48436 
L 360.972503 112.332559 
L 360.957214 111.917665 
L 360.94191 114.446541 
L 360.92659 113.781547 
L 360.849695 115.593704 
L 360.756581 112.98714 
L 360.740951 113.244898 
L 360.725286 114.367713 
L 360.693842 112.681181 
L 360.63045 113.675339 
L 360.533921 116.20798 
L 360.418821 117.843743 
L 360.451996 116.164206 
L 360.402143 117.678598 
L 360.385405 117.528868 
L 360.300776 113.281196 
L 360.266462 116.158491 
L 360.249201 116.235805 
L 360.179452 119.340965 
L 360.126387 117.24158 
L 360.090642 117.201334 
L 360.018237 112.350504 
L 359.963092 114.022132 
L 359.944543 113.366489 
L 359.86948 114.10054 
L 359.850492 114.248182 
L 359.754185 117.584271 
L 359.734646 115.743668 
L 359.715015 115.749662 
L 359.695289 117.434412 
L 359.655556 115.632755 
L 359.615442 115.657299 
L 359.574945 115.675276 
L 359.554552 118.519589 
L 359.472005 116.630173 
L 359.40906 113.056453 
L 359.366592 114.797007 
L 359.323715 114.941188 
L 359.258629 119.459379 
L 359.236728 116.230178 
L 359.170405 113.314378 
L 359.103141 113.836893 
L 359.034918 113.057338 
L 359.011961 114.168163 
L 358.919035 115.181807 
L 358.848188 117.898156 
L 358.824353 115.014214 
L 358.800408 113.566068 
L 358.752188 115.389987 
L 358.629709 118.251827 
L 358.604884 116.933137 
L 358.529758 117.673796 
L 358.5045 117.559943 
L 358.479135 116.342345 
L 358.453664 118.036962 
L 358.37662 121.046737 
L 358.324744 119.930002 
L 358.298656 120.829781 
L 358.272468 118.330633 
L 358.193319 116.677674 
L 358.166742 117.682897 
L 358.140069 117.555748 
L 358.113301 114.693475 
L 358.032427 114.816558 
L 357.923278 115.956602 
L 357.895757 114.945807 
L 357.868145 117.775106 
L 357.840442 116.488911 
L 357.812648 117.495679 
L 357.784763 114.62038 
L 357.756789 115.679232 
L 357.587089 115.863029 
L 357.558501 114.848529 
L 357.529826 115.898875 
L 357.472223 114.887116 
L 357.443295 114.89605 
L 357.414284 117.734034 
L 357.326759 115.699823 
L 357.297422 114.695424 
L 357.238511 115.766506 
L 357.208937 115.783217 
L 357.179285 114.760941 
L 357.119751 115.819882 
L 356.999788 120.767844 
L 356.96962 118.181708 
L 356.909078 116.595495 
L 356.878707 118.298209 
L 356.817774 117.649806 
L 356.725917 121.940518 
L 356.695184 121.295202 
L 356.540734 117.223274 
L 356.509698 117.777817 
L 356.44749 117.20675 
L 356.322565 115.06568 
L 356.228457 117.862433 
L 356.165536 114.744719 
L 356.10248 116.250421 
L 356.039297 112.906363 
L 355.9443 113.020059 
L 355.912577 115.746222 
L 355.817252 114.621669 
L 355.785427 114.602182 
L 355.721711 117.27467 
L 355.657914 115.801816 
L 355.625987 115.668559 
L 355.594044 116.675324 
L 355.530113 115.333763 
L 355.402091 111.914963 
L 355.370055 112.186186 
L 355.27388 112.880803 
L 355.145491 111.560997 
L 355.049094 114.362292 
L 355.016944 113.43325 
L 354.984787 112.024269 
L 354.952622 114.699643 
L 354.823911 114.831601 
L 354.759533 112.466483 
L 354.72734 112.597983 
L 354.695146 115.324147 
L 354.598564 115.257395 
L 354.501998 112.313902 
L 354.405462 114.216073 
L 354.373293 111.808231 
L 354.308971 112.139759 
L 354.148289 115.612657 
L 354.116181 113.771468 
L 354.051998 114.81995 
L 353.987867 114.821814 
L 353.955823 116.620932 
L 353.891784 115.157039 
L 353.763932 114.698331 
L 353.700135 117.354615 
L 353.636438 116.879311 
L 353.57285 114.689948 
L 353.50938 115.166668 
L 353.477691 116.166434 
L 353.414411 115.898517 
L 353.382822 114.047676 
L 353.31975 116.406305 
L 353.288269 116.132469 
L 353.162741 118.485226 
L 353.131465 118.096701 
L 353.100233 115.794153 
L 353.006815 115.832585 
L 352.975773 115.606133 
L 352.94478 116.586934 
L 352.88295 115.046847 
L 352.852114 114.26409 
L 352.790601 114.289733 
L 352.759927 116.087198 
L 352.668239 115.65909 
L 352.546798 112.671547 
L 352.516586 113.732825 
L 352.486434 113.782556 
L 352.456341 112.810291 
L 352.396339 112.879985 
L 352.366429 113.934403 
L 352.33658 112.369351 
L 352.306792 111.581881 
L 352.277065 112.669175 
L 352.129356 116.018538 
L 352.100003 114.061269 
L 352.041489 114.711189 
L 352.012329 115.710094 
L 351.954207 114.303452 
L 351.925245 115.313698 
L 351.896351 115.203953 
L 351.838764 113.906554 
L 351.781451 114.849888 
L 351.667654 114.596836 
L 351.443396 109.793498 
L 351.388011 111.160787 
L 351.360417 109.988271 
L 351.332886 109.454465 
L 351.278014 109.977605 
L 351.223386 111.321959 
L 351.114852 113.875417 
L 351.087867 113.775941 
L 351.060942 113.68488 
L 350.980528 113.32034 
L 350.92722 116.162178 
L 350.795017 112.453062 
L 350.874155 116.453807 
L 350.76876 112.471952 
L 350.742563 112.488422 
L 350.716427 113.53911 
L 350.638377 112.534037 
L 350.586638 112.546995 
L 350.560857 113.594721 
L 350.535133 111.980778 
L 350.509466 111.162976 
L 350.483855 112.830763 
L 350.381972 115.630687 
L 350.331362 115.266669 
L 350.306141 115.10957 
L 350.180859 113.401157 
L 350.155966 113.316165 
L 350.131127 114.338337 
L 350.08161 113.100995 
L 350.032305 114.069672 
L 349.98321 116.385731 
L 349.958742 119.62853 
L 349.909967 115.005299 
L 349.837207 112.890873 
L 349.788963 113.874489 
L 349.764919 113.830281 
L 349.716981 111.252472 
L 349.645438 112.493505 
L 349.621684 112.565382 
L 349.597975 114.354084 
L 349.550692 112.466434 
L 349.433216 110.180423 
L 349.316659 114.022305 
L 349.293447 113.949853 
L 349.247116 113.822152 
L 349.062982 117.82625 
L 348.903408 111.103261 
L 349.017241 119.247606 
L 348.880725 111.182095 
L 348.858066 111.253671 
L 348.767663 114.233057 
L 348.745115 112.393076 
L 348.722586 111.434951 
L 348.700076 114.239955 
L 348.677582 114.127429 
L 348.655106 114.024749 
L 348.632646 112.823247 
L 348.610202 115.752253 
L 348.542962 119.038136 
L 348.498215 117.840471 
L 348.297626 113.69522 
L 348.27541 114.687654 
L 348.208839 118.040222 
L 348.16452 115.694804 
L 347.98765 109.018493 
L 347.943481 109.440122 
L 347.766605 111.537698 
L 347.633386 107.238961 
L 347.566452 110.858526 
L 347.521674 108.890755 
L 347.499232 107.784449 
L 347.476752 108.923902 
L 347.431671 108.612134 
L 347.363717 110.173612 
L 347.226426 107.560331 
L 347.063451 113.475017 
L 347.039894 113.380381 
L 346.92102 110.457583 
L 346.897021 111.527632 
L 346.872945 110.59982 
L 346.800242 110.766091 
L 346.652639 116.559589 
L 346.602779 115.756202 
L 346.577726 116.193472 
L 346.552591 117.080375 
L 346.502079 116.159535 
L 346.322725 110.100003 
L 346.244613 113.04259 
L 346.165727 112.816489 
L 345.951453 107.853681 
L 345.814453 109.972153 
L 345.758944 108.822128 
L 345.731033 110.56976 
L 345.703016 109.715964 
L 345.674892 109.815575 
L 345.589875 112.76117 
L 345.503881 112.546153 
L 345.416906 112.235749 
L 345.387696 114.043536 
L 345.269768 110.519437 
L 345.240014 113.34603 
L 345.150099 112.949367 
L 345.089613 110.017067 
L 345.028691 111.747649 
L 344.936491 114.304536 
L 344.874485 113.82856 
L 344.812051 113.438659 
L 344.749194 115.699392 
L 344.685924 121.050464 
L 344.654138 119.958773 
L 344.622254 115.127317 
L 344.526024 115.604898 
L 344.363803 118.51774 
L 344.232484 111.078553 
L 344.199448 112.102928 
L 344.066503 113.981477 
L 344.033069 114.913045 
L 343.898568 111.181325 
L 343.864753 112.199118 
L 343.830863 111.017812 
L 343.76286 111.96902 
L 343.660298 107.935042 
L 343.625962 109.036251 
L 343.59155 109.214452 
L 343.453149 111.020318 
L 343.418361 109.991467 
L 343.383499 112.826149 
L 343.348563 109.862704 
L 343.313554 109.878242 
L 343.030899 117.062572 
L 342.995264 116.428185 
L 342.959566 112.488692 
L 342.88799 113.772104 
L 342.852114 113.390553 
L 342.780194 115.988462 
L 342.744153 113.360561 
L 342.708059 111.93364 
L 342.671913 113.638014 
L 342.52685 118.31084 
L 342.490474 119.049005 
L 342.344595 114.603132 
L 342.271455 117.165865 
L 342.198202 116.767229 
L 342.161538 113.798621 
L 342.088143 114.313753 
L 342.014667 114.215186 
L 341.977903 115.112282 
L 341.90433 112.965638 
L 341.757035 108.872843 
L 341.720183 109.932822 
L 341.683321 109.98334 
L 341.646447 109.01343 
L 341.609564 110.06864 
L 341.572671 110.104271 
L 341.535768 109.111857 
L 341.498855 110.163382 
L 341.461934 109.15892 
L 341.31416 110.254684 
L 341.277196 110.26531 
L 341.240226 110.905589 
L 341.129274 108.561409 
L 341.092277 108.707626 
L 341.018264 110.459532 
L 340.981249 110.443071 
L 340.796094 106.600976 
L 340.759047 106.808723 
L 340.721993 107.91172 
L 340.684933 107.174678 
L 340.647865 105.963452 
L 340.610788 107.085213 
L 340.536609 108.098268 
L 340.499505 109.167283 
L 340.462392 107.706034 
L 340.425269 106.983672 
L 340.388135 108.079635 
L 340.350991 107.30588 
L 340.313836 107.446595 
L 340.239491 108.65503 
L 340.202301 107.262962 
L 340.165099 109.013152 
L 340.127885 109.095244 
L 340.090658 108.17331 
L 340.05342 110.952058 
L 339.978909 110.775861 
L 339.904356 110.626088 
L 339.717794 105.667385 
L 339.680447 106.78841 
L 339.643086 106.14664 
L 339.605711 105.035305 
L 339.56832 106.169573 
L 339.530913 105.597952 
L 339.493489 105.36458 
L 339.456046 105.704624 
L 339.381099 105.460135 
L 339.306065 106.832915 
L 339.155708 103.967124 
L 339.118051 104.39159 
L 338.739749 113.502549 
L 338.701751 111.81224 
L 338.396807 105.697798 
L 338.281985 107.204435 
L 338.24365 106.448531 
L 337.974454 113.949725 
L 337.935888 113.473896 
L 337.781395 109.423485 
L 337.742718 110.428592 
L 337.70402 109.190032 
L 337.665303 110.201209 
L 337.58781 110.009529 
L 337.549036 108.224495 
L 337.510244 108.901252 
L 337.471433 109.918833 
L 337.432605 108.743659 
L 337.39376 108.673701 
L 337.31602 108.548758 
L 337.160366 117.114968 
L 337.004563 109.302965 
L 336.926631 109.042217 
L 336.88766 110.049676 
L 336.848685 108.823462 
L 336.809708 109.83654 
L 336.770729 107.036085 
L 336.692764 108.011593 
L 336.653778 108.075594 
L 336.614791 107.126504 
L 336.575801 108.184504 
L 336.536808 108.230425 
L 336.497813 105.76778 
L 336.419813 107.010715 
L 336.380807 106.195065 
L 336.341796 106.313149 
L 336.30278 107.389763 
L 336.263759 105.0878 
L 336.224732 107.730558 
L 336.185698 106.259724 
L 336.107607 105.181506 
L 336.068548 105.45071 
L 336.029479 105.699246 
L 335.990398 105.034181 
L 335.873085 109.532715 
L 335.833957 109.436775 
L 335.716508 109.19188 
L 335.559763 106.293058 
L 335.520552 106.379589 
L 335.402853 107.591225 
L 335.363598 106.648741 
L 335.324332 109.436934 
L 335.245767 108.130022 
L 335.16716 107.968844 
L 335.127842 108.989567 
L 335.088515 106.24897 
L 335.049177 109.012313 
L 335.009831 109.603489 
L 334.970475 109.369594 
L 334.812973 107.353271 
L 334.773578 108.387889 
L 334.734175 107.300343 
L 334.694765 108.335664 
L 334.655346 107.251737 
L 334.61592 108.28764 
L 334.537045 108.243095 
L 334.418675 107.125048 
L 334.379204 108.805052 
L 334.339725 107.991806 
L 334.260747 106.933569 
L 334.181739 106.919034 
L 334.063174 111.590596 
L 334.023641 109.949338 
L 333.984102 110.896603 
L 333.905017 112.255355 
L 333.825929 112.014691 
L 333.746853 117.379302 
L 333.588802 113.756204 
L 333.391567 109.767481 
L 333.273457 107.462408 
L 333.234128 107.376691 
L 332.920142 102.892281 
L 332.841772 104.293398 
L 332.802597 103.664508 
L 332.763428 103.882794 
L 332.567621 108.630545 
L 332.528465 108.5111 
L 332.489311 108.401604 
L 332.450159 107.192804 
L 332.411008 108.208627 
L 332.332713 109.759795 
L 332.293569 108.326914 
L 332.254429 108.125916 
L 332.215292 109.111815 
L 332.176159 107.77722 
L 332.13703 108.772922 
L 332.058784 107.361224 
L 331.785126 116.782504 
L 331.66803 112.288522 
L 331.629035 113.121007 
L 331.317915 108.389072 
L 331.27914 109.356605 
L 331.201671 108.910859 
L 331.162977 107.551967 
L 331.085672 108.384864 
L 331.04706 108.239803 
L 330.892882 106.663851 
L 330.777529 109.070675 
L 330.739131 105.950399 
L 330.662416 107.444986 
L 330.585807 107.120006 
L 330.547543 110.098196 
L 330.471095 108.222112 
L 330.394757 107.738532 
L 330.35663 105.818688 
L 330.318529 106.853181 
L 330.166389 110.108207 
L 330.052558 105.841427 
L 330.014665 105.893446 
L 329.976794 104.926012 
L 329.938947 107.727688 
L 329.863317 106.38229 
L 329.825534 106.286923 
L 329.787772 105.593991 
L 329.750029 106.267319 
L 329.712306 109.193286 
L 329.636918 107.473744 
L 329.599252 108.452043 
L 329.561606 107.077335 
L 329.48637 106.74979 
L 329.336103 104.437657 
L 329.298572 105.158815 
L 329.223547 107.831375 
L 329.148569 107.537038 
L 328.998736 105.977522 
L 328.923874 110.7555 
L 328.886456 108.215754 
L 328.736858 105.099388 
L 328.624709 107.92376 
L 328.662089 105.070577 
L 328.587331 106.579407 
L 328.512579 104.768189 
L 328.363065 109.124749 
L 328.213519 106.354738 
L 328.063902 106.177224 
L 327.914148 103.676649 
L 327.689071 108.12272 
L 327.500982 103.907288 
L 327.463298 104.045362 
L 327.425587 103.209042 
L 327.350079 103.413773 
L 327.160747 107.936678 
L 326.932365 102.598 
L 326.779259 104.57789 
L 326.625347 102.533495 
L 326.586729 102.672547 
L 326.509314 107.187053 
L 326.431656 106.836269 
L 326.197169 102.285386 
L 326.157854 102.432084 
L 325.920358 99.8176 
L 325.880481 100.960672 
L 325.80045 100.243457 
L 325.679663 101.647987 
L 325.639193 100.480259 
L 325.598615 101.606455 
L 325.476209 102.742734 
L 325.394028 103.899123 
L 325.228234 102.604517 
L 325.186478 102.781504 
L 325.144595 102.005795 
L 325.102584 103.091508 
L 325.060443 102.271209 
L 325.018171 102.386284 
L 324.975765 101.068204 
L 324.847734 103.855946 
L 324.804781 103.920747 
L 324.718455 104.030612 
L 324.675079 101.583495 
L 324.63156 102.675055 
L 324.587894 101.88746 
L 324.544082 102.019702 
L 324.50012 100.732894 
L 324.456008 101.843068 
L 324.322753 105.286389 
L 324.278027 103.517203 
L 324.142907 101.491936 
L 324.052027 101.780404 
L 324.006343 101.378166 
L 323.960492 99.417653 
L 323.868284 99.996884 
L 323.72867 100.332681 
L 323.681775 102.061577 
L 323.587442 101.460225 
L 323.540001 101.597575 
L 323.348382 104.525322 
L 323.300011 103.417144 
L 323.202712 106.79527 
L 323.153785 106.421698 
L 323.005904 104.030516 
L 322.7558 107.790773 
L 322.705243 104.279681 
L 322.654511 105.277346 
L 322.552518 105.022211 
L 322.449824 103.091473 
L 322.294474 105.344017 
L 322.190043 106.790903 
L 322.137572 106.378132 
L 321.979158 105.376598 
L 321.819265 103.051176 
L 321.765642 104.074564 
L 321.711857 101.387944 
L 321.65791 102.455002 
L 321.6038 101.555169 
L 321.549526 102.61683 
L 321.49509 101.689525 
L 321.330793 98.872129 
L 321.275692 99.217201 
L 321.109357 98.182655 
L 321.05356 98.497258 
L 320.941432 101.222866 
L 320.885098 99.08095 
L 320.828583 99.325466 
L 320.657943 100.85446 
L 320.600695 101.038534 
L 320.543262 100.276699 
L 320.485644 100.420459 
L 320.42784 102.074222 
L 320.369852 100.540424 
L 320.311678 101.615673 
L 320.253319 100.764506 
L 320.077129 102.009498 
L 319.958741 99.315682 
L 319.899266 99.595114 
L 319.839603 98.982365 
L 319.477668 105.813354 
L 319.23271 103.028271 
L 319.171028 102.272674 
L 319.10917 102.919073 
L 318.922556 101.205156 
L 318.734402 103.736301 
L 318.671349 103.615871 
L 318.544748 102.297124 
L 318.481203 102.206374 
L 318.417497 103.21723 
L 318.353632 103.13448 
L 318.289608 101.372434 
L 318.225426 101.446821 
L 318.09659 101.571908 
L 318.031939 103.346191 
L 317.967133 102.13179 
L 317.902175 102.037252 
L 317.837066 103.046683 
L 317.771807 102.960557 
L 317.706401 102.8802 
L 317.509315 106.263986 
L 317.443339 105.841142 
L 317.310982 102.21677 
L 317.244604 103.214508 
L 317.178095 103.093176 
L 316.910785 100.139214 
L 316.843645 100.187511 
L 316.776381 101.237082 
L 316.641485 98.940854 
L 316.573854 99.079387 
L 316.5061 99.204962 
L 316.370228 100.386628 
L 316.302111 100.485768 
L 316.233874 98.160724 
L 316.097042 102.567996 
L 315.959743 101.280518 
L 315.890923 104.178599 
L 315.821993 102.711703 
L 315.752955 104.406485 
L 315.683813 104.003797 
L 315.614569 103.642052 
L 315.545226 104.575522 
L 315.406253 101.147608 
L 315.336627 102.156039 
L 315.266909 102.070181 
L 315.127205 99.385567 
L 315.05722 99.444006 
L 314.987147 98.944325 
L 314.846741 99.704481 
L 314.77641 99.166096 
L 314.705993 100.916947 
L 314.635493 99.888357 
L 314.494248 100.924119 
L 314.423504 100.921898 
L 314.281783 99.871208 
L 314.139758 99.852309 
L 314.068634 99.267143 
L 313.926163 95.935462 
L 313.64031 99.077928 
L 313.568658 99.204697 
L 313.49693 97.826404 
L 313.425127 98.045947 
L 313.353247 98.247079 
L 313.281292 97.514545 
L 313.064978 101.978895 
L 312.992729 101.834732 
L 312.848025 101.579023 
L 312.775575 100.356071 
L 312.703061 101.359869 
L 312.630484 101.261811 
L 312.485153 101.085138 
L 312.4124 98.337077 
L 312.339591 98.403088 
L 312.193804 99.512484 
L 312.047797 97.247625 
L 311.974711 98.327419 
L 311.90157 96.134157 
L 311.828373 98.731413 
L 311.755121 96.445196 
L 311.681812 97.541704 
L 311.535029 101.053349 
L 311.461557 100.945647 
L 311.388034 100.845544 
L 311.240837 98.120962 
L 311.167165 98.170569 
L 311.093444 97.660166 
L 311.019673 95.538764 
L 310.871983 98.243472 
L 310.798064 97.398186 
L 310.724095 97.494803 
L 310.576013 100.164375 
L 310.501903 99.034599 
L 310.427749 100.052934 
L 310.353551 100.001161 
L 310.205029 99.904339 
L 310.130709 98.793784 
L 310.05635 101.649285 
L 309.981956 100.261611 
L 309.833067 101.762843 
L 309.758579 101.42077 
L 309.684064 104.542167 
L 309.460393 100.214553 
L 309.385799 99.377284 
L 309.31119 99.992973 
L 309.236569 101.680035 
L 309.161936 101.324596 
L 309.087296 102.258466 
L 309.01265 101.947522 
L 308.938001 98.700999 
L 308.788699 102.067862 
L 308.714052 101.653507 
L 308.639411 101.281377 
L 308.564779 102.210617 
L 308.490158 101.885615 
L 308.415552 102.342454 
L 308.191842 100.568771 
L 308.042809 97.023488 
L 307.968325 96.208859 
L 307.893862 97.278646 
L 307.81942 96.423316 
L 307.744999 98.075477 
L 307.6706 98.022647 
L 307.521871 97.924036 
L 307.298948 94.680255 
L 307.22468 94.124948 
L 306.927764 97.30712 
L 306.853569 97.386714 
L 306.779387 95.922096 
L 306.705216 97.664204 
L 306.408637 94.275585 
L 306.334511 95.378882 
L 306.260388 94.698476 
L 306.112151 99.103019 
L 306.038038 97.898851 
L 305.963929 97.808013 
L 305.889825 98.81622 
L 305.815726 98.73305 
L 305.667546 95.92446 
L 305.593464 96.981201 
L 305.519387 97.04928 
L 305.445314 96.11274 
L 305.223121 98.675557 
L 305.149068 97.489192 
L 305.075021 99.163634 
L 305.000982 98.918707 
L 304.926952 98.695692 
L 304.852932 99.66666 
L 304.778923 99.468616 
L 304.704926 96.468927 
L 304.630941 97.502348 
L 304.483002 97.490731 
L 304.335106 96.430175 
L 304.261173 96.417984 
L 304.039437 99.598678 
L 303.89168 98.976516 
L 303.817824 98.044228 
L 303.743984 95.299908 
L 303.670157 95.366705 
L 303.596345 98.12324 
L 303.522546 98.03033 
L 303.374993 99.566943 
L 303.301241 98.139113 
L 303.227506 99.10985 
L 303.153788 98.910902 
L 303.080089 99.433848 
L 303.00641 99.089207 
L 302.932752 96.98467 
L 302.859116 97.986261 
L 302.638319 92.566594 
L 302.344096 95.615269 
L 302.270558 96.296482 
L 302.049964 94.804404 
L 301.902906 97.627108 
L 301.755839 93.41332 
L 301.682298 94.498883 
L 301.535186 92.474856 
L 301.388016 93.803175 
L 301.3144 92.604573 
L 301.240758 92.894138 
L 301.167088 92.300245 
L 301.093385 92.53201 
L 300.94587 92.939167 
L 300.872052 95.581396 
L 300.798191 94.623723 
L 300.576346 97.847653 
L 300.50231 97.577094 
L 300.428232 98.534747 
L 300.354111 97.10754 
L 300.279948 98.078264 
L 300.205743 97.879522 
L 300.131496 97.697635 
L 299.982874 96.243389 
L 299.83408 95.98654 
L 299.759617 95.262168 
L 299.685108 97.034451 
L 299.4613 94.137815 
L 299.237046 99.174169 
L 299.087302 98.29654 
L 299.012362 99.213981 
L 298.71215 93.709286 
L 298.486485 93.847748 
L 298.033688 99.345677 
L 297.958036 98.93359 
L 297.882334 97.293023 
L 297.730784 99.873233 
L 297.654938 96.13735 
L 297.579046 97.826636 
L 297.503108 97.447973 
L 297.427125 96.416868 
L 297.198906 101.968327 
L 297.122749 97.575147 
L 297.046553 99.2861 
L 296.817732 93.968275 
L 296.664974 94.087462 
L 296.588525 93.132697 
L 296.512026 93.171051 
L 296.435475 94.829848 
L 296.358872 94.712224 
L 296.282216 94.603062 
L 296.205504 95.605438 
L 296.051908 92.862555 
L 295.898066 92.946945 
L 295.821045 92.423721 
L 295.666792 94.807888 
L 295.512249 94.536657 
L 295.357406 94.304251 
L 295.279869 93.594206 
L 295.202252 95.363518 
L 295.124553 93.542145 
L 295.04677 93.591287 
L 294.968901 94.245667 
L 294.890944 94.134405 
L 294.812899 97.047443 
L 294.734766 96.759471 
L 294.656544 95.296454 
L 294.578234 96.260308 
L 294.421343 93.003924 
L 294.342759 94.032488 
L 294.106424 91.006983 
L 294.027438 91.22839 
L 293.948342 91.431107 
L 293.789801 93.214237 
L 293.710353 93.251229 
L 293.55108 90.415172 
L 293.471246 90.665603 
L 293.391274 90.011443 
L 293.31116 90.209499 
L 293.150487 90.554922 
L 292.989188 88.294992 
L 292.827217 89.729431 
L 292.664523 87.044442 
L 292.582887 88.197501 
L 292.501048 87.79292 
L 292.418999 86.93686 
L 292.254242 88.47082 
L 292.17152 88.824386 
L 292.08856 90.533351 
L 291.921909 88.779054 
L 291.838205 89.029387 
L 291.754243 88.774767 
L 291.670014 89.09546 
L 291.585515 88.552717 
L 291.415685 91.253211 
L 291.24472 89.133007 
L 291.072586 90.429386 
L 290.98607 89.698348 
L 290.899249 89.853887 
L 290.812119 89.99476 
L 290.636918 91.189156 
L 290.460441 91.399144 
L 290.371716 90.51256 
L 290.282663 91.566303 
L 290.103558 89.374404 
L 289.923097 91.031635 
L 289.832352 90.48464 
L 289.741259 89.17093 
L 289.649812 89.411507 
L 289.558007 88.252378 
L 289.465837 88.553681 
L 289.373298 87.981837 
L 289.280385 88.222547 
L 289.187091 87.956405 
L 289.093411 86.218452 
L 288.999337 86.57486 
L 288.904863 85.714655 
L 288.714683 87.239948 
L 288.618965 86.787891 
L 288.522819 87.912274 
L 288.42624 86.91224 
L 288.329222 88.607911 
L 288.23176 87.980689 
L 288.133849 89.074993 
L 288.035487 88.381782 
L 287.93667 91.010819 
L 287.737661 88.616576 
L 287.435673 92.054848 
L 287.334079 91.895073 
L 287.129491 91.140751 
L 287.026495 91.149025 
L 286.819087 88.750981 
L 286.609774 89.91886 
L 286.398538 90.096854 
L 286.292194 89.189495 
L 286.185364 89.247827 
L 286.078047 91.990281 
L 285.861951 90.703223 
L 285.753174 93.579107 
L 285.643912 92.115017 
L 285.534166 93.069564 
L 285.313228 89.947516 
L 285.202033 90.961835 
L 284.978193 88.302181 
L 284.752406 89.444537 
L 284.524659 89.590016 
L 284.410048 88.660155 
L 284.063263 92.904461 
L 283.946692 92.644611 
L 283.829635 91.228019 
L 283.712094 92.187799 
L 283.594072 91.986307 
L 283.475571 93.788628 
L 283.356593 92.151966 
L 283.237143 95.249909 
L 283.117224 93.334425 
L 282.876003 98.488387 
L 282.754713 97.513423 
L 282.632978 92.930632 
L 282.510801 93.819426 
L 282.388187 95.669395 
L 282.265141 93.616483 
L 282.141668 94.475779 
L 282.017771 90.716845 
L 281.893452 91.670588 
L 281.768713 91.455521 
L 281.643557 90.105429 
L 281.517985 91.073414 
L 281.265601 90.744583 
L 281.011567 87.309931 
L 280.755873 87.57429 
L 280.627399 85.338183 
L 280.498504 87.92275 
L 280.369186 87.024171 
L 280.239446 88.658828 
L 280.109284 88.572427 
L 279.978703 89.567844 
L 279.847701 88.410026 
L 279.716281 89.407171 
L 279.584444 89.331241 
L 279.45219 89.909759 
L 279.319523 89.033459 
L 279.186442 88.9782 
L 279.052948 87.865804 
L 278.919042 87.812252 
L 278.784724 88.816073 
L 278.649996 87.706523 
L 278.514858 87.654242 
L 278.243355 90.424374 
L 278.106994 90.203003 
L 277.970229 87.177753 
L 277.69549 89.949428 
L 277.557519 88.609077 
L 277.41915 88.4377 
L 277.280385 87.6595 
L 277.001663 87.656465 
L 276.861707 86.622733 
L 276.721355 88.262507 
L 276.580609 87.474934 
L 276.297939 89.060726 
L 276.013717 92.672244 
L 275.871035 90.761156 
L 275.727981 93.983703 
L 275.44078 89.200476 
L 275.296642 90.122881 
L 275.152149 89.826238 
L 275.007307 90.286136 
L 274.86212 89.849846 
L 274.716592 90.743499 
L 274.277998 86.862763 
L 274.131136 86.745136 
L 273.688562 85.10285 
L 273.391844 83.78657 
L 273.242976 82.529577 
L 273.093764 83.611476 
L 272.794291 81.777794 
L 272.644021 84.297037 
L 272.493391 83.508757 
L 272.342398 83.62322 
L 272.191041 84.670953 
L 272.039317 83.812919 
L 271.887225 84.85302 
L 271.734761 82.533989 
L 271.581922 82.702885 
L 271.428704 83.765902 
L 271.121115 81.857501 
L 270.966734 82.936103 
L 270.811957 83.133112 
L 270.188792 80.378888 
L 269.8747 83.040508 
L 269.717012 82.2872 
L 269.55889 83.342934 
L 269.400332 82.536521 
L 269.081902 85.157144 
L 268.922029 84.079885 
L 268.600965 83.998925 
L 268.439774 84.999551 
L 268.278142 84.956333 
L 268.11607 83.866955 
L 267.953559 85.502219 
L 267.790612 88.454813 
L 267.627232 88.052728 
L 267.463425 89.87455 
L 267.299196 87.92272 
L 267.13455 87.444413 
L 266.969493 88.321552 
L 266.804027 84.783889 
L 266.471874 86.259577 
L 265.970642 85.346946 
L 265.802773 84.441285 
L 265.634511 84.363916 
L 265.465852 81.676035 
L 265.296794 82.706429 
L 265.127335 82.76222 
L 264.957471 80.382826 
L 264.787198 82.988814 
L 264.616515 82.003024 
L 264.445419 82.009412 
L 264.101984 83.636267 
L 263.929644 81.858833 
L 263.756886 81.856587 
L 263.41012 85.127981 
L 263.236116 84.801213 
L 263.061702 85.718004 
L 262.88688 85.425839 
L 262.711653 83.971587 
L 262.536023 86.948301 
L 262.359995 86.506872 
L 262.183573 86.886262 
L 262.006763 87.717524 
L 261.829571 87.168572 
L 261.652 85.350002 
L 260.938006 83.893803 
L 260.758594 83.603315 
L 260.57882 84.528885 
L 260.398687 83.088142 
L 259.85614 82.446331 
L 259.674577 83.397141 
L 259.492657 82.085641 
L 259.31038 83.043161 
L 259.127748 84.812964 
L 258.944762 83.24048 
L 258.761424 82.944515 
L 258.577736 83.867568 
L 258.209314 83.354897 
L 258.024581 83.834532 
L 257.468332 82.758854 
L 257.282235 81.796362 
L 257.095798 81.683678 
L 256.909019 83.440426 
L 256.7219 81.966387 
L 256.53444 81.718969 
L 256.346639 82.654592 
L 256.158499 82.429819 
L 255.970018 84.207447 
L 255.592048 83.448914 
L 255.402562 83.867371 
L 255.212746 84.718035 
L 255.022604 84.23642 
L 254.832138 82.514017 
L 254.641352 85.617453 
L 254.45025 85.009442 
L 254.067121 88.759408 
L 253.875109 87.718372 
L 253.682811 87.793804 
L 253.490236 86.721186 
L 253.297393 88.461527 
L 253.104292 89.087636 
L 252.717351 86.965846 
L 252.523526 88.884478 
L 252.329477 86.040963 
L 252.135211 87.775739 
L 251.940739 88.414954 
L 251.551208 86.362482 
L 251.356162 88.274856 
L 250.965551 86.205352 
L 250.574284 82.35321 
L 250.37841 80.687245 
L 250.182375 80.34267 
L 249.986182 81.999448 
L 249.593322 81.045132 
L 249.396658 81.921185 
L 249.199837 81.521222 
L 249.002858 79.915581 
L 248.805721 80.822076 
L 248.60842 78.653467 
L 248.213306 78.445586 
L 248.015479 77.274139 
L 247.817463 77.179221 
L 247.61925 76.499609 
L 247.420827 74.144762 
L 247.023297 74.422329 
L 246.824163 75.462815 
L 246.624765 74.637497 
L 246.425093 77.281138 
L 246.225137 77.229147 
L 245.824333 74.685364 
L 245.623459 75.708452 
L 245.220707 75.811382 
L 245.018805 74.864656 
L 244.816537 75.875522 
L 244.613891 75.894833 
L 244.207418 74.354483 
L 244.003562 73.553102 
L 243.799272 72.277131 
L 243.594528 73.339739 
L 243.389315 73.52411 
L 243.183615 75.215239 
L 242.977416 73.706268 
L 242.770701 74.399025 
L 242.563462 76.011618 
L 241.93851 75.564597 
L 241.729087 76.5246 
L 241.519095 75.298768 
L 241.308525 75.173663 
L 241.097366 73.475921 
L 240.673224 73.509087 
L 240.460214 74.512222 
L 240.24656 73.512386 
L 240.032248 74.511092 
L 239.601586 72.114521 
L 239.168094 72.276039 
L 238.950244 73.295701 
L 238.071117 73.464564 
L 237.849325 72.491904 
L 236.953661 72.470037 
L 236.727547 73.462003 
L 236.500524 72.423076 
L 236.272578 72.392143 
L 236.043693 70.86402 
L 235.813848 71.887676 
L 235.583025 71.018393 
L 235.118375 71.12295 
L 234.884509 69.734058 
L 234.413587 69.994034 
L 234.176489 71.022612 
L 233.938273 70.189485 
L 233.698918 70.265609 
L 233.458408 71.856521 
L 233.216728 71.778307 
L 232.973866 73.386441 
L 232.729811 71.478017 
L 232.484547 72.450626 
L 232.238059 72.381327 
L 231.990332 71.267223 
L 231.741352 72.237297 
L 231.491101 69.595292 
L 231.239555 69.118471 
L 230.476909 69.55016 
L 230.219943 67.376079 
L 229.961557 68.424455 
L 229.701726 68.603283 
L 229.440421 67.378987 
L 228.913268 67.834436 
L 228.647364 67.161819 
L 228.379868 66.021901 
L 228.110751 66.254958 
L 227.83998 67.307769 
L 227.567524 65.382719 
L 227.293354 67.815549 
L 226.739759 68.096373 
L 226.460284 67.293525 
L 226.178991 68.305526 
L 225.895857 67.449588 
L 225.61086 70.065031 
L 224.744523 69.809895 
L 224.451901 68.102211 
L 224.157326 68.726963 
L 223.860778 68.621425 
L 223.56224 66.979432 
L 223.261687 67.967714 
L 222.959093 66.480065 
L 222.654432 65.707132 
L 222.347675 65.804644 
L 222.038795 66.808674 
L 221.727767 66.884375 
L 221.414565 66.002294 
L 221.099168 68.615357 
L 220.781555 67.46345 
L 220.46171 68.406911 
L 220.139611 65.722664 
L 219.815232 65.744112 
L 219.48855 66.721797 
L 219.15954 65.752821 
L 218.828179 66.722872 
L 218.494442 65.72105 
L 218.158307 66.684317 
L 217.819751 65.654257 
L 217.478751 65.609237 
L 217.135284 66.563686 
L 216.789327 66.509009 
L 216.440854 64.875631 
L 216.089833 62.631599 
L 215.736228 63.643746 
L 215.02113 63.89309 
L 214.659567 61.742316 
L 214.29528 63.272122 
L 213.185776 63.352753 
L 212.810296 64.316026 
L 212.431941 62.807499 
L 212.050676 62.011527 
L 211.666471 63.545452 
L 211.279295 62.92989 
L 210.889114 62.064845 
L 210.495892 60.724324 
L 210.099588 60.84914 
L 209.700167 62.373156 
L 209.297599 62.346044 
L 208.891855 63.290247 
L 208.482904 63.249028 
L 208.070718 62.205402 
L 207.655267 62.140933 
L 207.236522 63.071199 
L 206.389036 62.913366 
L 205.960242 64.564968 
L 205.092445 64.070306 
L 204.653394 61.122551 
L 204.210875 62.653434 
L 203.764863 63.527109 
L 203.315336 62.194246 
L 202.86227 63.0698 
L 202.405641 62.849164 
L 201.945418 60.946408 
L 201.481568 59.890421 
L 201.014056 59.810843 
L 200.542851 61.331236 
L 200.067928 61.093514 
L 199.589265 62.629517 
L 198.620649 61.855447 
L 198.130658 62.679677 
L 197.63685 62.32742 
L 197.139196 59.161137 
L 196.637661 59.003496 
L 196.132206 57.322919 
L 195.622785 58.243074 
L 195.109351 57.23963 
L 194.591858 57.179633 
L 194.070255 56.569436 
L 193.544492 57.160526 
L 193.014529 58.659902 
L 192.480326 57.805178 
L 191.941837 57.702958 
L 191.399011 55.123229 
L 190.851782 53.759475 
L 190.300077 53.363991 
L 189.743816 53.534274 
L 189.182912 52.385591 
L 188.61728 51.804316 
L 188.046826 50.769139 
L 187.471461 52.210983 
L 186.891104 52.311865 
L 186.305676 53.248877 
L 185.715099 53.318196 
L 185.119292 51.170262 
L 184.518167 52.113565 
L 183.911637 51.36558 
L 183.299611 50.151651 
L 182.681992 51.097664 
L 182.058686 50.388464 
L 181.429591 49.216335 
L 180.794596 48.916112 
L 180.153576 47.234751 
L 179.506404 47.475786 
L 178.852961 48.888134 
L 178.193149 51.211845 
L 177.526877 51.198007 
L 176.17456 48.450079 
L 174.795118 48.678411 
L 174.094938 47.907255 
L 173.387636 48.802093 
L 172.673103 47.953137 
L 171.951229 47.942886 
L 171.221897 46.585587 
L 168.987924 46.657479 
L 167.459078 46.59313 
L 166.682436 47.441568 
L 165.897489 47.371337 
L 165.104109 45.835374 
L 164.302158 44.96941 
L 163.491498 44.935727 
L 162.671991 45.776247 
L 161.8435 44.804929 
L 160.159019 44.59675 
L 159.302743 43.086588 
L 158.436901 43.045684 
L 157.561333 43.870364 
L 154.874666 43.590908 
L 153.958589 42.525126 
L 153.03198 42.365109 
L 152.094679 43.140144 
L 151.146531 43.537619 
L 150.187384 41.659508 
L 149.217083 44.068789 
L 148.235478 42.644998 
L 147.242409 40.736168 
L 146.237706 43.140881 
L 139.956011 40.836612 
L 138.865156 37.833155 
L 137.76119 37.035147 
L 136.643856 37.427367 
L 135.512913 38.117767 
L 134.368096 36.263581 
L 133.209122 35.14756 
L 132.035713 36.413805 
L 129.644553 35.666305 
L 128.426289 38.079204 
L 127.192601 38.219146 
L 123.396904 36.126987 
L 122.099361 36.666624 
L 120.785241 36.010375 
L 119.45427 34.198862 
L 115.357242 32.369016 
L 113.95578 32.903358 
L 112.53587 34.250628 
L 111.09719 33.462055 
L 109.639376 29.721593 
L 108.162009 30.249762 
L 106.664673 30.346102 
L 105.146968 29.615575 
L 103.608475 30.079885 
L 102.048751 28.192922 
L 100.467323 28.653563 
L 97.237338 27.260857 
L 95.587737 27.263057 
L 93.91439 26.405186 
L 92.216805 27.547392 
L 90.494502 27.869402 
L 86.973637 25.859282 
L 85.173957 25.683413 
L 81.493595 27.964625 
L 79.612046 28.065717 
L 77.702288 24.880342 
L 75.763768 25.039136 
L 73.795909 26.325585 
L 73.795909 26.325585 
" clip-path="url(#p4712abe8a2)" style="fill: none; stroke: #1f77b4; stroke-width: 1.5; stroke-linecap: square"/>
   </g>
   <g id="line2d_38">
    <path d="M 387.514091 126.089569 
L 73.795909 16.664162 
L 73.795909 16.664162 
" clip-path="url(#p4712abe8a2)" style="fill: none; stroke: #ff7f0e; stroke-width: 1.5; stroke-linecap: square"/>
   </g>
   <g id="patch_3">
    <path d="M 58.11 139.811562 
L 58.11 10.8 
" style="fill: none; stroke: #000000; stroke-width: 0.8; stroke-linejoin: miter; stroke-linecap: square"/>
   </g>
   <g id="patch_4">
    <path d="M 403.2 139.811562 
L 403.2 10.8 
" style="fill: none; stroke: #000000; stroke-width: 0.8; stroke-linejoin: miter; stroke-linecap: square"/>
   </g>
   <g id="patch_5">
    <path d="M 58.11 139.811563 
L 403.2 139.811563 
" style="fill: none; stroke: #000000; stroke-width: 0.8; stroke-linejoin: miter; stroke-linecap: square"/>
   </g>
   <g id="patch_6">
    <path d="M 58.11 10.8 
L 403.2 10.8 
" style="fill: none; stroke: #000000; stroke-width: 0.8; stroke-linejoin: miter; stroke-linecap: square"/>
   </g>
   <g id="legend_1">
    <g id="patch_7">
     <path d="M 314.87625 44.420625 
L 396.9 44.420625 
Q 398.7 44.420625 398.7 42.620625 
L 398.7 17.1 
Q 398.7 15.3 396.9 15.3 
L 314.87625 15.3 
Q 313.07625 15.3 313.07625 17.1 
L 313.07625 42.620625 
Q 313.07625 44.420625 314.87625 44.420625 
z
" style="fill: #ffffff; opacity: 0.8; stroke: #cccccc; stroke-linejoin: miter"/>
    </g>
    <g id="line2d_39">
     <path d="M 316.67625 22.588594 
L 325.67625 22.588594 
L 334.67625 22.588594 
" style="fill: none; stroke: #1f77b4; stroke-width: 1.5; stroke-linecap: square"/>
    </g>
    <g id="text_13">
     <!-- Stochastic -->
     <g transform="translate(341.87625 25.738594) scale(0.09 -0.09)">
      <defs>
       <path id="DejaVuSans-53" d="M 3425 4513 
L 3425 3897 
Q 3066 4069 2747 4153 
Q 2428 4238 2131 4238 
Q 1616 4238 1336 4038 
Q 1056 3838 1056 3469 
Q 1056 3159 1242 3001 
Q 1428 2844 1947 2747 
L 2328 2669 
Q 3034 2534 3370 2195 
Q 3706 1856 3706 1288 
Q 3706 609 3251 259 
Q 2797 -91 1919 -91 
Q 1588 -91 1214 -16 
Q 841 59 441 206 
L 441 856 
Q 825 641 1194 531 
Q 1563 422 1919 422 
Q 2459 422 2753 634 
Q 3047 847 3047 1241 
Q 3047 1584 2836 1778 
Q 2625 1972 2144 2069 
L 1759 2144 
Q 1053 2284 737 2584 
Q 422 2884 422 3419 
Q 422 4038 858 4394 
Q 1294 4750 2059 4750 
Q 2388 4750 2728 4690 
Q 3069 4631 3425 4513 
z
" transform="scale(0.015625)"/>
       <path id="DejaVuSans-6f" d="M 1959 3097 
Q 1497 3097 1228 2736 
Q 959 2375 959 1747 
Q 959 1119 1226 758 
Q 1494 397 1959 397 
Q 2419 397 2687 759 
Q 2956 1122 2956 1747 
Q 2956 2369 2687 2733 
Q 2419 3097 1959 3097 
z
M 1959 3584 
Q 2709 3584 3137 3096 
Q 3566 2609 3566 1747 
Q 3566 888 3137 398 
Q 2709 -91 1959 -91 
Q 1206 -91 779 398 
Q 353 888 353 1747 
Q 353 2609 779 3096 
Q 1206 3584 1959 3584 
z
" transform="scale(0.015625)"/>
       <path id="DejaVuSans-63" d="M 3122 3366 
L 3122 2828 
Q 2878 2963 2633 3030 
Q 2388 3097 2138 3097 
Q 1578 3097 1268 2742 
Q 959 2388 959 1747 
Q 959 1106 1268 751 
Q 1578 397 2138 397 
Q 2388 397 2633 464 
Q 2878 531 3122 666 
L 3122 134 
Q 2881 22 2623 -34 
Q 2366 -91 2075 -91 
Q 1284 -91 818 406 
Q 353 903 353 1747 
Q 353 2603 823 3093 
Q 1294 3584 2113 3584 
Q 2378 3584 2631 3529 
Q 2884 3475 3122 3366 
z
" transform="scale(0.015625)"/>
       <path id="DejaVuSans-68" d="M 3513 2113 
L 3513 0 
L 2938 0 
L 2938 2094 
Q 2938 2591 2744 2837 
Q 2550 3084 2163 3084 
Q 1697 3084 1428 2787 
Q 1159 2491 1159 1978 
L 1159 0 
L 581 0 
L 581 4863 
L 1159 4863 
L 1159 2956 
Q 1366 3272 1645 3428 
Q 1925 3584 2291 3584 
Q 2894 3584 3203 3211 
Q 3513 2838 3513 2113 
z
" transform="scale(0.015625)"/>
       <path id="DejaVuSans-61" d="M 2194 1759 
Q 1497 1759 1228 1600 
Q 959 1441 959 1056 
Q 959 750 1161 570 
Q 1363 391 1709 391 
Q 2188 391 2477 730 
Q 2766 1069 2766 1631 
L 2766 1759 
L 2194 1759 
z
M 3341 1997 
L 3341 0 
L 2766 0 
L 2766 531 
Q 2569 213 2275 61 
Q 1981 -91 1556 -91 
Q 1019 -91 701 211 
Q 384 513 384 1019 
Q 384 1609 779 1909 
Q 1175 2209 1959 2209 
L 2766 2209 
L 2766 2266 
Q 2766 2663 2505 2880 
Q 2244 3097 1772 3097 
Q 1472 3097 1187 3025 
Q 903 2953 641 2809 
L 641 3341 
Q 956 3463 1253 3523 
Q 1550 3584 1831 3584 
Q 2591 3584 2966 3190 
Q 3341 2797 3341 1997 
z
" transform="scale(0.015625)"/>
       <path id="DejaVuSans-73" d="M 2834 3397 
L 2834 2853 
Q 2591 2978 2328 3040 
Q 2066 3103 1784 3103 
Q 1356 3103 1142 2972 
Q 928 2841 928 2578 
Q 928 2378 1081 2264 
Q 1234 2150 1697 2047 
L 1894 2003 
Q 2506 1872 2764 1633 
Q 3022 1394 3022 966 
Q 3022 478 2636 193 
Q 2250 -91 1575 -91 
Q 1294 -91 989 -36 
Q 684 19 347 128 
L 347 722 
Q 666 556 975 473 
Q 1284 391 1588 391 
Q 1994 391 2212 530 
Q 2431 669 2431 922 
Q 2431 1156 2273 1281 
Q 2116 1406 1581 1522 
L 1381 1569 
Q 847 1681 609 1914 
Q 372 2147 372 2553 
Q 372 3047 722 3315 
Q 1072 3584 1716 3584 
Q 2034 3584 2315 3537 
Q 2597 3491 2834 3397 
z
" transform="scale(0.015625)"/>
      </defs>
      <use xlink:href="#DejaVuSans-53"/>
      <use xlink:href="#DejaVuSans-74" transform="translate(63.476562 0)"/>
      <use xlink:href="#DejaVuSans-6f" transform="translate(102.685547 0)"/>
      <use xlink:href="#DejaVuSans-63" transform="translate(163.867188 0)"/>
      <use xlink:href="#DejaVuSans-68" transform="translate(218.847656 0)"/>
      <use xlink:href="#DejaVuSans-61" transform="translate(282.226562 0)"/>
      <use xlink:href="#DejaVuSans-73" transform="translate(343.505859 0)"/>
      <use xlink:href="#DejaVuSans-74" transform="translate(395.605469 0)"/>
      <use xlink:href="#DejaVuSans-69" transform="translate(434.814453 0)"/>
      <use xlink:href="#DejaVuSans-63" transform="translate(462.597656 0)"/>
     </g>
    </g>
    <g id="line2d_40">
     <path d="M 316.67625 35.798906 
L 325.67625 35.798906 
L 334.67625 35.798906 
" style="fill: none; stroke: #ff7f0e; stroke-width: 1.5; stroke-linecap: square"/>
    </g>
    <g id="text_14">
     <!-- Exponential -->
     <g transform="translate(341.87625 38.948906) scale(0.09 -0.09)">
      <defs>
       <path id="DejaVuSans-45" d="M 628 4666 
L 3578 4666 
L 3578 4134 
L 1259 4134 
L 1259 2753 
L 3481 2753 
L 3481 2222 
L 1259 2222 
L 1259 531 
L 3634 531 
L 3634 0 
L 628 0 
L 628 4666 
z
" transform="scale(0.015625)"/>
       <path id="DejaVuSans-78" d="M 3513 3500 
L 2247 1797 
L 3578 0 
L 2900 0 
L 1881 1375 
L 863 0 
L 184 0 
L 1544 1831 
L 300 3500 
L 978 3500 
L 1906 2253 
L 2834 3500 
L 3513 3500 
z
" transform="scale(0.015625)"/>
       <path id="DejaVuSans-70" d="M 1159 525 
L 1159 -1331 
L 581 -1331 
L 581 3500 
L 1159 3500 
L 1159 2969 
Q 1341 3281 1617 3432 
Q 1894 3584 2278 3584 
Q 2916 3584 3314 3078 
Q 3713 2572 3713 1747 
Q 3713 922 3314 415 
Q 2916 -91 2278 -91 
Q 1894 -91 1617 61 
Q 1341 213 1159 525 
z
M 3116 1747 
Q 3116 2381 2855 2742 
Q 2594 3103 2138 3103 
Q 1681 3103 1420 2742 
Q 1159 2381 1159 1747 
Q 1159 1113 1420 752 
Q 1681 391 2138 391 
Q 2594 391 2855 752 
Q 3116 1113 3116 1747 
z
" transform="scale(0.015625)"/>
       <path id="DejaVuSans-6e" d="M 3513 2113 
L 3513 0 
L 2938 0 
L 2938 2094 
Q 2938 2591 2744 2837 
Q 2550 3084 2163 3084 
Q 1697 3084 1428 2787 
Q 1159 2491 1159 1978 
L 1159 0 
L 581 0 
L 581 3500 
L 1159 3500 
L 1159 2956 
Q 1366 3272 1645 3428 
Q 1925 3584 2291 3584 
Q 2894 3584 3203 3211 
Q 3513 2838 3513 2113 
z
" transform="scale(0.015625)"/>
      </defs>
      <use xlink:href="#DejaVuSans-45"/>
      <use xlink:href="#DejaVuSans-78" transform="translate(63.183594 0)"/>
      <use xlink:href="#DejaVuSans-70" transform="translate(122.363281 0)"/>
      <use xlink:href="#DejaVuSans-6f" transform="translate(185.839844 0)"/>
      <use xlink:href="#DejaVuSans-6e" transform="translate(247.021484 0)"/>
      <use xlink:href="#DejaVuSans-65" transform="translate(310.400391 0)"/>
      <use xlink:href="#DejaVuSans-6e" transform="translate(371.923828 0)"/>
      <use xlink:href="#DejaVuSans-74" transform="translate(435.302734 0)"/>
      <use xlink:href="#DejaVuSans-69" transform="translate(474.511719 0)"/>
      <use xlink:href="#DejaVuSans-61" transform="translate(502.294922 0)"/>
      <use xlink:href="#DejaVuSans-6c" transform="translate(563.574219 0)"/>
     </g>
    </g>
   </g>
  </g>
 </g>
 <defs>
  <clipPath id="p4712abe8a2">
   <rect x="58.11" y="10.8" width="345.09" height="129.011562"/>
  </clipPath>
 </defs>
</svg>
