<?xml version="1.0" encoding="utf-8" standalone="no"?>
<!DOCTYPE svg PUBLIC "-//W3C//DTD SVG 1.1//EN"
  "http://www.w3.org/Graphics/SVG/1.1/DTD/svg11.dtd">
<svg xmlns:xlink="http://www.w3.org/1999/xlink" width="414pt" height="180pt" viewBox="0 0 414 180" xmlns="http://www.w3.org/2000/svg" version="1.1">
 <metadata>
  <rdf:RDF xmlns:dc="http://purl.org/dc/elements/1.1/" xmlns:cc="http://creativecommons.org/ns#" xmlns:rdf="http://www.w3.org/1999/02/22-rdf-syntax-ns#">
   <cc:Work>
    <dc:type rdf:resource="http://purl.org/dc/dcmitype/StillImage"/>
    <dc:date>2026-04-15T04:57:28.683808</dc:date>
    <dc:format>image/svg+xml</dc:format>
    <dc:creator>
     <cc:Agent>
      <dc:title>Matplotlib v3.10.7, https://matplotlib.org/</dc:title>
     </cc:Agent>
    </dc:creator>
   </cc:Work>
  </rdf:RDF>
 </metadata>
 <defs>
  <style type="text/css">*{stroke-linejoin: round; stroke-linecap: butt}</style>
 </defs>
 <g id="figure_1">
  <g id="patch_1">
   <path d="M 0 180 
L 414 180 
L 414 0 
L 0 0 
L 0 180 
z
" style="fill: none"/>
  </g>
  <g id="axes_1">
   <g id="patch_2">
    <path d="M 62.946719 139.811563 
L 403.2 139.811563 
L 403.2 10.8 
L 62.946719 10.8 
L 62.946719 139.811563 
z
" style="fill: none"/>
   </g>
   <g id="patch_3">
    <path d="M 233.077138 131.742096 
C 248.043364 131.742096 262.398626 125.795951 272.981346 115.213231 
C 283.564066 104.630511 289.510211 90.275248 289.510211 75.309023 
C 289.510211 60.342797 283.564066 45.987534 272.981346 35.404814 
C 262.398626 24.822094 248.043364 18.87595 233.077138 18.87595 
C 218.110912 18.87595 203.755649 24.822094 193.172929 35.404814 
C 182.590209 45.987534 176.644065 60.342797 176.644065 75.309023 
C 176.644065 90.275248 182.590209 104.630511 193.172929 115.213231 
C 203.755649 125.795951 218.110912 131.742096 233.077138 131.742096 
z
" clip-path="url(#pa133fbaf10)" style="fill: #008800; stroke: #008800; stroke-linejoin: miter"/>
   </g>
   <g id="matplotlib.axis_1">
    <g id="xtick_1">
     <g id="line2d_1">
      <defs>
       <path id="mcffed20961" d="M 0 0 
L 0 3.5 
" style="stroke: #000000; stroke-width: 0.8"/>
      </defs>
      <g>
       <use xlink:href="#mcffed20961" x="100.358736" y="139.811563" style="stroke: #000000; stroke-width: 0.8"/>
      </g>
     </g>
     <g id="text_1">
      <!-- −15000 -->
      <g transform="translate(82.272252 153.650156) scale(0.09 -0.09)">
       <defs>
        <path id="DejaVuSans-2212" d="M 678 2272 
L 4684 2272 
L 4684 1741 
L 678 1741 
L 678 2272 
z
" transform="scale(0.015625)"/>
        <path id="DejaVuSans-31" d="M 794 531 
L 1825 531 
L 1825 4091 
L 703 3866 
L 703 4441 
L 1819 4666 
L 2450 4666 
L 2450 531 
L 3481 531 
L 3481 0 
L 794 0 
L 794 531 
z
" transform="scale(0.015625)"/>
        <path id="DejaVuSans-35" d="M 691 4666 
L 3169 4666 
L 3169 4134 
L 1269 4134 
L 1269 2991 
Q 1406 3038 1543 3061 
Q 1681 3084 1819 3084 
Q 2600 3084 3056 2656 
Q 3513 2228 3513 1497 
Q 3513 744 3044 326 
Q 2575 -91 1722 -91 
Q 1428 -91 1123 -41 
Q 819 9 494 109 
L 494 744 
Q 775 591 1075 516 
Q 1375 441 1709 441 
Q 2250 441 2565 725 
Q 2881 1009 2881 1497 
Q 2881 1984 2565 2268 
Q 2250 2553 1709 2553 
Q 1456 2553 1204 2497 
Q 953 2441 691 2322 
L 691 4666 
z
" transform="scale(0.015625)"/>
        <path id="DejaVuSans-30" d="M 2034 4250 
Q 1547 4250 1301 3770 
Q 1056 3291 1056 2328 
Q 1056 1369 1301 889 
Q 1547 409 2034 409 
Q 2525 409 2770 889 
Q 3016 1369 3016 2328 
Q 3016 3291 2770 3770 
Q 2525 4250 2034 4250 
z
M 2034 4750 
Q 2819 4750 3233 4129 
Q 3647 3509 3647 2328 
Q 3647 1150 3233 529 
Q 2819 -91 2034 -91 
Q 1250 -91 836 529 
Q 422 1150 422 2328 
Q 422 3509 836 4129 
Q 1250 4750 2034 4750 
z
" transform="scale(0.015625)"/>
       </defs>
       <use xlink:href="#DejaVuSans-2212"/>
       <use xlink:href="#DejaVuSans-31" transform="translate(83.789062 0)"/>
       <use xlink:href="#DejaVuSans-35" transform="translate(147.412109 0)"/>
       <use xlink:href="#DejaVuSans-30" transform="translate(211.035156 0)"/>
       <use xlink:href="#DejaVuSans-30" transform="translate(274.658203 0)"/>
       <use xlink:href="#DejaVuSans-30" transform="translate(338.28125 0)"/>
      </g>
     </g>
    </g>
    <g id="xtick_2">
     <g id="line2d_2">
      <g>
       <use xlink:href="#mcffed20961" x="144.598203" y="139.811563" style="stroke: #000000; stroke-width: 0.8"/>
      </g>
     </g>
     <g id="text_2">
      <!-- −10000 -->
      <g transform="translate(126.511719 153.650156) scale(0.09 -0.09)">
       <use xlink:href="#DejaVuSans-2212"/>
       <use xlink:href="#DejaVuSans-31" transform="translate(83.789062 0)"/>
       <use xlink:href="#DejaVuSans-30" transform="translate(147.412109 0)"/>
       <use xlink:href="#DejaVuSans-30" transform="translate(211.035156 0)"/>
       <use xlink:href="#DejaVuSans-30" transform="translate(274.658203 0)"/>
       <use xlink:href="#DejaVuSans-30" transform="translate(338.28125 0)"/>
      </g>
     </g>
    </g>
    <g id="xtick_3">
     <g id="line2d_3">
      <g>
       <use xlink:href="#mcffed20961" x="188.837671" y="139.811563" style="stroke: #000000; stroke-width: 0.8"/>
      </g>
     </g>
     <g id="text_3">
      <!-- −5000 -->
      <g transform="translate(173.614311 153.650156) scale(0.09 -0.09)">
       <use xlink:href="#DejaVuSans-2212"/>
       <use xlink:href="#DejaVuSans-35" transform="translate(83.789062 0)"/>
       <use xlink:href="#DejaVuSans-30" transform="translate(147.412109 0)"/>
       <use xlink:href="#DejaVuSans-30" transform="translate(211.035156 0)"/>
       <use xlink:href="#DejaVuSans-30" transform="translate(274.658203 0)"/>
      </g>
     </g>
    </g>
    <g id="xtick_4">
     <g id="line2d_4">
      <g>
       <use xlink:href="#mcffed20961" x="233.077138" y="139.811563" style="stroke: #000000; stroke-width: 0.8"/>
      </g>
     </g>
     <g id="text_4">
      <!-- 0 -->
      <g transform="translate(230.214013 153.650156) scale(0.09 -0.09)">
       <use xlink:href="#DejaVuSans-30"/>
      </g>
     </g>
    </g>
    <g id="xtick_5">
     <g id="line2d_5">
      <g>
       <use xlink:href="#mcffed20961" x="277.316605" y="139.811563" style="stroke: #000000; stroke-width: 0.8"/>
      </g>
     </g>
     <g id="text_5">
      <!-- 5000 -->
      <g transform="translate(265.864105 153.650156) scale(0.09 -0.09)">
       <use xlink:href="#DejaVuSans-35"/>
       <use xlink:href="#DejaVuSans-30" transform="translate(63.623047 0)"/>
       <use xlink:href="#DejaVuSans-30" transform="translate(127.246094 0)"/>
       <use xlink:href="#DejaVuSans-30" transform="translate(190.869141 0)"/>
      </g>
     </g>
    </g>
    <g id="xtick_6">
     <g id="line2d_6">
      <g>
       <use xlink:href="#mcffed20961" x="321.556072" y="139.811563" style="stroke: #000000; stroke-width: 0.8"/>
      </g>
     </g>
     <g id="text_6">
      <!-- 10000 -->
      <g transform="translate(307.240447 153.650156) scale(0.09 -0.09)">
       <use xlink:href="#DejaVuSans-31"/>
       <use xlink:href="#DejaVuSans-30" transform="translate(63.623047 0)"/>
       <use xlink:href="#DejaVuSans-30" transform="translate(127.246094 0)"/>
       <use xlink:href="#DejaVuSans-30" transform="translate(190.869141 0)"/>
       <use xlink:href="#DejaVuSans-30" transform="translate(254.492188 0)"/>
      </g>
     </g>
    </g>
    <g id="xtick_7">
     <g id="line2d_7">
      <g>
       <use xlink:href="#mcffed20961" x="365.795539" y="139.811563" style="stroke: #000000; stroke-width: 0.8"/>
      </g>
     </g>
     <g id="text_7">
      <!-- 15000 -->
      <g transform="translate(351.479914 153.650156) scale(0.09 -0.09)">
       <use xlink:href="#DejaVuSans-31"/>
       <use xlink:href="#DejaVuSans-35" transform="translate(63.623047 0)"/>
       <use xlink:href="#DejaVuSans-30" transform="translate(127.246094 0)"/>
       <use xlink:href="#DejaVuSans-30" transform="translate(190.869141 0)"/>
       <use xlink:href="#DejaVuSans-30" transform="translate(254.492188 0)"/>
      </g>
     </g>
    </g>
    <g id="text_8">
     <!-- $i_e$ Cord. [km] -->
     <g transform="translate(201.173359 167.120313) scale(0.1 -0.1)">
      <defs>
       <path id="DejaVuSans-Oblique-69" d="M 1172 4863 
L 1747 4863 
L 1606 4134 
L 1031 4134 
L 1172 4863 
z
M 909 3500 
L 1484 3500 
L 800 0 
L 225 0 
L 909 3500 
z
" transform="scale(0.015625)"/>
       <path id="DejaVuSans-Oblique-65" d="M 3078 2063 
Q 3088 2113 3092 2166 
Q 3097 2219 3097 2272 
Q 3097 2653 2873 2875 
Q 2650 3097 2266 3097 
Q 1838 3097 1509 2826 
Q 1181 2556 1013 2059 
L 3078 2063 
z
M 3578 1613 
L 903 1613 
Q 884 1494 878 1425 
Q 872 1356 872 1306 
Q 872 872 1139 634 
Q 1406 397 1894 397 
Q 2269 397 2603 481 
Q 2938 566 3225 728 
L 3116 159 
Q 2806 34 2476 -28 
Q 2147 -91 1806 -91 
Q 1078 -91 686 257 
Q 294 606 294 1247 
Q 294 1794 489 2264 
Q 684 2734 1063 3103 
Q 1306 3334 1642 3459 
Q 1978 3584 2356 3584 
Q 2950 3584 3301 3228 
Q 3653 2872 3653 2272 
Q 3653 2128 3634 1964 
Q 3616 1800 3578 1613 
z
" transform="scale(0.015625)"/>
       <path id="DejaVuSans-20" transform="scale(0.015625)"/>
       <path id="DejaVuSans-43" d="M 4122 4306 
L 4122 3641 
Q 3803 3938 3442 4084 
Q 3081 4231 2675 4231 
Q 1875 4231 1450 3742 
Q 1025 3253 1025 2328 
Q 1025 1406 1450 917 
Q 1875 428 2675 428 
Q 3081 428 3442 575 
Q 3803 722 4122 1019 
L 4122 359 
Q 3791 134 3420 21 
Q 3050 -91 2638 -91 
Q 1578 -91 968 557 
Q 359 1206 359 2328 
Q 359 3453 968 4101 
Q 1578 4750 2638 4750 
Q 3056 4750 3426 4639 
Q 3797 4528 4122 4306 
z
" transform="scale(0.015625)"/>
       <path id="DejaVuSans-6f" d="M 1959 3097 
Q 1497 3097 1228 2736 
Q 959 2375 959 1747 
Q 959 1119 1226 758 
Q 1494 397 1959 397 
Q 2419 397 2687 759 
Q 2956 1122 2956 1747 
Q 2956 2369 2687 2733 
Q 2419 3097 1959 3097 
z
M 1959 3584 
Q 2709 3584 3137 3096 
Q 3566 2609 3566 1747 
Q 3566 888 3137 398 
Q 2709 -91 1959 -91 
Q 1206 -91 779 398 
Q 353 888 353 1747 
Q 353 2609 779 3096 
Q 1206 3584 1959 3584 
z
" transform="scale(0.015625)"/>
       <path id="DejaVuSans-72" d="M 2631 2963 
Q 2534 3019 2420 3045 
Q 2306 3072 2169 3072 
Q 1681 3072 1420 2755 
Q 1159 2438 1159 1844 
L 1159 0 
L 581 0 
L 581 3500 
L 1159 3500 
L 1159 2956 
Q 1341 3275 1631 3429 
Q 1922 3584 2338 3584 
Q 2397 3584 2469 3576 
Q 2541 3569 2628 3553 
L 2631 2963 
z
" transform="scale(0.015625)"/>
       <path id="DejaVuSans-64" d="M 2906 2969 
L 2906 4863 
L 3481 4863 
L 3481 0 
L 2906 0 
L 2906 525 
Q 2725 213 2448 61 
Q 2172 -91 1784 -91 
Q 1150 -91 751 415 
Q 353 922 353 1747 
Q 353 2572 751 3078 
Q 1150 3584 1784 3584 
Q 2172 3584 2448 3432 
Q 2725 3281 2906 2969 
z
M 947 1747 
Q 947 1113 1208 752 
Q 1469 391 1925 391 
Q 2381 391 2643 752 
Q 2906 1113 2906 1747 
Q 2906 2381 2643 2742 
Q 2381 3103 1925 3103 
Q 1469 3103 1208 2742 
Q 947 2381 947 1747 
z
" transform="scale(0.015625)"/>
       <path id="DejaVuSans-2e" d="M 684 794 
L 1344 794 
L 1344 0 
L 684 0 
L 684 794 
z
" transform="scale(0.015625)"/>
       <path id="DejaVuSans-5b" d="M 550 4863 
L 1875 4863 
L 1875 4416 
L 1125 4416 
L 1125 -397 
L 1875 -397 
L 1875 -844 
L 550 -844 
L 550 4863 
z
" transform="scale(0.015625)"/>
       <path id="DejaVuSans-6b" d="M 581 4863 
L 1159 4863 
L 1159 1991 
L 2875 3500 
L 3609 3500 
L 1753 1863 
L 3688 0 
L 2938 0 
L 1159 1709 
L 1159 0 
L 581 0 
L 581 4863 
z
" transform="scale(0.015625)"/>
       <path id="DejaVuSans-6d" d="M 3328 2828 
Q 3544 3216 3844 3400 
Q 4144 3584 4550 3584 
Q 5097 3584 5394 3201 
Q 5691 2819 5691 2113 
L 5691 0 
L 5113 0 
L 5113 2094 
Q 5113 2597 4934 2840 
Q 4756 3084 4391 3084 
Q 3944 3084 3684 2787 
Q 3425 2491 3425 1978 
L 3425 0 
L 2847 0 
L 2847 2094 
Q 2847 2600 2669 2842 
Q 2491 3084 2119 3084 
Q 1678 3084 1418 2786 
Q 1159 2488 1159 1978 
L 1159 0 
L 581 0 
L 581 3500 
L 1159 3500 
L 1159 2956 
Q 1356 3278 1631 3431 
Q 1906 3584 2284 3584 
Q 2666 3584 2933 3390 
Q 3200 3197 3328 2828 
z
" transform="scale(0.015625)"/>
       <path id="DejaVuSans-5d" d="M 1947 4863 
L 1947 -844 
L 622 -844 
L 622 -397 
L 1369 -397 
L 1369 4416 
L 622 4416 
L 622 4863 
L 1947 4863 
z
" transform="scale(0.015625)"/>
      </defs>
      <use xlink:href="#DejaVuSans-Oblique-69" transform="translate(0 0.015625)"/>
      <use xlink:href="#DejaVuSans-Oblique-65" transform="translate(27.783203 -16.390625) scale(0.7)"/>
      <use xlink:href="#DejaVuSans-20" transform="translate(73.583984 0.015625)"/>
      <use xlink:href="#DejaVuSans-43" transform="translate(105.371094 0.015625)"/>
      <use xlink:href="#DejaVuSans-6f" transform="translate(175.195312 0.015625)"/>
      <use xlink:href="#DejaVuSans-72" transform="translate(236.376953 0.015625)"/>
      <use xlink:href="#DejaVuSans-64" transform="translate(277.490234 0.015625)"/>
      <use xlink:href="#DejaVuSans-2e" transform="translate(340.966797 0.015625)"/>
      <use xlink:href="#DejaVuSans-20" transform="translate(372.753906 0.015625)"/>
      <use xlink:href="#DejaVuSans-5b" transform="translate(404.541016 0.015625)"/>
      <use xlink:href="#DejaVuSans-6b" transform="translate(443.554688 0.015625)"/>
      <use xlink:href="#DejaVuSans-6d" transform="translate(501.464844 0.015625)"/>
      <use xlink:href="#DejaVuSans-5d" transform="translate(598.876953 0.015625)"/>
     </g>
    </g>
   </g>
   <g id="matplotlib.axis_2">
    <g id="ytick_1">
     <g id="line2d_8">
      <defs>
       <path id="m751772ee85" d="M 0 0 
L -3.5 0 
" style="stroke: #000000; stroke-width: 0.8"/>
      </defs>
      <g>
       <use xlink:href="#m751772ee85" x="62.946719" y="119.54849" style="stroke: #000000; stroke-width: 0.8"/>
      </g>
     </g>
     <g id="text_9">
      <!-- −5000 -->
      <g transform="translate(25.5 122.967787) scale(0.09 -0.09)">
       <use xlink:href="#DejaVuSans-2212"/>
       <use xlink:href="#DejaVuSans-35" transform="translate(83.789062 0)"/>
       <use xlink:href="#DejaVuSans-30" transform="translate(147.412109 0)"/>
       <use xlink:href="#DejaVuSans-30" transform="translate(211.035156 0)"/>
       <use xlink:href="#DejaVuSans-30" transform="translate(274.658203 0)"/>
      </g>
     </g>
    </g>
    <g id="ytick_2">
     <g id="line2d_9">
      <g>
       <use xlink:href="#m751772ee85" x="62.946719" y="97.428756" style="stroke: #000000; stroke-width: 0.8"/>
      </g>
     </g>
     <g id="text_10">
      <!-- −2500 -->
      <g transform="translate(25.5 100.848053) scale(0.09 -0.09)">
       <defs>
        <path id="DejaVuSans-32" d="M 1228 531 
L 3431 531 
L 3431 0 
L 469 0 
L 469 531 
Q 828 903 1448 1529 
Q 2069 2156 2228 2338 
Q 2531 2678 2651 2914 
Q 2772 3150 2772 3378 
Q 2772 3750 2511 3984 
Q 2250 4219 1831 4219 
Q 1534 4219 1204 4116 
Q 875 4013 500 3803 
L 500 4441 
Q 881 4594 1212 4672 
Q 1544 4750 1819 4750 
Q 2544 4750 2975 4387 
Q 3406 4025 3406 3419 
Q 3406 3131 3298 2873 
Q 3191 2616 2906 2266 
Q 2828 2175 2409 1742 
Q 1991 1309 1228 531 
z
" transform="scale(0.015625)"/>
       </defs>
       <use xlink:href="#DejaVuSans-2212"/>
       <use xlink:href="#DejaVuSans-32" transform="translate(83.789062 0)"/>
       <use xlink:href="#DejaVuSans-35" transform="translate(147.412109 0)"/>
       <use xlink:href="#DejaVuSans-30" transform="translate(211.035156 0)"/>
       <use xlink:href="#DejaVuSans-30" transform="translate(274.658203 0)"/>
      </g>
     </g>
    </g>
    <g id="ytick_3">
     <g id="line2d_10">
      <g>
       <use xlink:href="#m751772ee85" x="62.946719" y="75.309023" style="stroke: #000000; stroke-width: 0.8"/>
      </g>
     </g>
     <g id="text_11">
      <!-- 0 -->
      <g transform="translate(50.220469 78.728319) scale(0.09 -0.09)">
       <use xlink:href="#DejaVuSans-30"/>
      </g>
     </g>
    </g>
    <g id="ytick_4">
     <g id="line2d_11">
      <g>
       <use xlink:href="#m751772ee85" x="62.946719" y="53.189289" style="stroke: #000000; stroke-width: 0.8"/>
      </g>
     </g>
     <g id="text_12">
      <!-- 2500 -->
      <g transform="translate(33.041719 56.608586) scale(0.09 -0.09)">
       <use xlink:href="#DejaVuSans-32"/>
       <use xlink:href="#DejaVuSans-35" transform="translate(63.623047 0)"/>
       <use xlink:href="#DejaVuSans-30" transform="translate(127.246094 0)"/>
       <use xlink:href="#DejaVuSans-30" transform="translate(190.869141 0)"/>
      </g>
     </g>
    </g>
    <g id="ytick_5">
     <g id="line2d_12">
      <g>
       <use xlink:href="#m751772ee85" x="62.946719" y="31.069555" style="stroke: #000000; stroke-width: 0.8"/>
      </g>
     </g>
     <g id="text_13">
      <!-- 5000 -->
      <g transform="translate(33.041719 34.488852) scale(0.09 -0.09)">
       <use xlink:href="#DejaVuSans-35"/>
       <use xlink:href="#DejaVuSans-30" transform="translate(63.623047 0)"/>
       <use xlink:href="#DejaVuSans-30" transform="translate(127.246094 0)"/>
       <use xlink:href="#DejaVuSans-30" transform="translate(190.869141 0)"/>
      </g>
     </g>
    </g>
    <g id="text_14">
     <!-- $i_p$ Cord. [km] -->
     <g transform="translate(18.4 107.305781) rotate(-90) scale(0.1 -0.1)">
      <defs>
       <path id="DejaVuSans-Oblique-70" d="M 3175 2156 
Q 3175 2616 2975 2859 
Q 2775 3103 2400 3103 
Q 2144 3103 1911 2972 
Q 1678 2841 1497 2591 
Q 1319 2344 1212 1994 
Q 1106 1644 1106 1300 
Q 1106 863 1306 627 
Q 1506 391 1875 391 
Q 2147 391 2380 519 
Q 2613 647 2778 891 
Q 2956 1147 3065 1494 
Q 3175 1841 3175 2156 
z
M 1394 2969 
Q 1625 3272 1939 3428 
Q 2253 3584 2638 3584 
Q 3175 3584 3472 3232 
Q 3769 2881 3769 2247 
Q 3769 1728 3584 1258 
Q 3400 788 3053 416 
Q 2822 169 2531 39 
Q 2241 -91 1919 -91 
Q 1547 -91 1294 64 
Q 1041 219 916 525 
L 556 -1331 
L -19 -1331 
L 922 3500 
L 1497 3500 
L 1394 2969 
z
" transform="scale(0.015625)"/>
      </defs>
      <use xlink:href="#DejaVuSans-Oblique-69" transform="translate(0 0.015625)"/>
      <use xlink:href="#DejaVuSans-Oblique-70" transform="translate(27.783203 -16.390625) scale(0.7)"/>
      <use xlink:href="#DejaVuSans-20" transform="translate(74.951172 0.015625)"/>
      <use xlink:href="#DejaVuSans-43" transform="translate(106.738281 0.015625)"/>
      <use xlink:href="#DejaVuSans-6f" transform="translate(176.5625 0.015625)"/>
      <use xlink:href="#DejaVuSans-72" transform="translate(237.744141 0.015625)"/>
      <use xlink:href="#DejaVuSans-64" transform="translate(278.857422 0.015625)"/>
      <use xlink:href="#DejaVuSans-2e" transform="translate(342.333984 0.015625)"/>
      <use xlink:href="#DejaVuSans-20" transform="translate(374.121094 0.015625)"/>
      <use xlink:href="#DejaVuSans-5b" transform="translate(405.908203 0.015625)"/>
      <use xlink:href="#DejaVuSans-6b" transform="translate(444.921875 0.015625)"/>
      <use xlink:href="#DejaVuSans-6d" transform="translate(502.832031 0.015625)"/>
      <use xlink:href="#DejaVuSans-5d" transform="translate(600.244141 0.015625)"/>
     </g>
    </g>
   </g>
   <g id="line2d_13">
    <path d="M 250.125381 19.196646 
L 246.815549 18.295888 
L 243.458718 17.590185 
L 240.066373 17.081951 
L 236.650119 16.772924 
L 233.221644 16.664162 
L 229.792678 16.756036 
L 226.374953 17.048232 
L 222.98016 17.53975 
L 219.619915 18.228909 
L 216.305713 19.11335 
L 213.048893 20.190048 
L 209.860596 21.455319 
L 206.751732 22.904835 
L 203.732935 24.533637 
L 200.814534 26.336151 
L 198.006514 28.306213 
L 195.318482 30.437081 
L 192.759633 32.721467 
L 190.338722 35.151554 
L 188.064034 37.71903 
L 185.943349 40.41511 
L 183.983926 43.23057 
L 182.192468 46.155778 
L 180.575105 49.180726 
L 179.13737 52.295065 
L 177.884184 55.488141 
L 176.819834 58.749029 
L 175.947963 62.066573 
L 175.271556 65.429423 
L 174.792926 68.826073 
L 174.513714 72.244901 
L 174.434875 75.67421 
L 174.55668 79.102267 
L 174.878714 82.517342 
L 175.399876 85.90775 
L 176.118384 89.261891 
L 177.031781 92.568287 
L 178.136944 95.815626 
L 179.430091 98.992795 
L 180.906801 102.088924 
L 182.562021 105.093418 
L 184.390089 107.995996 
L 186.384752 110.786724 
L 188.539185 113.456052 
L 190.846017 115.994846 
L 193.297356 118.394416 
L 195.884816 120.646551 
L 198.599544 122.743543 
L 201.43225 124.678214 
L 204.373242 126.443943 
L 207.412457 128.034685 
L 210.539495 129.444995 
L 213.743657 130.670046 
L 217.013979 131.705644 
L 220.339268 132.548243 
L 223.708147 133.194958 
L 227.109085 133.643573 
L 230.530443 133.892552 
L 233.960514 133.941041 
L 237.387559 133.788873 
L 240.799848 133.436565 
L 244.185705 132.885323 
L 247.533539 132.137032 
L 250.831894 131.19425 
L 254.069481 130.060204 
L 257.235218 128.738772 
L 260.318269 127.234477 
L 263.308082 125.552465 
L 266.194424 123.698493 
L 268.967414 121.678904 
L 271.617561 119.50061 
L 274.135794 117.171064 
L 276.513494 114.69824 
L 278.742521 112.0906 
L 280.815246 109.357068 
L 282.724572 106.507 
L 284.463963 103.55015 
L 286.027466 100.49664 
L 287.409727 97.35692 
L 288.606013 94.141737 
L 289.612231 90.862096 
L 290.424934 87.529222 
L 291.041339 84.154524 
L 291.459337 80.749553 
L 291.677496 77.325962 
L 291.695068 73.895471 
L 291.511993 70.469823 
L 291.128896 67.060743 
L 290.547089 63.6799 
L 289.768562 60.338868 
L 288.79598 57.049082 
L 287.63267 53.821803 
L 286.282615 50.668079 
L 284.750436 47.598704 
L 283.041377 44.624188 
L 281.161288 41.754711 
L 279.116605 39.000097 
L 276.914326 36.369775 
L 274.561989 33.87275 
L 272.067648 31.517569 
L 269.439839 29.312294 
L 266.687559 27.264474 
L 263.820227 25.381121 
L 260.84766 23.668681 
L 257.780033 22.133015 
L 254.627846 20.779383 
L 251.40189 19.612416 
L 248.113209 18.636112 
L 244.77306 17.853812 
L 241.392877 17.268194 
L 237.984231 16.881263 
L 234.558789 16.694345 
L 231.128279 16.708079 
L 227.704443 16.922419 
L 224.299003 17.336633 
L 220.923617 17.949301 
L 217.589839 18.758327 
L 214.309083 19.760943 
L 211.092579 20.953716 
L 207.95134 22.332564 
L 204.896118 23.892767 
L 201.937372 25.628985 
L 199.085232 27.535274 
L 196.349463 29.60511 
L 193.739429 31.831407 
L 191.264066 34.206544 
L 188.931851 36.722391 
L 186.750767 39.370335 
L 184.728283 42.141311 
L 182.871323 45.025835 
L 181.186244 48.014031 
L 179.678818 51.095669 
L 178.354206 54.260199 
L 177.216943 57.496788 
L 176.270925 60.794355 
L 175.519391 64.141611 
L 174.964915 67.527096 
L 174.609398 70.939221 
L 174.454056 74.366302 
L 174.499424 77.796607 
L 174.745348 81.218391 
L 175.190987 84.619938 
L 175.834816 87.989603 
L 176.674632 91.315847 
L 177.707563 94.587283 
L 178.930071 97.792709 
L 180.337974 100.921148 
L 181.926451 103.961888 
L 183.690065 106.904516 
L 185.622779 109.738958 
L 187.717976 112.455505 
L 189.968485 115.044857 
L 192.366599 117.498145 
L 194.90411 119.806969 
L 197.57233 121.963421 
L 200.362123 123.960116 
L 203.263937 125.790215 
L 206.267836 127.447449 
L 209.363536 128.926143 
L 212.540436 130.221231 
L 215.787658 131.328276 
L 219.094084 132.243486 
L 222.44839 132.963726 
L 225.83909 133.486525 
L 229.254573 133.810093 
L 232.683142 133.93332 
L 236.113056 133.855781 
L 239.53257 133.577741 
L 242.929971 133.100149 
L 246.293626 132.42464 
L 249.612014 131.553524 
L 252.873769 130.489785 
L 256.06772 129.237063 
L 259.182928 127.799647 
L 262.208724 126.182458 
L 265.134743 124.391034 
L 267.950963 122.431508 
L 270.647739 120.310589 
L 273.215833 118.035542 
L 275.646447 115.614156 
L 277.931255 113.054725 
L 280.062431 110.366013 
L 282.032675 107.557229 
L 283.835235 104.637992 
L 285.463938 101.618301 
L 286.913202 98.508498 
L 288.178064 95.319234 
L 289.254188 92.061434 
L 290.137888 88.746256 
L 290.826136 85.385054 
L 291.316574 81.989343 
L 291.607519 78.570753 
L 291.697975 75.140994 
L 291.587631 71.711814 
L 291.276864 68.294959 
L 290.766738 64.902136 
L 290.058999 61.544965 
L 289.156071 58.234946 
L 288.061045 54.983418 
L 286.777674 51.80152 
L 285.310351 48.700152 
L 283.664104 45.689938 
L 281.84457 42.781189 
L 279.857983 39.98387 
L 277.711146 37.307564 
L 275.411414 34.761438 
L 272.966664 32.354214 
L 270.385271 30.09414 
L 267.676077 27.988957 
L 264.848362 26.045879 
L 261.911814 24.271561 
L 258.876492 22.672081 
L 255.752794 21.252921 
L 252.55142 20.018941 
L 249.283338 18.974369 
L 245.95974 18.122784 
L 242.592015 17.467103 
L 239.191698 17.009573 
L 235.770439 16.751761 
L 232.339958 16.694552 
L 228.912007 16.838141 
L 225.498329 17.182038 
L 222.110619 17.725063 
L 218.760481 18.465359 
L 215.459393 19.400388 
L 212.218664 20.526948 
L 209.049396 21.84118 
L 205.962447 23.338583 
L 202.968393 25.014027 
L 200.077492 26.861772 
L 197.299648 28.875489 
L 194.644377 31.04828 
L 192.120776 33.372701 
L 189.737492 35.840791 
L 187.502691 38.444095 
L 185.424028 41.173693 
L 183.508627 44.020235 
L 181.763051 46.973969 
L 180.19328 50.024777 
L 178.804693 53.162208 
L 177.60205 56.375512 
L 176.589471 59.653681 
L 175.770427 62.985483 
L 175.147727 66.359502 
L 174.723504 69.764179 
L 174.499213 73.187851 
L 174.475624 76.618787 
L 174.652819 80.045231 
L 175.030194 83.455444 
L 175.606456 86.83774 
L 176.379633 90.180531 
L 177.347076 93.472361 
L 178.505473 96.701951 
L 179.850857 99.858235 
L 181.378617 102.930397 
L 183.083523 105.907909 
L 184.959732 108.780568 
L 187.000818 111.538529 
L 189.199789 114.172342 
L 191.549111 116.67298 
L 194.040734 119.031872 
L 196.666122 121.240933 
L 199.41628 123.292593 
L 202.281784 125.179818 
L 205.252815 126.89614 
L 208.319193 128.435674 
L 211.470411 129.793144 
L 214.695671 130.963896 
L 217.98392 131.943915 
L 221.32389 132.729841 
L 224.704136 133.318979 
L 228.113071 133.709307 
L 231.539014 133.899485 
L 234.970224 133.88886 
L 238.394941 133.677466 
L 241.801428 133.266025 
L 245.178009 132.655946 
L 248.51311 131.849317 
L 251.795302 130.848902 
L 255.013332 129.658126 
L 258.156171 128.28107 
L 261.213045 126.722453 
L 264.173475 124.987613 
L 267.027315 123.082497 
L 269.764782 121.013631 
L 272.376492 118.788106 
L 274.85349 116.413549 
L 277.187284 113.898098 
L 279.369875 111.250375 
L 281.393778 108.479454 
L 283.252053 105.594834 
L 284.938331 102.606401 
L 286.446828 99.5244 
L 287.772372 96.359394 
L 288.910419 93.122231 
L 289.857065 89.824009 
L 290.609064 86.476033 
L 291.163836 83.089781 
L 291.519478 79.676861 
L 291.67477 76.248975 
L 291.629177 72.817871 
L 291.382856 69.395313 
L 290.936648 65.993032 
L 290.292082 62.622692 
L 289.451367 59.29585 
L 288.417384 56.023911 
L 287.193676 52.818093 
L 285.784438 49.689387 
L 284.194501 46.648521 
L 282.429314 43.70592 
L 280.494929 40.871675 
L 278.397977 38.155501 
L 276.145645 35.566713 
L 273.745655 33.114185 
L 271.206236 30.806329 
L 268.536093 28.651056 
L 265.744379 26.655757 
L 262.840668 24.827275 
L 259.834913 23.171879 
L 256.737419 21.695245 
L 253.558806 20.402437 
L 250.309972 19.297889 
L 247.002057 18.385389 
L 243.646402 17.668067 
L 240.254511 17.148382 
L 236.838015 16.828117 
L 233.408628 16.708372 
L 229.978108 16.789559 
L 226.558219 17.071399 
L 223.160688 17.552928 
L 219.797166 18.232496 
L 216.479186 19.107772 
L 213.218125 20.175756 
L 210.025166 21.432788 
L 206.911256 22.874559 
L 203.887074 24.496125 
L 200.962989 26.291927 
L 198.14903 28.255809 
L 195.454846 30.381037 
L 192.889677 32.660324 
L 190.462319 35.085855 
L 188.181097 37.649315 
L 186.053835 40.341912 
L 184.087828 43.154416 
L 182.28982 46.077181 
L 180.665977 49.100186 
L 179.22187 52.213064 
L 177.962452 55.405141 
L 176.892043 58.66547 
L 176.014316 61.98287 
L 175.332283 65.345965 
L 174.848284 68.743222 
L 174.56398 72.162989 
L 174.480348 75.593539 
L 174.597676 79.023106 
L 174.915563 82.439929 
L 175.432922 85.832291 
L 176.147979 89.188555 
L 177.058284 92.497211 
L 178.160716 95.746911 
L 179.451496 98.926507 
L 180.926198 102.025095 
L 182.579767 105.032044 
L 184.406532 107.937041 
L 186.40023 110.730122 
L 188.554023 113.401704 
L 190.860527 115.942624 
L 193.311831 118.344163 
L 195.899527 120.598084 
L 198.614743 122.696652 
L 201.448164 124.632669 
L 204.390074 126.39949 
L 207.430381 127.991054 
L 210.558659 129.4019 
L 213.764178 130.627185 
L 217.035942 131.662704 
L 220.36273 132.504903 
L 223.73313 133.150891 
L 227.13558 133.598448 
L 230.558408 133.846036 
L 233.989872 133.892805 
L 237.418199 133.73859 
L 240.831628 133.383918 
L 244.218445 132.830004 
L 247.567032 132.078745 
L 250.865901 131.132715 
L 254.103732 129.995159 
L 257.269414 128.669978 
L 260.352085 127.161714 
L 263.341167 125.475542 
L 266.226404 123.617244 
L 268.997894 121.593194 
L 271.646126 119.410335 
L 274.162011 117.076155 
L 276.536915 114.598662 
L 278.762687 111.986356 
L 280.831688 109.248198 
L 282.736815 106.393584 
L 284.471531 103.432306 
L 286.029879 100.374526 
L 287.40651 97.230737 
L 288.596698 94.011725 
L 289.596357 90.728536 
L 290.402054 87.392436 
L 291.011021 84.014875 
L 291.421167 80.607443 
L 291.631082 77.181833 
L 291.640043 73.749802 
L 291.448019 70.323128 
L 291.055666 66.913574 
L 290.464328 63.532842 
L 289.676035 60.192534 
L 288.693489 56.904116 
L 287.520062 53.678875 
L 286.159779 50.52788 
L 284.617307 47.461948 
L 282.89794 44.491601 
L 281.007577 41.627035 
L 278.952706 38.878085 
L 276.740378 36.254185 
L 274.378185 33.764343 
L 271.874235 31.417106 
L 269.237121 29.220532 
L 266.475895 27.182162 
L 263.600034 25.308994 
L 260.619407 23.607458 
L 257.544247 22.083396 
L 254.385108 20.742042 
L 251.152832 19.588001 
L 247.858515 18.625236 
L 244.513466 17.857052 
L 241.129165 17.286089 
L 237.717229 16.914307 
L 234.289372 16.742985 
L 230.857361 16.772712 
L 227.432977 17.003389 
L 224.027976 17.434224 
L 220.654048 18.06374 
L 217.322777 18.889778 
L 214.045597 19.909504 
L 210.833762 21.119419 
L 207.698297 22.515369 
L 204.649969 24.092566 
L 201.699241 25.845596 
L 198.856248 27.768441 
L 196.130751 29.854502 
L 193.532108 32.096618 
L 191.069242 34.487093 
L 188.750611 37.017722 
L 186.584176 39.679816 
L 184.577379 42.464238 
L 182.737111 45.361426 
L 181.069693 48.361436 
L 179.580852 51.453966 
L 178.275703 54.628401 
L 177.158728 57.87384 
L 176.233766 61.179141 
L 175.503994 64.532955 
L 174.971922 67.923766 
L 174.639378 71.33993 
L 174.507507 74.769717 
L 174.576764 78.201349 
L 174.846914 81.62304 
L 175.317031 85.023042 
L 175.985505 88.389677 
L 176.85004 91.711382 
L 177.907672 94.976748 
L 179.154769 98.174563 
L 180.587052 101.293841 
L 182.199604 104.323868 
L 183.986888 107.254239 
L 185.94277 110.074886 
L 188.060533 112.776121 
L 190.332907 115.348665 
L 192.752086 117.783679 
L 195.309764 120.072797 
L 197.997159 122.208156 
L 200.80504 124.182418 
L 203.723766 125.988801 
L 206.743312 127.621097 
L 209.853307 129.073697 
L 213.04307 130.341609 
L 216.301643 131.420474 
L 219.617833 132.306583 
L 222.980248 132.996891 
L 226.377337 133.489022 
L 229.797433 133.781284 
L 233.228787 133.87267 
L 236.65961 133.762863 
L 240.078117 133.452237 
L 243.472562 132.941858 
L 246.831285 132.233475 
L 250.142745 131.329519 
L 253.395564 130.233094 
L 256.578563 128.947964 
L 259.680805 127.478542 
L 262.691631 125.829873 
L 265.600694 124.007621 
L 268.397997 122.018044 
L 271.073926 119.867976 
L 273.619285 117.564802 
L 276.025324 115.116436 
L 278.283775 112.531288 
L 280.386875 109.818239 
L 282.327394 106.98661 
L 284.098661 104.04613 
L 285.694588 101.006903 
L 287.109686 97.879373 
L 288.33909 94.674286 
L 289.378572 91.402654 
L 290.224558 88.075721 
L 290.874136 84.704921 
L 291.325071 81.301837 
L 291.575811 77.878167 
L 291.62549 74.445677 
L 291.473934 71.016164 
L 291.121663 67.601416 
L 290.569883 64.21317 
L 289.820489 60.863073 
L 288.876053 57.562642 
L 287.739819 54.323222 
L 286.41569 51.155949 
L 284.908214 48.071711 
L 283.222572 45.081112 
L 281.364555 42.194435 
L 279.340549 39.421604 
L 277.157508 36.772153 
L 274.822936 34.255193 
L 272.344856 31.879377 
L 269.731784 29.652876 
L 266.992702 27.583346 
L 264.137025 25.677904 
L 261.174569 23.943104 
L 258.115519 22.384914 
L 254.970392 21.008693 
L 251.749999 19.819176 
L 248.465413 18.820456 
L 245.127928 18.015971 
L 241.749022 17.408489 
L 238.340308 17.000102 
L 234.913506 16.792218 
L 231.480398 16.785553 
L 228.052791 16.980134 
L 224.642474 17.375296 
L 221.261173 17.969681 
L 217.920517 18.76125 
L 214.631995 19.747284 
L 211.40692 20.924393 
L 208.256383 22.288532 
L 205.191221 23.835013 
L 202.221977 25.55852 
L 199.358865 27.453129 
L 196.611735 29.512323 
L 193.990038 31.729025 
L 191.50279 34.095613 
L 189.158551 36.603949 
L 186.965385 39.245409 
L 184.930837 42.010909 
L 183.061908 44.890942 
L 181.365032 47.875599 
L 179.846047 50.954616 
L 178.510185 54.117401 
L 177.362043 57.353074 
L 176.405576 60.650502 
L 175.644077 63.998345 
L 175.080169 67.385083 
L 174.715796 70.799067 
L 174.552215 74.22855 
L 174.589992 77.661733 
L 174.829002 81.086807 
L 175.268425 84.491987 
L 175.906754 87.865555 
L 176.741796 91.195901 
L 177.77068 94.471564 
L 178.989872 97.681272 
L 180.395178 100.81398 
L 181.981769 103.858907 
L 183.744187 106.805572 
L 185.676372 109.643832 
L 187.771678 112.363919 
L 190.0229 114.956469 
L 192.422293 117.412558 
L 194.961605 119.723729 
L 197.632095 121.882022 
L 200.424575 123.880005 
L 203.329436 125.710794 
L 206.336679 127.368085 
L 209.435955 128.846167 
L 212.616596 130.139947 
L 215.867658 131.244968 
L 219.177951 132.157422 
L 222.536082 132.874162 
L 225.93049 133.392716 
L 229.349486 133.711292 
L 232.781303 133.82879 
L 236.214122 133.744799 
L 239.636124 133.459603 
L 243.035525 132.974178 
L 246.400619 132.290192 
L 249.719816 131.409994 
L 252.981687 130.336611 
L 256.174996 129.073733 
L 259.288746 127.625704 
L 262.312211 125.997506 
L 265.234976 124.194741 
L 268.046971 122.223616 
L 270.738507 120.090913 
L 273.300311 117.803975 
L 275.723557 115.370673 
L 277.999893 112.799385 
L 280.121476 110.098964 
L 282.080992 107.278708 
L 283.871688 104.348329 
L 285.487389 101.31792 
L 286.922524 98.197918 
L 288.172145 94.999068 
L 289.231941 91.73239 
L 290.098255 88.409139 
L 290.768097 85.040764 
L 291.239153 81.638874 
L 291.509796 78.215189 
L 291.579087 74.781507 
L 291.446785 71.349662 
L 291.113339 67.931482 
L 290.579895 64.538749 
L 289.848287 61.183154 
L 288.921032 57.876259 
L 287.80132 54.629462 
L 286.493007 51.453954 
L 285.000599 48.360685 
L 283.329236 45.360318 
L 281.484676 42.463197 
L 279.473273 39.679309 
L 277.301958 37.018253 
L 274.978211 34.489204 
L 272.510038 32.100882 
L 269.905946 29.861523 
L 267.174908 27.77885 
L 264.326339 25.860046 
L 261.370056 24.111731 
L 258.316252 22.539936 
L 255.175453 21.150084 
L 251.958487 19.946972 
L 248.676441 18.93475 
L 245.34063 18.116913 
L 241.962557 17.496284 
L 238.553867 17.075009 
L 235.126314 16.854545 
L 231.691719 16.835657 
L 228.261926 17.018415 
L 224.848758 17.402194 
L 221.463988 17.985676 
L 218.119295 18.766853 
L 214.826213 19.743036 
L 211.596102 20.910864 
L 208.440107 22.266315 
L 205.369115 23.804717 
L 202.39372 25.520772 
L 199.524187 27.408566 
L 196.770417 29.461592 
L 194.14192 31.672772 
L 191.647768 34.034479 
L 189.296576 36.538567 
L 187.09646 39.1764 
L 185.055017 41.938883 
L 183.179293 44.81649 
L 181.475767 47.799295 
L 179.950325 50.877009 
L 178.608239 54.039012 
L 177.454147 57.274396 
L 176.492039 60.571999 
L 175.725243 63.920445 
L 175.156414 67.308175 
L 174.787526 70.723494 
L 174.61986 74.154617 
L 174.654004 77.589698 
L 174.889849 81.016879 
L 175.32659 84.424325 
L 175.962728 87.800267 
L 176.796077 91.133051 
L 177.82377 94.411168 
L 179.042265 97.623287 
L 180.447359 100.758305 
L 182.034209 103.80539 
L 183.797342 106.754013 
L 185.730677 109.593983 
L 187.827543 112.315485 
L 190.080702 114.909107 
L 192.482373 117.365878 
L 195.024264 119.677302 
L 197.6976 121.835386 
L 200.49316 123.832671 
L 203.401297 125.662252 
L 206.411969 127.317796 
L 209.514775 128.793571 
L 212.698998 130.084464 
L 215.953629 131.185999 
L 219.267416 132.094355 
L 222.628902 132.806379 
L 226.026468 133.319596 
L 229.448364 133.632218 
L 232.882756 133.743153 
L 236.317767 133.652004 
L 239.741517 133.359073 
L 243.142162 132.865361 
L 246.507936 132.172562 
L 249.827193 131.283059 
L 253.088449 130.199917 
L 256.280414 128.92687 
L 259.392032 127.468311 
L 262.412531 125.829275 
L 265.331443 124.015426 
L 268.138659 122.033028 
L 270.824457 119.888929 
L 273.379529 117.59054 
L 275.795017 115.145807 
L 278.06255 112.563179 
L 280.174258 109.851599 
L 282.122807 107.020453 
L 283.901434 104.079543 
L 285.503964 101.039045 
L 286.924828 97.90949 
L 288.159087 94.701714 
L 289.202452 91.426819 
L 290.051288 88.096146 
L 290.702637 84.721233 
L 291.154219 81.313781 
L 291.404449 77.885606 
L 291.45244 74.44859 
L 291.298003 71.014647 
L 290.941653 67.595694 
L 290.384605 64.203603 
L 289.628769 60.850138 
L 288.676748 57.546957 
L 287.531826 54.305534 
L 286.197953 51.137124 
L 284.679744 48.052752 
L 282.982455 45.063146 
L 281.111959 42.178705 
L 279.074736 39.409467 
L 276.87784 36.765062 
L 274.528876 34.25469 
L 272.035993 31.887102 
L 269.407819 29.670533 
L 266.653463 27.612709 
L 263.782484 25.720815 
L 260.804841 24.001457 
L 257.730898 22.46066 
L 254.571358 21.10383 
L 251.337206 19.935726 
L 248.03971 18.960458 
L 244.690382 18.18147 
L 241.300907 17.601518 
L 237.883127 17.222668 
L 234.448945 17.046278 
L 231.010294 17.073004 
L 227.579264 17.302794 
L 224.167874 17.734886 
L 220.788007 18.36782 
L 217.451553 19.199415 
L 214.170221 20.226802 
L 210.955646 21.446381 
L 209.691075 21.987088 
L 209.691075 21.987088 
" clip-path="url(#pa133fbaf10)" style="fill: none; stroke: #aa0000; stroke-linecap: square"/>
   </g>
   <g id="patch_4">
    <path d="M 62.946719 139.811562 
L 62.946719 10.8 
" style="fill: none; stroke: #000000; stroke-width: 0.8; stroke-linejoin: miter; stroke-linecap: square"/>
   </g>
   <g id="patch_5">
    <path d="M 403.2 139.811562 
L 403.2 10.8 
" style="fill: none; stroke: #000000; stroke-width: 0.8; stroke-linejoin: miter; stroke-linecap: square"/>
   </g>
   <g id="patch_6">
    <path d="M 62.946719 139.811563 
L 403.2 139.811563 
" style="fill: none; stroke: #000000; stroke-width: 0.8; stroke-linejoin: miter; stroke-linecap: square"/>
   </g>
   <g id="patch_7">
    <path d="M 62.946719 10.8 
L 403.2 10.8 
" style="fill: none; stroke: #000000; stroke-width: 0.8; stroke-linejoin: miter; stroke-linecap: square"/>
   </g>
  </g>
 </g>
 <defs>
  <clipPath id="pa133fbaf10">
   <rect x="62.946719" y="10.8" width="340.253281" height="129.011562"/>
  </clipPath>
 </defs>
</svg>
