<?xml version="1.0" encoding="utf-8" standalone="no"?>
<!DOCTYPE svg PUBLIC "-//W3C//DTD SVG 1.1//EN"
  "http://www.w3.org/Graphics/SVG/1.1/DTD/svg11.dtd">
<svg xmlns:xlink="http://www.w3.org/1999/xlink" width="414pt" height="180pt" viewBox="0 0 414 180" xmlns="http://www.w3.org/2000/svg" version="1.1">
 <metadata>
  <rdf:RDF xmlns:dc="http://purl.org/dc/elements/1.1/" xmlns:cc="http://creativecommons.org/ns#" xmlns:rdf="http://www.w3.org/1999/02/22-rdf-syntax-ns#">
   <cc:Work>
    <dc:type rdf:resource="http://purl.org/dc/dcmitype/StillImage"/>
    <dc:date>2026-04-07T16:43:42.694091</dc:date>
    <dc:format>image/svg+xml</dc:format>
    <dc:creator>
     <cc:Agent>
      <dc:title>Matplotlib v3.10.7, https://matplotlib.org/</dc:title>
     </cc:Agent>
    </dc:creator>
   </cc:Work>
  </rdf:RDF>
 </metadata>
 <defs>
  <style type="text/css">*{stroke-linejoin: round; stroke-linecap: butt}</style>
 </defs>
 <g id="figure_1">
  <g id="patch_1">
   <path d="M 0 180 
L 414 180 
L 414 0 
L 0 0 
L 0 180 
z
" style="fill: none"/>
  </g>
  <g id="axes_1">
   <g id="patch_2">
    <path d="M 54.354531 139.811563 
L 403.2 139.811563 
L 403.2 10.919409 
L 54.354531 10.919409 
L 54.354531 139.811563 
z
" style="fill: none"/>
   </g>
   <g id="matplotlib.axis_1">
    <g id="xtick_1">
     <g id="line2d_1">
      <defs>
       <path id="ma5002ce61b" d="M 0 0 
L 0 3.5 
" style="stroke: #000000; stroke-width: 0.8"/>
      </defs>
      <g>
       <use xlink:href="#ma5002ce61b" x="70.127928" y="139.811563" style="stroke: #000000; stroke-width: 0.8"/>
      </g>
     </g>
     <g id="text_1">
      <!-- 0 -->
      <g transform="translate(67.264803 153.650156) scale(0.09 -0.09)">
       <defs>
        <path id="DejaVuSans-30" d="M 2034 4250 
Q 1547 4250 1301 3770 
Q 1056 3291 1056 2328 
Q 1056 1369 1301 889 
Q 1547 409 2034 409 
Q 2525 409 2770 889 
Q 3016 1369 3016 2328 
Q 3016 3291 2770 3770 
Q 2525 4250 2034 4250 
z
M 2034 4750 
Q 2819 4750 3233 4129 
Q 3647 3509 3647 2328 
Q 3647 1150 3233 529 
Q 2819 -91 2034 -91 
Q 1250 -91 836 529 
Q 422 1150 422 2328 
Q 422 3509 836 4129 
Q 1250 4750 2034 4750 
z
" transform="scale(0.015625)"/>
       </defs>
       <use xlink:href="#DejaVuSans-30"/>
      </g>
     </g>
    </g>
    <g id="xtick_2">
     <g id="line2d_2">
      <g>
       <use xlink:href="#ma5002ce61b" x="130.042706" y="139.811563" style="stroke: #000000; stroke-width: 0.8"/>
      </g>
     </g>
     <g id="text_2">
      <!-- 2 -->
      <g transform="translate(127.179581 153.650156) scale(0.09 -0.09)">
       <defs>
        <path id="DejaVuSans-32" d="M 1228 531 
L 3431 531 
L 3431 0 
L 469 0 
L 469 531 
Q 828 903 1448 1529 
Q 2069 2156 2228 2338 
Q 2531 2678 2651 2914 
Q 2772 3150 2772 3378 
Q 2772 3750 2511 3984 
Q 2250 4219 1831 4219 
Q 1534 4219 1204 4116 
Q 875 4013 500 3803 
L 500 4441 
Q 881 4594 1212 4672 
Q 1544 4750 1819 4750 
Q 2544 4750 2975 4387 
Q 3406 4025 3406 3419 
Q 3406 3131 3298 2873 
Q 3191 2616 2906 2266 
Q 2828 2175 2409 1742 
Q 1991 1309 1228 531 
z
" transform="scale(0.015625)"/>
       </defs>
       <use xlink:href="#DejaVuSans-32"/>
      </g>
     </g>
    </g>
    <g id="xtick_3">
     <g id="line2d_3">
      <g>
       <use xlink:href="#ma5002ce61b" x="189.957483" y="139.811563" style="stroke: #000000; stroke-width: 0.8"/>
      </g>
     </g>
     <g id="text_3">
      <!-- 4 -->
      <g transform="translate(187.094358 153.650156) scale(0.09 -0.09)">
       <defs>
        <path id="DejaVuSans-34" d="M 2419 4116 
L 825 1625 
L 2419 1625 
L 2419 4116 
z
M 2253 4666 
L 3047 4666 
L 3047 1625 
L 3713 1625 
L 3713 1100 
L 3047 1100 
L 3047 0 
L 2419 0 
L 2419 1100 
L 313 1100 
L 313 1709 
L 2253 4666 
z
" transform="scale(0.015625)"/>
       </defs>
       <use xlink:href="#DejaVuSans-34"/>
      </g>
     </g>
    </g>
    <g id="xtick_4">
     <g id="line2d_4">
      <g>
       <use xlink:href="#ma5002ce61b" x="249.87226" y="139.811563" style="stroke: #000000; stroke-width: 0.8"/>
      </g>
     </g>
     <g id="text_4">
      <!-- 6 -->
      <g transform="translate(247.009135 153.650156) scale(0.09 -0.09)">
       <defs>
        <path id="DejaVuSans-36" d="M 2113 2584 
Q 1688 2584 1439 2293 
Q 1191 2003 1191 1497 
Q 1191 994 1439 701 
Q 1688 409 2113 409 
Q 2538 409 2786 701 
Q 3034 994 3034 1497 
Q 3034 2003 2786 2293 
Q 2538 2584 2113 2584 
z
M 3366 4563 
L 3366 3988 
Q 3128 4100 2886 4159 
Q 2644 4219 2406 4219 
Q 1781 4219 1451 3797 
Q 1122 3375 1075 2522 
Q 1259 2794 1537 2939 
Q 1816 3084 2150 3084 
Q 2853 3084 3261 2657 
Q 3669 2231 3669 1497 
Q 3669 778 3244 343 
Q 2819 -91 2113 -91 
Q 1303 -91 875 529 
Q 447 1150 447 2328 
Q 447 3434 972 4092 
Q 1497 4750 2381 4750 
Q 2619 4750 2861 4703 
Q 3103 4656 3366 4563 
z
" transform="scale(0.015625)"/>
       </defs>
       <use xlink:href="#DejaVuSans-36"/>
      </g>
     </g>
    </g>
    <g id="xtick_5">
     <g id="line2d_5">
      <g>
       <use xlink:href="#ma5002ce61b" x="309.787037" y="139.811563" style="stroke: #000000; stroke-width: 0.8"/>
      </g>
     </g>
     <g id="text_5">
      <!-- 8 -->
      <g transform="translate(306.923912 153.650156) scale(0.09 -0.09)">
       <defs>
        <path id="DejaVuSans-38" d="M 2034 2216 
Q 1584 2216 1326 1975 
Q 1069 1734 1069 1313 
Q 1069 891 1326 650 
Q 1584 409 2034 409 
Q 2484 409 2743 651 
Q 3003 894 3003 1313 
Q 3003 1734 2745 1975 
Q 2488 2216 2034 2216 
z
M 1403 2484 
Q 997 2584 770 2862 
Q 544 3141 544 3541 
Q 544 4100 942 4425 
Q 1341 4750 2034 4750 
Q 2731 4750 3128 4425 
Q 3525 4100 3525 3541 
Q 3525 3141 3298 2862 
Q 3072 2584 2669 2484 
Q 3125 2378 3379 2068 
Q 3634 1759 3634 1313 
Q 3634 634 3220 271 
Q 2806 -91 2034 -91 
Q 1263 -91 848 271 
Q 434 634 434 1313 
Q 434 1759 690 2068 
Q 947 2378 1403 2484 
z
M 1172 3481 
Q 1172 3119 1398 2916 
Q 1625 2713 2034 2713 
Q 2441 2713 2670 2916 
Q 2900 3119 2900 3481 
Q 2900 3844 2670 4047 
Q 2441 4250 2034 4250 
Q 1625 4250 1398 4047 
Q 1172 3844 1172 3481 
z
" transform="scale(0.015625)"/>
       </defs>
       <use xlink:href="#DejaVuSans-38"/>
      </g>
     </g>
    </g>
    <g id="xtick_6">
     <g id="line2d_6">
      <g>
       <use xlink:href="#ma5002ce61b" x="369.701814" y="139.811563" style="stroke: #000000; stroke-width: 0.8"/>
      </g>
     </g>
     <g id="text_6">
      <!-- 10 -->
      <g transform="translate(363.975564 153.650156) scale(0.09 -0.09)">
       <defs>
        <path id="DejaVuSans-31" d="M 794 531 
L 1825 531 
L 1825 4091 
L 703 3866 
L 703 4441 
L 1819 4666 
L 2450 4666 
L 2450 531 
L 3481 531 
L 3481 0 
L 794 0 
L 794 531 
z
" transform="scale(0.015625)"/>
       </defs>
       <use xlink:href="#DejaVuSans-31"/>
       <use xlink:href="#DejaVuSans-30" transform="translate(63.623047 0)"/>
      </g>
     </g>
    </g>
    <g id="text_7">
     <!-- Time [hr] -->
     <g transform="translate(205.828828 167.120313) scale(0.1 -0.1)">
      <defs>
       <path id="DejaVuSans-54" d="M -19 4666 
L 3928 4666 
L 3928 4134 
L 2272 4134 
L 2272 0 
L 1638 0 
L 1638 4134 
L -19 4134 
L -19 4666 
z
" transform="scale(0.015625)"/>
       <path id="DejaVuSans-69" d="M 603 3500 
L 1178 3500 
L 1178 0 
L 603 0 
L 603 3500 
z
M 603 4863 
L 1178 4863 
L 1178 4134 
L 603 4134 
L 603 4863 
z
" transform="scale(0.015625)"/>
       <path id="DejaVuSans-6d" d="M 3328 2828 
Q 3544 3216 3844 3400 
Q 4144 3584 4550 3584 
Q 5097 3584 5394 3201 
Q 5691 2819 5691 2113 
L 5691 0 
L 5113 0 
L 5113 2094 
Q 5113 2597 4934 2840 
Q 4756 3084 4391 3084 
Q 3944 3084 3684 2787 
Q 3425 2491 3425 1978 
L 3425 0 
L 2847 0 
L 2847 2094 
Q 2847 2600 2669 2842 
Q 2491 3084 2119 3084 
Q 1678 3084 1418 2786 
Q 1159 2488 1159 1978 
L 1159 0 
L 581 0 
L 581 3500 
L 1159 3500 
L 1159 2956 
Q 1356 3278 1631 3431 
Q 1906 3584 2284 3584 
Q 2666 3584 2933 3390 
Q 3200 3197 3328 2828 
z
" transform="scale(0.015625)"/>
       <path id="DejaVuSans-65" d="M 3597 1894 
L 3597 1613 
L 953 1613 
Q 991 1019 1311 708 
Q 1631 397 2203 397 
Q 2534 397 2845 478 
Q 3156 559 3463 722 
L 3463 178 
Q 3153 47 2828 -22 
Q 2503 -91 2169 -91 
Q 1331 -91 842 396 
Q 353 884 353 1716 
Q 353 2575 817 3079 
Q 1281 3584 2069 3584 
Q 2775 3584 3186 3129 
Q 3597 2675 3597 1894 
z
M 3022 2063 
Q 3016 2534 2758 2815 
Q 2500 3097 2075 3097 
Q 1594 3097 1305 2825 
Q 1016 2553 972 2059 
L 3022 2063 
z
" transform="scale(0.015625)"/>
       <path id="DejaVuSans-20" transform="scale(0.015625)"/>
       <path id="DejaVuSans-5b" d="M 550 4863 
L 1875 4863 
L 1875 4416 
L 1125 4416 
L 1125 -397 
L 1875 -397 
L 1875 -844 
L 550 -844 
L 550 4863 
z
" transform="scale(0.015625)"/>
       <path id="DejaVuSans-68" d="M 3513 2113 
L 3513 0 
L 2938 0 
L 2938 2094 
Q 2938 2591 2744 2837 
Q 2550 3084 2163 3084 
Q 1697 3084 1428 2787 
Q 1159 2491 1159 1978 
L 1159 0 
L 581 0 
L 581 4863 
L 1159 4863 
L 1159 2956 
Q 1366 3272 1645 3428 
Q 1925 3584 2291 3584 
Q 2894 3584 3203 3211 
Q 3513 2838 3513 2113 
z
" transform="scale(0.015625)"/>
       <path id="DejaVuSans-72" d="M 2631 2963 
Q 2534 3019 2420 3045 
Q 2306 3072 2169 3072 
Q 1681 3072 1420 2755 
Q 1159 2438 1159 1844 
L 1159 0 
L 581 0 
L 581 3500 
L 1159 3500 
L 1159 2956 
Q 1341 3275 1631 3429 
Q 1922 3584 2338 3584 
Q 2397 3584 2469 3576 
Q 2541 3569 2628 3553 
L 2631 2963 
z
" transform="scale(0.015625)"/>
       <path id="DejaVuSans-5d" d="M 1947 4863 
L 1947 -844 
L 622 -844 
L 622 -397 
L 1369 -397 
L 1369 4416 
L 622 4416 
L 622 4863 
L 1947 4863 
z
" transform="scale(0.015625)"/>
      </defs>
      <use xlink:href="#DejaVuSans-54"/>
      <use xlink:href="#DejaVuSans-69" transform="translate(57.958984 0)"/>
      <use xlink:href="#DejaVuSans-6d" transform="translate(85.742188 0)"/>
      <use xlink:href="#DejaVuSans-65" transform="translate(183.154297 0)"/>
      <use xlink:href="#DejaVuSans-20" transform="translate(244.677734 0)"/>
      <use xlink:href="#DejaVuSans-5b" transform="translate(276.464844 0)"/>
      <use xlink:href="#DejaVuSans-68" transform="translate(315.478516 0)"/>
      <use xlink:href="#DejaVuSans-72" transform="translate(378.857422 0)"/>
      <use xlink:href="#DejaVuSans-5d" transform="translate(419.970703 0)"/>
     </g>
    </g>
   </g>
   <g id="matplotlib.axis_2">
    <g id="ytick_1">
     <g id="line2d_7">
      <defs>
       <path id="m4ab7733680" d="M 0 0 
L -3.5 0 
" style="stroke: #000000; stroke-width: 0.8"/>
      </defs>
      <g>
       <use xlink:href="#m4ab7733680" x="54.354531" y="118.962719" style="stroke: #000000; stroke-width: 0.8"/>
      </g>
     </g>
     <g id="text_8">
      <!-- −0.4 -->
      <g transform="translate(25.5 122.382016) scale(0.09 -0.09)">
       <defs>
        <path id="DejaVuSans-2212" d="M 678 2272 
L 4684 2272 
L 4684 1741 
L 678 1741 
L 678 2272 
z
" transform="scale(0.015625)"/>
        <path id="DejaVuSans-2e" d="M 684 794 
L 1344 794 
L 1344 0 
L 684 0 
L 684 794 
z
" transform="scale(0.015625)"/>
       </defs>
       <use xlink:href="#DejaVuSans-2212"/>
       <use xlink:href="#DejaVuSans-30" transform="translate(83.789062 0)"/>
       <use xlink:href="#DejaVuSans-2e" transform="translate(147.412109 0)"/>
       <use xlink:href="#DejaVuSans-34" transform="translate(179.199219 0)"/>
      </g>
     </g>
    </g>
    <g id="ytick_2">
     <g id="line2d_8">
      <g>
       <use xlink:href="#m4ab7733680" x="54.354531" y="97.967808" style="stroke: #000000; stroke-width: 0.8"/>
      </g>
     </g>
     <g id="text_9">
      <!-- −0.2 -->
      <g transform="translate(25.5 101.387105) scale(0.09 -0.09)">
       <use xlink:href="#DejaVuSans-2212"/>
       <use xlink:href="#DejaVuSans-30" transform="translate(83.789062 0)"/>
       <use xlink:href="#DejaVuSans-2e" transform="translate(147.412109 0)"/>
       <use xlink:href="#DejaVuSans-32" transform="translate(179.199219 0)"/>
      </g>
     </g>
    </g>
    <g id="ytick_3">
     <g id="line2d_9">
      <g>
       <use xlink:href="#m4ab7733680" x="54.354531" y="76.972898" style="stroke: #000000; stroke-width: 0.8"/>
      </g>
     </g>
     <g id="text_10">
      <!-- 0.0 -->
      <g transform="translate(33.041719 80.392194) scale(0.09 -0.09)">
       <use xlink:href="#DejaVuSans-30"/>
       <use xlink:href="#DejaVuSans-2e" transform="translate(63.623047 0)"/>
       <use xlink:href="#DejaVuSans-30" transform="translate(95.410156 0)"/>
      </g>
     </g>
    </g>
    <g id="ytick_4">
     <g id="line2d_10">
      <g>
       <use xlink:href="#m4ab7733680" x="54.354531" y="55.977987" style="stroke: #000000; stroke-width: 0.8"/>
      </g>
     </g>
     <g id="text_11">
      <!-- 0.2 -->
      <g transform="translate(33.041719 59.397284) scale(0.09 -0.09)">
       <use xlink:href="#DejaVuSans-30"/>
       <use xlink:href="#DejaVuSans-2e" transform="translate(63.623047 0)"/>
       <use xlink:href="#DejaVuSans-32" transform="translate(95.410156 0)"/>
      </g>
     </g>
    </g>
    <g id="ytick_5">
     <g id="line2d_11">
      <g>
       <use xlink:href="#m4ab7733680" x="54.354531" y="34.983076" style="stroke: #000000; stroke-width: 0.8"/>
      </g>
     </g>
     <g id="text_12">
      <!-- 0.4 -->
      <g transform="translate(33.041719 38.402373) scale(0.09 -0.09)">
       <use xlink:href="#DejaVuSans-30"/>
       <use xlink:href="#DejaVuSans-2e" transform="translate(63.623047 0)"/>
       <use xlink:href="#DejaVuSans-34" transform="translate(95.410156 0)"/>
      </g>
     </g>
    </g>
    <g id="ytick_6">
     <g id="line2d_12">
      <g>
       <use xlink:href="#m4ab7733680" x="54.354531" y="13.988166" style="stroke: #000000; stroke-width: 0.8"/>
      </g>
     </g>
     <g id="text_13">
      <!-- 0.6 -->
      <g transform="translate(33.041719 17.407462) scale(0.09 -0.09)">
       <use xlink:href="#DejaVuSans-30"/>
       <use xlink:href="#DejaVuSans-2e" transform="translate(63.623047 0)"/>
       <use xlink:href="#DejaVuSans-36" transform="translate(95.410156 0)"/>
      </g>
     </g>
    </g>
    <g id="text_14">
     <!-- $(\rho_{stoch} / \rho_{exp}) - 1$ [-] -->
     <g transform="translate(18.4 120.115486) rotate(-90) scale(0.1 -0.1)">
      <defs>
       <path id="DejaVuSans-28" d="M 1984 4856 
Q 1566 4138 1362 3434 
Q 1159 2731 1159 2009 
Q 1159 1288 1364 580 
Q 1569 -128 1984 -844 
L 1484 -844 
Q 1016 -109 783 600 
Q 550 1309 550 2009 
Q 550 2706 781 3412 
Q 1013 4119 1484 4856 
L 1984 4856 
z
" transform="scale(0.015625)"/>
       <path id="DejaVuSans-Oblique-3c1" d="M 1203 2875 
Q 1453 3194 1981 3475 
Q 2188 3584 2756 3584 
Q 3394 3584 3694 3078 
Q 3994 2572 3834 1747 
Q 3672 922 3175 415 
Q 2678 -91 2041 -91 
Q 1656 -91 1409 63 
Q 1163 213 1044 525 
L 681 -1331 
L 103 -1331 
L 697 1716 
Q 838 2438 1203 2875 
z
M 3238 1747 
Q 3359 2381 3169 2744 
Q 2978 3103 2522 3103 
Q 2066 3103 1734 2744 
Q 1403 2381 1281 1747 
Q 1156 1113 1347 750 
Q 1538 391 1994 391 
Q 2450 391 2781 750 
Q 3113 1113 3238 1747 
z
" transform="scale(0.015625)"/>
       <path id="DejaVuSans-Oblique-73" d="M 3200 3397 
L 3091 2853 
Q 2863 2978 2609 3040 
Q 2356 3103 2088 3103 
Q 1634 3103 1373 2948 
Q 1113 2794 1113 2528 
Q 1113 2219 1719 2053 
Q 1766 2041 1788 2034 
L 1972 1978 
Q 2547 1819 2739 1644 
Q 2931 1469 2931 1166 
Q 2931 609 2489 259 
Q 2047 -91 1331 -91 
Q 1053 -91 747 -37 
Q 441 16 72 128 
L 184 722 
Q 500 559 806 475 
Q 1113 391 1394 391 
Q 1816 391 2080 572 
Q 2344 753 2344 1031 
Q 2344 1331 1650 1516 
L 1591 1531 
L 1394 1581 
Q 956 1697 753 1886 
Q 550 2075 550 2369 
Q 550 2928 970 3256 
Q 1391 3584 2113 3584 
Q 2397 3584 2667 3537 
Q 2938 3491 3200 3397 
z
" transform="scale(0.015625)"/>
       <path id="DejaVuSans-Oblique-74" d="M 2706 3500 
L 2619 3053 
L 1472 3053 
L 1100 1153 
Q 1081 1047 1072 975 
Q 1063 903 1063 863 
Q 1063 663 1183 572 
Q 1303 481 1569 481 
L 2150 481 
L 2053 0 
L 1503 0 
Q 991 0 739 200 
Q 488 400 488 806 
Q 488 878 497 964 
Q 506 1050 525 1153 
L 897 3053 
L 409 3053 
L 500 3500 
L 978 3500 
L 1172 4494 
L 1747 4494 
L 1556 3500 
L 2706 3500 
z
" transform="scale(0.015625)"/>
       <path id="DejaVuSans-Oblique-6f" d="M 1625 -91 
Q 1009 -91 651 289 
Q 294 669 294 1325 
Q 294 1706 417 2101 
Q 541 2497 738 2766 
Q 1047 3184 1428 3384 
Q 1809 3584 2291 3584 
Q 2888 3584 3255 3212 
Q 3622 2841 3622 2241 
Q 3622 1825 3500 1412 
Q 3378 1000 3181 728 
Q 2875 309 2494 109 
Q 2113 -91 1625 -91 
z
M 891 1344 
Q 891 869 1089 633 
Q 1288 397 1691 397 
Q 2269 397 2648 901 
Q 3028 1406 3028 2181 
Q 3028 2634 2825 2865 
Q 2622 3097 2228 3097 
Q 1903 3097 1650 2945 
Q 1397 2794 1197 2484 
Q 1050 2253 970 1956 
Q 891 1659 891 1344 
z
" transform="scale(0.015625)"/>
       <path id="DejaVuSans-Oblique-63" d="M 3431 3366 
L 3316 2797 
Q 3109 2947 2876 3022 
Q 2644 3097 2394 3097 
Q 2119 3097 1870 3000 
Q 1622 2903 1453 2725 
Q 1184 2453 1037 2087 
Q 891 1722 891 1331 
Q 891 859 1127 628 
Q 1363 397 1844 397 
Q 2081 397 2348 469 
Q 2616 541 2906 684 
L 2797 116 
Q 2547 13 2283 -39 
Q 2019 -91 1741 -91 
Q 1044 -91 669 257 
Q 294 606 294 1253 
Q 294 1797 489 2255 
Q 684 2713 1069 3078 
Q 1331 3328 1684 3456 
Q 2038 3584 2456 3584 
Q 2700 3584 2940 3529 
Q 3181 3475 3431 3366 
z
" transform="scale(0.015625)"/>
       <path id="DejaVuSans-Oblique-68" d="M 3566 2113 
L 3156 0 
L 2578 0 
L 2988 2091 
Q 3016 2238 3031 2350 
Q 3047 2463 3047 2528 
Q 3047 2791 2881 2937 
Q 2716 3084 2419 3084 
Q 1956 3084 1617 2771 
Q 1278 2459 1178 1941 
L 800 0 
L 225 0 
L 1172 4863 
L 1747 4863 
L 1375 2950 
Q 1594 3244 1934 3414 
Q 2275 3584 2650 3584 
Q 3113 3584 3367 3334 
Q 3622 3084 3622 2631 
Q 3622 2519 3608 2391 
Q 3594 2263 3566 2113 
z
" transform="scale(0.015625)"/>
       <path id="DejaVuSans-2f" d="M 1625 4666 
L 2156 4666 
L 531 -594 
L 0 -594 
L 1625 4666 
z
" transform="scale(0.015625)"/>
       <path id="DejaVuSans-Oblique-65" d="M 3078 2063 
Q 3088 2113 3092 2166 
Q 3097 2219 3097 2272 
Q 3097 2653 2873 2875 
Q 2650 3097 2266 3097 
Q 1838 3097 1509 2826 
Q 1181 2556 1013 2059 
L 3078 2063 
z
M 3578 1613 
L 903 1613 
Q 884 1494 878 1425 
Q 872 1356 872 1306 
Q 872 872 1139 634 
Q 1406 397 1894 397 
Q 2269 397 2603 481 
Q 2938 566 3225 728 
L 3116 159 
Q 2806 34 2476 -28 
Q 2147 -91 1806 -91 
Q 1078 -91 686 257 
Q 294 606 294 1247 
Q 294 1794 489 2264 
Q 684 2734 1063 3103 
Q 1306 3334 1642 3459 
Q 1978 3584 2356 3584 
Q 2950 3584 3301 3228 
Q 3653 2872 3653 2272 
Q 3653 2128 3634 1964 
Q 3616 1800 3578 1613 
z
" transform="scale(0.015625)"/>
       <path id="DejaVuSans-Oblique-78" d="M 3841 3500 
L 2234 1784 
L 3219 0 
L 2559 0 
L 1819 1388 
L 531 0 
L -166 0 
L 1556 1844 
L 641 3500 
L 1300 3500 
L 1972 2234 
L 3144 3500 
L 3841 3500 
z
" transform="scale(0.015625)"/>
       <path id="DejaVuSans-Oblique-70" d="M 3175 2156 
Q 3175 2616 2975 2859 
Q 2775 3103 2400 3103 
Q 2144 3103 1911 2972 
Q 1678 2841 1497 2591 
Q 1319 2344 1212 1994 
Q 1106 1644 1106 1300 
Q 1106 863 1306 627 
Q 1506 391 1875 391 
Q 2147 391 2380 519 
Q 2613 647 2778 891 
Q 2956 1147 3065 1494 
Q 3175 1841 3175 2156 
z
M 1394 2969 
Q 1625 3272 1939 3428 
Q 2253 3584 2638 3584 
Q 3175 3584 3472 3232 
Q 3769 2881 3769 2247 
Q 3769 1728 3584 1258 
Q 3400 788 3053 416 
Q 2822 169 2531 39 
Q 2241 -91 1919 -91 
Q 1547 -91 1294 64 
Q 1041 219 916 525 
L 556 -1331 
L -19 -1331 
L 922 3500 
L 1497 3500 
L 1394 2969 
z
" transform="scale(0.015625)"/>
       <path id="DejaVuSans-29" d="M 513 4856 
L 1013 4856 
Q 1481 4119 1714 3412 
Q 1947 2706 1947 2009 
Q 1947 1309 1714 600 
Q 1481 -109 1013 -844 
L 513 -844 
Q 928 -128 1133 580 
Q 1338 1288 1338 2009 
Q 1338 2731 1133 3434 
Q 928 4138 513 4856 
z
" transform="scale(0.015625)"/>
       <path id="DejaVuSans-2d" d="M 313 2009 
L 1997 2009 
L 1997 1497 
L 313 1497 
L 313 2009 
z
" transform="scale(0.015625)"/>
      </defs>
      <use xlink:href="#DejaVuSans-28" transform="translate(0 0.015625)"/>
      <use xlink:href="#DejaVuSans-Oblique-3c1" transform="translate(39.013672 0.015625)"/>
      <use xlink:href="#DejaVuSans-Oblique-73" transform="translate(102.490234 -16.390625) scale(0.7)"/>
      <use xlink:href="#DejaVuSans-Oblique-74" transform="translate(138.959961 -16.390625) scale(0.7)"/>
      <use xlink:href="#DejaVuSans-Oblique-6f" transform="translate(166.40625 -16.390625) scale(0.7)"/>
      <use xlink:href="#DejaVuSans-Oblique-63" transform="translate(209.233398 -16.390625) scale(0.7)"/>
      <use xlink:href="#DejaVuSans-Oblique-68" transform="translate(247.719727 -16.390625) scale(0.7)"/>
      <use xlink:href="#DejaVuSans-2f" transform="translate(294.819336 0.015625)"/>
      <use xlink:href="#DejaVuSans-Oblique-3c1" transform="translate(328.510742 0.015625)"/>
      <use xlink:href="#DejaVuSans-Oblique-65" transform="translate(391.987305 -16.390625) scale(0.7)"/>
      <use xlink:href="#DejaVuSans-Oblique-78" transform="translate(435.053711 -16.390625) scale(0.7)"/>
      <use xlink:href="#DejaVuSans-Oblique-70" transform="translate(476.479492 -16.390625) scale(0.7)"/>
      <use xlink:href="#DejaVuSans-29" transform="translate(523.647461 0.015625)"/>
      <use xlink:href="#DejaVuSans-2212" transform="translate(582.143555 0.015625)"/>
      <use xlink:href="#DejaVuSans-31" transform="translate(685.415039 0.015625)"/>
      <use xlink:href="#DejaVuSans-20" transform="translate(749.038086 0.015625)"/>
      <use xlink:href="#DejaVuSans-5b" transform="translate(780.825195 0.015625)"/>
      <use xlink:href="#DejaVuSans-2d" transform="translate(819.838867 0.015625)"/>
      <use xlink:href="#DejaVuSans-5d" transform="translate(855.922852 0.015625)"/>
     </g>
    </g>
   </g>
   <g id="line2d_13">
    <path d="M 70.211143 73.581132 
L 70.377573 80.357455 
L 70.710433 80.357523 
L 70.793648 73.581247 
L 70.960078 100.794723 
L 71.043293 92.211097 
L 71.126508 90.563606 
L 71.209723 85.146827 
L 71.292938 67.255779 
L 71.376153 74.591536 
L 71.459368 68.325255 
L 71.542583 75.566442 
L 71.958658 36.456288 
L 72.041873 46.515881 
L 72.125088 42.732626 
L 72.208303 45.460948 
L 72.291518 65.415415 
L 72.374733 59.960821 
L 72.457948 50.474432 
L 72.624378 64.126827 
L 72.707593 64.963219 
L 72.790807 72.50184 
L 72.957237 57.308651 
L 73.040452 65.524241 
L 73.123667 60.06024 
L 73.290097 78.868422 
L 73.373312 79.000503 
L 73.456527 72.344815 
L 73.539742 79.230707 
L 73.622957 72.554717 
L 73.706172 72.645988 
L 73.872602 72.805087 
L 74.039032 89.458808 
L 74.205462 81.145285 
L 74.371892 79.867786 
L 74.538322 106.018336 
L 74.787967 83.27531 
L 74.871182 89.194669 
L 74.954397 81.638004 
L 75.037612 87.702178 
L 75.120827 87.05343 
L 75.204042 86.462077 
L 75.370472 78.65589 
L 75.703331 103.437958 
L 75.786546 94.622022 
L 76.119406 113.516839 
L 76.202621 110.585399 
L 76.285836 101.137589 
L 76.369051 105.477401 
L 76.535481 101.233013 
L 76.618696 81.922307 
L 76.701911 98.651627 
L 76.785126 97.034986 
L 76.951556 76.752487 
L 77.117986 92.739173 
L 77.201201 91.645535 
L 77.284416 101.338577 
L 77.367631 99.484476 
L 77.450846 97.794371 
L 77.866921 56.032195 
L 77.950136 57.585885 
L 78.03335 76.46716 
L 78.116565 70.037595 
L 78.19978 70.352763 
L 78.36621 77.67723 
L 78.449425 60.451295 
L 78.615855 69.449757 
L 78.69907 70.416242 
L 78.8655 44.891894 
L 78.948715 43.516871 
L 79.53122 64.069685 
L 79.69765 92.889773 
L 79.86408 74.256828 
L 79.947295 91.663267 
L 80.03051 90.665697 
L 80.113725 79.067488 
L 80.280155 89.033642 
L 80.613015 57.82825 
L 80.696229 53.048586 
L 80.779444 54.867171 
L 80.862659 63.29954 
L 80.945874 58.03616 
L 81.112304 67.444057 
L 81.195519 68.588796 
L 81.278734 62.857853 
L 81.445164 91.882245 
L 81.528379 90.865834 
L 81.611594 83.164953 
L 81.694809 89.094814 
L 81.778024 81.550659 
L 81.861239 87.623302 
L 82.027669 79.626386 
L 82.110884 85.869233 
L 82.277314 74.255284 
L 82.360529 74.798053 
L 82.526959 89.400383 
L 82.610174 88.004757 
L 82.776604 75.830333 
L 82.859819 82.40897 
L 82.943034 82.230834 
L 83.109464 75.146508 
L 83.192679 81.785651 
L 83.359108 65.03439 
L 83.442323 65.793939 
L 83.525538 83.94774 
L 83.608753 66.172386 
L 83.691968 66.831375 
L 83.775183 67.432113 
L 83.941613 75.252779 
L 84.108043 65.435458 
L 84.191258 66.758824 
L 84.274473 61.191467 
L 84.440903 80.75449 
L 84.524118 73.949523 
L 84.607333 80.694655 
L 84.690548 80.668681 
L 84.773763 73.871437 
L 84.856978 80.623494 
L 85.023408 73.812504 
L 85.106623 73.796274 
L 85.356268 64.875638 
L 85.605913 66.999041 
L 85.689128 85.045634 
L 85.855558 77.487695 
L 85.938772 83.920015 
L 86.021987 72.922588 
L 86.105202 73.584351 
L 86.188417 67.414334 
L 86.271632 67.964281 
L 86.354847 68.465617 
L 86.438062 86.382304 
L 86.521277 79.08062 
L 86.604492 85.372108 
L 86.687707 84.933008 
L 86.770922 67.073266 
L 86.854137 67.653527 
L 86.937352 78.868775 
L 87.103782 64.329653 
L 87.186997 48.292316 
L 87.270212 50.53361 
L 87.353427 52.576711 
L 87.686287 84.488906 
L 87.769502 84.128159 
L 87.852717 87.712394 
L 87.935932 75.781634 
L 88.185577 92.720486 
L 88.352007 90.639512 
L 88.435222 72.276206 
L 88.518436 72.396687 
L 88.601651 72.506528 
L 88.684866 79.379494 
L 88.768081 62.012169 
L 88.851296 69.813226 
L 88.934511 60.064788 
L 89.017726 61.864246 
L 89.184156 74.740563 
L 89.267371 64.556488 
L 89.350586 65.958758 
L 89.433801 60.464303 
L 89.600231 73.37738 
L 89.683446 73.400659 
L 89.849876 80.213929 
L 89.933091 73.458915 
L 90.099521 84.175251 
L 90.265951 72.653935 
L 90.515596 50.361001 
L 90.598811 46.246195 
L 90.765241 50.877471 
L 90.848456 70.348679 
L 90.931671 64.466294 
L 91.098101 72.790041 
L 91.181315 56.006402 
L 91.26453 57.566054 
L 91.43096 76.796706 
L 91.76382 48.611981 
L 91.93025 63.728675 
L 92.013465 47.746548 
L 92.09668 50.036696 
L 92.346325 65.502353 
L 92.512755 73.650985 
L 92.679185 74.79449 
L 92.92883 58.699997 
L 93.012045 60.021471 
L 93.178475 78.836915 
L 93.26169 72.204022 
L 93.344905 79.103715 
L 93.511335 58.899855 
L 93.59455 54.030087 
L 93.677765 55.764517 
L 93.844194 65.559243 
L 93.927409 66.872999 
L 94.010624 50.612845 
L 94.093839 52.649453 
L 94.343484 57.740908 
L 94.509914 76.941773 
L 94.593129 70.476388 
L 94.676344 70.75632 
L 94.842774 81.929377 
L 94.925989 81.196442 
L 95.342064 106.054672 
L 95.591709 78.628831 
L 95.674924 78.187677 
L 95.758139 84.558073 
L 95.924569 56.658882 
L 96.007784 64.933143 
L 96.090999 59.529447 
L 96.174214 60.777256 
L 96.340644 90.150097 
L 96.507073 81.731206 
L 96.673503 107.561852 
L 96.756718 98.388146 
L 96.839933 96.199396 
L 97.172793 115.553616 
L 97.256008 112.445716 
L 97.339223 102.839921 
L 97.505653 108.588841 
L 97.672083 129.879383 
L 97.838513 121.516468 
L 97.921728 100.422505 
L 98.004943 108.739376 
L 98.088158 105.634929 
L 98.337803 133.952828 
L 98.421018 129.217542 
L 98.670663 110.606287 
L 98.753878 96.650514 
L 98.837093 101.387868 
L 99.086737 86.557621 
L 99.253167 95.258454 
L 99.419597 82.060944 
L 99.502812 81.914281 
L 99.752457 94.3405 
L 99.835672 81.822427 
L 99.918887 87.870941 
L 100.002102 80.437087 
L 100.085317 97.294579 
L 100.168532 95.800543 
L 100.251747 94.438599 
L 100.418177 75.550421 
L 100.584607 54.796636 
L 100.917467 86.96438 
L 101.000682 86.383582 
L 101.083897 75.167242 
L 101.167112 75.629638 
L 101.250327 86.738056 
L 101.333542 86.177158 
L 101.416757 85.665831 
L 101.499972 78.426088 
L 101.749616 94.721328 
L 101.832831 86.680579 
L 101.916046 92.299231 
L 102.082476 73.770548 
L 102.165691 80.530833 
L 102.248906 80.518522 
L 102.332121 80.507268 
L 102.415336 73.723134 
L 102.498551 91.175034 
L 102.581766 90.221309 
L 102.831411 68.268354 
L 103.247486 72.759613 
L 103.413916 57.532184 
L 103.497131 58.954165 
L 103.580346 49.562443 
L 103.663561 51.689146 
L 103.746776 53.62775 
L 104.079636 85.211096 
L 104.32928 56.834645 
L 104.66214 89.692095 
L 104.745355 95.044118 
L 104.82857 93.747449 
L 104.911785 92.565418 
L 104.995 84.713347 
L 105.078215 90.505614 
L 105.16143 72.147007 
L 105.411075 97.900334 
L 105.577505 104.681863 
L 105.743935 80.141012 
L 105.82715 90.850777 
L 105.910365 83.14978 
L 105.99358 89.080223 
L 106.243225 70.450608 
L 106.32644 77.504038 
L 106.409655 70.98303 
L 106.49287 77.989361 
L 106.576085 71.425343 
L 106.82573 101.26794 
L 106.908945 98.821032 
L 106.992159 85.901149 
L 107.075374 91.588183 
L 107.158589 90.596353 
L 107.241804 89.692204 
L 107.325019 71.403388 
L 107.408234 78.372465 
L 107.491449 67.859708 
L 107.574664 79.655677 
L 107.741094 62.311685 
L 107.907524 70.994292 
L 108.073954 55.114091 
L 108.157169 63.523627 
L 108.323599 48.90604 
L 108.406814 51.089174 
L 108.490029 59.854631 
L 108.573244 54.893273 
L 108.739674 64.829684 
L 108.989319 52.077816 
L 109.072534 60.755824 
L 109.155749 55.714529 
L 109.238964 57.295375 
L 109.322179 65.511971 
L 109.405394 60.04998 
L 109.821468 109.258907 
L 109.904683 106.703716 
L 110.071113 75.040211 
L 110.154328 81.687544 
L 110.237543 81.570517 
L 110.403973 74.590807 
L 110.570403 101.632538 
L 110.736833 81.516168 
L 110.903263 107.387274 
L 110.986478 98.22157 
L 111.069693 96.04302 
L 111.152908 100.832969 
L 111.319338 90.596591 
L 111.402553 95.868181 
L 111.652198 81.416715 
L 111.901843 90.044274 
L 111.985058 82.412012 
L 112.068273 88.407385 
L 112.234702 69.580388 
L 112.401132 87.724154 
L 112.567562 79.703368 
L 112.733992 78.668984 
L 112.817207 84.995369 
L 112.983637 66.74488 
L 113.066852 67.349713 
L 113.233282 84.925175 
L 113.482927 67.296423 
L 113.649357 68.359322 
L 113.815787 76.018634 
L 113.899002 76.402567 
L 114.065432 59.604472 
L 114.148647 78.307852 
L 114.231862 71.71323 
L 114.315077 89.345786 
L 114.398292 88.551138 
L 114.564722 69.699321 
L 114.731152 87.82317 
L 114.814366 80.387065 
L 114.897581 90.476463 
L 114.980796 88.982591 
L 115.064011 87.620836 
L 115.147226 103.846641 
L 115.396871 82.490605 
L 115.646516 60.755883 
L 115.729731 61.890409 
L 115.896161 70.643466 
L 116.062591 72.286241 
L 116.229021 53.214868 
L 116.312236 55.615606 
L 116.395451 68.494991 
L 116.645096 45.967991 
L 116.811526 57.412943 
L 116.894741 41.975575 
L 116.977956 44.771141 
L 117.061171 54.095522 
L 117.144386 38.951639 
L 117.227601 42.014684 
L 117.310816 44.806863 
L 117.643675 79.120145 
L 117.810105 61.863802 
L 117.89332 62.900727 
L 118.05975 71.483553 
L 118.142965 65.493125 
L 118.309395 77.552537 
L 118.475825 67.137552 
L 118.55904 74.48409 
L 118.642255 57.537944 
L 118.72547 65.73346 
L 118.8919 51.686487 
L 119.05833 55.38971 
L 119.22476 65.24272 
L 119.39119 50.333791 
L 119.474405 59.166519 
L 119.55762 43.575692 
L 119.807265 70.429776 
L 119.89048 70.709722 
L 119.973695 60.274773 
L 120.056909 61.45286 
L 120.140124 69.302339 
L 120.223339 63.505772 
L 120.306554 64.398204 
L 120.389769 71.987234 
L 120.472984 55.263361 
L 120.556199 56.884823 
L 120.639414 58.362917 
L 120.722629 66.485742 
L 120.805844 60.938598 
L 120.889059 62.058279 
L 120.972274 63.078968 
L 121.138704 82.322694 
L 121.305134 75.218305 
L 121.388349 75.075307 
L 121.471564 81.720223 
L 121.554779 64.136634 
L 121.637994 64.973773 
L 121.887639 67.06678 
L 122.054069 84.691107 
L 122.220499 77.187202 
L 122.303714 83.645456 
L 122.386929 72.667476 
L 122.553359 94.404554 
L 122.719788 82.290134 
L 122.803003 82.121415 
L 122.969433 75.052672 
L 123.135863 65.064984 
L 123.302293 73.284288 
L 123.385508 67.137536 
L 123.468723 67.710029 
L 123.635153 89.139827 
L 123.801583 76.771436 
L 123.968013 86.926033 
L 124.051228 85.7487 
L 124.134443 73.987061 
L 124.217658 80.728583 
L 124.384088 73.896776 
L 124.550518 94.280602 
L 124.633733 92.453086 
L 124.800163 79.525782 
L 124.883378 85.777551 
L 124.966593 78.526994 
L 125.049808 88.780917 
L 125.133023 76.751987 
L 125.299453 93.684479 
L 125.549097 54.375406 
L 125.715527 57.629017 
L 125.881957 50.590227 
L 125.965172 41.939556 
L 126.048387 44.741595 
L 126.131602 47.295865 
L 126.214817 67.085669 
L 126.298032 50.801643 
L 126.381247 52.820076 
L 126.547677 56.33731 
L 126.797322 70.272733 
L 126.880537 70.569382 
L 126.963752 77.613502 
L 127.046967 71.086394 
L 127.130182 71.311187 
L 127.296612 71.702988 
L 127.379827 78.646898 
L 127.546257 62.428523 
L 127.629472 63.419207 
L 127.795902 71.919002 
L 128.045546 48.582243 
L 128.128761 46.884387 
L 128.211976 32.389121 
L 128.295191 42.809995 
L 128.378406 39.361749 
L 128.461621 42.392757 
L 128.628051 27.24669 
L 128.711266 38.1224 
L 128.877696 24.843668 
L 128.960911 29.757817 
L 129.044126 16.778143 
L 129.293771 37.342054 
L 129.376986 34.378066 
L 129.709846 75.051685 
L 129.876276 92.271774 
L 129.959491 91.223064 
L 130.125921 82.623006 
L 130.292351 81.104771 
L 130.458781 96.356554 
L 130.541996 84.261258 
L 130.62521 94.606693 
L 130.708425 93.351727 
L 130.874855 74.652029 
L 130.95807 74.562957 
L 131.041285 63.796462 
L 131.1245 64.667489 
L 131.62379 120.042772 
L 131.79022 96.831859 
L 131.873435 101.553845 
L 131.95665 99.684836 
L 132.372725 64.027534 
L 132.45594 76.162206 
L 132.62237 49.685448 
L 132.705585 51.804812 
L 132.7888 60.508907 
L 132.872015 44.813156 
L 132.95523 47.363463 
L 133.038445 39.003578 
L 133.12166 42.06771 
L 133.288089 57.14674 
L 133.371304 58.606387 
L 133.454519 56.024436 
L 133.537734 58.182258 
L 133.704164 71.68193 
L 133.953809 56.345976 
L 134.037024 57.876556 
L 134.120239 48.587395 
L 134.203454 57.576064 
L 134.286669 52.824871 
L 134.369884 61.43879 
L 134.453099 52.433592 
L 134.536314 54.909123 
L 134.702744 72.874621 
L 134.785959 69.031156 
L 134.869174 63.267061 
L 135.202034 86.044515 
L 135.285249 84.948825 
L 135.368464 90.721816 
L 135.534894 82.209664 
L 135.618109 81.453139 
L 135.701324 87.535269 
L 135.784539 86.906638 
L 135.867753 79.56187 
L 135.950968 85.811251 
L 136.034183 78.563372 
L 136.200613 95.189458 
L 136.367043 82.009828 
L 136.450258 81.869862 
L 136.616688 64.170242 
L 136.699903 65.009074 
L 136.783118 65.773726 
L 136.866333 83.926456 
L 136.949548 83.616988 
L 137.115978 66.566883 
L 137.199193 73.965436 
L 137.365623 64.373752 
L 137.532053 76.826696 
L 137.615268 70.373395 
L 137.698483 77.435292 
L 137.781698 70.928159 
L 137.864913 77.940983 
L 137.948128 67.476787 
L 138.114558 79.405094 
L 138.197773 68.811389 
L 138.280988 80.522577 
L 138.364203 73.742357 
L 138.447417 80.506272 
L 138.530632 63.043427 
L 138.613847 63.981783 
L 138.697062 71.608853 
L 138.863492 45.904302 
L 139.029922 50.595286 
L 139.196352 71.00421 
L 139.362782 61.912643 
L 139.778857 68.772759 
L 139.945287 54.231229 
L 140.028502 62.720479 
L 140.111717 46.829997 
L 140.278147 58.135923 
L 140.361362 49.422604 
L 140.444577 52.164088 
L 140.527792 47.891256 
L 140.694222 69.701995 
L 140.777437 63.878142 
L 140.860652 64.742314 
L 140.943867 82.986315 
L 141.110296 66.041301 
L 141.193511 73.486039 
L 141.526371 56.069669 
L 141.942446 29.803755 
L 142.025661 33.680963 
L 142.108876 33.302729 
L 142.275306 51.007277 
L 142.441736 39.467159 
L 142.524951 38.57709 
L 142.941026 70.33833 
L 143.107456 72.041992 
L 143.440316 93.412239 
L 143.523531 74.805536 
L 143.606746 81.474989 
L 143.689961 74.608861 
L 143.773175 91.980767 
L 143.85639 90.957874 
L 144.02282 89.175387 
L 144.272465 59.852185 
L 144.35568 67.843914 
L 144.438895 62.182838 
L 144.605325 91.31768 
L 144.68854 90.35317 
L 144.771755 82.701356 
L 144.85497 88.67241 
L 145.0214 80.503043 
L 145.104615 90.581354 
L 145.18783 89.082851 
L 145.271045 87.716834 
L 145.35426 93.244292 
L 145.437475 92.109154 
L 145.52069 91.074372 
L 145.603905 100.81679 
L 145.68712 92.239121 
L 145.770335 97.366609 
L 145.85355 95.866776 
L 145.936765 87.726695 
L 146.01998 93.253193 
L 146.103195 92.117027 
L 146.18641 84.308388 
L 146.269625 90.137141 
L 146.352839 89.276442 
L 146.519269 87.776559 
L 146.602484 76.438384 
L 146.685699 76.788969 
L 146.768914 77.108521 
L 146.852129 70.62669 
L 146.935344 81.578416 
L 147.018559 80.875348 
L 147.101774 87.007584 
L 147.184989 79.650136 
L 147.268204 85.890696 
L 147.351419 67.945446 
L 147.434634 75.221056 
L 147.517849 68.905693 
L 147.850709 95.761372 
L 147.933924 94.402705 
L 148.100354 71.606601 
L 148.183569 83.070726 
L 148.266784 82.834187 
L 148.516429 46.159875 
L 148.682859 71.23093 
L 148.766074 78.215831 
L 149.015718 62.22807 
L 149.182148 91.356703 
L 149.265363 90.387042 
L 149.431793 71.236057 
L 149.515008 71.446562 
L 149.681438 82.500788 
L 149.764653 71.027477 
L 149.847868 71.256293 
L 149.931083 78.238815 
L 150.014298 71.654914 
L 150.180728 78.760067 
L 150.263943 61.44213 
L 150.347158 69.292493 
L 150.430373 63.499463 
L 150.513588 64.393736 
L 150.680018 65.951941 
L 150.846448 87.677486 
L 150.929663 75.74542 
L 151.096093 92.846829 
L 151.345738 63.480073 
L 151.428953 71.150109 
L 151.512168 65.192128 
L 151.595382 65.93631 
L 151.678597 62.70072 
L 151.845027 49.171799 
L 151.928242 58.107109 
L 152.011457 53.302261 
L 152.094672 55.097727 
L 152.177887 63.508977 
L 152.261102 58.226292 
L 152.427532 67.600539 
L 152.510747 61.955893 
L 152.593962 69.760628 
L 152.760392 44.348376 
L 152.926822 49.293682 
L 153.093252 69.921389 
L 153.259682 92.121524 
L 153.426112 79.446982 
L 153.758972 97.574895 
L 153.842187 78.589682 
L 153.925402 84.923365 
L 154.091832 56.946087 
L 154.258261 66.536174 
L 154.341476 60.984781 
L 154.424691 62.100214 
L 154.507906 73.806388 
L 154.674336 64.026946 
L 154.923981 83.812677 
L 155.007196 83.508403 
L 155.090411 76.455815 
L 155.173626 86.892527 
L 155.256841 85.716673 
L 155.340056 84.644786 
L 155.423271 90.442937 
L 155.589701 81.964985 
L 155.672916 81.224809 
L 155.756131 98.015132 
L 155.922561 88.256962 
L 156.172206 84.700796 
L 156.255421 90.493964 
L 156.505066 70.573037 
L 156.671496 87.603624 
L 156.754711 80.188348 
L 156.837926 86.380557 
L 157.004355 78.58872 
L 157.170785 104.954346 
L 157.254 106.694615 
L 157.42043 91.35402 
L 157.503645 96.558792 
L 157.670075 84.076941 
L 157.75329 83.748885 
L 157.91972 76.401637 
L 158.169365 92.240471 
L 158.41901 89.36073 
L 158.502225 92.479961 
L 158.58544 90.809522 
L 158.75187 78.153876 
L 158.9183 97.817668 
L 159.001515 95.675172 
L 159.08473 93.722143 
L 159.167945 98.717495 
L 159.25116 90.318945 
L 159.500804 102.78237 
L 159.584019 83.333988 
L 159.667234 89.248021 
L 159.833664 80.970876 
L 159.916879 97.784245 
L 160.000094 96.243889 
L 160.166524 93.559794 
L 160.332954 84.553742 
L 160.416169 101.050288 
L 160.665814 70.629895 
L 160.749029 77.667449 
L 160.915459 61.60307 
L 161.081889 70.405338 
L 161.248319 61.39898 
L 161.414749 64.605536 
L 161.497964 59.223734 
L 161.581179 67.270056 
L 161.747609 52.963577 
L 161.830824 61.563546 
L 161.997254 47.276457 
L 162.080469 49.603739 
L 162.163683 62.415493 
L 162.246898 52.713694 
L 162.330113 54.560169 
L 162.413328 56.243365 
L 162.496543 64.55335 
L 162.579758 59.176401 
L 162.662973 67.227014 
L 162.829403 52.928361 
L 162.912618 54.755974 
L 163.079048 85.151131 
L 163.162263 84.728323 
L 163.411908 47.57818 
L 163.495123 49.879078 
L 163.578338 58.75202 
L 163.661553 53.888485 
L 163.827983 73.74026 
L 163.911198 74.326766 
L 163.994413 68.085984 
L 164.077628 86.03875 
L 164.160843 85.537676 
L 164.327273 68.144723 
L 164.410488 75.402403 
L 164.493703 58.376886 
L 164.576918 66.498426 
L 164.660133 50.260478 
L 164.909777 75.493514 
L 164.992992 75.326095 
L 165.076207 92.638406 
L 165.159422 84.778718 
L 165.242637 90.565435 
L 165.325852 89.664362 
L 165.492282 77.404786 
L 165.741927 78.12586 
L 165.825142 89.014469 
L 165.908357 88.250738 
L 165.991572 87.554573 
L 166.074787 76.230689 
L 166.158002 80.511865 
L 166.241217 69.211783 
L 166.324432 69.600343 
L 166.407647 76.729541 
L 166.490862 70.277501 
L 166.657292 88.304321 
L 166.906937 68.918996 
L 166.990152 69.333695 
L 167.156582 76.831195 
L 167.239797 70.37061 
L 167.323012 77.431805 
L 167.489441 57.498698 
L 167.739086 63.049733 
L 167.988731 96.568246 
L 168.155161 76.369788 
L 168.321591 92.421578 
L 168.404806 80.669029 
L 168.488021 91.33263 
L 168.571236 90.364837 
L 168.654451 82.708277 
L 168.737666 88.678545 
L 168.904096 76.58928 
L 168.987311 87.613658 
L 169.070526 80.200688 
L 169.153741 97.080835 
L 169.236956 95.604937 
L 169.403386 86.259092 
L 169.486601 102.603335 
L 169.736246 76.786249 
L 169.819461 77.105393 
L 169.902676 77.396343 
L 170.069105 61.386958 
L 170.31875 91.558578 
L 170.48518 73.155602 
L 170.568395 79.970927 
L 170.65161 73.234938 
L 170.734825 80.043268 
L 170.81804 73.301 
L 170.901255 90.790766 
L 170.98447 72.410895 
L 171.234115 89.221603 
L 171.31733 81.667957 
L 171.48376 90.995888 
L 171.566975 89.460019 
L 171.733405 77.042082 
L 171.81662 83.513843 
L 171.899835 76.465378 
L 171.98305 93.67492 
L 172.066265 92.501334 
L 172.232695 90.456443 
L 172.48234 67.590839 
L 172.648769 79.498899 
L 172.731984 72.806058 
L 172.898414 90.405743 
L 172.981629 89.521619 
L 173.148059 81.208023 
L 173.231274 87.311509 
L 173.314489 79.928112 
L 173.397704 96.83093 
L 173.480919 88.605753 
L 173.564134 94.055029 
L 173.647349 92.848403 
L 173.730564 84.97559 
L 173.813779 94.65897 
L 173.896994 92.800056 
L 173.980209 97.878433 
L 174.146639 88.153001 
L 174.229854 86.869581 
L 174.479499 103.226162 
L 174.645929 114.73818 
L 174.812359 81.736986 
L 174.978789 97.826827 
L 175.062004 89.514482 
L 175.145219 94.883517 
L 175.228434 93.604113 
L 175.311648 96.350698 
L 175.478078 92.512222 
L 175.727723 104.449036 
L 175.894153 100.386599 
L 175.977368 109.305832 
L 176.143798 87.909958 
L 176.227013 93.420954 
L 176.310228 92.271165 
L 176.393443 91.22308 
L 176.559873 71.939615 
L 176.726303 89.685673 
L 176.809518 82.094106 
L 176.892733 88.119469 
L 177.059163 70.306035 
L 177.225593 77.643478 
L 177.308808 71.117079 
L 177.392023 71.34112 
L 177.475238 89.002162 
L 177.558453 88.243424 
L 177.641668 91.464362 
L 177.724883 107.345708 
L 177.891312 96.022351 
L 177.974527 94.043947 
L 178.057742 81.555976 
L 178.140957 87.628971 
L 178.224172 86.991777 
L 178.473817 67.94245 
L 178.640247 86.364138 
L 178.723462 68.382532 
L 178.889892 85.784934 
L 179.056322 78.106941 
L 179.139537 84.484973 
L 179.222752 84.125948 
L 179.305967 73.11438 
L 179.389182 73.760949 
L 179.472397 67.578494 
L 179.638827 75.377399 
L 179.722042 75.823865 
L 179.805257 69.459035 
L 179.888472 69.830047 
L 179.971687 70.168258 
L 180.138117 87.268725 
L 180.304547 75.42784 
L 180.387762 75.869892 
L 180.470977 69.501088 
L 180.554191 69.868425 
L 180.637406 76.975037 
L 180.803836 60.102666 
L 180.970266 73.077799 
L 181.053481 73.128853 
L 181.136696 83.859472 
L 181.219911 79.044685 
L 181.303126 61.711119 
L 181.386341 62.767397 
L 181.469556 63.73026 
L 181.552771 60.69563 
L 181.802416 65.481169 
L 181.885631 60.031203 
L 181.968846 68.007749 
L 182.301706 36.56408 
L 182.384921 46.615943 
L 182.468136 32.150324 
L 182.967426 80.961115 
L 183.133855 70.186789 
L 183.21707 71.092372 
L 183.300285 82.601874 
L 183.3835 75.637837 
L 183.54993 102.497508 
L 183.633145 93.77398 
L 183.71636 98.766428 
L 183.799575 97.144534 
L 183.966005 104.05752 
L 184.04922 95.195991 
L 184.132435 110.7467 
L 184.298865 88.165246 
L 184.38208 93.65366 
L 184.465295 92.483847 
L 184.54851 102.101547 
L 184.631725 100.184627 
L 184.88137 85.653036 
L 185.0478 67.313324 
L 185.131015 67.87395 
L 185.21423 68.384984 
L 185.297445 75.62259 
L 185.38066 69.275433 
L 185.463875 69.662489 
L 185.54709 70.015303 
L 185.71352 77.401862 
L 185.879949 67.228399 
L 186.046379 69.458935 
L 186.129594 81.112806 
L 186.462454 51.597145 
L 186.545669 54.146247 
L 186.628884 56.469908 
L 186.712099 51.816147 
L 186.878529 65.246552 
L 187.044959 66.666982 
L 187.128174 74.056386 
L 187.294604 57.675749 
L 187.377819 65.860262 
L 187.461034 60.375838 
L 187.544249 61.549535 
L 187.627464 69.391455 
L 187.710679 63.594673 
L 187.877109 72.066084 
L 187.960324 55.34805 
L 188.043539 56.966261 
L 188.126754 54.528777 
L 188.209969 46.133606 
L 188.293184 49.16553 
L 188.376398 45.157179 
L 188.542828 66.485077 
L 188.792473 42.667153 
L 188.875688 52.17882 
L 188.958903 47.903792 
L 189.125333 68.76735 
L 189.458193 72.372783 
L 189.541408 55.626717 
L 189.624623 57.219948 
L 189.957483 99.700571 
L 190.040698 97.396097 
L 190.207128 109.893071 
L 190.456773 87.091965 
L 190.623203 101.330771 
L 190.789633 81.281669 
L 190.872848 80.605811 
L 190.956063 97.44762 
L 191.122492 87.795092 
L 191.205707 97.228584 
L 191.288922 95.142368 
L 191.372137 100.013242 
L 191.538567 86.958787 
L 191.704997 68.393314 
L 191.788212 68.856938 
L 191.871427 76.052262 
L 191.954642 58.979054 
L 192.037857 67.047897 
L 192.121072 61.45658 
L 192.204287 62.533521 
L 192.370717 81.868692 
L 192.453932 74.966573 
L 192.537147 81.62155 
L 192.620362 74.741206 
L 192.953222 101.597995 
L 193.119652 81.501383 
L 193.202867 98.264489 
L 193.286082 96.685052 
L 193.369297 88.472237 
L 193.452512 97.845896 
L 193.702156 83.093047 
L 193.785371 89.029255 
L 193.868586 81.493211 
L 194.035016 96.678205 
L 194.118231 88.465612 
L 194.201446 93.926669 
L 194.284661 92.730545 
L 194.367876 84.866926 
L 194.534306 93.65336 
L 194.617521 91.882312 
L 194.700736 100.954444 
L 194.783951 94.624403 
L 194.867166 104.053054 
L 194.950381 101.961228 
L 195.116811 98.3161 
L 195.200026 89.958101 
L 195.283241 95.287066 
L 195.366456 87.196848 
L 195.532886 101.417563 
L 195.616101 92.785077 
L 195.699316 101.777408 
L 195.782531 99.28755 
L 195.865746 97.017849 
L 195.948961 101.722433 
L 196.115391 81.601468 
L 196.28182 70.51026 
L 196.365035 88.246134 
L 196.44825 87.551705 
L 196.531465 80.14493 
L 196.61468 86.341577 
L 196.697895 79.041733 
L 196.78111 85.335926 
L 196.864325 78.12493 
L 196.94754 84.500185 
L 197.197185 66.987473 
L 197.2804 67.573721 
L 197.363615 64.194485 
L 197.530045 46.502295 
L 197.696475 52.230843 
L 197.862905 77.421152 
L 197.94612 70.90959 
L 198.029335 71.14881 
L 198.11255 67.453154 
L 198.195765 68.597065 
L 198.27898 52.177893 
L 198.362195 54.073548 
L 198.44541 66.4894 
L 198.528625 56.431518 
L 198.77827 77.115503 
L 198.861485 77.404818 
L 198.944699 88.356524 
L 199.111129 80.234996 
L 199.194344 79.649293 
L 199.277559 85.889629 
L 199.360774 67.94054 
L 199.443989 75.216318 
L 199.527204 68.899156 
L 199.693634 87.158175 
L 199.860064 75.32498 
L 200.026494 76.180323 
L 200.192924 86.634094 
L 200.276139 86.0814 
L 200.442569 85.118282 
L 200.775429 58.253644 
L 200.941859 67.623872 
L 201.108289 42.574586 
L 201.191504 52.093552 
L 201.274719 47.820778 
L 201.357934 50.101271 
L 201.441149 48.266107 
L 201.524363 33.643246 
L 201.690793 47.173783 
L 201.774008 32.647467 
L 201.857223 43.044359 
L 201.940438 28.883204 
L 202.190083 55.386744 
L 202.356513 59.612261 
L 202.606158 28.561463 
L 202.689373 39.319759 
L 202.772588 25.487927 
L 202.855803 36.518053 
L 202.939018 33.62263 
L 203.188663 43.320571 
L 203.438308 66.3228 
L 203.521523 67.56625 
L 203.687953 83.39037 
L 203.771168 71.836734 
L 203.854383 71.993466 
L 203.937598 72.136342 
L 204.187242 52.923314 
L 204.353672 72.938235 
L 204.436887 66.822163 
L 204.686532 88.038643 
L 204.769747 86.762645 
L 205.019392 74.691124 
L 205.102607 81.370095 
L 205.185822 63.819989 
L 205.269037 64.685857 
L 205.352252 61.561208 
L 205.435467 63.225971 
L 205.518682 57.969029 
L 205.601897 66.126882 
L 205.685112 60.61344 
L 205.768327 61.762977 
L 205.851542 62.810866 
L 206.101187 45.860818 
L 206.184402 55.089533 
L 206.350832 42.848718 
L 206.434047 52.343848 
L 206.517262 48.049599 
L 206.600477 57.084797 
L 206.683692 41.683101 
L 206.850121 53.855539 
L 206.933336 56.20209 
L 207.016551 51.56683 
L 207.182981 62.068521 
L 207.349411 48.648739 
L 207.432626 50.856816 
L 207.515841 42.18162 
L 207.599056 51.735896 
L 207.848701 32.342849 
L 208.015131 46.094784 
L 208.098346 42.353908 
L 208.181561 51.893043 
L 208.347991 39.249353 
L 208.431206 49.063086 
L 208.597636 36.898121 
L 208.680851 40.145841 
L 208.847281 52.579063 
L 208.930496 44.351587 
L 209.180141 53.094069 
L 209.263356 38.047455 
L 209.429785 50.835738 
L 209.513 46.676441 
L 209.596215 49.059761 
L 209.762645 43.470727 
L 209.84586 46.137668 
L 209.929075 55.342455 
L 210.01229 46.871472 
L 210.17872 55.508232 
L 210.261935 57.110777 
L 210.428365 50.161509 
L 210.51158 59.010533 
L 210.594795 54.129026 
L 210.67801 55.853734 
L 210.84444 45.204192 
L 210.927655 59.004018 
L 211.01087 54.123395 
L 211.094085 55.848795 
L 211.1773 46.735075 
L 211.426945 69.773946 
L 211.51016 70.714422 
L 211.593375 64.798585 
L 211.67659 65.580167 
L 211.84302 83.456475 
L 211.926235 76.413997 
L 212.00945 82.941512 
L 212.175879 65.999712 
L 212.425524 85.311568 
L 212.508739 84.878345 
L 212.591954 77.710618 
L 212.675169 84.123552 
L 212.758384 73.10973 
L 212.924814 94.771093 
L 213.008029 86.728775 
L 213.174459 111.715461 
L 213.257674 108.947423 
L 213.424104 97.351611 
L 213.590534 113.769717 
L 213.673749 110.221235 
L 213.840179 94.297798 
L 213.923394 109.929127 
L 214.006609 107.319356 
L 214.089824 104.94042 
L 214.256254 94.022856 
L 214.339469 92.221017 
L 214.505899 79.341385 
L 214.589114 85.610293 
L 214.672328 74.46662 
L 214.838758 85.213435 
L 215.005188 77.631551 
L 215.088403 94.736407 
L 215.254833 85.544843 
L 215.338048 84.49316 
L 215.421263 79.621996 
L 215.504478 79.693064 
L 215.670908 79.816981 
L 215.754123 73.098963 
L 215.837338 90.604424 
L 215.920553 89.70436 
L 216.003768 71.427763 
L 216.170198 78.576325 
L 216.336628 78.88944 
L 216.669488 59.804159 
L 216.835918 76.942541 
L 217.002348 76.387504 
L 217.085563 72.233998 
L 217.251993 83.358829 
L 217.335207 83.099988 
L 217.418422 82.864061 
L 217.584852 75.681542 
L 217.668067 75.502921 
L 217.751282 92.79519 
L 217.917712 80.966652 
L 218.000927 91.60309 
L 218.084142 73.160451 
L 218.167357 73.204921 
L 218.333787 80.053792 
L 218.417002 80.087521 
L 218.500217 84.030387 
L 218.749862 107.848138 
L 218.916292 96.442861 
L 218.999507 111.88292 
L 219.082722 102.330725 
L 219.332367 111.887908 
L 219.498797 96.832757 
L 219.582012 106.065904 
L 219.665227 103.799426 
L 219.914871 110.922379 
L 220.081301 121.133577 
L 220.164516 117.534627 
L 220.247731 107.482954 
L 220.414161 118.275571 
L 220.497376 97.475507 
L 220.580591 106.052935 
L 220.663806 103.188909 
L 220.830236 95.231166 
L 220.996666 102.468613 
L 221.163096 119.16539 
L 221.246311 108.969652 
L 221.412741 119.510881 
L 221.579171 112.905741 
L 221.662386 120.717306 
L 221.995246 92.602425 
L 222.078461 97.698836 
L 222.244891 77.327305 
L 222.328106 83.774564 
L 222.411321 83.479537 
L 222.494536 76.439692 
L 222.57775 82.965436 
L 222.660965 82.741948 
L 222.74418 65.084528 
L 222.91061 73.306342 
L 222.993825 56.483339 
L 223.160255 69.126306 
L 223.24347 69.527859 
L 223.326685 59.211089 
L 223.493115 68.425745 
L 223.659545 70.456341 
L 223.90919 53.317344 
L 223.992405 55.715694 
L 224.158835 49.211971 
L 224.325265 34.069535 
L 224.491695 41.907897 
L 224.57491 38.544229 
L 224.74134 44.481489 
L 224.824555 53.833369 
L 224.90777 49.415038 
L 224.990985 51.559621 
L 225.0742 49.60262 
L 225.157415 56.241328 
L 225.323844 45.536686 
L 225.490274 51.436399 
L 225.573489 47.229957 
L 225.739919 58.469775 
L 225.823134 53.641309 
L 225.989564 73.535512 
L 226.072779 67.37467 
L 226.239209 85.892012 
L 226.322424 85.409447 
L 226.572069 57.010531 
L 226.655284 65.254326 
L 226.904929 68.936032 
L 226.988144 63.181764 
L 227.071359 64.108668 
L 227.237789 72.494913 
L 227.404219 63.153794 
L 227.487434 68.593949 
L 227.570649 86.496511 
L 227.737079 68.017131 
L 227.903508 75.742527 
L 228.069938 86.273869 
L 228.153153 75.074004 
L 228.236368 75.547861 
L 228.402798 86.112055 
L 228.486013 74.926386 
L 228.569228 75.413235 
L 228.652443 69.08574 
L 228.735658 76.261532 
L 228.985303 41.201951 
L 229.151733 46.688748 
L 229.234948 45.161693 
L 229.318163 48.280629 
L 229.484593 36.260495 
L 229.567808 46.339112 
L 229.651023 38.670323 
L 229.817453 45.729597 
L 229.900668 38.114633 
L 229.983883 41.856685 
L 230.150313 58.116068 
L 230.316743 61.887964 
L 230.483172 37.828121 
L 230.732817 47.462485 
L 230.899247 58.662005 
L 230.982462 53.815297 
L 231.065677 62.341424 
L 231.148892 53.257035 
L 231.232107 55.659818 
L 231.315322 61.762356 
L 231.398537 52.130258 
L 231.648182 67.089785 
L 231.731397 67.670354 
L 231.897827 58.942885 
L 232.064257 68.201467 
L 232.313902 71.166238 
L 232.397117 54.52938 
L 232.563547 74.273156 
L 232.646762 68.045486 
L 232.813192 86.449242 
L 232.896407 85.916463 
L 232.979622 78.659042 
L 233.062836 84.988043 
L 233.229266 57.021294 
L 233.395696 59.832664 
L 233.562126 68.940542 
L 233.645341 63.184196 
L 233.728556 70.881668 
L 233.811771 54.269363 
L 233.978201 64.317628 
L 234.144631 56.355831 
L 234.394276 71.070897 
L 234.477491 65.125953 
L 234.560706 65.879766 
L 234.643921 66.566899 
L 234.727136 56.50885 
L 234.810351 58.024667 
L 234.893566 55.493944 
L 234.976781 57.698377 
L 235.059996 52.935886 
L 235.143211 54.767644 
L 235.309641 74.471083 
L 235.392856 68.225245 
L 235.476071 86.161389 
L 235.559286 85.653707 
L 235.80893 113.687052 
L 236.058575 69.543875 
L 236.14179 76.678842 
L 236.225005 70.237549 
L 236.30822 70.539069 
L 236.47465 81.749132 
L 236.557865 81.032604 
L 236.64108 97.836271 
L 236.724295 96.295961 
L 236.80751 105.576596 
L 236.890725 103.351748 
L 236.97394 101.323639 
L 237.057155 92.702692 
L 237.3068 104.592814 
L 237.47323 93.73378 
L 237.63966 110.762636 
L 237.80609 104.487869 
L 237.889305 108.532497 
L 237.97252 106.046053 
L 238.13895 91.973266 
L 238.222165 90.951174 
L 238.388594 71.712712 
L 238.471809 71.883378 
L 238.555024 72.038941 
L 238.721454 99.507659 
L 238.804669 97.819172 
L 238.887884 89.507578 
L 238.971099 94.876905 
L 239.054314 93.597887 
L 239.137529 92.431966 
L 239.220744 102.054362 
L 239.470389 86.120422 
L 239.553604 96.300981 
L 239.636819 94.89592 
L 239.886464 74.870243 
L 240.136109 74.571672 
L 240.302539 91.872031 
L 240.385754 84.085901 
L 240.468969 89.934608 
L 240.552184 82.319762 
L 240.635399 88.324647 
L 240.801829 80.214134 
L 240.885044 97.090792 
L 240.968258 88.842977 
L 241.051473 94.270966 
L 241.384333 55.548933 
L 241.550763 65.379332 
L 241.633978 66.70848 
L 241.883623 82.823585 
L 241.966838 99.469649 
L 242.050053 97.783998 
L 242.299698 77.056156 
L 242.382913 83.526465 
L 242.466128 76.477828 
L 242.549343 93.685152 
L 242.632558 85.7381 
L 242.798988 101.150827 
L 242.965418 81.130347 
L 243.131848 97.32201 
L 243.298278 77.003606 
L 243.381493 83.478534 
L 243.464708 83.206874 
L 243.631137 92.47449 
L 243.714352 102.093301 
L 243.797567 100.175419 
L 243.963997 96.833443 
L 244.130427 73.629194 
L 244.213642 74.228471 
L 244.463287 75.72662 
L 244.546502 69.367344 
L 244.629717 76.517557 
L 244.796147 60.660558 
L 244.962577 69.62645 
L 245.045792 63.806583 
L 245.129007 71.448574 
L 245.212222 65.467555 
L 245.295437 66.18957 
L 245.378652 66.847738 
L 245.545082 88.422053 
L 245.628297 87.11408 
L 245.711512 82.00862 
L 245.794727 64.407417 
L 245.961157 72.739894 
L 246.294016 40.67868 
L 246.377231 39.67974 
L 246.543661 56.305581 
L 246.626876 47.750546 
L 246.793306 63.012062 
L 246.876521 64.550243 
L 246.959736 59.179275 
L 247.042951 67.230558 
L 247.292596 34.345584 
L 247.459026 47.760209 
L 247.542241 33.187901 
L 247.625456 36.764706 
L 247.708671 46.798305 
L 247.791886 42.997378 
L 247.875101 45.706717 
L 248.207961 79.744775 
L 248.291176 62.344128 
L 248.374391 63.342597 
L 248.540821 75.768634 
L 248.624036 75.579933 
L 248.707251 82.180952 
L 248.790466 82.024169 
L 248.87368 75.108259 
L 248.956895 81.751004 
L 249.04011 64.173224 
L 249.20654 72.545879 
L 249.5394 49.586387 
L 249.70583 53.652211 
L 249.87226 74.489589 
L 249.955475 68.240347 
L 250.121905 75.925725 
L 250.20512 80.235413 
L 250.288335 90.337848 
L 250.37155 88.861048 
L 250.454765 94.287677 
L 250.621195 81.256224 
L 250.787625 90.854307 
L 250.87084 83.158143 
L 250.954055 89.089156 
L 251.03727 88.32188 
L 251.120485 87.622473 
L 251.286915 69.890515 
L 251.37013 70.222235 
L 251.453344 59.839093 
L 251.536559 61.05978 
L 251.619774 62.172535 
L 251.786204 70.884193 
L 251.869419 71.727115 
L 251.952634 83.180927 
L 252.035849 76.163839 
L 252.202279 93.19572 
L 252.285494 85.293059 
L 252.368709 91.035395 
L 252.451924 90.096343 
L 252.535139 82.467887 
L 252.618354 88.460095 
L 252.701569 87.748856 
L 252.784784 87.100539 
L 252.867999 79.737167 
L 252.951214 85.970896 
L 253.034429 68.022388 
L 253.200859 75.745587 
L 253.450504 76.879265 
L 253.533719 59.735177 
L 253.616934 60.965632 
L 254.116223 66.37223 
L 254.199438 67.015905 
L 254.365868 74.909708 
L 254.615513 58.79039 
L 254.698728 60.104742 
L 254.781943 57.390363 
L 255.114803 64.520356 
L 255.198018 59.155091 
L 255.281233 60.437402 
L 255.530878 80.154575 
L 255.614093 80.178722 
L 255.697308 73.428947 
L 255.780523 80.220877 
L 255.863738 73.467466 
L 255.946953 80.256007 
L 256.030168 73.499583 
L 256.196598 80.298079 
L 256.446243 89.207979 
L 256.529458 88.431754 
L 256.695888 80.307674 
L 256.779102 79.719811 
L 256.862317 96.639275 
L 256.945532 88.434453 
L 257.111962 103.392187 
L 257.195177 94.590288 
L 257.278392 110.19452 
L 257.361607 107.562535 
L 257.444822 87.708377 
L 257.528037 97.149775 
L 257.611252 95.072679 
L 257.694467 89.267174 
L 257.777682 99.169521 
L 257.944112 86.263823 
L 258.027327 78.977124 
L 258.193757 88.762407 
L 258.360187 83.242953 
L 258.609832 82.562464 
L 258.693047 86.286566 
L 258.859477 74.414889 
L 258.942692 85.031864 
L 259.025907 84.026859 
L 259.109122 83.110751 
L 259.192337 71.592711 
L 259.275552 89.23027 
L 259.441981 80.97323 
L 259.525196 87.098259 
L 259.608411 79.738506 
L 259.691626 85.972742 
L 259.774841 85.48352 
L 259.858056 88.949456 
L 259.941271 87.598227 
L 260.190916 64.660871 
L 260.274131 65.457754 
L 260.357346 83.637606 
L 260.440561 65.901659 
L 260.523776 66.588874 
L 260.606991 84.668641 
L 260.690206 84.294964 
L 260.773421 83.954353 
L 260.939851 76.590197 
L 261.023066 87.014695 
L 261.106281 85.834867 
L 261.189496 91.53005 
L 261.272711 83.779057 
L 261.355926 89.656058 
L 261.439141 88.841468 
L 261.605571 87.422086 
L 261.688786 80.034548 
L 261.772001 96.924952 
L 261.855216 95.467605 
L 261.938431 94.139155 
L 262.021645 86.157689 
L 262.10486 91.824361 
L 262.188075 90.818158 
L 262.27129 93.812577 
L 262.520935 80.052612 
L 262.77058 78.506349 
L 262.853795 84.849706 
L 262.93701 84.46043 
L 263.020225 66.653279 
L 263.10344 67.274528 
L 263.26987 68.357103 
L 263.4363 76.02704 
L 263.685945 77.099582 
L 263.76916 59.943764 
L 263.93559 69.036087 
L 264.018805 70.045484 
L 264.185235 44.615395 
L 264.26845 47.185796 
L 264.601309 71.89384 
L 264.684524 55.198843 
L 264.767739 63.603523 
L 264.850954 58.323357 
L 264.934169 59.68159 
L 265.100599 68.818473 
L 265.267029 43.5967 
L 265.350244 63.708942 
L 265.433459 54.508222 
L 265.516674 56.802666 
L 265.599889 52.124161 
L 265.683104 60.800796 
L 265.849534 47.616305 
L 266.099179 69.584321 
L 266.265609 44.233894 
L 266.432039 55.98254 
L 266.515254 58.146763 
L 266.681684 45.411461 
L 267.014544 54.16305 
L 267.264188 79.315802 
L 267.347403 78.817961 
L 267.513833 68.214038 
L 267.597048 75.46784 
L 267.846693 59.227104 
L 268.013123 68.441421 
L 268.262768 54.849715 
L 268.429198 78.451623 
L 268.678843 77.296395 
L 268.762058 83.747017 
L 268.928488 76.42143 
L 269.011703 76.179782 
L 269.094918 65.278734 
L 269.178133 72.792157 
L 269.261348 66.700551 
L 269.344563 67.318615 
L 269.427778 63.970898 
L 269.594208 46.341389 
L 269.677423 49.35865 
L 269.760638 41.428411 
L 269.927067 57.762827 
L 270.010282 42.31986 
L 270.093497 51.863715 
L 270.176712 47.623137 
L 270.259927 56.697998 
L 270.426357 50.034471 
L 270.509572 35.275157 
L 270.592787 45.442037 
L 270.676002 31.088928 
L 270.759217 34.856558 
L 270.925647 48.191208 
L 271.341722 24.874439 
L 271.424937 29.191775 
L 271.841012 69.417805 
L 271.924227 52.944914 
L 272.007442 54.779898 
L 272.173872 74.482512 
L 272.257087 75.01146 
L 272.340302 68.724328 
L 272.506731 76.33387 
L 272.589946 69.929842 
L 272.839591 88.292503 
L 273.089236 61.014343 
L 273.255666 63.158127 
L 273.338881 70.859252 
L 273.422096 64.939535 
L 273.671741 87.478982 
L 273.754956 86.260082 
L 273.921386 84.136148 
L 274.004601 89.982056 
L 274.087816 89.140445 
L 274.171031 88.37326 
L 274.503891 50.651261 
L 274.587106 59.458431 
L 274.670321 54.547101 
L 274.753536 63.009742 
L 274.836751 57.784376 
L 275.003181 76.978977 
L 275.086396 59.838296 
L 275.252825 68.950224 
L 275.33604 63.199546 
L 275.50247 71.743264 
L 275.585685 72.514696 
L 275.752115 83.594345 
L 275.83533 83.317717 
L 275.918545 83.06556 
L 276.00176 86.746512 
L 276.251405 74.707157 
L 276.33462 74.617848 
L 276.417835 81.305501 
L 276.50105 74.462224 
L 276.584265 81.163635 
L 276.66748 74.332912 
L 276.750695 91.725626 
L 276.83391 90.7299 
L 277.00034 82.225764 
L 277.16677 80.783987 
L 277.249985 86.926301 
L 277.3332 75.675107 
L 277.416415 76.098786 
L 277.49963 69.715937 
L 277.582845 80.747859 
L 277.66606 69.44441 
L 277.749274 69.820461 
L 277.832489 76.932315 
L 277.915704 66.564897 
L 277.998919 67.79421 
L 278.082134 62.14573 
L 278.165349 63.16722 
L 278.248564 70.867451 
L 278.414994 61.810071 
L 278.498209 63.459856 
L 278.581424 58.194659 
L 278.747854 77.319719 
L 278.914284 60.402427 
L 278.997499 61.578045 
L 279.080714 62.6497 
L 279.163929 81.075622 
L 279.330359 63.52332 
L 279.580004 82.495069 
L 279.663219 75.546396 
L 279.746434 92.831807 
L 279.912864 74.236488 
L 279.996079 80.957756 
L 280.079294 80.914116 
L 280.328939 80.804967 
L 280.578583 44.662866 
L 280.661798 47.230273 
L 280.994658 82.606309 
L 281.161088 61.828366 
L 281.244303 63.476345 
L 281.327518 58.209374 
L 281.410733 59.578752 
L 281.577163 68.734111 
L 281.660378 52.322004 
L 281.743593 54.212009 
L 281.910023 57.505371 
L 281.993238 76.386367 
L 282.242883 59.925608 
L 282.492528 82.819636 
L 282.575743 88.781801 
L 282.658958 81.276802 
L 282.742173 87.375399 
L 282.825388 86.764029 
L 282.908603 79.437433 
L 282.991817 85.698683 
L 283.158247 74.133145 
L 283.241462 74.692808 
L 283.491107 59.586832 
L 283.574322 78.283834 
L 283.657537 71.707079 
L 283.740752 82.562903 
L 283.823967 71.098074 
L 283.990397 78.305854 
L 284.323257 44.558246 
L 284.406472 43.223611 
L 284.489687 29.066901 
L 284.656117 43.379973 
L 284.739332 35.978804 
L 284.822547 39.912554 
L 284.905762 36.729031 
L 285.072192 60.427292 
L 285.155407 55.429548 
L 285.238622 57.04452 
L 285.405052 46.211735 
L 285.654696 57.484818 
L 285.821126 66.993947 
L 286.070771 70.260136 
L 286.153986 53.712406 
L 286.403631 76.007886 
L 286.486846 76.401696 
L 286.570061 69.991273 
L 286.653276 70.318512 
L 286.736491 77.38622 
L 286.819706 70.888734 
L 286.902921 77.906008 
L 287.069351 51.152213 
L 287.152566 59.914906 
L 287.402211 64.89811 
L 287.485426 59.505056 
L 287.568641 71.440078 
L 287.651856 67.728219 
L 287.818286 69.88077 
L 287.901501 64.047092 
L 287.984716 64.90006 
L 288.151146 66.386374 
L 288.23436 56.352098 
L 288.40079 66.052863 
L 288.56722 68.488709 
L 288.650435 52.097847 
L 288.73365 54.007608 
L 288.983295 69.462356 
L 289.06651 69.836496 
L 289.149725 66.266584 
L 289.23294 67.522015 
L 289.316155 61.897091 
L 289.39937 62.94031 
L 289.5658 71.52748 
L 289.73223 73.038039 
L 289.815445 66.925373 
L 289.89866 67.52396 
L 289.981875 68.069618 
L 290.148305 75.789749 
L 290.23152 69.433805 
L 290.314735 80.490816 
L 290.39795 79.889778 
L 290.56438 78.842479 
L 290.647595 85.156492 
L 290.814025 73.683047 
L 290.980454 74.829407 
L 291.063669 68.558501 
L 291.146884 69.012782 
L 291.479744 107.842357 
L 291.729389 99.560517 
L 291.812604 104.042325 
L 291.895819 101.957227 
L 292.062249 91.554737 
L 292.228679 105.984897 
L 292.395109 94.901559 
L 292.644754 115.137678 
L 292.811184 92.771517 
L 292.894399 101.764567 
L 292.977614 99.282275 
L 293.060829 97.019502 
L 293.144044 101.725994 
L 293.227259 82.396539 
L 293.310474 88.396218 
L 293.393689 87.694783 
L 293.476904 80.286215 
L 293.560118 86.472513 
L 293.643333 68.491997 
L 293.726548 68.952163 
L 293.809763 69.371628 
L 293.892978 59.073969 
L 294.059408 72.225782 
L 294.142623 72.355762 
L 294.309053 79.35142 
L 294.392268 72.680719 
L 294.475483 79.539626 
L 294.725128 43.704727 
L 294.808343 46.357008 
L 294.891558 55.543896 
L 294.974773 50.978674 
L 295.141203 54.81908 
L 295.307633 64.779435 
L 295.390848 66.166646 
L 295.557278 41.399321 
L 295.640493 51.024705 
L 295.723708 46.859265 
L 295.890138 58.165359 
L 296.139782 63.574247 
L 296.222997 58.29909 
L 296.306212 66.429987 
L 296.389427 60.902329 
L 296.555857 72.800908 
L 296.722287 79.721721 
L 296.805502 83.698489 
L 296.971932 72.272736 
L 297.221577 43.329347 
L 297.304792 46.015191 
L 297.388007 44.552767 
L 297.471222 30.280405 
L 297.554437 34.12033 
L 297.720867 47.580444 
L 298.053727 57.760766 
L 298.136942 53.000322 
L 298.220157 61.600008 
L 298.303372 45.820575 
L 298.386587 55.055249 
L 298.469802 50.53422 
L 298.553017 59.352046 
L 298.719447 46.418812 
L 298.802661 55.60063 
L 298.885876 40.352206 
L 298.969091 43.301865 
L 299.052306 56.669987 
L 299.135521 47.497302 
L 299.218736 49.815144 
L 299.301951 58.696688 
L 299.385166 53.854093 
L 299.468381 55.609836 
L 299.634811 45.024098 
L 299.801241 60.75217 
L 299.967671 53.407799 
L 300.134101 57.984154 
L 300.217316 53.205075 
L 300.300531 61.786978 
L 300.466961 47.499851 
L 300.550176 49.817997 
L 300.716606 60.625801 
L 300.799821 55.613494 
L 300.966251 68.407653 
L 301.049466 68.876961 
L 301.215896 76.463006 
L 301.299111 70.050412 
L 301.46554 87.172215 
L 301.548755 69.134333 
L 301.63197 69.539605 
L 301.715185 69.909077 
L 301.881615 87.054805 
L 301.96483 69.027765 
L 302.048045 86.888675 
L 302.13126 75.64442 
L 302.214475 76.072707 
L 302.547335 96.205408 
L 302.63055 88.047668 
L 302.880195 102.018534 
L 302.96341 100.114578 
L 303.046625 80.933671 
L 303.12984 87.063635 
L 303.29627 85.952496 
L 303.4627 67.584209 
L 303.62913 85.123042 
L 303.878775 67.499477 
L 303.96199 68.05017 
L 304.128419 75.777247 
L 304.378064 76.921477 
L 304.627709 97.337573 
L 304.710924 95.848167 
L 304.794139 87.723276 
L 304.877354 103.929908 
L 304.960569 95.09037 
L 305.043784 110.645419 
L 305.126999 107.97921 
L 305.210214 105.548814 
L 305.293429 96.566253 
L 305.376644 101.313887 
L 305.543074 91.027895 
L 305.709504 88.103977 
L 305.792719 97.50964 
L 305.875934 84.730235 
L 305.959149 101.201241 
L 306.208794 69.865207 
L 306.292009 76.974254 
L 306.375224 70.519206 
L 306.458439 77.570417 
L 306.541654 67.153159 
L 306.624869 68.333648 
L 306.791298 80.122893 
L 306.874513 62.713257 
L 306.957728 63.688057 
L 307.040943 82.019747 
L 307.124158 81.885586 
L 307.207373 74.996558 
L 307.290588 92.328088 
L 307.373803 73.839419 
L 307.540233 90.320829 
L 307.706663 71.218477 
L 307.956308 88.328103 
L 308.289168 57.412244 
L 308.372383 59.454557 
L 308.538813 35.839196 
L 308.622028 45.957566 
L 308.954888 22.251922 
L 309.038103 26.805592 
L 309.204533 44.47203 
L 309.287747 43.151426 
L 309.370962 46.455297 
L 309.454177 42.700671 
L 309.620607 54.715046 
L 309.703822 56.996383 
L 309.787037 52.309732 
L 309.953467 55.9336 
L 310.036682 64.275121 
L 310.286327 51.716159 
L 310.535972 74.501094 
L 310.619187 68.266882 
L 310.868832 86.093631 
L 310.952047 78.834394 
L 311.035262 85.150725 
L 311.201692 77.601426 
L 311.368122 76.950601 
L 311.451337 83.433554 
L 311.534552 72.500958 
L 311.617767 73.209995 
L 311.700982 67.090582 
L 311.867412 74.982719 
L 312.117056 76.325691 
L 312.200271 66.022171 
L 312.283486 67.304394 
L 312.449916 69.538773 
L 312.533131 74.418863 
L 312.616346 63.685966 
L 312.699561 71.342141 
L 312.949206 44.294708 
L 313.032421 58.172897 
L 313.115636 53.384167 
L 313.198851 61.951498 
L 313.282066 56.828702 
L 313.365281 58.32607 
L 313.448496 59.691034 
L 313.531711 50.261382 
L 313.781356 71.595835 
L 313.947786 73.105748 
L 314.031001 66.996964 
L 314.114216 67.59536 
L 314.197431 74.905986 
L 314.280646 57.964504 
L 314.363861 66.126885 
L 314.613505 33.582949 
L 314.69672 37.136669 
L 314.86315 60.767516 
L 314.946365 55.750526 
L 315.02958 57.343921 
L 315.112795 48.123177 
L 315.279225 69.896723 
L 315.36244 53.399505 
L 315.52887 74.281088 
L 315.612085 68.069455 
L 315.778515 75.798039 
L 315.86173 69.452421 
L 315.944945 69.83445 
L 316.02816 70.182715 
L 316.111375 66.592004 
L 316.19459 67.82532 
L 316.36102 42.808474 
L 316.444235 45.547078 
L 316.69388 63.066241 
L 316.777095 64.013432 
L 316.943525 72.42833 
L 317.02674 55.70923 
L 317.193169 85.92888 
L 317.276384 68.016097 
L 317.359599 68.52578 
L 317.442814 68.990423 
L 317.692459 97.316578 
L 317.775674 95.833315 
L 317.858889 87.717218 
L 317.942104 93.248788 
L 318.108534 74.609265 
L 318.191749 81.300111 
L 318.358179 74.408867 
L 318.441394 70.44575 
L 318.691039 53.356843 
L 319.023899 61.773805 
L 319.107114 56.670685 
L 319.190329 64.94812 
L 319.356759 50.151009 
L 319.523189 60.910675 
L 319.772833 65.674795 
L 319.856048 49.556153 
L 320.188908 77.455952 
L 320.355338 67.109552 
L 320.438553 67.700667 
L 320.521768 75.002806 
L 320.604983 68.730787 
L 320.771413 80.257514 
L 320.937843 79.165074 
L 321.021058 85.453349 
L 321.104273 67.586953 
L 321.187488 68.136133 
L 321.353918 75.856213 
L 321.437133 80.179568 
L 321.520348 79.615199 
L 321.603563 79.100783 
L 321.686778 96.065021 
L 321.769993 87.931019 
L 322.019638 101.936467 
L 322.102853 89.376177 
L 322.186068 92.50395 
L 322.352498 89.34206 
L 322.435712 77.297715 
L 322.518927 83.751229 
L 322.685357 76.449746 
L 322.768572 93.648076 
L 322.851787 92.491021 
L 322.935002 95.343408 
L 323.018217 93.4384 
L 323.267862 114.974206 
L 323.351077 111.931209 
L 323.517507 127.024406 
L 323.600722 122.915745 
L 323.767152 108.993864 
L 323.850367 123.313782 
L 324.016797 105.417626 
L 324.100012 107.126838 
L 324.183227 121.611809 
L 324.266442 117.981844 
L 324.349657 114.672905 
L 324.432872 122.326057 
L 324.516087 101.200978 
L 324.599302 116.209949 
L 324.682517 113.057683 
L 324.932162 87.745094 
L 325.015377 103.943997 
L 325.265021 62.249918 
L 325.348236 63.271522 
L 325.431451 64.202779 
L 325.597881 83.257498 
L 325.764311 66.313783 
L 326.013956 85.561914 
L 326.180386 74.04754 
L 326.346816 84.875137 
L 326.430031 77.731399 
L 326.596461 93.555532 
L 326.679676 85.644117 
L 326.762891 102.028857 
L 327.012536 87.09679 
L 327.095751 79.756479 
L 327.178966 85.992321 
L 327.262181 85.512202 
L 327.511826 84.311859 
L 327.595041 66.548166 
L 327.678255 84.621688 
L 327.76147 84.262743 
L 327.9279 72.967601 
L 328.011115 73.639251 
L 328.09433 56.819274 
L 328.26076 66.45244 
L 328.343975 60.937679 
L 328.42719 62.075159 
L 328.510405 69.874632 
L 328.676835 51.285633 
L 328.76005 47.112163 
L 328.92648 58.386404 
L 329.009695 53.585008 
L 329.09291 62.135387 
L 329.176125 57.002491 
L 329.25934 75.920331 
L 329.342555 69.568375 
L 329.42577 87.374942 
L 329.5922 68.79123 
L 329.675415 69.234286 
L 329.75863 69.638151 
L 329.841845 66.099277 
L 329.92506 78.048096 
L 330.09149 51.31518 
L 330.25792 61.879135 
L 330.424349 37.879838 
L 330.673994 72.890512 
L 330.757209 73.56931 
L 330.840424 78.095096 
L 330.923639 77.715606 
L 331.006854 94.801633 
L 331.173284 74.963241 
L 331.256499 81.623208 
L 331.339714 81.529797 
L 331.506144 74.604673 
L 331.672574 90.95774 
L 331.755789 90.038888 
L 331.839004 82.438951 
L 331.922219 92.344777 
L 332.005434 90.705268 
L 332.088649 89.210765 
L 332.171864 94.610778 
L 332.255079 93.368937 
L 332.338294 85.474617 
L 332.421509 91.205038 
L 332.504724 72.832927 
L 332.587939 79.681363 
L 332.671154 72.997623 
L 332.754369 73.069243 
L 333.087228 98.651193 
L 333.170443 97.052208 
L 333.253658 106.26368 
L 333.420088 95.158059 
L 333.503303 93.269996 
L 333.586518 80.879943 
L 333.669733 87.016766 
L 333.752948 69.015675 
L 333.836163 80.108575 
L 333.919378 79.551531 
L 334.002593 79.043767 
L 334.085808 85.343026 
L 334.169023 84.921141 
L 334.252238 88.44336 
L 334.335453 97.818124 
L 334.501883 90.796402 
L 334.585098 89.892296 
L 334.751528 77.648161 
L 335.001173 78.357827 
L 335.250818 87.76063 
L 335.417248 79.784026 
L 335.500463 79.256049 
L 335.583677 85.536668 
L 335.666892 85.097977 
L 335.750107 77.93627 
L 335.833322 95.002111 
L 335.916537 93.726403 
L 335.999752 96.470141 
L 336.166182 92.640352 
L 336.332612 106.888164 
L 336.415827 87.131341 
L 336.665472 110.196808 
L 336.831902 78.035166 
L 336.915117 84.423851 
L 336.998332 84.083875 
L 337.081547 77.012382 
L 337.247977 96.865265 
L 337.331192 94.827129 
L 337.414407 99.730825 
L 337.580837 89.731962 
L 337.830482 85.872751 
L 338.080127 99.435647 
L 338.163341 97.768339 
L 338.329771 78.377346 
L 338.496201 88.275085 
L 338.662631 82.868985 
L 338.745846 82.666961 
L 338.912276 65.829558 
L 338.995491 66.536668 
L 339.161921 88.160534 
L 339.245136 86.892836 
L 339.411566 101.169117 
L 339.494781 99.348958 
L 339.744426 78.313757 
L 339.827641 77.917064 
L 339.994071 67.502141 
L 340.160501 75.332886 
L 340.243716 75.79795 
L 340.326931 69.461024 
L 340.410146 87.275464 
L 340.576576 79.384929 
L 340.659791 85.654766 
L 340.743006 85.207202 
L 340.82622 74.132496 
L 340.909435 74.70406 
L 340.99265 68.464416 
L 341.15908 76.133205 
L 341.49194 42.285933 
L 341.65837 64.103945 
L 341.741585 48.136383 
L 341.8248 50.409851 
L 341.99123 54.371571 
L 342.074445 45.427868 
L 342.15766 47.941207 
L 342.240875 50.232351 
L 342.407305 60.984979 
L 342.49052 55.960611 
L 342.65695 75.467394 
L 342.740165 69.162537 
L 342.82338 76.337234 
L 342.906595 69.95571 
L 342.98981 70.300621 
L 343.15624 77.66145 
L 343.32267 51.015411 
L 343.405885 53.035946 
L 343.572314 73.037624 
L 343.655529 73.708467 
L 343.738744 67.560887 
L 343.821959 74.877675 
L 343.905174 68.626997 
L 343.988389 69.090548 
L 344.154819 60.177894 
L 344.238034 68.147863 
L 344.321249 62.493217 
L 344.487679 71.176116 
L 344.570894 65.254156 
L 344.654109 72.775368 
L 344.737324 66.712316 
L 344.820539 67.346355 
L 344.903754 85.345447 
L 345.070184 77.792031 
L 345.236614 77.13174 
L 345.319829 94.264961 
L 345.486259 85.204915 
L 345.569474 101.623845 
L 345.735904 80.658767 
L 345.819119 86.818014 
L 345.985549 79.018597 
L 346.151978 78.153178 
L 346.235193 73.873326 
L 346.484838 84.378072 
L 346.651268 83.7501 
L 346.817698 76.472228 
L 346.900913 83.00225 
L 346.984128 76.039589 
L 347.067343 82.607956 
L 347.233773 75.524699 
L 347.316988 92.797998 
L 347.483418 83.992779 
L 347.566633 83.102161 
L 347.982708 53.770603 
L 348.065923 62.30908 
L 348.232353 38.288452 
L 348.481998 46.936212 
L 348.731642 69.097422 
L 348.814857 63.369405 
L 348.898072 74.961762 
L 349.230932 55.922385 
L 349.397362 65.725688 
L 349.480577 60.297877 
L 349.647007 69.362021 
L 349.813437 71.282495 
L 349.979867 52.512271 
L 350.063082 55.007896 
L 350.146297 50.530258 
L 350.312727 71.901404 
L 350.395942 65.93035 
L 350.479157 62.741767 
L 350.562372 64.333616 
L 350.645587 59.032849 
L 350.728802 67.107843 
L 350.812017 50.909725 
L 350.895232 52.951772 
L 350.978447 54.813357 
L 351.144877 48.347981 
L 351.228092 50.61739 
L 351.311306 42.034945 
L 351.727381 79.19691 
L 351.810596 72.58588 
L 351.977026 79.579074 
L 352.060241 79.685012 
L 352.309886 88.799415 
L 352.393101 88.090449 
L 352.476316 70.04695 
L 352.559531 70.400233 
L 352.642746 60.074572 
L 352.725961 61.310364 
L 352.892391 53.758705 
L 353.058821 74.585362 
L 353.142036 64.488932 
L 353.558111 97.380834 
L 353.641326 106.560944 
L 353.724541 86.8921 
L 353.807756 92.505322 
L 354.0574 73.223094 
L 354.140615 90.689495 
L 354.22383 83.071544 
L 354.307045 89.023041 
L 354.39026 77.655789 
L 354.473475 77.937393 
L 354.55669 78.194251 
L 354.639905 67.786136 
L 354.72312 68.941405 
L 354.806335 73.891638 
L 354.88955 91.297425 
L 354.972765 90.373555 
L 355.05598 89.531568 
L 355.305625 67.945413 
L 355.38884 62.344114 
L 355.7217 92.216085 
L 355.804915 91.212971 
L 355.971345 82.722674 
L 356.05456 88.706427 
L 356.137775 88.01455 
L 356.304205 86.809562 
L 356.470635 79.066956 
L 356.720279 69.037728 
L 356.886709 86.341427 
L 356.969924 85.860739 
L 357.136354 68.588145 
L 357.219569 86.458229 
L 357.469214 65.643492 
L 357.552429 66.995243 
L 357.718859 79.044456 
L 357.802074 72.47179 
L 357.885289 79.363827 
L 357.968504 72.763667 
L 358.051719 72.890886 
L 358.134934 79.746074 
L 358.218149 73.113246 
L 358.384579 80.03737 
L 358.551009 53.131911 
L 358.800654 68.879078 
L 358.883869 65.459873 
L 358.967084 77.461492 
L 359.050299 60.405254 
L 359.133514 61.629003 
L 359.299943 73.450739 
L 359.383158 73.521277 
L 359.549588 90.068917 
L 359.632803 89.265827 
L 359.716018 81.798269 
L 359.799233 87.867174 
L 359.965663 79.970773 
L 360.048878 96.827749 
L 360.132093 95.4282 
L 360.215308 94.152687 
L 360.298523 86.255785 
L 360.381738 95.821634 
L 360.464953 93.916476 
L 360.548168 92.180045 
L 360.714598 86.204461 
L 360.881028 105.636629 
L 360.964243 103.460173 
L 361.047458 94.743601 
L 361.213888 118.325874 
L 361.380318 94.667765 
L 361.463533 103.489036 
L 361.546748 100.908738 
L 361.629963 98.556871 
L 361.713178 85.792675 
L 361.879607 110.886533 
L 362.046037 89.432301 
L 362.129252 105.447105 
L 362.295682 84.915044 
L 362.378897 83.980148 
L 362.462112 93.746416 
L 362.711757 69.601735 
L 362.794972 70.022691 
L 362.878187 81.023608 
L 362.961402 80.434661 
L 363.044617 79.898073 
L 363.127832 86.137902 
L 363.211047 78.963932 
L 363.294262 95.902175 
L 363.377477 94.593402 
L 363.627122 74.9197 
L 363.710337 92.214723 
L 363.793552 91.233357 
L 363.876767 72.998455 
L 363.959982 79.849481 
L 364.126412 63.66579 
L 364.209627 64.616461 
L 364.292842 54.871357 
L 364.376057 56.600774 
L 364.459271 58.177558 
L 364.542486 66.340691 
L 364.625701 60.926052 
L 364.708916 62.12121 
L 364.792131 59.325931 
L 364.958561 72.690964 
L 365.041776 73.441574 
L 365.124991 67.402325 
L 365.208206 78.635073 
L 365.291421 67.658447 
L 365.374636 74.984251 
L 365.457851 64.926805 
L 365.624281 77.347578 
L 365.873926 78.285625 
L 365.957141 71.824177 
L 366.040356 82.665871 
L 366.123571 81.944607 
L 366.290001 98.012241 
L 366.456431 74.91056 
L 366.539646 86.073377 
L 366.622861 85.64744 
L 366.789291 78.188065 
L 366.872506 95.184811 
L 367.038936 76.454263 
L 367.12215 83.005296 
L 367.205365 76.136936 
L 367.371795 92.251107 
L 367.45501 84.566913 
L 367.538225 90.400923 
L 367.62144 72.286716 
L 367.78787 79.39563 
L 367.871085 72.852958 
L 367.9543 73.010394 
L 368.037515 73.154565 
L 368.203945 93.653589 
L 368.28716 98.685396 
L 368.536805 77.184709 
L 368.703235 76.762059 
L 368.78645 83.289733 
L 368.869665 83.123212 
L 368.95288 65.676133 
L 369.036095 73.185406 
L 369.28574 55.809708 
L 369.368955 51.371284 
L 369.45217 53.441051 
L 369.535385 72.616685 
L 369.6186 66.694583 
L 369.701814 77.990605 
L 369.785029 77.707534 
L 369.868244 77.450266 
L 369.951459 83.920974 
L 370.034674 77.004378 
L 370.284319 101.607373 
L 370.367534 99.832154 
L 370.533964 90.040277 
L 370.617179 95.398858 
L 370.866824 75.714468 
L 371.033254 102.478567 
L 371.116469 100.633159 
L 371.199684 109.51741 
L 371.282899 107.05042 
L 371.366114 98.107 
L 371.449329 102.754337 
L 371.615759 82.867223 
L 371.698974 82.171454 
L 371.865404 107.836939 
L 372.281479 70.842697 
L 372.447908 82.311981 
L 372.697553 46.575923 
L 372.863983 58.099012 
L 372.947198 60.203623 
L 373.280058 83.669056 
L 373.363273 83.515732 
L 373.446488 76.698693 
L 373.529703 83.252397 
L 373.612918 76.463051 
L 373.779348 86.804414 
L 373.945778 75.271462 
L 374.112208 55.174106 
L 374.278638 74.867639 
L 374.445068 76.099163 
L 374.528283 66.119328 
L 374.611498 67.543312 
L 374.777928 79.611498 
L 375.027572 64.020867 
L 375.110787 71.71126 
L 375.194002 65.995928 
L 375.277217 73.513172 
L 375.360432 67.645249 
L 375.443647 85.515059 
L 375.610077 78.344881 
L 375.693292 95.262404 
L 375.776507 76.995891 
L 375.859722 83.544731 
L 375.942937 83.456689 
L 376.026152 72.897807 
L 376.109367 73.758676 
L 376.192582 74.546159 
L 376.275797 85.739603 
L 376.359012 74.998598 
L 376.525442 96.31753 
L 376.608657 95.117432 
L 376.691872 94.02598 
L 376.775087 75.9478 
L 376.858302 75.976559 
L 377.024732 92.182651 
L 377.191162 74.485435 
L 377.357592 81.436748 
L 377.440807 81.586411 
L 377.524022 92.156281 
L 377.690451 73.60918 
L 377.856881 90.233668 
L 377.940096 83.023149 
L 378.023311 89.070577 
L 378.106526 81.975589 
L 378.356171 100.625857 
L 378.605816 76.813555 
L 378.689031 93.803787 
L 378.855461 85.542695 
L 378.938676 84.818568 
L 379.021891 90.729327 
L 379.271536 73.131111 
L 379.354751 80.090976 
L 379.437966 73.916154 
L 379.604396 81.13476 
L 379.770826 81.715703 
L 379.854041 75.448193 
L 380.020471 82.456445 
L 380.103686 82.676678 
L 380.186901 86.645149 
L 380.270115 75.663121 
L 380.35333 82.439858 
L 380.436545 76.196703 
L 380.602975 96.242767 
L 380.68619 94.720631 
L 380.769405 103.560995 
L 380.85262 101.403488 
L 380.935835 105.913711 
L 381.01905 104.137388 
L 381.18548 94.628878 
L 381.268695 93.322406 
L 381.35191 98.578747 
L 381.51834 90.134034 
L 381.767985 104.334052 
L 381.8512 102.819837 
L 381.934415 95.07666 
L 382.01763 100.230615 
L 382.100845 99.127916 
L 382.267275 71.797088 
L 382.35049 79.085507 
L 382.51692 64.535511 
L 382.600135 72.520117 
L 382.68335 64.179402 
L 383.016209 88.171343 
L 383.265854 71.372268 
L 383.432284 77.917678 
L 383.515499 78.887511 
L 383.681929 86.795327 
L 383.765144 87.679661 
L 384.014789 75.895063 
L 384.264434 80.999197 
L 384.430864 98.876592 
L 384.514079 85.100637 
L 384.597294 92.251984 
L 384.680509 79.734771 
L 384.846939 90.177805 
L 384.930154 92.546908 
L 385.013369 89.628372 
L 385.096584 96.919522 
L 385.179799 93.741433 
L 385.263014 99.647229 
L 385.346229 92.554303 
L 385.429444 94.405303 
L 385.512658 97.159667 
L 385.762303 90.65468 
L 385.845518 94.053842 
L 385.928733 92.667478 
L 386.011948 86.515973 
L 386.095163 87.397755 
L 386.261593 96.785781 
L 386.344808 88.850843 
L 386.428023 89.146178 
L 386.511238 83.88834 
L 386.760883 105.998934 
L 386.927313 98.834123 
L 387.093743 113.87929 
L 387.176958 110.95841 
L 387.260173 116.741597 
L 387.343388 110.643101 
L 387.343388 110.643101 
" clip-path="url(#p8fd114a8ad)" style="fill: none; stroke: #1f77b4; stroke-width: 1.5; stroke-linecap: square"/>
   </g>
   <g id="patch_3">
    <path d="M 54.354531 139.811562 
L 54.354531 10.919409 
" style="fill: none; stroke: #000000; stroke-width: 0.8; stroke-linejoin: miter; stroke-linecap: square"/>
   </g>
   <g id="patch_4">
    <path d="M 403.2 139.811562 
L 403.2 10.919409 
" style="fill: none; stroke: #000000; stroke-width: 0.8; stroke-linejoin: miter; stroke-linecap: square"/>
   </g>
   <g id="patch_5">
    <path d="M 54.354531 139.811563 
L 403.2 139.811563 
" style="fill: none; stroke: #000000; stroke-width: 0.8; stroke-linejoin: miter; stroke-linecap: square"/>
   </g>
   <g id="patch_6">
    <path d="M 54.354531 10.919409 
L 403.2 10.919409 
" style="fill: none; stroke: #000000; stroke-width: 0.8; stroke-linejoin: miter; stroke-linecap: square"/>
   </g>
  </g>
 </g>
 <defs>
  <clipPath id="p8fd114a8ad">
   <rect x="54.354531" y="10.919409" width="348.845469" height="128.892153"/>
  </clipPath>
 </defs>
</svg>
