<?xml version="1.0" encoding="utf-8" standalone="no"?>
<!DOCTYPE svg PUBLIC "-//W3C//DTD SVG 1.1//EN"
  "http://www.w3.org/Graphics/SVG/1.1/DTD/svg11.dtd">
<svg xmlns:xlink="http://www.w3.org/1999/xlink" width="414pt" height="180pt" viewBox="0 0 414 180" xmlns="http://www.w3.org/2000/svg" version="1.1">
 <metadata>
  <rdf:RDF xmlns:dc="http://purl.org/dc/elements/1.1/" xmlns:cc="http://creativecommons.org/ns#" xmlns:rdf="http://www.w3.org/1999/02/22-rdf-syntax-ns#">
   <cc:Work>
    <dc:type rdf:resource="http://purl.org/dc/dcmitype/StillImage"/>
    <dc:date>2026-04-07T16:43:42.460278</dc:date>
    <dc:format>image/svg+xml</dc:format>
    <dc:creator>
     <cc:Agent>
      <dc:title>Matplotlib v3.10.7, https://matplotlib.org/</dc:title>
     </cc:Agent>
    </dc:creator>
   </cc:Work>
  </rdf:RDF>
 </metadata>
 <defs>
  <style type="text/css">*{stroke-linejoin: round; stroke-linecap: butt}</style>
 </defs>
 <g id="figure_1">
  <g id="patch_1">
   <path d="M 0 180 
L 414 180 
L 414 0 
L 0 0 
L 0 180 
z
" style="fill: none"/>
  </g>
  <g id="axes_1">
   <g id="patch_2">
    <path d="M 62.946719 139.811563 
L 403.2 139.811563 
L 403.2 10.8 
L 62.946719 10.8 
L 62.946719 139.811563 
z
" style="fill: none"/>
   </g>
   <g id="patch_3">
    <path d="M 233.077628 131.742419 
C 248.043895 131.742419 262.399199 125.796257 272.981948 115.213508 
C 283.564698 104.630758 289.510859 90.275455 289.510859 75.309187 
C 289.510859 60.34292 283.564698 45.987617 272.981948 35.404867 
C 262.399199 24.822118 248.043895 18.875956 233.077628 18.875956 
C 218.11136 18.875956 203.756057 24.822118 193.173307 35.404867 
C 182.590558 45.987617 176.644396 60.34292 176.644396 75.309187 
C 176.644396 90.275455 182.590558 104.630758 193.173307 115.213508 
C 203.756057 125.796257 218.11136 131.742419 233.077628 131.742419 
z
" clip-path="url(#p8a0314a594)" style="fill: #008800; stroke: #008800; stroke-linejoin: miter"/>
   </g>
   <g id="matplotlib.axis_1">
    <g id="xtick_1">
     <g id="line2d_1">
      <defs>
       <path id="m838c0d2332" d="M 0 0 
L 0 3.5 
" style="stroke: #000000; stroke-width: 0.8"/>
      </defs>
      <g>
       <use xlink:href="#m838c0d2332" x="100.358854" y="139.811563" style="stroke: #000000; stroke-width: 0.8"/>
      </g>
     </g>
     <g id="text_1">
      <!-- −15000 -->
      <g transform="translate(82.27237 153.650156) scale(0.09 -0.09)">
       <defs>
        <path id="DejaVuSans-2212" d="M 678 2272 
L 4684 2272 
L 4684 1741 
L 678 1741 
L 678 2272 
z
" transform="scale(0.015625)"/>
        <path id="DejaVuSans-31" d="M 794 531 
L 1825 531 
L 1825 4091 
L 703 3866 
L 703 4441 
L 1819 4666 
L 2450 4666 
L 2450 531 
L 3481 531 
L 3481 0 
L 794 0 
L 794 531 
z
" transform="scale(0.015625)"/>
        <path id="DejaVuSans-35" d="M 691 4666 
L 3169 4666 
L 3169 4134 
L 1269 4134 
L 1269 2991 
Q 1406 3038 1543 3061 
Q 1681 3084 1819 3084 
Q 2600 3084 3056 2656 
Q 3513 2228 3513 1497 
Q 3513 744 3044 326 
Q 2575 -91 1722 -91 
Q 1428 -91 1123 -41 
Q 819 9 494 109 
L 494 744 
Q 775 591 1075 516 
Q 1375 441 1709 441 
Q 2250 441 2565 725 
Q 2881 1009 2881 1497 
Q 2881 1984 2565 2268 
Q 2250 2553 1709 2553 
Q 1456 2553 1204 2497 
Q 953 2441 691 2322 
L 691 4666 
z
" transform="scale(0.015625)"/>
        <path id="DejaVuSans-30" d="M 2034 4250 
Q 1547 4250 1301 3770 
Q 1056 3291 1056 2328 
Q 1056 1369 1301 889 
Q 1547 409 2034 409 
Q 2525 409 2770 889 
Q 3016 1369 3016 2328 
Q 3016 3291 2770 3770 
Q 2525 4250 2034 4250 
z
M 2034 4750 
Q 2819 4750 3233 4129 
Q 3647 3509 3647 2328 
Q 3647 1150 3233 529 
Q 2819 -91 2034 -91 
Q 1250 -91 836 529 
Q 422 1150 422 2328 
Q 422 3509 836 4129 
Q 1250 4750 2034 4750 
z
" transform="scale(0.015625)"/>
       </defs>
       <use xlink:href="#DejaVuSans-2212"/>
       <use xlink:href="#DejaVuSans-31" transform="translate(83.789062 0)"/>
       <use xlink:href="#DejaVuSans-35" transform="translate(147.412109 0)"/>
       <use xlink:href="#DejaVuSans-30" transform="translate(211.035156 0)"/>
       <use xlink:href="#DejaVuSans-30" transform="translate(274.658203 0)"/>
       <use xlink:href="#DejaVuSans-30" transform="translate(338.28125 0)"/>
      </g>
     </g>
    </g>
    <g id="xtick_2">
     <g id="line2d_2">
      <g>
       <use xlink:href="#m838c0d2332" x="144.598445" y="139.811563" style="stroke: #000000; stroke-width: 0.8"/>
      </g>
     </g>
     <g id="text_2">
      <!-- −10000 -->
      <g transform="translate(126.511961 153.650156) scale(0.09 -0.09)">
       <use xlink:href="#DejaVuSans-2212"/>
       <use xlink:href="#DejaVuSans-31" transform="translate(83.789062 0)"/>
       <use xlink:href="#DejaVuSans-30" transform="translate(147.412109 0)"/>
       <use xlink:href="#DejaVuSans-30" transform="translate(211.035156 0)"/>
       <use xlink:href="#DejaVuSans-30" transform="translate(274.658203 0)"/>
       <use xlink:href="#DejaVuSans-30" transform="translate(338.28125 0)"/>
      </g>
     </g>
    </g>
    <g id="xtick_3">
     <g id="line2d_3">
      <g>
       <use xlink:href="#m838c0d2332" x="188.838036" y="139.811563" style="stroke: #000000; stroke-width: 0.8"/>
      </g>
     </g>
     <g id="text_3">
      <!-- −5000 -->
      <g transform="translate(173.614677 153.650156) scale(0.09 -0.09)">
       <use xlink:href="#DejaVuSans-2212"/>
       <use xlink:href="#DejaVuSans-35" transform="translate(83.789062 0)"/>
       <use xlink:href="#DejaVuSans-30" transform="translate(147.412109 0)"/>
       <use xlink:href="#DejaVuSans-30" transform="translate(211.035156 0)"/>
       <use xlink:href="#DejaVuSans-30" transform="translate(274.658203 0)"/>
      </g>
     </g>
    </g>
    <g id="xtick_4">
     <g id="line2d_4">
      <g>
       <use xlink:href="#m838c0d2332" x="233.077628" y="139.811563" style="stroke: #000000; stroke-width: 0.8"/>
      </g>
     </g>
     <g id="text_4">
      <!-- 0 -->
      <g transform="translate(230.214503 153.650156) scale(0.09 -0.09)">
       <use xlink:href="#DejaVuSans-30"/>
      </g>
     </g>
    </g>
    <g id="xtick_5">
     <g id="line2d_5">
      <g>
       <use xlink:href="#m838c0d2332" x="277.317219" y="139.811563" style="stroke: #000000; stroke-width: 0.8"/>
      </g>
     </g>
     <g id="text_5">
      <!-- 5000 -->
      <g transform="translate(265.864719 153.650156) scale(0.09 -0.09)">
       <use xlink:href="#DejaVuSans-35"/>
       <use xlink:href="#DejaVuSans-30" transform="translate(63.623047 0)"/>
       <use xlink:href="#DejaVuSans-30" transform="translate(127.246094 0)"/>
       <use xlink:href="#DejaVuSans-30" transform="translate(190.869141 0)"/>
      </g>
     </g>
    </g>
    <g id="xtick_6">
     <g id="line2d_6">
      <g>
       <use xlink:href="#m838c0d2332" x="321.55681" y="139.811563" style="stroke: #000000; stroke-width: 0.8"/>
      </g>
     </g>
     <g id="text_6">
      <!-- 10000 -->
      <g transform="translate(307.241185 153.650156) scale(0.09 -0.09)">
       <use xlink:href="#DejaVuSans-31"/>
       <use xlink:href="#DejaVuSans-30" transform="translate(63.623047 0)"/>
       <use xlink:href="#DejaVuSans-30" transform="translate(127.246094 0)"/>
       <use xlink:href="#DejaVuSans-30" transform="translate(190.869141 0)"/>
       <use xlink:href="#DejaVuSans-30" transform="translate(254.492188 0)"/>
      </g>
     </g>
    </g>
    <g id="xtick_7">
     <g id="line2d_7">
      <g>
       <use xlink:href="#m838c0d2332" x="365.796401" y="139.811563" style="stroke: #000000; stroke-width: 0.8"/>
      </g>
     </g>
     <g id="text_7">
      <!-- 15000 -->
      <g transform="translate(351.480776 153.650156) scale(0.09 -0.09)">
       <use xlink:href="#DejaVuSans-31"/>
       <use xlink:href="#DejaVuSans-35" transform="translate(63.623047 0)"/>
       <use xlink:href="#DejaVuSans-30" transform="translate(127.246094 0)"/>
       <use xlink:href="#DejaVuSans-30" transform="translate(190.869141 0)"/>
       <use xlink:href="#DejaVuSans-30" transform="translate(254.492188 0)"/>
      </g>
     </g>
    </g>
    <g id="text_8">
     <!-- $i_e$ Cord. [km] -->
     <g transform="translate(201.173359 167.120313) scale(0.1 -0.1)">
      <defs>
       <path id="DejaVuSans-Oblique-69" d="M 1172 4863 
L 1747 4863 
L 1606 4134 
L 1031 4134 
L 1172 4863 
z
M 909 3500 
L 1484 3500 
L 800 0 
L 225 0 
L 909 3500 
z
" transform="scale(0.015625)"/>
       <path id="DejaVuSans-Oblique-65" d="M 3078 2063 
Q 3088 2113 3092 2166 
Q 3097 2219 3097 2272 
Q 3097 2653 2873 2875 
Q 2650 3097 2266 3097 
Q 1838 3097 1509 2826 
Q 1181 2556 1013 2059 
L 3078 2063 
z
M 3578 1613 
L 903 1613 
Q 884 1494 878 1425 
Q 872 1356 872 1306 
Q 872 872 1139 634 
Q 1406 397 1894 397 
Q 2269 397 2603 481 
Q 2938 566 3225 728 
L 3116 159 
Q 2806 34 2476 -28 
Q 2147 -91 1806 -91 
Q 1078 -91 686 257 
Q 294 606 294 1247 
Q 294 1794 489 2264 
Q 684 2734 1063 3103 
Q 1306 3334 1642 3459 
Q 1978 3584 2356 3584 
Q 2950 3584 3301 3228 
Q 3653 2872 3653 2272 
Q 3653 2128 3634 1964 
Q 3616 1800 3578 1613 
z
" transform="scale(0.015625)"/>
       <path id="DejaVuSans-20" transform="scale(0.015625)"/>
       <path id="DejaVuSans-43" d="M 4122 4306 
L 4122 3641 
Q 3803 3938 3442 4084 
Q 3081 4231 2675 4231 
Q 1875 4231 1450 3742 
Q 1025 3253 1025 2328 
Q 1025 1406 1450 917 
Q 1875 428 2675 428 
Q 3081 428 3442 575 
Q 3803 722 4122 1019 
L 4122 359 
Q 3791 134 3420 21 
Q 3050 -91 2638 -91 
Q 1578 -91 968 557 
Q 359 1206 359 2328 
Q 359 3453 968 4101 
Q 1578 4750 2638 4750 
Q 3056 4750 3426 4639 
Q 3797 4528 4122 4306 
z
" transform="scale(0.015625)"/>
       <path id="DejaVuSans-6f" d="M 1959 3097 
Q 1497 3097 1228 2736 
Q 959 2375 959 1747 
Q 959 1119 1226 758 
Q 1494 397 1959 397 
Q 2419 397 2687 759 
Q 2956 1122 2956 1747 
Q 2956 2369 2687 2733 
Q 2419 3097 1959 3097 
z
M 1959 3584 
Q 2709 3584 3137 3096 
Q 3566 2609 3566 1747 
Q 3566 888 3137 398 
Q 2709 -91 1959 -91 
Q 1206 -91 779 398 
Q 353 888 353 1747 
Q 353 2609 779 3096 
Q 1206 3584 1959 3584 
z
" transform="scale(0.015625)"/>
       <path id="DejaVuSans-72" d="M 2631 2963 
Q 2534 3019 2420 3045 
Q 2306 3072 2169 3072 
Q 1681 3072 1420 2755 
Q 1159 2438 1159 1844 
L 1159 0 
L 581 0 
L 581 3500 
L 1159 3500 
L 1159 2956 
Q 1341 3275 1631 3429 
Q 1922 3584 2338 3584 
Q 2397 3584 2469 3576 
Q 2541 3569 2628 3553 
L 2631 2963 
z
" transform="scale(0.015625)"/>
       <path id="DejaVuSans-64" d="M 2906 2969 
L 2906 4863 
L 3481 4863 
L 3481 0 
L 2906 0 
L 2906 525 
Q 2725 213 2448 61 
Q 2172 -91 1784 -91 
Q 1150 -91 751 415 
Q 353 922 353 1747 
Q 353 2572 751 3078 
Q 1150 3584 1784 3584 
Q 2172 3584 2448 3432 
Q 2725 3281 2906 2969 
z
M 947 1747 
Q 947 1113 1208 752 
Q 1469 391 1925 391 
Q 2381 391 2643 752 
Q 2906 1113 2906 1747 
Q 2906 2381 2643 2742 
Q 2381 3103 1925 3103 
Q 1469 3103 1208 2742 
Q 947 2381 947 1747 
z
" transform="scale(0.015625)"/>
       <path id="DejaVuSans-2e" d="M 684 794 
L 1344 794 
L 1344 0 
L 684 0 
L 684 794 
z
" transform="scale(0.015625)"/>
       <path id="DejaVuSans-5b" d="M 550 4863 
L 1875 4863 
L 1875 4416 
L 1125 4416 
L 1125 -397 
L 1875 -397 
L 1875 -844 
L 550 -844 
L 550 4863 
z
" transform="scale(0.015625)"/>
       <path id="DejaVuSans-6b" d="M 581 4863 
L 1159 4863 
L 1159 1991 
L 2875 3500 
L 3609 3500 
L 1753 1863 
L 3688 0 
L 2938 0 
L 1159 1709 
L 1159 0 
L 581 0 
L 581 4863 
z
" transform="scale(0.015625)"/>
       <path id="DejaVuSans-6d" d="M 3328 2828 
Q 3544 3216 3844 3400 
Q 4144 3584 4550 3584 
Q 5097 3584 5394 3201 
Q 5691 2819 5691 2113 
L 5691 0 
L 5113 0 
L 5113 2094 
Q 5113 2597 4934 2840 
Q 4756 3084 4391 3084 
Q 3944 3084 3684 2787 
Q 3425 2491 3425 1978 
L 3425 0 
L 2847 0 
L 2847 2094 
Q 2847 2600 2669 2842 
Q 2491 3084 2119 3084 
Q 1678 3084 1418 2786 
Q 1159 2488 1159 1978 
L 1159 0 
L 581 0 
L 581 3500 
L 1159 3500 
L 1159 2956 
Q 1356 3278 1631 3431 
Q 1906 3584 2284 3584 
Q 2666 3584 2933 3390 
Q 3200 3197 3328 2828 
z
" transform="scale(0.015625)"/>
       <path id="DejaVuSans-5d" d="M 1947 4863 
L 1947 -844 
L 622 -844 
L 622 -397 
L 1369 -397 
L 1369 4416 
L 622 4416 
L 622 4863 
L 1947 4863 
z
" transform="scale(0.015625)"/>
      </defs>
      <use xlink:href="#DejaVuSans-Oblique-69" transform="translate(0 0.015625)"/>
      <use xlink:href="#DejaVuSans-Oblique-65" transform="translate(27.783203 -16.390625) scale(0.7)"/>
      <use xlink:href="#DejaVuSans-20" transform="translate(73.583984 0.015625)"/>
      <use xlink:href="#DejaVuSans-43" transform="translate(105.371094 0.015625)"/>
      <use xlink:href="#DejaVuSans-6f" transform="translate(175.195312 0.015625)"/>
      <use xlink:href="#DejaVuSans-72" transform="translate(236.376953 0.015625)"/>
      <use xlink:href="#DejaVuSans-64" transform="translate(277.490234 0.015625)"/>
      <use xlink:href="#DejaVuSans-2e" transform="translate(340.966797 0.015625)"/>
      <use xlink:href="#DejaVuSans-20" transform="translate(372.753906 0.015625)"/>
      <use xlink:href="#DejaVuSans-5b" transform="translate(404.541016 0.015625)"/>
      <use xlink:href="#DejaVuSans-6b" transform="translate(443.554688 0.015625)"/>
      <use xlink:href="#DejaVuSans-6d" transform="translate(501.464844 0.015625)"/>
      <use xlink:href="#DejaVuSans-5d" transform="translate(598.876953 0.015625)"/>
     </g>
    </g>
   </g>
   <g id="matplotlib.axis_2">
    <g id="ytick_1">
     <g id="line2d_8">
      <defs>
       <path id="m4780e29205" d="M 0 0 
L -3.5 0 
" style="stroke: #000000; stroke-width: 0.8"/>
      </defs>
      <g>
       <use xlink:href="#m4780e29205" x="62.946719" y="119.548779" style="stroke: #000000; stroke-width: 0.8"/>
      </g>
     </g>
     <g id="text_9">
      <!-- −5000 -->
      <g transform="translate(25.5 122.968076) scale(0.09 -0.09)">
       <use xlink:href="#DejaVuSans-2212"/>
       <use xlink:href="#DejaVuSans-35" transform="translate(83.789062 0)"/>
       <use xlink:href="#DejaVuSans-30" transform="translate(147.412109 0)"/>
       <use xlink:href="#DejaVuSans-30" transform="translate(211.035156 0)"/>
       <use xlink:href="#DejaVuSans-30" transform="translate(274.658203 0)"/>
      </g>
     </g>
    </g>
    <g id="ytick_2">
     <g id="line2d_9">
      <g>
       <use xlink:href="#m4780e29205" x="62.946719" y="97.428983" style="stroke: #000000; stroke-width: 0.8"/>
      </g>
     </g>
     <g id="text_10">
      <!-- −2500 -->
      <g transform="translate(25.5 100.84828) scale(0.09 -0.09)">
       <defs>
        <path id="DejaVuSans-32" d="M 1228 531 
L 3431 531 
L 3431 0 
L 469 0 
L 469 531 
Q 828 903 1448 1529 
Q 2069 2156 2228 2338 
Q 2531 2678 2651 2914 
Q 2772 3150 2772 3378 
Q 2772 3750 2511 3984 
Q 2250 4219 1831 4219 
Q 1534 4219 1204 4116 
Q 875 4013 500 3803 
L 500 4441 
Q 881 4594 1212 4672 
Q 1544 4750 1819 4750 
Q 2544 4750 2975 4387 
Q 3406 4025 3406 3419 
Q 3406 3131 3298 2873 
Q 3191 2616 2906 2266 
Q 2828 2175 2409 1742 
Q 1991 1309 1228 531 
z
" transform="scale(0.015625)"/>
       </defs>
       <use xlink:href="#DejaVuSans-2212"/>
       <use xlink:href="#DejaVuSans-32" transform="translate(83.789062 0)"/>
       <use xlink:href="#DejaVuSans-35" transform="translate(147.412109 0)"/>
       <use xlink:href="#DejaVuSans-30" transform="translate(211.035156 0)"/>
       <use xlink:href="#DejaVuSans-30" transform="translate(274.658203 0)"/>
      </g>
     </g>
    </g>
    <g id="ytick_3">
     <g id="line2d_10">
      <g>
       <use xlink:href="#m4780e29205" x="62.946719" y="75.309187" style="stroke: #000000; stroke-width: 0.8"/>
      </g>
     </g>
     <g id="text_11">
      <!-- 0 -->
      <g transform="translate(50.220469 78.728484) scale(0.09 -0.09)">
       <use xlink:href="#DejaVuSans-30"/>
      </g>
     </g>
    </g>
    <g id="ytick_4">
     <g id="line2d_11">
      <g>
       <use xlink:href="#m4780e29205" x="62.946719" y="53.189392" style="stroke: #000000; stroke-width: 0.8"/>
      </g>
     </g>
     <g id="text_12">
      <!-- 2500 -->
      <g transform="translate(33.041719 56.608689) scale(0.09 -0.09)">
       <use xlink:href="#DejaVuSans-32"/>
       <use xlink:href="#DejaVuSans-35" transform="translate(63.623047 0)"/>
       <use xlink:href="#DejaVuSans-30" transform="translate(127.246094 0)"/>
       <use xlink:href="#DejaVuSans-30" transform="translate(190.869141 0)"/>
      </g>
     </g>
    </g>
    <g id="ytick_5">
     <g id="line2d_12">
      <g>
       <use xlink:href="#m4780e29205" x="62.946719" y="31.069596" style="stroke: #000000; stroke-width: 0.8"/>
      </g>
     </g>
     <g id="text_13">
      <!-- 5000 -->
      <g transform="translate(33.041719 34.488893) scale(0.09 -0.09)">
       <use xlink:href="#DejaVuSans-35"/>
       <use xlink:href="#DejaVuSans-30" transform="translate(63.623047 0)"/>
       <use xlink:href="#DejaVuSans-30" transform="translate(127.246094 0)"/>
       <use xlink:href="#DejaVuSans-30" transform="translate(190.869141 0)"/>
      </g>
     </g>
    </g>
    <g id="text_14">
     <!-- $i_p$ Cord. [km] -->
     <g transform="translate(18.4 107.305781) rotate(-90) scale(0.1 -0.1)">
      <defs>
       <path id="DejaVuSans-Oblique-70" d="M 3175 2156 
Q 3175 2616 2975 2859 
Q 2775 3103 2400 3103 
Q 2144 3103 1911 2972 
Q 1678 2841 1497 2591 
Q 1319 2344 1212 1994 
Q 1106 1644 1106 1300 
Q 1106 863 1306 627 
Q 1506 391 1875 391 
Q 2147 391 2380 519 
Q 2613 647 2778 891 
Q 2956 1147 3065 1494 
Q 3175 1841 3175 2156 
z
M 1394 2969 
Q 1625 3272 1939 3428 
Q 2253 3584 2638 3584 
Q 3175 3584 3472 3232 
Q 3769 2881 3769 2247 
Q 3769 1728 3584 1258 
Q 3400 788 3053 416 
Q 2822 169 2531 39 
Q 2241 -91 1919 -91 
Q 1547 -91 1294 64 
Q 1041 219 916 525 
L 556 -1331 
L -19 -1331 
L 922 3500 
L 1497 3500 
L 1394 2969 
z
" transform="scale(0.015625)"/>
      </defs>
      <use xlink:href="#DejaVuSans-Oblique-69" transform="translate(0 0.015625)"/>
      <use xlink:href="#DejaVuSans-Oblique-70" transform="translate(27.783203 -16.390625) scale(0.7)"/>
      <use xlink:href="#DejaVuSans-20" transform="translate(74.951172 0.015625)"/>
      <use xlink:href="#DejaVuSans-43" transform="translate(106.738281 0.015625)"/>
      <use xlink:href="#DejaVuSans-6f" transform="translate(176.5625 0.015625)"/>
      <use xlink:href="#DejaVuSans-72" transform="translate(237.744141 0.015625)"/>
      <use xlink:href="#DejaVuSans-64" transform="translate(278.857422 0.015625)"/>
      <use xlink:href="#DejaVuSans-2e" transform="translate(342.333984 0.015625)"/>
      <use xlink:href="#DejaVuSans-20" transform="translate(374.121094 0.015625)"/>
      <use xlink:href="#DejaVuSans-5b" transform="translate(405.908203 0.015625)"/>
      <use xlink:href="#DejaVuSans-6b" transform="translate(444.921875 0.015625)"/>
      <use xlink:href="#DejaVuSans-6d" transform="translate(502.832031 0.015625)"/>
      <use xlink:href="#DejaVuSans-5d" transform="translate(600.244141 0.015625)"/>
     </g>
    </g>
   </g>
   <g id="line2d_13">
    <path d="M 250.125919 19.196653 
L 246.816078 18.295893 
L 243.459237 17.590188 
L 240.066881 17.081952 
L 236.650617 16.772925 
L 233.222133 16.664162 
L 229.793158 16.756036 
L 226.375424 17.048233 
L 222.980622 17.539752 
L 219.620367 18.228913 
L 216.306155 19.113357 
L 213.049325 20.190058 
L 209.861018 21.455333 
L 206.752144 22.904854 
L 203.733337 24.53366 
L 200.814926 26.336181 
L 198.006895 28.306249 
L 195.318852 30.437124 
L 192.759994 32.721517 
L 190.339075 35.151611 
L 188.064379 37.719093 
L 185.943688 40.415179 
L 183.984259 43.230645 
L 182.192796 46.155859 
L 180.575428 49.180813 
L 179.137688 52.295158 
L 177.884498 55.48824 
L 176.820146 58.749133 
L 175.948272 62.066681 
L 175.271863 65.429535 
L 174.793232 68.826189 
L 174.514018 72.245021 
L 174.435179 75.674333 
L 174.556984 79.102393 
L 174.879018 82.517472 
L 175.40018 85.907883 
L 176.11869 89.262028 
L 177.032089 92.568428 
L 178.137254 95.81577 
L 179.430404 98.992944 
L 180.907117 102.089076 
L 182.56234 105.093572 
L 184.390413 107.996151 
L 186.385079 110.786879 
L 188.539517 113.456208 
L 190.846356 115.995001 
L 193.297701 118.39457 
L 195.885168 120.646702 
L 198.599902 122.74369 
L 201.432615 124.678357 
L 204.373615 126.444079 
L 207.412839 128.034813 
L 210.539886 129.445114 
L 213.744056 130.670154 
L 217.014386 131.705739 
L 220.339684 132.548322 
L 223.708571 133.19502 
L 227.109517 133.643615 
L 230.530885 133.892572 
L 233.960964 133.941036 
L 237.388017 133.788839 
L 240.800316 133.436501 
L 244.186181 132.885225 
L 247.534023 132.136896 
L 250.832385 131.194073 
L 254.069978 130.059982 
L 257.23572 128.738501 
L 260.318776 127.234152 
L 263.308593 125.552082 
L 266.194937 123.698046 
L 268.967926 121.67839 
L 271.618069 119.500025 
L 274.136293 117.170405 
L 276.513979 114.697504 
L 278.742986 112.089785 
L 280.815683 109.356173 
L 282.724975 106.506024 
L 284.464325 103.549092 
L 286.02778 100.4955 
L 287.409985 97.355698 
L 288.606208 94.140434 
L 289.612354 90.860714 
L 290.424978 87.527764 
L 291.041297 84.152992 
L 291.4592 80.74795 
L 291.677257 77.324294 
L 291.69472 73.893743 
L 291.511528 70.46804 
L 291.128309 67.058913 
L 290.546372 63.678031 
L 289.767711 60.336968 
L 288.79499 57.04716 
L 287.631538 53.819872 
L 286.281338 50.666149 
L 284.749012 47.596789 
L 283.039805 44.622299 
L 281.159568 41.752859 
L 279.114736 38.998293 
L 276.91231 36.368031 
L 274.559829 33.871076 
L 272.065346 31.515976 
L 269.4374 29.310794 
L 266.684987 27.263079 
L 263.817531 25.37984 
L 260.844847 23.667525 
L 257.777111 22.131994 
L 254.624826 20.778505 
L 251.398781 19.611691 
L 248.110022 18.635546 
L 244.769805 17.853411 
L 241.389567 17.267964 
L 237.980878 16.881209 
L 234.555408 16.694469 
L 231.124884 16.708385 
L 227.701049 16.922909 
L 224.295624 17.337305 
L 220.920265 17.950155 
L 217.586529 18.759362 
L 214.305827 19.762155 
L 211.089391 20.955101 
L 207.948232 22.334117 
L 204.893102 23.894482 
L 201.93446 25.630855 
L 199.082435 27.537291 
L 196.346791 29.607265 
L 193.736892 31.833691 
L 191.261674 34.208947 
L 188.92961 36.724903 
L 186.748685 39.372945 
L 184.726365 42.144009 
L 182.869575 45.028609 
L 181.18467 48.01687 
L 179.67742 51.098562 
L 178.352987 54.263136 
L 177.215905 57.499757 
L 176.270069 60.797346 
L 175.518717 64.144612 
L 174.964423 67.530097 
L 174.609086 70.942211 
L 174.453924 74.369272 
L 174.499469 77.799546 
L 174.745567 81.221289 
L 175.191377 84.622785 
L 175.835374 87.992388 
L 176.675355 91.318564 
L 177.708445 94.589923 
L 178.93111 97.795265 
L 180.339165 100.923614 
L 181.927791 103.964258 
L 183.691551 106.906785 
L 185.624406 109.74112 
L 187.719741 112.457555 
L 189.970381 115.046787 
L 192.368622 117.49995 
L 194.906255 119.808641 
L 197.574591 121.964955 
L 200.364494 123.961505 
L 203.266414 125.791454 
L 206.270414 127.448533 
L 209.366209 128.927065 
L 212.543198 130.221986 
L 215.790503 131.328858 
L 219.097004 132.243889 
L 222.451379 132.963942 
L 225.84214 133.486551 
L 229.257677 133.809922 
L 232.68629 133.932945 
L 236.11624 133.855198 
L 239.535778 133.576944 
L 242.933193 133.099134 
L 246.29685 132.423401 
L 249.615228 131.552058 
L 252.876961 130.488088 
L 256.070876 129.235131 
L 259.186033 127.797479 
L 262.211763 126.180052 
L 265.137701 124.388389 
L 267.953825 122.428624 
L 270.650488 120.307468 
L 273.218452 118.032185 
L 275.64892 115.610567 
L 277.933565 113.050907 
L 280.064562 110.361971 
L 282.034608 107.552969 
L 283.836955 104.633522 
L 285.465426 101.61363 
L 286.914443 98.503637 
L 288.17904 95.314194 
L 289.254884 92.056228 
L 290.138288 88.740898 
L 290.826225 85.379561 
L 291.316337 81.98373 
L 291.606944 78.565039 
L 291.697049 75.1352 
L 291.586343 71.705961 
L 291.275204 68.289069 
L 290.764697 64.896231 
L 290.056569 61.53907 
L 289.153248 58.229086 
L 288.057825 54.97762 
L 286.774054 51.79581 
L 285.30633 48.694556 
L 283.659683 45.684483 
L 281.839753 42.775902 
L 279.852774 39.978779 
L 277.705553 37.302696 
L 275.405445 34.756821 
L 272.96033 32.349876 
L 270.378584 30.090107 
L 267.669053 27.985257 
L 264.841018 26.042535 
L 261.904168 24.268598 
L 258.868564 22.669524 
L 255.744606 21.25079 
L 252.542996 20.017258 
L 249.274702 18.973154 
L 245.950921 18.122054 
L 242.583041 17.466875 
L 239.1826 17.009862 
L 235.761248 16.75258 
L 232.330707 16.695911 
L 228.90273 16.840049 
L 225.489062 17.184501 
L 222.101396 17.728085 
L 218.75134 18.468942 
L 215.450371 19.404531 
L 212.209797 20.531648 
L 209.04072 21.846432 
L 205.953999 23.344379 
L 202.960208 25.020357 
L 200.069604 26.868624 
L 197.29209 28.882849 
L 194.637184 31.056131 
L 192.113981 33.381024 
L 189.731126 35.849564 
L 187.496785 38.453293 
L 185.418611 41.183292 
L 183.503727 44.030207 
L 181.758692 46.984286 
L 180.189488 50.035408 
L 178.80149 53.173118 
L 177.599456 56.386668 
L 176.587506 59.665047 
L 175.769107 62.997023 
L 175.147064 66.371179 
L 174.723511 69.775957 
L 174.4999 73.199688 
L 174.476999 76.630644 
L 174.654887 80.057067 
L 175.032956 83.467218 
L 175.609914 86.849412 
L 176.383784 90.19206 
L 177.351917 93.483708 
L 178.510997 96.713075 
L 179.857054 99.869097 
L 181.385479 102.940957 
L 183.091034 105.918128 
L 184.967877 108.790407 
L 187.009578 111.54795 
L 189.209143 114.181306 
L 191.559037 116.681451 
L 194.051206 119.039814 
L 196.677114 121.248312 
L 199.427761 123.299375 
L 202.293723 125.185972 
L 205.265179 126.901636 
L 208.331947 128.440484 
L 211.483518 129.797242 
L 214.709091 130.967257 
L 217.997613 131.946516 
L 221.337812 132.731661 
L 224.718241 133.32 
L 228.127317 133.709513 
L 231.553354 133.898864 
L 234.984612 133.8874 
L 238.409331 133.675159 
L 241.81577 133.262866 
L 245.192253 132.651931 
L 248.527207 131.844447 
L 251.8092 130.84318 
L 255.02698 129.651559 
L 258.169518 128.273666 
L 261.22604 126.714224 
L 264.186069 124.978575 
L 267.039456 123.072668 
L 269.776419 121.003034 
L 272.387575 118.776766 
L 274.863971 116.401494 
L 277.197117 113.885359 
L 279.379015 111.236984 
L 281.402182 108.465448 
L 283.259683 105.580249 
L 284.945146 102.591279 
L 286.452793 99.508784 
L 287.777452 96.34333 
L 288.914581 93.10577 
L 289.86028 89.807202 
L 290.611306 86.458933 
L 291.165082 83.072442 
L 291.519708 79.659341 
L 291.673966 76.231329 
L 291.627327 72.80016 
L 291.379948 69.377597 
L 290.932678 65.975375 
L 290.287047 62.60516 
L 289.445269 59.278507 
L 288.410229 56.006823 
L 287.185474 52.801326 
L 285.775203 49.673006 
L 284.184251 46.632591 
L 282.418071 43.690504 
L 280.482718 40.856835 
L 278.384827 38.141298 
L 276.131592 35.553206 
L 273.730737 33.101433 
L 271.190494 30.794387 
L 268.519574 28.63998 
L 265.727134 26.645598 
L 262.822749 24.818082 
L 259.816378 23.163698 
L 256.718329 21.688118 
L 253.539224 20.396404 
L 250.289962 19.292984 
L 246.981686 18.381642 
L 243.625739 17.665505 
L 240.233627 17.147028 
L 236.816983 16.82799 
L 233.387524 16.709485 
L 229.957009 16.791922 
L 226.537201 17.075017 
L 223.139828 17.557801 
L 219.77654 18.238618 
L 216.458869 19.115136 
L 213.198194 20.184349 
L 210.005695 21.442592 
L 206.892321 22.88555 
L 203.868748 24.508276 
L 200.945345 26.305208 
L 198.132138 28.270183 
L 195.438774 30.396464 
L 192.874491 32.676761 
L 190.448083 35.103256 
L 188.167871 37.667627 
L 186.041677 40.361083 
L 184.076794 43.174387 
L 182.27996 46.097894 
L 180.657339 49.121578 
L 179.214498 52.235069 
L 177.956389 55.42769 
L 176.887326 58.688493 
L 176.01098 62.006294 
L 175.330357 65.369715 
L 174.847795 68.76722 
L 174.56495 72.187156 
L 174.482796 75.617794 
L 174.601615 79.047369 
L 174.921003 82.464116 
L 175.439868 85.856316 
L 176.156431 89.212335 
L 177.068238 92.52066 
L 178.172164 95.769943 
L 179.464425 98.949039 
L 180.94059 102.04704 
L 182.595599 105.053319 
L 184.423777 107.957562 
L 186.418854 110.749804 
L 188.573989 113.420465 
L 190.88179 115.96038 
L 193.334342 118.360835 
L 195.923233 120.613591 
L 198.639582 122.710919 
L 201.474071 124.64562 
L 204.416978 126.411055 
L 207.458207 128.001165 
L 210.587326 129.410492 
L 213.793601 130.634199 
L 217.066033 131.668085 
L 220.393394 132.5086 
L 223.764269 133.152859 
L 227.167093 133.598647 
L 230.59019 133.844434 
L 234.021816 133.889372 
L 237.450194 133.733306 
L 240.863561 133.376769 
L 244.250202 132.820981 
L 247.598498 132.067848 
L 250.896957 131.119952 
L 254.134261 129.980543 
L 257.2993 128.653528 
L 260.381214 127.14346 
L 263.369425 125.455518 
L 266.253677 123.595493 
L 269.024072 121.569766 
L 271.6711 119.385287 
L 274.185677 117.049551 
L 276.55917 114.570572 
L 278.783433 111.956858 
L 280.850831 109.217377 
L 282.754267 106.361528 
L 284.487208 103.399111 
L 286.043703 100.340293 
L 287.418409 97.19557 
L 288.606607 93.975735 
L 289.604216 90.691838 
L 290.407811 87.355148 
L 291.014631 83.977119 
L 291.422591 80.569346 
L 291.63029 77.143524 
L 291.637012 73.711411 
L 291.442733 70.28479 
L 291.048118 66.875421 
L 290.45452 63.495008 
L 289.663975 60.155154 
L 288.679194 56.867325 
L 287.503557 53.642806 
L 286.141097 50.492667 
L 284.59649 47.42772 
L 282.875037 44.458488 
L 280.982645 41.595164 
L 278.92581 38.847579 
L 276.711591 36.225165 
L 274.347589 33.736927 
L 271.841918 31.391406 
L 269.203178 29.196656 
L 266.440429 27.160213 
L 263.563154 25.289069 
L 260.58123 23.589649 
L 257.504894 22.067788 
L 254.344706 20.728712 
L 251.111513 19.577019 
L 247.816415 18.616663 
L 244.470724 17.850944 
L 241.085928 17.282492 
L 237.673644 16.913259 
L 234.245589 16.744515 
L 230.81353 16.776841 
L 227.389252 17.010127 
L 223.984513 17.443574 
L 220.611001 18.075695 
L 217.280299 18.904323 
L 214.003844 19.926613 
L 210.792887 21.139057 
L 207.658453 22.537493 
L 204.611306 24.117123 
L 201.661909 25.872522 
L 198.820391 27.797666 
L 196.096509 29.885947 
L 193.499618 32.130194 
L 191.038635 34.522705 
L 188.722013 37.055265 
L 186.557707 39.71918 
L 184.553152 42.505304 
L 182.715233 45.404071 
L 181.050265 48.405526 
L 179.563967 51.499364 
L 178.261445 54.674962 
L 177.147175 57.921414 
L 176.224986 61.227573 
L 175.498048 64.582084 
L 174.96886 67.973428 
L 174.639242 71.389959 
L 174.510328 74.819943 
L 174.582565 78.2516 
L 174.855708 81.673143 
L 175.32882 85.072821 
L 176.00028 88.438954 
L 176.867785 91.759982 
L 177.928356 95.024494 
L 179.178355 98.221278 
L 180.613489 101.339351 
L 182.228833 104.368002 
L 184.018839 107.296825 
L 185.977362 110.115759 
L 188.097677 112.815117 
L 190.372501 115.385626 
L 192.794024 117.818454 
L 195.353928 120.10524 
L 198.043422 122.238127 
L 200.853269 124.209784 
L 203.773816 126.013436 
L 206.795031 127.642882 
L 209.906534 129.092521 
L 213.097637 130.357369 
L 216.357375 131.433077 
L 219.67455 132.315947 
L 223.037766 133.002941 
L 226.435469 133.491697 
L 229.855985 133.780531 
L 233.287561 133.868448 
L 236.718406 133.755143 
L 240.136732 133.441 
L 243.53079 132.927097 
L 246.888916 132.215196 
L 250.19957 131.307739 
L 253.451372 130.207842 
L 256.633148 128.919281 
L 259.733962 127.446482 
L 262.743155 125.794502 
L 265.650384 123.969016 
L 268.445655 121.976295 
L 271.119358 119.823186 
L 273.662299 117.517087 
L 276.065738 115.065921 
L 278.32141 112.47811 
L 280.42156 109.762547 
L 282.358967 106.928564 
L 284.126966 103.985902 
L 285.719479 100.944674 
L 287.131026 97.815333 
L 288.356753 94.608636 
L 289.392444 91.335604 
L 290.234534 88.007487 
L 290.880126 84.635724 
L 291.326997 81.23191 
L 291.573607 77.807744 
L 291.619105 74.375 
L 291.463331 70.945482 
L 291.106818 67.530983 
L 290.550788 64.14324 
L 289.797149 60.793902 
L 288.848491 57.494485 
L 287.708071 54.256334 
L 286.379808 51.090586 
L 284.868266 48.008127 
L 283.17864 45.019557 
L 281.316738 42.135156 
L 279.288959 39.364844 
L 277.102274 36.71815 
L 274.7642 34.204177 
L 272.282775 31.831572 
L 269.66653 29.608496 
L 266.92446 27.542599 
L 264.065993 25.640987 
L 261.100956 23.910201 
L 258.039546 22.356199 
L 254.89229 20.984327 
L 251.670012 19.799307 
L 248.383793 18.805219 
L 245.04494 18.005486 
L 241.664935 17.402863 
L 238.255405 16.999425 
L 234.82808 16.796564 
L 231.394748 16.79498 
L 227.96722 16.994683 
L 224.557288 17.394988 
L 221.176678 17.994522 
L 217.837024 18.791227 
L 214.549818 19.782362 
L 211.326369 20.964523 
L 208.177767 22.333644 
L 205.114848 23.885019 
L 202.14815 25.613313 
L 199.287882 27.512584 
L 196.543887 29.576298 
L 193.925609 31.797358 
L 191.442058 34.168125 
L 189.101782 36.680446 
L 186.912837 39.325678 
L 184.882756 42.094722 
L 183.018529 44.978052 
L 181.326574 47.965748 
L 179.812718 51.047532 
L 178.482174 54.212797 
L 177.339526 57.450652 
L 176.38871 60.749955 
L 175.633003 64.099357 
L 175.075008 67.487329 
L 174.716652 70.90221 
L 174.559173 74.332247 
L 174.603117 77.765631 
L 174.848337 81.190545 
L 175.293995 84.595199 
L 175.938561 87.967874 
L 176.779819 91.296956 
L 177.814878 94.57098 
L 179.040177 97.778672 
L 180.451505 100.908991 
L 182.044005 103.951157 
L 183.812201 106.894696 
L 185.750008 109.729472 
L 187.850761 112.445724 
L 190.107229 115.034094 
L 192.511646 117.485666 
L 195.055736 119.791995 
L 197.73074 121.945133 
L 200.52745 123.937663 
L 203.436238 125.76272 
L 206.447091 127.414013 
L 209.54964 128.885849 
L 212.733201 130.173156 
L 215.986813 131.271495 
L 219.299273 132.177079 
L 222.659172 132.886781 
L 226.054937 133.398153 
L 229.474873 133.709428 
L 232.907201 133.819527 
L 236.3401 133.728065 
L 239.761742 133.435352 
L 243.160334 132.94239 
L 246.524168 132.250872 
L 249.841652 131.363174 
L 253.101354 130.282349 
L 256.292043 129.012116 
L 259.402723 127.556843 
L 262.422673 125.921541 
L 265.341484 124.111839 
L 268.149096 122.133965 
L 270.835827 119.994732 
L 273.392416 117.701506 
L 275.810047 115.262184 
L 278.080386 112.685166 
L 280.1956 109.979332 
L 282.148394 107.154002 
L 283.932029 104.218915 
L 285.540347 101.18419 
L 286.967799 98.060285 
L 288.209456 94.857966 
L 289.261034 91.58827 
L 290.1189 88.262467 
L 290.780089 84.892023 
L 291.242316 81.48856 
L 291.503979 78.063816 
L 291.56417 74.629601 
L 291.422675 71.197757 
L 291.079975 67.780117 
L 290.537247 64.388467 
L 289.796356 61.034511 
L 288.859851 57.729814 
L 287.730954 54.485772 
L 286.413554 51.313577 
L 284.912188 48.224172 
L 283.232028 45.228217 
L 281.378867 42.336052 
L 279.359089 39.557656 
L 277.179657 36.902617 
L 274.848088 34.380103 
L 272.372418 31.998819 
L 269.761188 29.766989 
L 267.023402 27.692317 
L 264.168503 25.781969 
L 261.206337 24.042539 
L 258.14712 22.480037 
L 255.001411 21.099862 
L 251.780061 19.906783 
L 248.494186 18.904925 
L 245.155126 18.097752 
L 241.774407 17.488059 
L 238.363699 17.077955 
L 234.934769 16.868864 
L 231.499459 16.861515 
L 228.069629 17.055939 
L 224.65712 17.451474 
L 221.273716 18.046759 
L 217.931107 18.839745 
L 214.640834 19.827701 
L 211.414263 21.007222 
L 208.262531 22.374244 
L 205.196528 23.924051 
L 202.226845 25.651299 
L 199.363742 27.550027 
L 196.617114 29.613686 
L 193.996449 31.835154 
L 191.510803 34.206767 
L 189.168767 36.720339 
L 186.978439 39.367192 
L 184.947396 42.138187 
L 183.08266 45.023754 
L 181.390683 48.01393 
L 179.877321 51.098384 
L 178.547816 54.266452 
L 177.40677 57.507194 
L 176.458134 60.809416 
L 175.705198 64.161705 
L 175.150574 67.552476 
L 174.79619 70.970008 
L 174.643282 74.402487 
L 174.692389 77.838046 
L 174.943353 81.264806 
L 175.395318 84.670927 
L 176.046736 88.04463 
L 176.895362 91.374239 
L 177.938276 94.648235 
L 179.171887 97.8553 
L 180.591939 100.984334 
L 182.193531 104.024502 
L 183.971135 106.965278 
L 185.918612 109.796479 
L 188.029237 112.508301 
L 190.29572 115.091351 
L 192.710227 117.536676 
L 195.26441 119.835799 
L 197.949436 121.980747 
L 200.75602 123.964081 
L 203.674454 125.778918 
L 206.694635 127.418957 
L 209.806113 128.878501 
L 212.998125 130.152483 
L 216.259625 131.236473 
L 219.579324 132.126697 
L 222.945723 132.820052 
L 226.347169 133.314116 
L 229.771877 133.607155 
L 233.207974 133.698132 
L 236.64354 133.586709 
L 240.066654 133.273251 
L 243.465444 132.758822 
L 246.82812 132.045186 
L 250.143 131.134797 
L 253.398565 130.030798 
L 256.583511 128.736997 
L 259.686783 127.257862 
L 262.697598 125.598505 
L 265.605501 123.764661 
L 268.400381 121.762678 
L 271.072517 119.599487 
L 273.61261 117.282581 
L 276.011811 114.819998 
L 278.261769 112.220267 
L 280.354642 109.49241 
L 282.283114 106.645913 
L 284.040446 103.690677 
L 285.620516 100.636941 
L 287.017809 97.495291 
L 288.227433 94.276654 
L 289.245147 90.992213 
L 290.067375 87.653393 
L 290.691216 84.271824 
L 291.114454 80.859327 
L 291.335573 77.427848 
L 291.353771 73.989316 
L 291.168947 70.555708 
L 290.78171 67.139036 
L 290.193378 63.751265 
L 289.405969 60.404239 
L 288.422199 57.109683 
L 287.245459 53.879096 
L 285.879843 50.723845 
L 284.330081 47.654981 
L 282.60157 44.683292 
L 280.700362 41.819284 
L 278.633099 39.073049 
L 276.407011 36.454283 
L 274.029938 33.972286 
L 271.510301 31.635925 
L 268.857149 29.453651 
L 266.079985 27.433327 
L 263.188789 25.58225 
L 260.193804 23.907019 
L 257.105895 22.413736 
L 253.936845 21.108103 
L 250.69886 19.995106 
L 247.406353 19.079525 
L 244.075057 18.365411 
L 240.722128 17.855803 
L 237.369622 17.553018 
L 234.052301 17.458051 
L 230.832508 17.568084 
L 227.881032 17.864263 
L 225.400334 18.325222 
L 224.684727 18.624358 
L 224.667389 18.820585 
L 224.667389 18.820585 
" clip-path="url(#p8a0314a594)" style="fill: none; stroke: #aa0000; stroke-linecap: square"/>
   </g>
   <g id="patch_4">
    <path d="M 62.946719 139.811563 
L 62.946719 10.8 
" style="fill: none; stroke: #000000; stroke-width: 0.8; stroke-linejoin: miter; stroke-linecap: square"/>
   </g>
   <g id="patch_5">
    <path d="M 403.2 139.811563 
L 403.2 10.8 
" style="fill: none; stroke: #000000; stroke-width: 0.8; stroke-linejoin: miter; stroke-linecap: square"/>
   </g>
   <g id="patch_6">
    <path d="M 62.946719 139.811563 
L 403.2 139.811563 
" style="fill: none; stroke: #000000; stroke-width: 0.8; stroke-linejoin: miter; stroke-linecap: square"/>
   </g>
   <g id="patch_7">
    <path d="M 62.946719 10.8 
L 403.2 10.8 
" style="fill: none; stroke: #000000; stroke-width: 0.8; stroke-linejoin: miter; stroke-linecap: square"/>
   </g>
  </g>
 </g>
 <defs>
  <clipPath id="p8a0314a594">
   <rect x="62.946719" y="10.8" width="340.253281" height="129.011562"/>
  </clipPath>
 </defs>
</svg>
