<?xml version="1.0" encoding="utf-8" standalone="no"?>
<!DOCTYPE svg PUBLIC "-//W3C//DTD SVG 1.1//EN"
  "http://www.w3.org/Graphics/SVG/1.1/DTD/svg11.dtd">
<svg xmlns:xlink="http://www.w3.org/1999/xlink" width="414pt" height="180pt" viewBox="0 0 414 180" xmlns="http://www.w3.org/2000/svg" version="1.1">
 <metadata>
  <rdf:RDF xmlns:dc="http://purl.org/dc/elements/1.1/" xmlns:cc="http://creativecommons.org/ns#" xmlns:rdf="http://www.w3.org/1999/02/22-rdf-syntax-ns#">
   <cc:Work>
    <dc:type rdf:resource="http://purl.org/dc/dcmitype/StillImage"/>
    <dc:date>2026-04-10T02:33:56.368176</dc:date>
    <dc:format>image/svg+xml</dc:format>
    <dc:creator>
     <cc:Agent>
      <dc:title>Matplotlib v3.10.7, https://matplotlib.org/</dc:title>
     </cc:Agent>
    </dc:creator>
   </cc:Work>
  </rdf:RDF>
 </metadata>
 <defs>
  <style type="text/css">*{stroke-linejoin: round; stroke-linecap: butt}</style>
 </defs>
 <g id="figure_1">
  <g id="patch_1">
   <path d="M 0 180 
L 414 180 
L 414 0 
L 0 0 
L 0 180 
z
" style="fill: none"/>
  </g>
  <g id="axes_1">
   <g id="patch_2">
    <path d="M 60.080781 139.811563 
L 403.2 139.811563 
L 403.2 10.8 
L 60.080781 10.8 
L 60.080781 139.811563 
z
" style="fill: none"/>
   </g>
   <g id="matplotlib.axis_1">
    <g id="xtick_1">
     <g id="line2d_1">
      <defs>
       <path id="mdfee013493" d="M 0 0 
L 0 3.5 
" style="stroke: #000000; stroke-width: 0.8"/>
      </defs>
      <g>
       <use xlink:href="#mdfee013493" x="75.677109" y="139.811563" style="stroke: #000000; stroke-width: 0.8"/>
      </g>
     </g>
     <g id="text_1">
      <!-- 0 -->
      <g transform="translate(72.813984 153.650156) scale(0.09 -0.09)">
       <defs>
        <path id="DejaVuSans-30" d="M 2034 4250 
Q 1547 4250 1301 3770 
Q 1056 3291 1056 2328 
Q 1056 1369 1301 889 
Q 1547 409 2034 409 
Q 2525 409 2770 889 
Q 3016 1369 3016 2328 
Q 3016 3291 2770 3770 
Q 2525 4250 2034 4250 
z
M 2034 4750 
Q 2819 4750 3233 4129 
Q 3647 3509 3647 2328 
Q 3647 1150 3233 529 
Q 2819 -91 2034 -91 
Q 1250 -91 836 529 
Q 422 1150 422 2328 
Q 422 3509 836 4129 
Q 1250 4750 2034 4750 
z
" transform="scale(0.015625)"/>
       </defs>
       <use xlink:href="#DejaVuSans-30"/>
      </g>
     </g>
    </g>
    <g id="xtick_2">
     <g id="line2d_2">
      <g>
       <use xlink:href="#mdfee013493" x="134.592934" y="139.811563" style="stroke: #000000; stroke-width: 0.8"/>
      </g>
     </g>
     <g id="text_2">
      <!-- 2 -->
      <g transform="translate(131.729809 153.650156) scale(0.09 -0.09)">
       <defs>
        <path id="DejaVuSans-32" d="M 1228 531 
L 3431 531 
L 3431 0 
L 469 0 
L 469 531 
Q 828 903 1448 1529 
Q 2069 2156 2228 2338 
Q 2531 2678 2651 2914 
Q 2772 3150 2772 3378 
Q 2772 3750 2511 3984 
Q 2250 4219 1831 4219 
Q 1534 4219 1204 4116 
Q 875 4013 500 3803 
L 500 4441 
Q 881 4594 1212 4672 
Q 1544 4750 1819 4750 
Q 2544 4750 2975 4387 
Q 3406 4025 3406 3419 
Q 3406 3131 3298 2873 
Q 3191 2616 2906 2266 
Q 2828 2175 2409 1742 
Q 1991 1309 1228 531 
z
" transform="scale(0.015625)"/>
       </defs>
       <use xlink:href="#DejaVuSans-32"/>
      </g>
     </g>
    </g>
    <g id="xtick_3">
     <g id="line2d_3">
      <g>
       <use xlink:href="#mdfee013493" x="193.508759" y="139.811563" style="stroke: #000000; stroke-width: 0.8"/>
      </g>
     </g>
     <g id="text_3">
      <!-- 4 -->
      <g transform="translate(190.645634 153.650156) scale(0.09 -0.09)">
       <defs>
        <path id="DejaVuSans-34" d="M 2419 4116 
L 825 1625 
L 2419 1625 
L 2419 4116 
z
M 2253 4666 
L 3047 4666 
L 3047 1625 
L 3713 1625 
L 3713 1100 
L 3047 1100 
L 3047 0 
L 2419 0 
L 2419 1100 
L 313 1100 
L 313 1709 
L 2253 4666 
z
" transform="scale(0.015625)"/>
       </defs>
       <use xlink:href="#DejaVuSans-34"/>
      </g>
     </g>
    </g>
    <g id="xtick_4">
     <g id="line2d_4">
      <g>
       <use xlink:href="#mdfee013493" x="252.424584" y="139.811563" style="stroke: #000000; stroke-width: 0.8"/>
      </g>
     </g>
     <g id="text_4">
      <!-- 6 -->
      <g transform="translate(249.561459 153.650156) scale(0.09 -0.09)">
       <defs>
        <path id="DejaVuSans-36" d="M 2113 2584 
Q 1688 2584 1439 2293 
Q 1191 2003 1191 1497 
Q 1191 994 1439 701 
Q 1688 409 2113 409 
Q 2538 409 2786 701 
Q 3034 994 3034 1497 
Q 3034 2003 2786 2293 
Q 2538 2584 2113 2584 
z
M 3366 4563 
L 3366 3988 
Q 3128 4100 2886 4159 
Q 2644 4219 2406 4219 
Q 1781 4219 1451 3797 
Q 1122 3375 1075 2522 
Q 1259 2794 1537 2939 
Q 1816 3084 2150 3084 
Q 2853 3084 3261 2657 
Q 3669 2231 3669 1497 
Q 3669 778 3244 343 
Q 2819 -91 2113 -91 
Q 1303 -91 875 529 
Q 447 1150 447 2328 
Q 447 3434 972 4092 
Q 1497 4750 2381 4750 
Q 2619 4750 2861 4703 
Q 3103 4656 3366 4563 
z
" transform="scale(0.015625)"/>
       </defs>
       <use xlink:href="#DejaVuSans-36"/>
      </g>
     </g>
    </g>
    <g id="xtick_5">
     <g id="line2d_5">
      <g>
       <use xlink:href="#mdfee013493" x="311.340409" y="139.811563" style="stroke: #000000; stroke-width: 0.8"/>
      </g>
     </g>
     <g id="text_5">
      <!-- 8 -->
      <g transform="translate(308.477284 153.650156) scale(0.09 -0.09)">
       <defs>
        <path id="DejaVuSans-38" d="M 2034 2216 
Q 1584 2216 1326 1975 
Q 1069 1734 1069 1313 
Q 1069 891 1326 650 
Q 1584 409 2034 409 
Q 2484 409 2743 651 
Q 3003 894 3003 1313 
Q 3003 1734 2745 1975 
Q 2488 2216 2034 2216 
z
M 1403 2484 
Q 997 2584 770 2862 
Q 544 3141 544 3541 
Q 544 4100 942 4425 
Q 1341 4750 2034 4750 
Q 2731 4750 3128 4425 
Q 3525 4100 3525 3541 
Q 3525 3141 3298 2862 
Q 3072 2584 2669 2484 
Q 3125 2378 3379 2068 
Q 3634 1759 3634 1313 
Q 3634 634 3220 271 
Q 2806 -91 2034 -91 
Q 1263 -91 848 271 
Q 434 634 434 1313 
Q 434 1759 690 2068 
Q 947 2378 1403 2484 
z
M 1172 3481 
Q 1172 3119 1398 2916 
Q 1625 2713 2034 2713 
Q 2441 2713 2670 2916 
Q 2900 3119 2900 3481 
Q 2900 3844 2670 4047 
Q 2441 4250 2034 4250 
Q 1625 4250 1398 4047 
Q 1172 3844 1172 3481 
z
" transform="scale(0.015625)"/>
       </defs>
       <use xlink:href="#DejaVuSans-38"/>
      </g>
     </g>
    </g>
    <g id="xtick_6">
     <g id="line2d_6">
      <g>
       <use xlink:href="#mdfee013493" x="370.256235" y="139.811563" style="stroke: #000000; stroke-width: 0.8"/>
      </g>
     </g>
     <g id="text_6">
      <!-- 10 -->
      <g transform="translate(364.529985 153.650156) scale(0.09 -0.09)">
       <defs>
        <path id="DejaVuSans-31" d="M 794 531 
L 1825 531 
L 1825 4091 
L 703 3866 
L 703 4441 
L 1819 4666 
L 2450 4666 
L 2450 531 
L 3481 531 
L 3481 0 
L 794 0 
L 794 531 
z
" transform="scale(0.015625)"/>
       </defs>
       <use xlink:href="#DejaVuSans-31"/>
       <use xlink:href="#DejaVuSans-30" transform="translate(63.623047 0)"/>
      </g>
     </g>
    </g>
    <g id="text_7">
     <!-- Time [hr] -->
     <g transform="translate(208.691953 167.120313) scale(0.1 -0.1)">
      <defs>
       <path id="DejaVuSans-54" d="M -19 4666 
L 3928 4666 
L 3928 4134 
L 2272 4134 
L 2272 0 
L 1638 0 
L 1638 4134 
L -19 4134 
L -19 4666 
z
" transform="scale(0.015625)"/>
       <path id="DejaVuSans-69" d="M 603 3500 
L 1178 3500 
L 1178 0 
L 603 0 
L 603 3500 
z
M 603 4863 
L 1178 4863 
L 1178 4134 
L 603 4134 
L 603 4863 
z
" transform="scale(0.015625)"/>
       <path id="DejaVuSans-6d" d="M 3328 2828 
Q 3544 3216 3844 3400 
Q 4144 3584 4550 3584 
Q 5097 3584 5394 3201 
Q 5691 2819 5691 2113 
L 5691 0 
L 5113 0 
L 5113 2094 
Q 5113 2597 4934 2840 
Q 4756 3084 4391 3084 
Q 3944 3084 3684 2787 
Q 3425 2491 3425 1978 
L 3425 0 
L 2847 0 
L 2847 2094 
Q 2847 2600 2669 2842 
Q 2491 3084 2119 3084 
Q 1678 3084 1418 2786 
Q 1159 2488 1159 1978 
L 1159 0 
L 581 0 
L 581 3500 
L 1159 3500 
L 1159 2956 
Q 1356 3278 1631 3431 
Q 1906 3584 2284 3584 
Q 2666 3584 2933 3390 
Q 3200 3197 3328 2828 
z
" transform="scale(0.015625)"/>
       <path id="DejaVuSans-65" d="M 3597 1894 
L 3597 1613 
L 953 1613 
Q 991 1019 1311 708 
Q 1631 397 2203 397 
Q 2534 397 2845 478 
Q 3156 559 3463 722 
L 3463 178 
Q 3153 47 2828 -22 
Q 2503 -91 2169 -91 
Q 1331 -91 842 396 
Q 353 884 353 1716 
Q 353 2575 817 3079 
Q 1281 3584 2069 3584 
Q 2775 3584 3186 3129 
Q 3597 2675 3597 1894 
z
M 3022 2063 
Q 3016 2534 2758 2815 
Q 2500 3097 2075 3097 
Q 1594 3097 1305 2825 
Q 1016 2553 972 2059 
L 3022 2063 
z
" transform="scale(0.015625)"/>
       <path id="DejaVuSans-20" transform="scale(0.015625)"/>
       <path id="DejaVuSans-5b" d="M 550 4863 
L 1875 4863 
L 1875 4416 
L 1125 4416 
L 1125 -397 
L 1875 -397 
L 1875 -844 
L 550 -844 
L 550 4863 
z
" transform="scale(0.015625)"/>
       <path id="DejaVuSans-68" d="M 3513 2113 
L 3513 0 
L 2938 0 
L 2938 2094 
Q 2938 2591 2744 2837 
Q 2550 3084 2163 3084 
Q 1697 3084 1428 2787 
Q 1159 2491 1159 1978 
L 1159 0 
L 581 0 
L 581 4863 
L 1159 4863 
L 1159 2956 
Q 1366 3272 1645 3428 
Q 1925 3584 2291 3584 
Q 2894 3584 3203 3211 
Q 3513 2838 3513 2113 
z
" transform="scale(0.015625)"/>
       <path id="DejaVuSans-72" d="M 2631 2963 
Q 2534 3019 2420 3045 
Q 2306 3072 2169 3072 
Q 1681 3072 1420 2755 
Q 1159 2438 1159 1844 
L 1159 0 
L 581 0 
L 581 3500 
L 1159 3500 
L 1159 2956 
Q 1341 3275 1631 3429 
Q 1922 3584 2338 3584 
Q 2397 3584 2469 3576 
Q 2541 3569 2628 3553 
L 2631 2963 
z
" transform="scale(0.015625)"/>
       <path id="DejaVuSans-5d" d="M 1947 4863 
L 1947 -844 
L 622 -844 
L 622 -397 
L 1369 -397 
L 1369 4416 
L 622 4416 
L 622 4863 
L 1947 4863 
z
" transform="scale(0.015625)"/>
      </defs>
      <use xlink:href="#DejaVuSans-54"/>
      <use xlink:href="#DejaVuSans-69" transform="translate(57.958984 0)"/>
      <use xlink:href="#DejaVuSans-6d" transform="translate(85.742188 0)"/>
      <use xlink:href="#DejaVuSans-65" transform="translate(183.154297 0)"/>
      <use xlink:href="#DejaVuSans-20" transform="translate(244.677734 0)"/>
      <use xlink:href="#DejaVuSans-5b" transform="translate(276.464844 0)"/>
      <use xlink:href="#DejaVuSans-68" transform="translate(315.478516 0)"/>
      <use xlink:href="#DejaVuSans-72" transform="translate(378.857422 0)"/>
      <use xlink:href="#DejaVuSans-5d" transform="translate(419.970703 0)"/>
     </g>
    </g>
   </g>
   <g id="matplotlib.axis_2">
    <g id="ytick_1">
     <g id="line2d_7">
      <defs>
       <path id="m87149c12e0" d="M 0 0 
L -3.5 0 
" style="stroke: #000000; stroke-width: 0.8"/>
      </defs>
      <g>
       <use xlink:href="#m87149c12e0" x="60.080781" y="133.947401" style="stroke: #000000; stroke-width: 0.8"/>
      </g>
     </g>
     <g id="text_8">
      <!-- −1.00 -->
      <g transform="translate(25.5 137.366697) scale(0.09 -0.09)">
       <defs>
        <path id="DejaVuSans-2212" d="M 678 2272 
L 4684 2272 
L 4684 1741 
L 678 1741 
L 678 2272 
z
" transform="scale(0.015625)"/>
        <path id="DejaVuSans-2e" d="M 684 794 
L 1344 794 
L 1344 0 
L 684 0 
L 684 794 
z
" transform="scale(0.015625)"/>
       </defs>
       <use xlink:href="#DejaVuSans-2212"/>
       <use xlink:href="#DejaVuSans-31" transform="translate(83.789062 0)"/>
       <use xlink:href="#DejaVuSans-2e" transform="translate(147.412109 0)"/>
       <use xlink:href="#DejaVuSans-30" transform="translate(179.199219 0)"/>
       <use xlink:href="#DejaVuSans-30" transform="translate(242.822266 0)"/>
      </g>
     </g>
    </g>
    <g id="ytick_2">
     <g id="line2d_8">
      <g>
       <use xlink:href="#m87149c12e0" x="60.080781" y="113.256844" style="stroke: #000000; stroke-width: 0.8"/>
      </g>
     </g>
     <g id="text_9">
      <!-- −0.75 -->
      <g transform="translate(25.5 116.67614) scale(0.09 -0.09)">
       <defs>
        <path id="DejaVuSans-37" d="M 525 4666 
L 3525 4666 
L 3525 4397 
L 1831 0 
L 1172 0 
L 2766 4134 
L 525 4134 
L 525 4666 
z
" transform="scale(0.015625)"/>
        <path id="DejaVuSans-35" d="M 691 4666 
L 3169 4666 
L 3169 4134 
L 1269 4134 
L 1269 2991 
Q 1406 3038 1543 3061 
Q 1681 3084 1819 3084 
Q 2600 3084 3056 2656 
Q 3513 2228 3513 1497 
Q 3513 744 3044 326 
Q 2575 -91 1722 -91 
Q 1428 -91 1123 -41 
Q 819 9 494 109 
L 494 744 
Q 775 591 1075 516 
Q 1375 441 1709 441 
Q 2250 441 2565 725 
Q 2881 1009 2881 1497 
Q 2881 1984 2565 2268 
Q 2250 2553 1709 2553 
Q 1456 2553 1204 2497 
Q 953 2441 691 2322 
L 691 4666 
z
" transform="scale(0.015625)"/>
       </defs>
       <use xlink:href="#DejaVuSans-2212"/>
       <use xlink:href="#DejaVuSans-30" transform="translate(83.789062 0)"/>
       <use xlink:href="#DejaVuSans-2e" transform="translate(147.412109 0)"/>
       <use xlink:href="#DejaVuSans-37" transform="translate(179.199219 0)"/>
       <use xlink:href="#DejaVuSans-35" transform="translate(242.822266 0)"/>
      </g>
     </g>
    </g>
    <g id="ytick_3">
     <g id="line2d_9">
      <g>
       <use xlink:href="#m87149c12e0" x="60.080781" y="92.566286" style="stroke: #000000; stroke-width: 0.8"/>
      </g>
     </g>
     <g id="text_10">
      <!-- −0.50 -->
      <g transform="translate(25.5 95.985583) scale(0.09 -0.09)">
       <use xlink:href="#DejaVuSans-2212"/>
       <use xlink:href="#DejaVuSans-30" transform="translate(83.789062 0)"/>
       <use xlink:href="#DejaVuSans-2e" transform="translate(147.412109 0)"/>
       <use xlink:href="#DejaVuSans-35" transform="translate(179.199219 0)"/>
       <use xlink:href="#DejaVuSans-30" transform="translate(242.822266 0)"/>
      </g>
     </g>
    </g>
    <g id="ytick_4">
     <g id="line2d_10">
      <g>
       <use xlink:href="#m87149c12e0" x="60.080781" y="71.875729" style="stroke: #000000; stroke-width: 0.8"/>
      </g>
     </g>
     <g id="text_11">
      <!-- −0.25 -->
      <g transform="translate(25.5 75.295026) scale(0.09 -0.09)">
       <use xlink:href="#DejaVuSans-2212"/>
       <use xlink:href="#DejaVuSans-30" transform="translate(83.789062 0)"/>
       <use xlink:href="#DejaVuSans-2e" transform="translate(147.412109 0)"/>
       <use xlink:href="#DejaVuSans-32" transform="translate(179.199219 0)"/>
       <use xlink:href="#DejaVuSans-35" transform="translate(242.822266 0)"/>
      </g>
     </g>
    </g>
    <g id="ytick_5">
     <g id="line2d_11">
      <g>
       <use xlink:href="#m87149c12e0" x="60.080781" y="51.185172" style="stroke: #000000; stroke-width: 0.8"/>
      </g>
     </g>
     <g id="text_12">
      <!-- 0.00 -->
      <g transform="translate(33.041719 54.604469) scale(0.09 -0.09)">
       <use xlink:href="#DejaVuSans-30"/>
       <use xlink:href="#DejaVuSans-2e" transform="translate(63.623047 0)"/>
       <use xlink:href="#DejaVuSans-30" transform="translate(95.410156 0)"/>
       <use xlink:href="#DejaVuSans-30" transform="translate(159.033203 0)"/>
      </g>
     </g>
    </g>
    <g id="ytick_6">
     <g id="line2d_12">
      <g>
       <use xlink:href="#m87149c12e0" x="60.080781" y="30.494615" style="stroke: #000000; stroke-width: 0.8"/>
      </g>
     </g>
     <g id="text_13">
      <!-- 0.25 -->
      <g transform="translate(33.041719 33.913912) scale(0.09 -0.09)">
       <use xlink:href="#DejaVuSans-30"/>
       <use xlink:href="#DejaVuSans-2e" transform="translate(63.623047 0)"/>
       <use xlink:href="#DejaVuSans-32" transform="translate(95.410156 0)"/>
       <use xlink:href="#DejaVuSans-35" transform="translate(159.033203 0)"/>
      </g>
     </g>
    </g>
    <g id="text_14">
     <!-- $(\rho_{stoch} / \rho_{exp}) - 1$ [-] -->
     <g transform="translate(18.4 120.055781) rotate(-90) scale(0.1 -0.1)">
      <defs>
       <path id="DejaVuSans-28" d="M 1984 4856 
Q 1566 4138 1362 3434 
Q 1159 2731 1159 2009 
Q 1159 1288 1364 580 
Q 1569 -128 1984 -844 
L 1484 -844 
Q 1016 -109 783 600 
Q 550 1309 550 2009 
Q 550 2706 781 3412 
Q 1013 4119 1484 4856 
L 1984 4856 
z
" transform="scale(0.015625)"/>
       <path id="DejaVuSans-Oblique-3c1" d="M 1203 2875 
Q 1453 3194 1981 3475 
Q 2188 3584 2756 3584 
Q 3394 3584 3694 3078 
Q 3994 2572 3834 1747 
Q 3672 922 3175 415 
Q 2678 -91 2041 -91 
Q 1656 -91 1409 63 
Q 1163 213 1044 525 
L 681 -1331 
L 103 -1331 
L 697 1716 
Q 838 2438 1203 2875 
z
M 3238 1747 
Q 3359 2381 3169 2744 
Q 2978 3103 2522 3103 
Q 2066 3103 1734 2744 
Q 1403 2381 1281 1747 
Q 1156 1113 1347 750 
Q 1538 391 1994 391 
Q 2450 391 2781 750 
Q 3113 1113 3238 1747 
z
" transform="scale(0.015625)"/>
       <path id="DejaVuSans-Oblique-73" d="M 3200 3397 
L 3091 2853 
Q 2863 2978 2609 3040 
Q 2356 3103 2088 3103 
Q 1634 3103 1373 2948 
Q 1113 2794 1113 2528 
Q 1113 2219 1719 2053 
Q 1766 2041 1788 2034 
L 1972 1978 
Q 2547 1819 2739 1644 
Q 2931 1469 2931 1166 
Q 2931 609 2489 259 
Q 2047 -91 1331 -91 
Q 1053 -91 747 -37 
Q 441 16 72 128 
L 184 722 
Q 500 559 806 475 
Q 1113 391 1394 391 
Q 1816 391 2080 572 
Q 2344 753 2344 1031 
Q 2344 1331 1650 1516 
L 1591 1531 
L 1394 1581 
Q 956 1697 753 1886 
Q 550 2075 550 2369 
Q 550 2928 970 3256 
Q 1391 3584 2113 3584 
Q 2397 3584 2667 3537 
Q 2938 3491 3200 3397 
z
" transform="scale(0.015625)"/>
       <path id="DejaVuSans-Oblique-74" d="M 2706 3500 
L 2619 3053 
L 1472 3053 
L 1100 1153 
Q 1081 1047 1072 975 
Q 1063 903 1063 863 
Q 1063 663 1183 572 
Q 1303 481 1569 481 
L 2150 481 
L 2053 0 
L 1503 0 
Q 991 0 739 200 
Q 488 400 488 806 
Q 488 878 497 964 
Q 506 1050 525 1153 
L 897 3053 
L 409 3053 
L 500 3500 
L 978 3500 
L 1172 4494 
L 1747 4494 
L 1556 3500 
L 2706 3500 
z
" transform="scale(0.015625)"/>
       <path id="DejaVuSans-Oblique-6f" d="M 1625 -91 
Q 1009 -91 651 289 
Q 294 669 294 1325 
Q 294 1706 417 2101 
Q 541 2497 738 2766 
Q 1047 3184 1428 3384 
Q 1809 3584 2291 3584 
Q 2888 3584 3255 3212 
Q 3622 2841 3622 2241 
Q 3622 1825 3500 1412 
Q 3378 1000 3181 728 
Q 2875 309 2494 109 
Q 2113 -91 1625 -91 
z
M 891 1344 
Q 891 869 1089 633 
Q 1288 397 1691 397 
Q 2269 397 2648 901 
Q 3028 1406 3028 2181 
Q 3028 2634 2825 2865 
Q 2622 3097 2228 3097 
Q 1903 3097 1650 2945 
Q 1397 2794 1197 2484 
Q 1050 2253 970 1956 
Q 891 1659 891 1344 
z
" transform="scale(0.015625)"/>
       <path id="DejaVuSans-Oblique-63" d="M 3431 3366 
L 3316 2797 
Q 3109 2947 2876 3022 
Q 2644 3097 2394 3097 
Q 2119 3097 1870 3000 
Q 1622 2903 1453 2725 
Q 1184 2453 1037 2087 
Q 891 1722 891 1331 
Q 891 859 1127 628 
Q 1363 397 1844 397 
Q 2081 397 2348 469 
Q 2616 541 2906 684 
L 2797 116 
Q 2547 13 2283 -39 
Q 2019 -91 1741 -91 
Q 1044 -91 669 257 
Q 294 606 294 1253 
Q 294 1797 489 2255 
Q 684 2713 1069 3078 
Q 1331 3328 1684 3456 
Q 2038 3584 2456 3584 
Q 2700 3584 2940 3529 
Q 3181 3475 3431 3366 
z
" transform="scale(0.015625)"/>
       <path id="DejaVuSans-Oblique-68" d="M 3566 2113 
L 3156 0 
L 2578 0 
L 2988 2091 
Q 3016 2238 3031 2350 
Q 3047 2463 3047 2528 
Q 3047 2791 2881 2937 
Q 2716 3084 2419 3084 
Q 1956 3084 1617 2771 
Q 1278 2459 1178 1941 
L 800 0 
L 225 0 
L 1172 4863 
L 1747 4863 
L 1375 2950 
Q 1594 3244 1934 3414 
Q 2275 3584 2650 3584 
Q 3113 3584 3367 3334 
Q 3622 3084 3622 2631 
Q 3622 2519 3608 2391 
Q 3594 2263 3566 2113 
z
" transform="scale(0.015625)"/>
       <path id="DejaVuSans-2f" d="M 1625 4666 
L 2156 4666 
L 531 -594 
L 0 -594 
L 1625 4666 
z
" transform="scale(0.015625)"/>
       <path id="DejaVuSans-Oblique-65" d="M 3078 2063 
Q 3088 2113 3092 2166 
Q 3097 2219 3097 2272 
Q 3097 2653 2873 2875 
Q 2650 3097 2266 3097 
Q 1838 3097 1509 2826 
Q 1181 2556 1013 2059 
L 3078 2063 
z
M 3578 1613 
L 903 1613 
Q 884 1494 878 1425 
Q 872 1356 872 1306 
Q 872 872 1139 634 
Q 1406 397 1894 397 
Q 2269 397 2603 481 
Q 2938 566 3225 728 
L 3116 159 
Q 2806 34 2476 -28 
Q 2147 -91 1806 -91 
Q 1078 -91 686 257 
Q 294 606 294 1247 
Q 294 1794 489 2264 
Q 684 2734 1063 3103 
Q 1306 3334 1642 3459 
Q 1978 3584 2356 3584 
Q 2950 3584 3301 3228 
Q 3653 2872 3653 2272 
Q 3653 2128 3634 1964 
Q 3616 1800 3578 1613 
z
" transform="scale(0.015625)"/>
       <path id="DejaVuSans-Oblique-78" d="M 3841 3500 
L 2234 1784 
L 3219 0 
L 2559 0 
L 1819 1388 
L 531 0 
L -166 0 
L 1556 1844 
L 641 3500 
L 1300 3500 
L 1972 2234 
L 3144 3500 
L 3841 3500 
z
" transform="scale(0.015625)"/>
       <path id="DejaVuSans-Oblique-70" d="M 3175 2156 
Q 3175 2616 2975 2859 
Q 2775 3103 2400 3103 
Q 2144 3103 1911 2972 
Q 1678 2841 1497 2591 
Q 1319 2344 1212 1994 
Q 1106 1644 1106 1300 
Q 1106 863 1306 627 
Q 1506 391 1875 391 
Q 2147 391 2380 519 
Q 2613 647 2778 891 
Q 2956 1147 3065 1494 
Q 3175 1841 3175 2156 
z
M 1394 2969 
Q 1625 3272 1939 3428 
Q 2253 3584 2638 3584 
Q 3175 3584 3472 3232 
Q 3769 2881 3769 2247 
Q 3769 1728 3584 1258 
Q 3400 788 3053 416 
Q 2822 169 2531 39 
Q 2241 -91 1919 -91 
Q 1547 -91 1294 64 
Q 1041 219 916 525 
L 556 -1331 
L -19 -1331 
L 922 3500 
L 1497 3500 
L 1394 2969 
z
" transform="scale(0.015625)"/>
       <path id="DejaVuSans-29" d="M 513 4856 
L 1013 4856 
Q 1481 4119 1714 3412 
Q 1947 2706 1947 2009 
Q 1947 1309 1714 600 
Q 1481 -109 1013 -844 
L 513 -844 
Q 928 -128 1133 580 
Q 1338 1288 1338 2009 
Q 1338 2731 1133 3434 
Q 928 4138 513 4856 
z
" transform="scale(0.015625)"/>
       <path id="DejaVuSans-2d" d="M 313 2009 
L 1997 2009 
L 1997 1497 
L 313 1497 
L 313 2009 
z
" transform="scale(0.015625)"/>
      </defs>
      <use xlink:href="#DejaVuSans-28" transform="translate(0 0.015625)"/>
      <use xlink:href="#DejaVuSans-Oblique-3c1" transform="translate(39.013672 0.015625)"/>
      <use xlink:href="#DejaVuSans-Oblique-73" transform="translate(102.490234 -16.390625) scale(0.7)"/>
      <use xlink:href="#DejaVuSans-Oblique-74" transform="translate(138.959961 -16.390625) scale(0.7)"/>
      <use xlink:href="#DejaVuSans-Oblique-6f" transform="translate(166.40625 -16.390625) scale(0.7)"/>
      <use xlink:href="#DejaVuSans-Oblique-63" transform="translate(209.233398 -16.390625) scale(0.7)"/>
      <use xlink:href="#DejaVuSans-Oblique-68" transform="translate(247.719727 -16.390625) scale(0.7)"/>
      <use xlink:href="#DejaVuSans-2f" transform="translate(294.819336 0.015625)"/>
      <use xlink:href="#DejaVuSans-Oblique-3c1" transform="translate(328.510742 0.015625)"/>
      <use xlink:href="#DejaVuSans-Oblique-65" transform="translate(391.987305 -16.390625) scale(0.7)"/>
      <use xlink:href="#DejaVuSans-Oblique-78" transform="translate(435.053711 -16.390625) scale(0.7)"/>
      <use xlink:href="#DejaVuSans-Oblique-70" transform="translate(476.479492 -16.390625) scale(0.7)"/>
      <use xlink:href="#DejaVuSans-29" transform="translate(523.647461 0.015625)"/>
      <use xlink:href="#DejaVuSans-2212" transform="translate(582.143555 0.015625)"/>
      <use xlink:href="#DejaVuSans-31" transform="translate(685.415039 0.015625)"/>
      <use xlink:href="#DejaVuSans-20" transform="translate(749.038086 0.015625)"/>
      <use xlink:href="#DejaVuSans-5b" transform="translate(780.825195 0.015625)"/>
      <use xlink:href="#DejaVuSans-2d" transform="translate(819.838867 0.015625)"/>
      <use xlink:href="#DejaVuSans-5d" transform="translate(855.922852 0.015625)"/>
     </g>
    </g>
   </g>
   <g id="line2d_13">
    <path d="M 75.677109 133.947401 
L 75.840764 53.856315 
L 76.00442 64.626193 
L 76.249902 60.718475 
L 76.33173 64.98147 
L 76.413557 63.99764 
L 76.495385 66.187308 
L 76.65904 76.225341 
L 76.822695 67.101681 
L 76.904522 79.228936 
L 76.98635 76.985154 
L 77.068177 74.939806 
L 77.150005 81.504077 
L 77.31366 71.488115 
L 77.395488 74.798725 
L 77.559143 71.258585 
L 77.722798 62.974701 
L 77.804625 75.466907 
L 77.886453 65.127201 
L 77.96828 72.559264 
L 78.050108 70.905396 
L 78.131935 64.055587 
L 78.213763 68.023531 
L 78.29559 66.770808 
L 78.377418 60.286683 
L 78.459246 64.587946 
L 78.622901 46.662287 
L 78.704728 47.298714 
L 78.868383 48.407727 
L 78.950211 40.461248 
L 79.032038 41.646117 
L 79.113866 42.726212 
L 79.359348 52.430178 
L 79.441176 47.214504 
L 79.523004 47.329783 
L 79.604831 55.86337 
L 79.686659 55.213801 
L 79.768486 59.963774 
L 79.932141 53.589973 
L 80.013969 58.483569 
L 80.095796 58.074773 
L 80.259451 57.362482 
L 80.341279 48.624506 
L 80.423106 49.08767 
L 80.504934 49.509889 
L 80.668589 36.475364 
L 80.750417 37.540604 
L 80.914072 39.396848 
L 80.995899 45.545718 
L 81.077727 32.511133 
L 81.159554 33.927049 
L 81.241382 35.217764 
L 81.405037 42.808791 
L 81.486864 38.444623 
L 81.568692 44.677758 
L 81.650519 40.148365 
L 81.814174 46.905985 
L 81.896002 42.179627 
L 82.141485 59.149603 
L 82.386967 49.569451 
L 82.468795 54.818817 
L 82.550622 46.306763 
L 82.63245 55.403238 
L 82.714277 41.497901 
L 82.796105 42.119458 
L 83.041588 59.104229 
L 83.123415 63.510422 
L 83.205243 62.657737 
L 83.28707 56.538901 
L 83.450725 68.208497 
L 83.532553 66.940407 
L 83.61438 60.44296 
L 83.696208 64.730808 
L 83.778035 58.428845 
L 83.94169 65.182794 
L 84.023518 63.710041 
L 84.187173 74.167374 
L 84.269001 67.031076 
L 84.432656 77.672262 
L 84.514483 61.798789 
L 84.596311 65.966805 
L 84.759966 74.690225 
L 84.841793 77.718171 
L 85.087276 71.934953 
L 85.169103 73.423604 
L 85.250931 71.222381 
L 85.332758 74.557055 
L 85.660069 68.155486 
L 85.823724 60.400385 
L 85.905551 73.119081 
L 85.987379 62.990446 
L 86.069206 70.611321 
L 86.232861 54.759743 
L 86.314689 59.550414 
L 86.478344 53.250477 
L 86.641999 52.453752 
L 86.723827 60.534112 
L 86.887482 50.824781 
L 87.051137 58.864903 
L 87.132964 57.951726 
L 87.296619 48.679281 
L 87.378447 54.007779 
L 87.460274 48.655758 
L 87.542102 53.986349 
L 87.623929 53.977064 
L 87.705757 45.542256 
L 87.869412 54.633251 
L 87.95124 49.226131 
L 88.033067 54.506318 
L 88.114895 49.110496 
L 88.196722 54.400922 
L 88.360377 45.887252 
L 88.524032 47.239102 
L 88.60586 42.486192 
L 88.687687 43.021927 
L 88.769515 43.510304 
L 88.851342 49.296048 
L 88.93317 44.361368 
L 89.014998 44.731353 
L 89.178653 53.802041 
L 89.342308 42.147277 
L 89.424135 37.845029 
L 89.669618 61.887414 
L 89.751445 47.413772 
L 89.833273 52.854371 
L 89.996928 44.60339 
L 90.324238 47.477391 
L 90.406066 42.704166 
L 90.487893 48.561314 
L 90.569721 40.60699 
L 90.651548 44.866969 
L 90.733376 36.767186 
L 90.815203 37.809228 
L 90.978858 44.965202 
L 91.060686 40.414409 
L 91.142513 41.133976 
L 91.387996 56.698358 
L 91.469824 51.11007 
L 91.551651 59.30909 
L 91.633479 58.357767 
L 91.715306 57.490595 
L 91.797134 62.040142 
L 92.042616 47.04403 
L 92.124444 47.177499 
L 92.206271 52.639128 
L 92.288099 47.410117 
L 92.451754 61.368416 
L 92.615409 54.764951 
L 92.697237 54.215713 
L 92.779064 59.054925 
L 93.188202 35.335588 
L 93.270029 45.401805 
L 93.351857 40.813173 
L 93.433684 46.837691 
L 93.515512 42.122122 
L 93.597339 51.115918 
L 93.679167 50.889559 
L 93.760995 50.683232 
L 93.842822 55.834884 
L 93.92465 41.899023 
L 94.088305 56.043909 
L 94.170132 55.854023 
L 94.333787 50.183515 
L 94.57927 65.214213 
L 94.742925 54.718893 
L 94.824753 59.513663 
L 94.988408 44.800161 
L 95.23389 59.475772 
L 95.397545 53.193324 
L 95.479373 58.123017 
L 95.5612 57.749409 
L 95.724855 40.994566 
L 95.806683 36.796233 
L 95.970338 44.124306 
L 96.133993 45.776712 
L 96.215821 41.155523 
L 96.297648 41.810312 
L 96.379476 42.407199 
L 96.461303 34.526956 
L 96.543131 41.107434 
L 96.788613 30.446163 
L 96.952268 47.272078 
L 97.034096 42.518737 
L 97.115923 43.053013 
L 97.197751 48.879477 
L 97.279579 43.984005 
L 97.361406 44.388707 
L 97.688716 66.443712 
L 97.770544 51.570715 
L 97.852371 59.728735 
L 97.934199 58.741051 
L 98.097854 65.444234 
L 98.179681 63.951097 
L 98.261509 76.353636 
L 98.343337 74.367912 
L 98.752474 66.782673 
L 98.916129 72.284002 
L 98.997957 79.082386 
L 99.161612 69.485809 
L 99.243439 76.059453 
L 99.407094 63.731412 
L 99.488922 76.153346 
L 99.57075 60.421631 
L 99.652577 64.712016 
L 99.816232 55.204799 
L 99.89806 58.174135 
L 99.979887 65.748105 
L 100.061715 64.227999 
L 100.143542 62.842315 
L 100.307197 68.852005 
L 100.470852 81.52505 
L 100.634507 72.867233 
L 100.716335 65.850212 
L 100.798163 72.745332 
L 100.961818 60.977145 
L 101.125473 71.896509 
L 101.2073 70.304735 
L 101.452783 53.306328 
L 101.53461 52.886308 
L 101.616438 57.842956 
L 101.698265 52.154378 
L 101.86192 65.310169 
L 102.025576 58.040994 
L 102.107403 70.966281 
L 102.189231 69.456623 
L 102.352886 61.486362 
L 102.434713 60.342794 
L 102.516541 64.639972 
L 102.598368 63.6897 
L 102.762023 56.694127 
L 102.925678 69.082417 
L 103.007506 62.399515 
L 103.089334 66.514766 
L 103.171161 65.39859 
L 103.334816 50.434132 
L 103.416644 64.032272 
L 103.498471 63.135565 
L 103.662126 48.553421 
L 103.743954 48.55328 
L 103.907609 53.892798 
L 103.989436 40.127915 
L 104.071264 46.212634 
L 104.234919 39.085603 
L 104.316747 40.394832 
L 104.398574 36.248372 
L 104.562229 43.667793 
L 104.725884 32.375763 
L 104.807712 33.806016 
L 104.889539 40.449737 
L 104.971367 36.298206 
L 105.053194 37.381528 
L 105.216849 52.289328 
L 105.298677 52.430695 
L 105.380504 38.794244 
L 105.462332 39.656734 
L 105.54416 45.783006 
L 105.707815 38.727606 
L 105.789642 40.068163 
L 105.87147 35.950024 
L 106.035125 46.504709 
L 106.116952 38.259737 
L 106.19878 44.509499 
L 106.280607 39.998437 
L 106.362435 46.094428 
L 106.444262 41.443141 
L 106.52609 47.41136 
L 106.607918 34.217972 
L 106.689745 35.484854 
L 106.8534 43.03266 
L 106.935228 30.226273 
L 107.017055 31.846072 
L 107.098883 47.088653 
L 107.18071 42.349149 
L 107.262538 39.811441 
L 107.589848 58.974685 
L 107.753503 52.773282 
L 107.835331 52.398984 
L 107.917158 43.631835 
L 107.998986 44.065899 
L 108.162641 50.162728 
L 108.244468 45.150943 
L 108.326296 45.450587 
L 108.489951 67.420259 
L 108.571778 60.882209 
L 108.653606 56.705085 
L 108.735433 59.540696 
L 108.817261 72.334508 
L 108.899088 70.702392 
L 108.980916 63.873924 
L 109.226399 75.582399 
L 109.308226 78.53138 
L 109.471881 66.682504 
L 109.635536 75.284572 
L 109.717364 69.833422 
L 109.881019 45.687281 
L 109.962846 59.706421 
L 110.044674 59.190761 
L 110.126502 58.720683 
L 110.208329 44.524691 
L 110.290157 58.646713 
L 110.371984 44.457148 
L 110.453812 50.158531 
L 110.535639 45.146155 
L 110.617467 53.872329 
L 110.699294 53.400111 
L 110.781122 58.310623 
L 110.862949 57.918207 
L 110.944777 52.219456 
L 111.108432 65.363896 
L 111.190259 64.347666 
L 111.272087 63.421286 
L 111.353915 57.235718 
L 111.599397 75.894874 
L 111.926707 41.244847 
L 112.008535 55.657279 
L 112.090362 50.158015 
L 112.17219 55.355145 
L 112.254017 49.882537 
L 112.335845 55.10402 
L 112.4995 49.553997 
L 112.663155 49.380457 
L 112.744983 54.646319 
L 112.82681 54.577525 
L 112.908638 40.746139 
L 112.990465 41.434184 
L 113.072293 42.061367 
L 113.235948 48.495603 
L 113.317775 43.629232 
L 113.399603 44.062238 
L 113.48143 58.225821 
L 113.563258 57.840347 
L 113.645086 52.147486 
L 113.808741 64.558816 
L 113.890568 58.271741 
L 114.217878 70.685261 
L 114.299706 68.725451 
L 114.381533 72.280502 
L 114.545188 69.167446 
L 114.708843 61.238981 
L 114.790671 65.456069 
L 114.954326 49.727129 
L 115.036154 54.962241 
L 115.281636 54.695858 
L 115.363464 46.194421 
L 115.445291 46.872628 
L 115.527119 42.149141 
L 115.690774 56.250661 
L 115.772601 56.03952 
L 115.936256 50.329821 
L 116.018084 55.511615 
L 116.181739 49.891081 
L 116.345394 41.976727 
L 116.427222 56.32523 
L 116.509049 50.765609 
L 116.672704 64.155904 
L 116.836359 49.391165 
L 116.918187 49.314117 
L 117.000014 46.157631 
L 117.081842 38.41083 
L 117.163669 48.205322 
L 117.245497 43.363662 
L 117.327325 49.161495 
L 117.409152 44.235256 
L 117.49098 44.614129 
L 117.572807 44.959493 
L 117.654635 50.616203 
L 117.736462 37.133111 
L 117.81829 51.910124 
L 117.900117 46.740762 
L 118.1456 60.942216 
L 118.309255 46.720373 
L 118.47291 68.477474 
L 118.554738 61.842938 
L 118.636565 60.664643 
L 118.718393 64.932489 
L 118.80022 58.611439 
L 119.045703 69.188525 
L 119.12753 67.833033 
L 119.291185 52.446204 
L 119.373013 60.527162 
L 119.45484 59.46522 
L 119.536668 50.068925 
L 119.618496 55.273817 
L 119.700323 55.148874 
L 119.782151 49.693023 
L 119.863978 63.359434 
L 120.027633 56.411781 
L 120.109461 61.055756 
L 120.191288 60.419499 
L 120.273116 54.497553 
L 120.354943 62.397129 
L 120.845909 36.490563 
L 121.091391 47.090954 
L 121.255046 36.563339 
L 121.336874 38.093152 
L 121.418701 25.717526 
L 121.500529 27.7341 
L 121.582356 29.572346 
L 121.664184 36.589957 
L 121.746011 32.775545 
L 121.827839 39.509889 
L 121.909667 35.437279 
L 121.991494 50.36442 
L 122.073322 36.903739 
L 122.155149 37.931134 
L 122.318804 39.721415 
L 122.482459 54.979084 
L 122.564287 49.538568 
L 122.646114 54.790511 
L 122.809769 49.292019 
L 122.891597 49.223947 
L 122.973424 54.503736 
L 123.055252 49.105369 
L 123.13708 62.823692 
L 123.218907 62.031382 
L 123.382562 68.333476 
L 123.546217 60.545794 
L 123.628045 64.824359 
L 123.709872 63.855191 
L 123.7917 57.629999 
L 123.873527 65.252624 
L 123.955355 63.773224 
L 124.200837 73.099091 
L 124.364493 64.506106 
L 124.44632 76.862305 
L 124.528148 74.828673 
L 124.691803 58.260979 
L 124.77363 54.31392 
L 124.855458 57.360569 
L 125.264595 41.264745 
L 125.428251 47.834067 
L 125.510078 48.367788 
L 125.591906 43.512797 
L 125.673733 52.383907 
L 125.755561 43.615375 
L 125.837388 44.049879 
L 125.919216 58.214974 
L 126.001043 57.830742 
L 126.164698 64.843439 
L 126.246526 63.873056 
L 126.410181 56.840795 
L 126.492008 64.53321 
L 126.573836 60.03199 
L 126.655664 67.914547 
L 126.737491 66.672669 
L 126.819319 68.626591 
L 126.901146 66.849415 
L 126.982974 78.998007 
L 127.064801 76.776007 
L 127.146629 83.177751 
L 127.310284 72.882475 
L 127.392111 76.070288 
L 127.473939 74.107295 
L 127.555766 80.745038 
L 127.719421 63.17943 
L 127.883077 76.812343 
L 128.128559 69.953771 
L 128.210387 73.400647 
L 128.374042 64.758836 
L 128.455869 68.665156 
L 128.701352 57.396767 
L 128.865007 56.801777 
L 128.946835 64.969924 
L 129.11049 57.753795 
L 129.192317 56.938716 
L 129.274145 61.536689 
L 129.4378 54.901158 
L 129.683282 73.382247 
L 129.76511 66.31662 
L 129.846937 70.085275 
L 130.09242 53.812127 
L 130.174248 53.345875 
L 130.256075 49.835249 
L 130.337903 58.619444 
L 130.41973 52.859661 
L 130.583385 65.151449 
L 130.74704 57.905614 
L 130.828868 62.418188 
L 130.910695 61.663318 
L 130.992523 47.208355 
L 131.07435 52.666985 
L 131.156178 47.433914 
L 131.238005 52.872608 
L 131.319833 47.621417 
L 131.483488 53.117872 
L 131.565316 47.845089 
L 131.647143 47.906903 
L 131.728971 53.303803 
L 131.810798 48.014674 
L 131.892626 48.06155 
L 131.974453 48.104301 
L 132.219936 64.317908 
L 132.301763 62.923064 
L 132.383591 66.992015 
L 132.465418 65.832996 
L 132.629074 63.813447 
L 132.710901 57.59522 
L 132.874556 69.086536 
L 133.038211 53.496272 
L 133.283694 66.062021 
L 133.365521 64.985437 
L 133.447349 58.663833 
L 133.529176 63.109528 
L 133.692832 48.53021 
L 133.774659 48.531914 
L 133.856487 62.29913 
L 133.938314 61.555441 
L 134.101969 47.239157 
L 134.265624 60.481236 
L 134.511107 43.456519 
L 134.592934 39.039276 
L 134.674762 45.220575 
L 134.756589 40.647379 
L 134.838417 46.686471 
L 134.920245 33.558482 
L 135.002072 34.884496 
L 135.165727 42.535122 
L 135.247555 29.774453 
L 135.329382 31.435183 
L 135.574865 35.58705 
L 135.656692 28.308756 
L 135.902175 53.984686 
L 135.984002 62.401656 
L 136.06583 61.649303 
L 136.147658 60.963499 
L 136.229485 51.913448 
L 136.311313 52.088682 
L 136.39314 60.673308 
L 136.474968 54.734074 
L 136.72045 67.000181 
L 136.884105 59.44511 
L 136.965933 63.821881 
L 137.293243 39.305626 
L 137.375071 45.463482 
L 137.456898 32.444957 
L 137.702381 51.777941 
L 137.866036 51.233575 
L 137.947863 56.336578 
L 138.029691 56.120888 
L 138.357001 32.947561 
L 138.438829 26.375869 
L 138.520656 28.809863 
L 138.602484 25.68906 
L 138.684311 27.711609 
L 138.766139 34.894837 
L 138.929794 16.664162 
L 139.093449 38.159935 
L 139.175276 39.079665 
L 139.338931 53.701159 
L 139.420759 53.718701 
L 139.502586 45.310366 
L 139.584414 46.069975 
L 139.666242 41.422963 
L 139.829897 55.648308 
L 140.075379 33.781369 
L 140.157207 35.088416 
L 140.402689 53.78037 
L 140.566344 36.794662 
L 140.648172 37.835262 
L 140.73 44.123213 
L 140.811827 39.648538 
L 140.975482 62.597982 
L 141.139137 61.127744 
L 141.302792 54.566728 
L 141.466447 53.551596 
L 141.548275 58.449653 
L 141.630102 58.047407 
L 141.793757 65.025605 
L 141.875585 64.041816 
L 141.957413 63.145031 
L 142.121068 56.24307 
L 142.202895 60.903095 
L 142.284723 60.283888 
L 142.36655 54.380145 
L 142.448378 59.204914 
L 142.612033 52.969047 
L 142.69386 57.918602 
L 142.939343 36.180948 
L 143.02117 37.275869 
L 143.102998 43.613247 
L 143.184826 39.183783 
L 143.266653 45.35243 
L 143.512136 34.407453 
L 143.675791 42.139537 
L 143.757618 37.840388 
L 144.003101 48.864749 
L 144.084928 54.177239 
L 144.166756 48.813517 
L 144.330411 70.21336 
L 144.494066 51.35259 
L 144.575894 46.238637 
L 144.657721 51.783345 
L 144.739549 46.631284 
L 144.903204 52.29684 
L 145.066859 52.567921 
L 145.148686 47.346436 
L 145.230514 47.453836 
L 145.394169 47.640963 
L 145.557824 60.814893 
L 145.639652 51.779238 
L 145.721479 51.966768 
L 146.048789 67.370171 
L 146.212444 81.1963 
L 146.294272 78.782293 
L 146.376099 79.666573 
L 146.457927 76.915638 
L 146.621582 85.885667 
L 146.70341 83.05691 
L 146.867065 78.127717 
L 146.948892 70.645572 
L 147.03072 74.031748 
L 147.112547 72.251224 
L 147.276202 63.80914 
L 147.439857 69.655271 
L 147.603512 66.088741 
L 147.68534 69.877851 
L 147.767167 68.464569 
L 147.930823 49.898033 
L 148.01265 50.251596 
L 148.094478 45.234341 
L 148.33996 61.464766 
L 148.421788 65.662742 
L 148.585443 58.333854 
L 148.66727 62.808689 
L 148.749098 56.680766 
L 148.830925 61.301777 
L 148.994581 43.945328 
L 149.076408 44.825111 
L 149.158236 40.287405 
L 149.240063 46.358108 
L 149.321891 33.260087 
L 149.403718 48.376938 
L 149.485546 43.525026 
L 149.567373 49.309393 
L 149.649201 44.374967 
L 149.731028 50.084159 
L 149.812856 36.656363 
L 149.976511 44.007077 
L 150.058338 36.456357 
L 150.140166 37.998209 
L 150.221994 34.063876 
L 150.303821 35.345043 
L 150.385649 41.852738 
L 150.467476 37.577454 
L 150.549304 43.887719 
L 150.631131 39.43242 
L 150.712959 40.238745 
L 150.794786 46.313647 
L 150.876614 41.643733 
L 150.958441 42.254452 
L 151.122096 43.318594 
L 151.203924 49.121108 
L 151.285751 44.20278 
L 151.367579 58.352243 
L 151.449407 52.617519 
L 151.531234 60.682859 
L 151.694889 56.291409 
L 151.858544 63.565266 
L 151.940372 57.369362 
L 152.022199 61.929264 
L 152.104027 61.218072 
L 152.185854 46.804302 
L 152.349509 52.438921 
L 152.431337 47.226774 
L 152.594992 52.78991 
L 152.67682 47.546634 
L 152.840475 60.736029 
L 152.922302 54.789963 
L 153.00413 59.577902 
L 153.085957 59.07444 
L 153.167785 58.615484 
L 153.249612 66.622706 
L 153.413267 59.128994 
L 153.576922 71.105531 
L 153.65875 64.242183 
L 153.740578 68.194181 
L 153.822405 61.588229 
L 153.904233 65.774912 
L 154.067888 58.424134 
L 154.149715 57.550189 
L 154.231543 62.093944 
L 154.31337 61.367712 
L 154.395198 60.705686 
L 154.477025 46.335789 
L 154.558853 46.530756 
L 154.722508 60.636938 
L 154.804335 54.698922 
L 155.049818 66.971701 
L 155.295301 50.029725 
L 155.377128 49.897841 
L 155.458956 41.351427 
L 155.540783 41.986954 
L 155.622611 47.906923 
L 155.704438 43.094325 
L 155.868093 49.355132 
L 155.949921 44.414379 
L 156.031749 50.119662 
L 156.113576 45.111242 
L 156.195404 45.414142 
L 156.277231 45.69024 
L 156.522714 69.490016 
L 156.604541 72.977753 
L 156.686369 57.521249 
L 156.768196 62.067411 
L 156.931851 60.682652 
L 157.013679 54.739806 
L 157.095506 59.531922 
L 157.177334 45.264194 
L 157.259162 45.553353 
L 157.340989 54.243553 
L 157.422817 53.738608 
L 157.586472 36.750535 
L 157.831954 59.632834 
L 157.913782 59.12354 
L 157.995609 67.086043 
L 158.077437 65.917609 
L 158.241092 63.881551 
L 158.486575 40.00454 
L 158.568402 54.526574 
L 158.732057 49.074872 
L 158.813885 57.453708 
L 158.895712 48.237667 
L 158.97754 48.263575 
L 159.059367 53.628327 
L 159.141195 39.881683 
L 159.223022 49.073522 
L 159.30485 49.025466 
L 159.468505 41.25988 
L 159.63216 47.830028 
L 159.795815 40.424077 
L 159.877643 41.613204 
L 160.041298 35.258101 
L 160.204953 38.404438 
L 160.28678 34.430855 
L 160.450435 42.155348 
L 160.61409 30.36712 
L 160.695918 45.741756 
L 160.777746 41.119228 
L 160.941401 42.371704 
L 161.023228 48.25748 
L 161.105056 43.41243 
L 161.350538 53.080431 
L 161.432366 58.01919 
L 161.514193 52.310821 
L 161.677848 64.694746 
L 161.923331 62.069147 
L 162.005159 69.771342 
L 162.086986 63.023617 
L 162.168814 67.083053 
L 162.250641 60.573049 
L 162.332469 64.8492 
L 162.414296 58.536731 
L 162.496124 62.992963 
L 162.577951 62.186058 
L 162.659779 61.450509 
L 162.823434 47.145212 
L 162.905261 52.608852 
L 162.987089 47.378817 
L 163.068916 47.480363 
L 163.232572 52.998749 
L 163.314399 39.306767 
L 163.396227 40.122162 
L 163.478054 46.206897 
L 163.559882 41.543005 
L 163.641709 47.502093 
L 163.723537 42.723661 
L 163.887192 57.473656 
L 163.969019 57.154844 
L 164.050847 56.864228 
L 164.132674 42.830391 
L 164.214502 43.334193 
L 164.29633 43.793444 
L 164.378157 41.126069 
L 164.541812 43.280229 
L 164.62364 38.87519 
L 164.869122 62.667311 
L 164.95095 61.889236 
L 165.114605 44.423827 
L 165.196432 45.259138 
L 165.27826 40.679149 
L 165.523743 51.010223 
L 165.687398 64.359485 
L 165.851053 57.244782 
L 165.93288 70.242765 
L 166.014708 63.453417 
L 166.096535 70.560926 
L 166.26019 59.154278 
L 166.342018 58.214616 
L 166.505673 70.346004 
L 166.669328 54.537376 
L 166.751156 67.774757 
L 166.832983 52.776457 
L 166.914811 57.742239 
L 166.996638 57.399882 
L 167.078466 60.173766 
L 167.242121 71.228721 
L 167.323948 69.693706 
L 167.487603 50.9097 
L 167.651258 42.983205 
L 167.733086 43.946166 
L 167.978569 33.330393 
L 168.060396 34.674705 
L 168.305879 51.803929 
L 168.387706 51.986915 
L 168.551361 68.414778 
L 168.633189 67.128795 
L 168.715016 60.615341 
L 168.796844 64.88799 
L 169.042327 39.10542 
L 169.124154 35.070369 
L 169.287809 58.796236 
L 169.451464 57.964275 
L 169.533292 52.261526 
L 169.696947 65.39946 
L 169.778774 64.38033 
L 169.860602 58.110261 
L 170.106084 84.239704 
L 170.433395 62.498302 
L 170.515222 69.690289 
L 170.59705 67.819499 
L 170.842532 47.713815 
L 170.92436 47.78662 
L 171.088015 60.935887 
L 171.169842 46.544208 
L 171.25167 52.061422 
L 171.333498 38.454663 
L 171.497153 45.500206 
L 171.57898 40.900374 
L 171.742635 63.640326 
L 171.824463 62.777143 
L 172.069945 60.619303 
L 172.151773 54.682579 
L 172.2336 67.906515 
L 172.315428 66.66614 
L 172.397255 65.535477 
L 172.642738 54.282656 
L 172.724566 54.24722 
L 172.806393 57.300505 
L 173.051876 40.493455 
L 173.215531 41.854184 
L 173.297358 47.78632 
L 173.379186 34.558838 
L 173.461013 35.795589 
L 173.624668 50.972142 
L 173.951979 51.873669 
L 174.033806 46.711077 
L 174.115634 46.873272 
L 174.197461 47.021143 
L 174.279289 44.070521 
L 174.361116 44.938582 
L 174.442944 45.729893 
L 174.524771 41.110835 
L 174.688426 47.708254 
L 174.852082 48.752836 
L 174.933909 43.8666 
L 175.015737 44.280576 
L 175.179392 50.342287 
L 175.261219 45.315617 
L 175.343047 50.941794 
L 175.670357 31.0872 
L 175.752184 37.971737 
L 175.997667 28.067041 
L 176.161322 36.870024 
L 176.24315 33.035218 
L 176.324977 34.407431 
L 176.57046 37.838039 
L 176.652287 52.550856 
L 176.734115 38.904272 
L 176.815942 39.757567 
L 176.979597 46.584479 
L 177.061425 41.890896 
L 177.143252 47.820092 
L 177.22508 43.017303 
L 177.55239 64.751783 
L 177.634218 63.791621 
L 177.797873 56.778754 
L 177.8797 64.476421 
L 177.961528 63.068457 
L 178.043355 61.785029 
L 178.125183 65.954897 
L 178.20701 51.123903 
L 178.288838 59.321653 
L 178.370665 58.369658 
L 178.452493 57.501873 
L 178.534321 53.625845 
L 178.616148 62.074532 
L 178.779803 39.248252 
L 178.861631 45.411257 
L 178.943458 40.822163 
L 179.025286 41.506361 
L 179.107113 47.469679 
L 179.188941 42.698635 
L 179.270768 56.981041 
L 179.352596 56.708467 
L 179.434423 51.120456 
L 179.516251 56.23355 
L 179.598079 50.687597 
L 179.679906 55.83898 
L 179.761734 50.327978 
L 179.843561 58.596057 
L 179.925389 57.708566 
L 180.007216 56.899578 
L 180.170871 68.508697 
L 180.252699 61.877381 
L 180.334526 66.039197 
L 180.498181 56.307996 
L 180.580009 64.519375 
L 180.743664 57.385047 
L 180.825492 61.944171 
L 180.989147 47.566158 
L 181.070974 61.417752 
L 181.234629 51.723198 
L 181.316457 60.340003 
L 181.398284 46.007392 
L 181.480112 46.23347 
L 181.561939 54.863579 
L 181.643767 54.306468 
L 181.971077 75.631917 
L 182.052905 73.238177 
L 182.462042 90.493203 
L 182.54387 87.257407 
L 182.707525 76.279871 
L 182.953007 66.473412 
L 183.034835 51.598972 
L 183.116663 65.093605 
L 183.19849 64.104107 
L 183.280318 49.439261 
L 183.362145 54.701114 
L 183.5258 49.227438 
L 183.607628 54.508024 
L 183.689455 54.454703 
L 183.85311 49.022737 
L 183.934938 54.321426 
L 184.016765 54.284624 
L 184.18042 48.881457 
L 184.262248 48.853594 
L 184.344076 54.16724 
L 184.507731 32.681597 
L 184.753213 48.87293 
L 184.835041 43.978979 
L 184.998696 57.772225 
L 185.080523 57.430286 
L 185.162351 51.779577 
L 185.244178 56.834455 
L 185.326006 56.575451 
L 185.489661 56.124134 
L 185.571489 50.588949 
L 185.653316 55.749114 
L 185.735144 50.247097 
L 185.816971 55.437491 
L 185.898799 41.539444 
L 185.980626 42.160905 
L 186.062454 48.0664 
L 186.144281 43.243809 
L 186.226109 57.477118 
L 186.307936 51.822287 
L 186.389764 56.873367 
L 186.471591 51.271926 
L 186.553419 64.795257 
L 186.635247 63.832228 
L 186.798902 48.391552 
L 186.880729 48.407023 
L 186.962557 53.760116 
L 187.044384 48.433973 
L 187.126212 48.445683 
L 187.208039 48.456353 
L 187.289867 45.38148 
L 187.371694 49.219878 
L 187.453522 62.92467 
L 187.535349 56.78803 
L 187.617177 69.823533 
L 187.699004 63.076779 
L 187.780832 70.21713 
L 187.86266 68.302407 
L 188.026315 78.728595 
L 188.108142 76.533301 
L 188.18997 77.616753 
L 188.271797 88.810282 
L 188.353625 85.723398 
L 188.51728 75.005387 
L 188.599107 72.667147 
L 188.680935 75.874728 
L 188.762762 68.592696 
L 188.84459 72.160589 
L 189.1719 37.026786 
L 189.253728 38.519239 
L 189.335555 26.116858 
L 189.581038 51.578624 
L 189.744693 38.208573 
L 189.82652 39.124282 
L 189.908348 39.959001 
L 190.072003 46.752635 
L 190.153831 42.045727 
L 190.235658 42.622047 
L 190.399313 35.94735 
L 190.481141 42.402128 
L 190.644796 31.327903 
L 190.726623 32.851978 
L 190.808451 31.156539 
L 190.890278 36.25265 
L 191.135761 23.81403 
L 191.217588 26.002522 
L 191.299416 33.336726 
L 191.381244 29.81598 
L 191.463071 36.812939 
L 191.544899 32.984743 
L 191.872209 37.805692 
L 192.035864 44.963014 
L 192.199519 32.710176 
L 192.445001 57.99685 
L 192.608657 41.20065 
L 192.772312 43.347159 
L 192.854139 38.940821 
L 192.935967 39.791353 
L 193.017794 40.566657 
L 193.181449 34.238321 
L 193.263277 27.080366 
L 193.345104 28.979705 
L 193.672414 35.039388 
L 193.83607 45.003908 
L 193.917897 42.233227 
L 193.999725 34.840235 
L 194.081552 36.525438 
L 194.408862 41.901933 
L 194.572517 22.485882 
L 194.818 48.828126 
L 194.981655 35.920502 
L 195.227138 52.003993 
L 195.47262 31.697718 
L 195.554448 33.188423 
L 195.636275 26.122622 
L 195.718103 28.106333 
L 195.881758 39.242623 
L 195.963585 40.066051 
L 196.127241 25.396422 
L 196.209068 35.869045 
L 196.290896 33.905746 
L 196.454551 23.520003 
L 196.536378 25.733776 
L 196.618206 27.751767 
L 196.863688 45.137086 
L 196.945516 45.911354 
L 197.027343 41.277337 
L 197.109171 41.920693 
L 197.190998 42.507144 
L 197.272826 51.466625 
L 197.354654 51.208872 
L 197.436481 56.313743 
L 197.518309 56.09955 
L 197.600136 55.904289 
L 197.845619 41.651232 
L 197.927446 42.261422 
L 198.009274 51.242644 
L 198.091101 51.004608 
L 198.254756 39.824707 
L 198.336584 41.068614 
L 198.418412 36.862584 
L 198.663894 48.122328 
L 198.909377 48.226062 
L 198.991204 53.594666 
L 199.236687 38.240164 
L 199.318514 34.284103 
L 199.563997 50.764 
L 199.80948 51.521937 
L 199.891307 46.391219 
L 200.054962 52.095987 
L 200.218617 52.399031 
L 200.300445 47.190682 
L 200.382272 52.650818 
L 200.4641 44.334953 
L 200.545927 53.605108 
L 200.627755 48.290051 
L 200.709582 53.652958 
L 200.79141 48.333644 
L 200.955065 61.390216 
L 201.11872 46.35644 
L 201.200548 60.315718 
L 201.282375 59.747251 
L 201.44603 58.756665 
L 201.527858 52.985896 
L 201.609685 57.93351 
L 201.691513 57.575677 
L 201.77334 51.909312 
L 201.855168 65.37758 
L 201.936996 64.361416 
L 202.018823 71.860578 
L 202.100651 70.27108 
L 202.346133 53.955941 
L 202.427961 58.817749 
L 202.509788 58.381652 
L 202.591616 52.643892 
L 202.673443 57.621726 
L 202.755271 51.951148 
L 202.837098 56.990242 
L 202.918926 56.715728 
L 203.000753 56.465486 
L 203.082581 59.322689 
L 203.246236 70.521565 
L 203.328064 63.710122 
L 203.409891 67.709306 
L 203.491719 61.14654 
L 203.573546 73.798049 
L 203.819029 60.542932 
L 203.900856 59.954164 
L 203.982684 50.991801 
L 204.064511 59.673334 
L 204.146339 59.161452 
L 204.228166 53.354514 
L 204.309994 58.269473 
L 204.391822 57.881725 
L 204.719132 70.707359 
L 204.800959 63.879297 
L 204.882787 67.863493 
L 205.046442 60.159994 
L 205.128269 59.132733 
L 205.210097 66.622074 
L 205.291924 65.023331 
L 205.373752 68.906346 
L 205.619235 57.582283 
L 205.701062 57.255222 
L 205.78289 43.190875 
L 205.864717 43.664224 
L 206.028372 44.489033 
L 206.1102 50.187984 
L 206.192027 45.174397 
L 206.273855 45.472319 
L 206.43751 45.991443 
L 206.519337 51.55753 
L 206.601165 46.422801 
L 206.682993 46.610307 
L 207.010303 33.145484 
L 207.09213 39.847608 
L 207.173958 35.748421 
L 207.255785 42.220358 
L 207.337613 37.911335 
L 207.41944 38.851547 
L 207.501268 39.708612 
L 207.583095 54.256231 
L 207.74675 41.172013 
L 207.828578 47.164328 
L 207.910406 39.332641 
L 207.992233 40.619451 
L 208.074061 36.452006 
L 208.319543 47.810429 
L 208.401371 47.875232 
L 208.565026 53.328614 
L 208.810508 60.464753 
L 208.892336 59.882763 
L 208.974163 50.926352 
L 209.055991 51.187898 
L 209.137819 54.511755 
L 209.301474 66.524008 
L 209.546956 42.690545 
L 209.628784 51.634042 
L 209.710611 42.93487 
L 209.792439 51.856763 
L 209.956094 43.615984 
L 210.037921 44.051784 
L 210.119749 44.44905 
L 210.283404 53.567156 
L 210.447059 52.718012 
L 210.610714 65.033544 
L 210.692542 64.047589 
L 210.938024 47.816526 
L 211.101679 53.280003 
L 211.183507 53.33351 
L 211.265334 48.041899 
L 211.347162 53.426764 
L 211.42899 48.126925 
L 211.592645 61.963753 
L 211.674472 61.249342 
L 211.7563 60.598116 
L 211.919955 54.123001 
L 212.001782 58.970101 
L 212.08361 58.520466 
L 212.165437 58.110602 
L 212.247265 43.970922 
L 212.329092 44.3755 
L 212.492747 50.420838 
L 213.06554 19.106887 
L 213.147368 27.05073 
L 213.229195 24.083756 
L 213.311023 31.587477 
L 213.39285 19.793722 
L 213.556505 37.675304 
L 213.638333 33.768826 
L 213.883816 51.119077 
L 213.965643 46.023756 
L 214.047471 60.012746 
L 214.129298 59.471144 
L 214.374781 58.117215 
L 214.456608 66.168744 
L 214.538436 51.317172 
L 214.620263 56.412544 
L 214.783918 50.645872 
L 214.865746 50.460487 
L 215.029401 66.243121 
L 215.111229 61.593164 
L 215.356711 77.491393 
L 215.438539 80.272043 
L 215.520366 77.938963 
L 215.684021 52.428078 
L 215.765849 57.425252 
L 215.929504 51.487778 
L 216.011331 51.228098 
L 216.174987 63.795749 
L 216.256814 62.919873 
L 216.338642 56.781475 
L 216.502297 76.835463 
L 216.584124 61.041349 
L 216.665952 73.701946 
L 216.829607 65.013177 
L 216.911434 63.55748 
L 217.075089 82.465892 
L 217.238745 72.295693 
L 217.320572 75.535904 
L 217.4024 65.196908 
L 217.484227 67.282375 
L 217.566055 70.965954 
L 217.647882 69.456138 
L 217.811537 53.80556 
L 217.893365 61.766079 
L 217.975192 60.597676 
L 218.05702 59.532613 
L 218.138847 66.986647 
L 218.220675 65.356586 
L 218.302502 63.870691 
L 218.38433 67.856014 
L 218.547985 52.476261 
L 218.71164 51.813407 
L 218.793468 43.100477 
L 218.875295 48.922662 
L 219.03895 41.338543 
L 219.120778 42.449043 
L 219.36626 23.781212 
L 219.448088 31.311956 
L 219.529915 27.969535 
L 219.857226 34.341889 
L 220.020881 42.084708 
L 220.266363 31.185532 
L 220.593673 36.562876 
L 220.757329 43.930386 
L 220.920984 45.615534 
L 221.248294 27.415313 
L 221.493776 44.883472 
L 221.575604 48.765724 
L 221.657431 62.51138 
L 221.821086 47.291892 
L 221.902914 61.167855 
L 221.984742 60.525156 
L 222.066569 54.599891 
L 222.230224 67.342722 
L 222.393879 51.306809 
L 222.475707 64.827625 
L 222.803017 34.301274 
L 222.884844 35.562512 
L 223.048499 45.43937 
L 223.130327 45.71563 
L 223.212155 51.30676 
L 223.293982 46.197052 
L 223.37581 54.83037 
L 223.457637 54.276169 
L 223.70312 52.89075 
L 223.784947 44.084172 
L 223.866775 44.480388 
L 223.948602 44.841576 
L 224.03043 50.510036 
L 224.112257 45.470985 
L 224.275912 51.333211 
L 224.35774 51.560588 
L 224.439568 60.191716 
L 224.521395 45.87271 
L 224.603223 46.110858 
L 224.766878 67.967625 
L 224.930533 60.251203 
L 225.094188 72.038671 
L 225.176015 65.095939 
L 225.33967 70.725318 
L 225.503326 66.979362 
L 225.585153 70.690073 
L 225.666981 63.866697 
L 225.748808 67.852683 
L 225.830636 66.619293 
L 225.912463 65.494986 
L 225.994291 59.131098 
L 226.076118 71.959505 
L 226.157946 70.36295 
L 226.321601 75.259598 
L 226.403428 81.794794 
L 226.730739 60.82422 
L 226.894394 72.514764 
L 227.139876 44.900064 
L 227.221704 45.696602 
L 227.303531 41.083766 
L 227.385359 41.745662 
L 227.549014 48.237966 
L 227.630841 48.739339 
L 227.712669 43.857462 
L 227.794496 44.274091 
L 227.876324 44.653879 
L 227.958152 41.915543 
L 228.039979 29.213728 
L 228.203634 40.90915 
L 228.285462 38.502013 
L 228.367289 39.864439 
L 228.612772 58.69332 
L 228.776427 44.867039 
L 228.940082 58.510219 
L 229.02191 58.103235 
L 229.185565 68.157015 
L 229.267392 58.001422 
L 229.34922 62.506143 
L 229.431047 53.322444 
L 229.512875 53.374258 
L 229.758357 60.503173 
L 229.922012 43.286606 
L 230.085667 45.08224 
L 230.167495 40.523981 
L 230.249323 41.235514 
L 230.33115 47.222939 
L 230.412978 42.475379 
L 230.494805 43.014347 
L 230.576633 43.505653 
L 230.740288 52.785054 
L 230.903943 52.072488 
L 230.98577 48.678257 
L 231.149425 65.664111 
L 231.231253 56.201247 
L 231.31308 64.421782 
L 231.476736 57.305764 
L 231.640391 68.84612 
L 231.722218 62.186337 
L 231.804046 66.320954 
L 231.885873 51.461217 
L 231.967701 56.54431 
L 232.131356 50.759963 
L 232.213183 64.328332 
L 232.295011 63.406861 
L 232.458666 69.479532 
L 232.704149 53.364902 
L 232.785976 52.940831 
L 232.867804 66.316328 
L 233.031459 51.201606 
L 233.195114 59.179926 
L 233.358769 55.046652 
L 233.522424 62.53256 
L 233.604251 61.769853 
L 233.686079 61.074591 
L 233.767907 46.678695 
L 233.931562 52.337073 
L 234.013389 47.137163 
L 234.095217 47.263781 
L 234.177044 47.379197 
L 234.258872 55.907728 
L 234.340699 55.258709 
L 234.422527 54.667082 
L 234.504354 59.466604 
L 234.586182 58.974983 
L 234.831664 36.984319 
L 234.99532 38.942585 
L 235.077147 53.556056 
L 235.158975 48.248244 
L 235.240802 48.276536 
L 235.32263 62.064571 
L 235.404457 47.580896 
L 235.486285 53.00706 
L 235.568112 47.747756 
L 235.64994 53.159159 
L 235.731767 47.886387 
L 235.813595 61.708943 
L 235.895422 61.018945 
L 235.97725 63.474497 
L 236.059078 62.156204 
L 236.140905 74.716828 
L 236.222733 59.114106 
L 236.386388 78.772074 
L 236.550043 69.229582 
L 236.63187 72.741214 
L 236.795525 64.218166 
L 236.877353 76.596476 
L 237.204663 41.751475 
L 237.368318 48.242428 
L 237.450146 48.743184 
L 237.531973 43.860661 
L 237.613801 44.276745 
L 237.777456 45.001756 
L 238.022938 31.187732 
L 238.104766 32.724493 
L 238.268421 51.504669 
L 238.350248 42.821031 
L 238.432076 51.752653 
L 238.513904 43.047052 
L 238.595731 51.958687 
L 238.677559 51.65853 
L 238.841214 43.456718 
L 238.923041 43.908404 
L 239.086696 44.695453 
L 239.168524 53.461319 
L 239.250351 53.028225 
L 239.414006 52.273527 
L 239.495834 60.369234 
L 239.577661 59.325211 
L 239.659489 49.949705 
L 239.741317 55.166241 
L 239.823144 55.054483 
L 239.904972 58.037283 
L 239.986799 70.962431 
L 240.068627 69.453725 
L 240.150454 76.502287 
L 240.232282 74.503651 
L 240.395937 71.020963 
L 240.477764 61.08314 
L 240.559592 68.87195 
L 240.641419 62.208849 
L 240.96873 79.427041 
L 241.132385 61.348684 
L 241.214212 65.557098 
L 241.29604 64.526264 
L 241.459695 57.39072 
L 241.541522 56.609863 
L 241.868832 39.313446 
L 241.95066 53.894587 
L 242.114315 37.792197 
L 242.196143 47.640749 
L 242.27797 42.854886 
L 242.359798 57.122888 
L 242.441625 51.498451 
L 242.523453 65.002084 
L 242.60528 64.020192 
L 242.687108 57.785753 
L 242.93259 76.311736 
L 243.014418 74.329639 
L 243.096245 80.947056 
L 243.178073 78.555019 
L 243.259901 71.035091 
L 243.341728 74.386821 
L 243.505383 70.923207 
L 243.587211 55.653814 
L 243.669038 60.365757 
L 243.750866 51.369407 
L 244.078176 66.21232 
L 244.160003 51.359334 
L 244.241831 56.451037 
L 244.323659 56.225146 
L 244.569141 41.896399 
L 244.732796 43.0223 
L 244.814624 48.851268 
L 244.896451 43.95784 
L 244.978279 52.788998 
L 245.141934 44.393968 
L 245.223761 58.526149 
L 245.469244 35.95941 
L 245.551072 42.412968 
L 245.796554 55.283182 
L 245.878382 46.263629 
L 246.042037 51.990687 
L 246.123864 52.159092 
L 246.287519 60.132126 
L 246.369347 59.580532 
L 246.533002 42.515074 
L 246.696657 52.118397 
L 246.778485 52.275468 
L 246.860312 60.84333 
L 247.023967 46.64927 
L 247.187622 46.971358 
L 247.351277 52.578696 
L 247.514932 44.37634 
L 247.760415 46.684715 
L 247.842243 33.557786 
L 247.92407 34.883997 
L 248.005898 27.668163 
L 248.087725 29.515223 
L 248.25138 38.073499 
L 248.415035 19.303702 
L 248.496863 27.230229 
L 248.57869 24.248504 
L 248.906 44.791193 
L 249.069656 54.0098 
L 249.151483 40.235061 
L 249.233311 40.970802 
L 249.396966 55.272326 
L 249.806103 54.761729 
L 249.887931 40.920541 
L 249.969758 41.595692 
L 250.051586 55.975636 
L 250.133413 55.791611 
L 250.215241 50.284133 
L 250.297069 55.470958 
L 250.378896 55.331577 
L 250.624379 54.983153 
L 250.788034 41.034777 
L 250.869861 41.699879 
L 251.033516 48.198556 
L 251.197171 35.397217 
L 251.360827 42.961404 
L 251.442654 35.503706 
L 251.524482 37.130231 
L 251.688137 56.06879 
L 251.769964 55.876647 
L 251.851792 55.701503 
L 251.933619 58.626837 
L 252.097274 78.36836 
L 252.179102 70.864518 
L 252.260929 82.655984 
L 252.342757 74.772983 
L 252.424584 77.794189 
L 252.58824 68.414682 
L 252.670067 66.658574 
L 252.751895 78.821963 
L 252.91555 69.26877 
L 253.079205 65.767525 
L 253.24286 60.518278 
L 253.406515 59.399017 
L 253.57017 45.449947 
L 253.733825 45.975411 
L 253.89748 60.176099 
L 253.979308 51.196437 
L 254.061135 51.43537 
L 254.142963 54.738089 
L 254.22479 67.955591 
L 254.388445 60.239705 
L 254.470273 59.206725 
L 254.633928 73.510537 
L 254.797583 82.311383 
L 254.961238 61.404541 
L 255.043066 63.825669 
L 255.124893 62.475619 
L 255.206721 52.820639 
L 255.288548 57.783307 
L 255.370376 52.100387 
L 255.697686 85.828908 
L 255.861341 75.091859 
L 255.943168 78.084962 
L 256.106824 73.996491 
L 256.270479 62.919981 
L 256.352306 70.54654 
L 256.434134 63.735044 
L 256.515961 67.732512 
L 256.597789 61.1699 
L 256.679616 65.394224 
L 256.761444 50.614251 
L 257.170581 84.112959 
L 257.252409 84.525946 
L 257.579719 51.58922 
L 257.661547 56.660842 
L 257.743374 56.416829 
L 257.988857 42.043499 
L 258.152512 43.145597 
L 258.316167 49.400689 
L 258.397994 41.374787 
L 258.479822 42.48269 
L 258.643477 44.413253 
L 258.807132 53.69648 
L 258.88896 53.714747 
L 258.970787 48.392188 
L 259.134442 53.760468 
L 259.21627 53.773114 
L 259.461752 60.804612 
L 259.54358 60.194336 
L 259.707235 53.79179 
L 259.789063 53.329561 
L 259.87089 58.247368 
L 259.952718 57.863292 
L 260.116373 51.854936 
L 260.1982 51.564046 
L 260.280028 56.638006 
L 260.443683 50.836888 
L 260.52551 55.975165 
L 260.689165 34.183691 
L 260.770993 35.45566 
L 260.852821 28.191455 
L 261.016476 36.975016 
L 261.098303 38.472344 
L 261.180131 34.498234 
L 261.261958 49.505127 
L 261.343786 44.555358 
L 261.425613 36.486592 
L 261.507441 37.555023 
L 261.671096 52.434425 
L 261.752923 47.225704 
L 261.834751 47.344458 
L 262.243889 34.303504 
L 262.489371 50.780988 
L 262.734854 23.099539 
L 263.062164 43.32176 
L 263.225819 36.688466 
L 263.307647 38.211517 
L 263.389474 48.023135 
L 263.471302 43.205048 
L 263.553129 43.679706 
L 263.634957 44.112402 
L 263.716784 49.84558 
L 263.880439 29.092848 
L 263.962267 30.815633 
L 264.125922 46.834516 
L 264.207749 42.121795 
L 264.289577 42.692407 
L 264.371405 43.212573 
L 264.453232 52.109766 
L 264.53506 51.797121 
L 264.616887 48.427772 
L 264.698715 48.912905 
L 264.780542 49.35515 
L 264.86237 58.181219 
L 265.107852 36.385902 
L 265.271507 51.46317 
L 265.353335 46.341492 
L 265.435162 46.539164 
L 265.51699 46.719372 
L 265.598818 60.64487 
L 265.680645 60.049748 
L 265.926128 58.562045 
L 266.007955 52.812779 
L 266.089783 66.199307 
L 266.17161 65.113055 
L 266.49892 41.632807 
L 266.580748 47.585446 
L 266.662576 42.807128 
L 266.744403 43.317623 
L 266.826231 43.782988 
L 266.908058 49.54549 
L 266.989886 44.593937 
L 267.071713 58.707154 
L 267.153541 58.283664 
L 267.235368 44.137022 
L 267.317196 52.952385 
L 267.399023 52.565788 
L 267.562678 35.792379 
L 267.644506 36.92341 
L 267.726333 37.954432 
L 267.971816 55.952728 
L 268.053644 60.639035 
L 268.135471 54.706759 
L 268.299126 62.093637 
L 268.462781 52.132321 
L 268.544609 57.156511 
L 268.626436 56.870406 
L 268.790091 47.94984 
L 269.035574 49.398317 
L 269.117402 44.460416 
L 269.362884 66.897771 
L 269.444712 65.750307 
L 269.526539 64.704331 
L 269.690194 57.543824 
L 269.772022 62.089484 
L 269.853849 56.029405 
L 269.935677 69.130845 
L 270.017504 67.78597 
L 270.181159 52.427656 
L 270.262987 65.847575 
L 270.426642 50.817068 
L 270.50847 64.379388 
L 270.672125 57.274143 
L 270.753952 56.505869 
L 270.917607 68.181875 
L 271.244917 63.769002 
L 271.326745 54.476812 
L 271.408573 62.849657 
L 271.4904 62.060421 
L 271.735883 60.087385 
L 271.899538 45.286449 
L 272.063193 51.182303 
L 272.14502 51.424934 
L 272.390503 32.019247 
L 272.47233 33.484576 
L 272.635986 49.052349 
L 272.717813 35.724258 
L 272.881468 50.913411 
L 272.963296 42.758438 
L 273.208778 60.141654 
L 273.454261 45.620101 
L 273.617916 59.136339 
L 273.781571 52.918142 
L 273.863399 52.535357 
L 273.945226 49.102647 
L 274.027054 49.529328 
L 274.108881 36.159353 
L 274.190709 37.258666 
L 274.272536 43.598333 
L 274.354364 39.17425 
L 274.436191 40.006954 
L 274.518019 54.524898 
L 274.599846 54.472091 
L 274.681674 40.665103 
L 274.763501 41.36598 
L 274.927157 51.008571 
L 275.090812 42.923259 
L 275.336294 58.05659 
L 275.418122 52.353977 
L 275.499949 57.358688 
L 275.581777 51.717806 
L 275.663604 59.862511 
L 275.745432 58.865693 
L 275.827259 57.95703 
L 276.072742 69.44412 
L 276.15457 68.071974 
L 276.400052 56.220424 
L 276.48188 50.680234 
L 276.563707 58.91667 
L 276.645535 49.582292 
L 276.80919 62.428647 
L 276.972845 55.654179 
L 277.054672 60.367008 
L 277.1365 59.797595 
L 277.300155 58.805378 
L 277.381983 61.457784 
L 277.46381 60.319878 
L 277.545638 64.620085 
L 277.709293 57.475119 
L 277.79112 62.026894 
L 277.872948 61.310666 
L 277.954775 60.657773 
L 278.11843 54.182595 
L 278.282085 66.251204 
L 278.527568 55.585818 
L 278.609396 55.439168 
L 278.691223 49.967977 
L 278.773051 55.183616 
L 278.854878 55.072522 
L 278.936706 54.971249 
L 279.100361 46.373501 
L 279.182188 47.041509 
L 279.264016 42.312914 
L 279.345843 42.867986 
L 279.427671 40.290217 
L 279.591326 21.160126 
L 279.673154 23.58583 
L 279.754981 17.37572 
L 279.918636 44.08777 
L 280.082291 37.329756 
L 280.327774 41.355117 
L 280.409601 28.708016 
L 280.491429 35.803767 
L 280.573256 32.068915 
L 280.818739 36.075646 
L 280.900567 42.519844 
L 280.982394 38.191043 
L 281.064222 39.110597 
L 281.146049 36.865057 
L 281.227877 24.614987 
L 281.309704 26.735138 
L 281.473359 30.429539 
L 281.718842 48.592795 
L 281.800669 35.305569 
L 281.882497 36.480301 
L 282.046152 46.948646 
L 282.209807 36.465575 
L 282.45529 63.796207 
L 282.618945 53.706402 
L 282.700772 53.725877 
L 282.7826 45.322265 
L 282.864427 46.08319 
L 282.946255 41.439238 
L 283.191738 64.608875 
L 283.273565 63.664182 
L 283.355393 62.80303 
L 283.43722 48.259071 
L 283.600875 69.750414 
L 283.682703 68.351016 
L 283.76453 61.737777 
L 283.928185 73.273912 
L 284.09184 48.567561 
L 284.173668 48.569413 
L 284.337323 53.910237 
L 284.500978 53.912903 
L 284.582806 48.576445 
L 284.664633 53.915107 
L 284.910116 40.903423 
L 284.991943 55.342071 
L 285.073771 55.216821 
L 285.155598 55.102646 
L 285.319253 41.889368 
L 285.401081 47.819395 
L 285.482908 43.021767 
L 285.564736 48.851649 
L 285.728391 41.287943 
L 285.810219 42.405551 
L 286.055701 32.185193 
L 286.137529 33.635766 
L 286.219356 26.536593 
L 286.383011 35.602006 
L 286.464839 31.884805 
L 286.546666 33.36195 
L 286.628494 26.286996 
L 286.710322 33.59684 
L 286.792149 30.056974 
L 287.037632 55.308357 
L 287.201287 46.653157 
L 287.283114 47.296311 
L 287.364942 42.54494 
L 287.446769 43.079372 
L 287.610424 49.348281 
L 287.692252 41.331633 
L 287.774079 42.445408 
L 287.937735 46.725245 
L 288.10139 39.36349 
L 288.183217 45.516936 
L 288.265045 40.922954 
L 288.4287 47.55644 
L 288.510527 42.782106 
L 288.592355 43.295597 
L 288.674182 43.763681 
L 288.75601 35.76893 
L 288.919665 43.273733 
L 289.001492 38.878172 
L 289.08332 39.736932 
L 289.165148 54.278803 
L 289.246975 48.910019 
L 289.41063 57.277149 
L 289.574285 55.808404 
L 289.656113 52.086153 
L 289.73794 60.670319 
L 289.819768 46.314924 
L 290.147078 62.437986 
L 290.228906 61.213258 
L 290.310733 65.434438 
L 290.392561 64.416751 
L 290.474388 63.489065 
L 290.556216 57.305827 
L 290.638043 70.293939 
L 290.719871 68.846504 
L 290.801698 67.527074 
L 291.047181 35.795217 
L 291.129008 36.926668 
L 291.374491 48.176654 
L 291.456319 48.213162 
L 291.538146 53.584021 
L 291.619974 39.855436 
L 291.783629 55.090865 
L 291.947284 46.472814 
L 292.029111 47.132055 
L 292.110939 33.974105 
L 292.192766 35.266658 
L 292.274594 41.782468 
L 292.356421 37.518967 
L 292.520076 55.488425 
L 292.601904 46.457064 
L 292.683732 46.645708 
L 292.847387 46.974438 
L 292.929214 38.696053 
L 293.092869 53.382778 
L 293.256524 40.4609 
L 293.420179 47.172766 
L 293.583834 32.217038 
L 293.74749 35.88738 
L 293.911145 25.178568 
L 293.992972 27.249106 
L 294.0748 29.136545 
L 294.40211 48.17233 
L 294.647592 56.566227 
L 294.72942 50.995626 
L 294.811247 56.120531 
L 294.893075 55.9268 
L 294.974903 58.833897 
L 295.05673 49.507103 
L 295.138558 54.763657 
L 295.220385 49.352546 
L 295.302213 54.622773 
L 295.38404 49.224149 
L 295.465868 54.505736 
L 295.547695 54.454873 
L 295.71135 32.931552 
L 295.793178 34.316644 
L 295.875005 35.579255 
L 296.03866 50.793028 
L 296.120488 45.733229 
L 296.202316 45.986241 
L 296.365971 51.764468 
L 296.447798 55.039761 
L 296.529626 68.228012 
L 296.611453 66.963721 
L 296.775108 51.747218 
L 297.102418 50.77158 
L 297.184246 47.495537 
L 297.266074 51.148404 
L 297.347901 50.922646 
L 297.757039 50.060407 
L 297.838866 41.510159 
L 297.920694 42.136839 
L 298.002521 42.708108 
L 298.084349 56.986785 
L 298.166176 56.716793 
L 298.248004 56.470688 
L 298.329831 50.909193 
L 298.493487 58.939012 
L 298.657142 46.431233 
L 298.820797 47.699693 
L 298.902624 48.251103 
L 299.066279 36.198945 
L 299.148107 42.632581 
L 299.229934 38.295067 
L 299.311762 44.543339 
L 299.475417 37.710582 
L 299.557244 39.145489 
L 299.639072 48.874028 
L 299.7209 43.984663 
L 299.884555 50.101814 
L 299.966382 45.103927 
L 300.04821 53.833537 
L 300.130037 53.370688 
L 300.457347 51.894097 
L 300.539175 48.519404 
L 300.621002 57.418924 
L 300.70283 51.774109 
L 300.866485 67.333674 
L 301.03014 56.491257 
L 301.275623 75.331643 
L 301.35745 68.102825 
L 301.521105 86.238808 
L 301.602933 83.382298 
L 301.848415 55.487343 
L 301.930243 60.215272 
L 302.175726 50.272901 
L 302.257553 50.597137 
L 302.421208 42.742022 
L 302.503036 46.81561 
L 302.584863 38.553567 
L 302.666691 53.199176 
L 302.748518 44.844592 
L 302.830346 54.069025 
L 302.994001 48.710473 
L 303.075828 48.701017 
L 303.157656 54.029147 
L 303.239484 54.0213 
L 303.403139 40.995553 
L 303.484966 55.425132 
L 303.566794 46.873884 
L 303.648621 47.498869 
L 303.730449 56.488555 
L 303.812276 42.506633 
L 303.894104 43.04592 
L 303.975931 43.537525 
L 304.303241 72.236865 
L 304.385069 70.618919 
L 304.548724 62.463019 
L 304.630552 66.574133 
L 304.712379 60.120386 
L 304.876034 66.593626 
L 304.957862 65.002847 
L 305.039689 68.889352 
L 305.121517 67.567502 
L 305.366999 56.587772 
L 305.530655 56.140618 
L 305.69431 50.432524 
L 305.776137 55.607583 
L 305.857965 55.460374 
L 305.939792 49.989649 
L 306.103447 63.512097 
L 306.267102 56.55796 
L 306.34893 55.854803 
L 306.512585 38.534819 
L 306.594412 44.76208 
L 306.67624 40.237567 
L 306.758068 49.397402 
L 306.839895 49.32754 
L 306.921723 40.844233 
L 307.085378 47.493122 
L 307.167205 42.727162 
L 307.33086 49.057773 
L 307.412688 49.489933 
L 307.576343 61.001099 
L 307.903653 57.165266 
L 307.985481 64.82807 
L 308.067308 63.393686 
L 308.149136 67.422567 
L 308.230963 66.230673 
L 308.394618 56.478885 
L 308.558273 56.050577 
L 308.640101 50.528019 
L 308.721928 55.694696 
L 308.803756 41.784176 
L 308.885583 42.387759 
L 308.967411 39.854895 
L 309.212894 50.26859 
L 309.294721 50.593806 
L 309.376549 45.553927 
L 309.540204 51.406878 
L 309.622031 51.631457 
L 309.703859 46.499862 
L 309.785686 46.686495 
L 309.867514 46.85663 
L 309.949341 52.348033 
L 310.112996 44.198975 
L 310.276652 45.846889 
L 310.440307 33.460687 
L 310.522134 40.136804 
L 310.603962 36.021906 
L 310.685789 50.890795 
L 310.767617 45.824887 
L 310.849444 59.826824 
L 310.931272 53.970676 
L 311.094927 66.075642 
L 311.176754 51.247703 
L 311.258582 56.350827 
L 311.340409 64.557545 
L 311.422237 63.619309 
L 311.504065 49.008689 
L 311.585892 54.30983 
L 311.66772 54.277886 
L 311.749547 54.248774 
L 311.831375 57.305209 
L 311.913202 56.536482 
L 311.99503 55.835746 
L 312.076857 60.533141 
L 312.158685 59.950874 
L 312.240512 54.083964 
L 312.32234 62.01923 
L 312.404167 60.833656 
L 312.485995 65.089062 
L 312.813305 35.257611 
L 312.97696 29.841034 
L 313.058788 31.501253 
L 313.140615 24.59567 
L 313.222443 26.719798 
L 313.30427 33.992157 
L 313.386098 30.42116 
L 313.467925 32.030147 
L 313.549753 38.832899 
L 313.63158 34.833868 
L 313.713408 36.052654 
L 313.877063 38.176445 
L 313.958891 52.854538 
L 314.040718 47.615589 
L 314.122546 39.28523 
L 314.204373 40.110437 
L 314.286201 40.862679 
L 314.368028 46.884368 
L 314.449856 39.090676 
L 314.531683 40.405033 
L 314.613511 36.267238 
L 314.858993 47.681366 
L 315.022649 47.839693 
L 315.104476 61.66307 
L 315.186304 55.645448 
L 315.268131 60.359854 
L 315.349959 46.038915 
L 315.431786 46.267069 
L 315.677269 60.591886 
L 315.759096 60.00495 
L 315.922751 45.227968 
L 316.004579 45.527939 
L 316.086406 45.801397 
L 316.168234 37.632229 
L 316.331889 44.825552 
L 316.413717 40.297347 
L 316.495544 41.033465 
L 316.577372 47.040189 
L 316.659199 33.89785 
L 316.741027 48.95398 
L 316.822854 35.642481 
L 316.904682 36.790351 
L 316.986509 37.836724 
L 317.231992 61.20169 
L 317.31382 52.142901 
L 317.559302 67.996551 
L 317.64113 66.755116 
L 317.804785 51.582771 
L 317.886612 56.656626 
L 318.050267 42.447173 
L 318.213922 48.826979 
L 318.29575 49.280964 
L 318.377577 52.777357 
L 318.459405 43.992206 
L 318.541233 58.155338 
L 318.62306 57.78441 
L 318.786715 57.138105 
L 318.868543 51.521808 
L 318.95037 56.601116 
L 319.195853 27.539762 
L 319.27768 37.822472 
L 319.359508 35.695577 
L 319.686818 21.346743 
L 319.768646 23.759498 
L 320.014128 50.538853 
L 320.177783 37.365317 
L 320.259611 43.696719 
L 320.341438 36.187354 
L 320.423266 37.759636 
L 320.505093 33.857778 
L 320.586921 40.499415 
L 320.750576 21.350652 
L 321.159714 58.583619 
L 321.241541 58.175455 
L 321.323369 44.051239 
L 321.405196 44.456535 
L 321.487024 44.826012 
L 321.650679 37.797155 
L 321.732506 38.755649 
L 321.814334 39.6294 
L 321.896161 45.760744 
L 321.977989 38.069808 
L 322.059817 39.476076 
L 322.141644 40.758003 
L 322.223472 33.509657 
L 322.468954 45.466655 
L 322.632609 38.487882 
L 322.796264 48.778186 
L 322.878092 49.237679 
L 323.041747 36.287186 
L 323.123574 37.379674 
L 323.369057 53.117736 
L 323.532712 53.262822 
L 323.696367 44.967063 
L 323.778195 45.76388 
L 323.860022 41.155847 
L 323.94185 47.152413 
L 324.023677 42.421669 
L 324.105505 42.971955 
L 324.187332 43.473601 
L 324.26916 49.265222 
L 324.350988 44.347801 
L 324.432815 50.062125 
L 324.514643 45.074315 
L 324.59647 45.390166 
L 324.678298 42.596274 
L 324.760125 43.603065 
L 324.841953 36.104849 
L 324.92378 46.101751 
L 325.005608 41.464462 
L 325.087435 42.099732 
L 325.25109 43.206775 
L 325.414745 33.373509 
L 325.578401 39.195173 
L 325.660228 36.949638 
L 325.905711 41.081305 
L 326.151193 31.205973 
L 326.233021 32.748914 
L 326.560331 59.092044 
L 326.723986 42.142825 
L 326.805814 37.856729 
L 326.887641 38.811729 
L 326.969469 36.600794 
L 327.051296 38.138612 
L 327.214951 48.489226 
L 327.296779 43.642167 
L 327.378606 44.085698 
L 327.460434 49.823555 
L 327.624089 37.523963 
L 327.787744 60.825293 
L 327.951399 54.336798 
L 328.033227 59.168114 
L 328.115054 58.710466 
L 328.196882 49.878662 
L 328.278709 53.323923 
L 328.360537 52.911553 
L 328.442364 52.535679 
L 328.606019 73.298873 
L 329.015157 66.145232 
L 329.096985 73.485129 
L 329.342467 55.755197 
L 329.424295 60.461147 
L 329.506122 59.889509 
L 329.58795 62.449588 
L 329.751605 60.119258 
L 329.833432 64.439276 
L 329.91526 49.768887 
L 329.997087 55.004276 
L 330.24257 54.76046 
L 330.324398 49.360271 
L 330.406225 54.631819 
L 330.488053 54.575924 
L 330.651708 49.145752 
L 330.733535 49.103475 
L 330.815363 62.811567 
L 331.142673 32.973491 
L 331.388155 36.780347 
L 331.551811 22.707135 
L 331.633638 38.749507 
L 331.715466 34.765844 
L 331.879121 42.449163 
L 331.960948 43.471019 
L 332.124603 52.921079 
L 332.206431 53.016879 
L 332.288258 47.771683 
L 332.370086 47.851337 
L 332.451913 44.843115 
L 332.533741 45.653386 
L 332.615569 46.392018 
L 332.697396 41.732877 
L 332.779224 47.679147 
L 333.106534 23.272465 
L 333.270189 27.566891 
L 333.433844 44.136819 
L 333.515671 39.677508 
L 333.597499 40.473344 
L 333.679326 46.531103 
L 333.761154 41.860161 
L 333.842982 42.463037 
L 333.924809 56.757775 
L 334.006637 51.182518 
L 334.088464 56.293209 
L 334.170292 50.759107 
L 334.333947 64.152306 
L 334.497602 48.692963 
L 334.661257 54.022738 
L 334.743084 45.609064 
L 334.824912 46.352177 
L 334.906739 47.029591 
L 334.988567 42.315081 
L 335.152222 56.391809 
L 335.23405 42.436885 
L 335.397705 48.824495 
L 335.479532 49.283396 
L 335.56136 44.3698 
L 335.725015 50.430741 
L 335.88867 38.036303 
L 335.970497 44.309741 
L 336.052325 39.836212 
L 336.134153 45.950484 
L 336.297808 33.569895 
L 336.379635 34.906587 
L 336.54329 42.567605 
L 336.625118 43.580143 
L 336.706945 39.171435 
L 336.8706 46.11158 
L 337.034255 47.448176 
L 337.116083 42.697576 
L 337.19791 43.22727 
L 337.279738 49.041752 
L 337.361566 44.150332 
L 337.443393 44.551615 
L 337.525221 44.917432 
L 337.607048 36.839082 
L 337.770703 44.173834 
L 337.852531 45.044651 
L 337.934358 32.095262 
L 338.261668 58.642682 
L 338.507151 43.779131 
L 338.588979 57.956449 
L 338.670806 52.27725 
L 338.752634 57.291497 
L 338.916289 51.407751 
L 339.079944 50.94879 
L 339.161771 59.16066 
L 339.243599 58.23496 
L 339.325426 62.72235 
L 339.407254 56.621974 
L 339.489081 61.25202 
L 339.570909 46.870511 
L 339.652737 47.031817 
L 339.734564 47.178877 
L 339.898219 61.17743 
L 340.061874 46.970187 
L 340.143702 52.453855 
L 340.225529 38.850878 
L 340.389184 54.257323 
L 340.552839 41.220387 
L 340.634667 47.212596 
L 340.716494 42.484403 
L 340.88015 51.945679 
L 341.125632 51.158087 
L 341.20746 56.271468 
L 341.289287 50.742361 
L 341.371115 55.892518 
L 341.452942 50.396989 
L 341.53477 55.577699 
L 341.698425 49.985385 
L 341.780252 55.202511 
L 341.86208 49.768164 
L 341.943907 55.004511 
L 342.18939 41.027379 
L 342.271218 41.706075 
L 342.434873 48.219433 
L 342.598528 49.202245 
L 342.680355 52.709252 
L 342.762183 66.095911 
L 342.925838 56.39023 
L 343.171321 42.821823 
L 343.253148 43.342066 
L 343.334976 57.557022 
L 343.416803 51.915071 
L 343.580458 67.448933 
L 343.662286 65.791303 
L 343.825941 71.312977 
L 343.907768 83.054123 
L 343.989596 80.487859 
L 344.071423 78.148558 
L 344.235078 68.74196 
L 344.316906 66.970065 
L 344.398734 79.095182 
L 344.562389 69.528653 
L 344.644216 73.017541 
L 344.726044 71.338953 
L 344.889699 55.417567 
L 344.971526 46.414233 
L 345.053354 51.947285 
L 345.135181 38.392003 
L 345.217009 44.634526 
L 345.298836 40.135844 
L 345.380664 40.893907 
L 345.462491 46.915193 
L 345.626147 26.713338 
L 345.707974 33.98874 
L 345.789802 30.431702 
L 345.871629 32.048091 
L 345.953457 38.851743 
L 346.035284 34.864735 
L 346.117112 41.419313 
L 346.198939 37.205305 
L 346.280767 38.222773 
L 346.362594 39.150283 
L 346.608077 54.465076 
L 346.689904 46.0181 
L 346.771732 46.727688 
L 347.017215 48.501764 
L 347.099042 57.40119 
L 347.18087 57.104195 
L 347.344525 35.181819 
L 347.590007 66.856403 
L 347.671835 60.393451 
L 347.753662 64.690505 
L 347.917318 49.895506 
L 348.1628 78.001238 
L 348.326455 60.956361 
L 348.408283 68.282925 
L 348.571938 57.309907 
L 348.653765 61.87971 
L 348.899248 44.583805 
L 348.981075 40.091131 
L 349.062903 40.854132 
L 349.144731 41.549682 
L 349.308386 58.835638 
L 349.390213 63.27059 
L 349.472041 57.125528 
L 349.553868 61.71173 
L 349.635696 61.034133 
L 349.799351 59.853477 
L 349.963006 53.543033 
L 350.126661 66.465948 
L 350.290316 59.03786 
L 350.372144 58.125618 
L 350.453971 62.623446 
L 350.617626 55.84517 
L 350.699454 55.215372 
L 350.781281 59.970603 
L 350.863109 59.447304 
L 351.026764 66.20016 
L 351.108591 65.125993 
L 351.190419 50.409433 
L 351.354074 63.118549 
L 351.517729 48.592686 
L 351.681384 48.615372 
L 351.926867 41.656037 
L 352.008694 42.281508 
L 352.090522 51.259583 
L 352.172349 42.627936 
L 352.254177 56.904381 
L 352.336004 51.323723 
L 352.417832 56.42332 
L 352.499659 50.885303 
L 352.663315 63.514157 
L 352.745142 62.678063 
L 352.908797 52.813671 
L 352.990625 52.924001 
L 353.072452 39.288295 
L 353.15428 40.123612 
L 353.236107 54.621294 
L 353.317935 49.243162 
L 353.399762 54.526906 
L 353.48159 49.157234 
L 353.645245 62.078377 
L 353.727072 56.041026 
L 353.972555 68.005153 
L 354.13621 65.648686 
L 354.218038 59.295908 
L 354.299865 63.690715 
L 354.46352 54.400453 
L 354.545348 54.371079 
L 354.627175 57.422792 
L 354.709003 56.654982 
L 354.79083 55.955113 
L 354.872658 52.238769 
L 354.954486 52.400753 
L 355.036313 52.548451 
L 355.118141 61.089702 
L 355.199968 60.469027 
L 355.281796 62.981616 
L 355.363623 61.722497 
L 355.445451 65.902878 
L 355.527278 64.856667 
L 355.609106 63.903019 
L 356.018243 25.03537 
L 356.100071 22.275932 
L 356.181899 24.617319 
L 356.263726 32.079518 
L 356.427381 27.392954 
L 356.754691 35.654156 
L 356.918346 46.432025 
L 357.000174 41.781371 
L 357.163829 51.366278 
L 357.245656 51.135766 
L 357.327484 56.25301 
L 357.409312 50.734293 
L 357.654794 63.244848 
L 357.736622 57.108176 
L 357.818449 61.697331 
L 357.982104 47.423416 
L 358.145759 52.97758 
L 358.227587 53.076449 
L 358.391242 37.183741 
L 358.636725 56.673869 
L 358.80038 56.238863 
L 358.882207 50.723465 
L 358.964035 55.877678 
L 359.045862 55.720783 
L 359.209517 50.121406 
L 359.373172 63.62415 
L 359.455 57.456448 
L 359.700483 71.415627 
L 359.864138 67.589756 
L 359.945965 71.252522 
L 360.191448 51.711105 
L 360.273275 60.326116 
L 360.518758 45.092766 
L 360.682413 51.043949 
L 360.76424 45.990921 
L 360.846068 46.23915 
L 361.091551 60.586613 
L 361.173378 54.690281 
L 361.337033 67.42088 
L 361.418861 60.9205 
L 361.500688 68.249953 
L 361.582516 66.530241 
L 361.991653 56.886313 
L 362.073481 48.242655 
L 362.155309 48.763925 
L 362.237136 49.239179 
L 362.318964 44.348403 
L 362.400791 50.067565 
L 362.646274 31.095365 
L 362.809929 26.435647 
L 362.973584 19.488736 
L 363.055411 30.953475 
L 363.137239 24.606149 
L 363.300894 37.257633 
L 363.382722 25.030243 
L 363.464549 27.135587 
L 363.546377 29.054853 
L 363.628204 22.406211 
L 363.791859 39.853422 
L 363.873687 35.796361 
L 363.955514 42.272903 
L 364.037342 38.002269 
L 364.200997 52.812821 
L 364.282824 39.213357 
L 364.364652 48.462792 
L 364.44648 40.100243 
L 364.610135 49.976939 
L 364.77379 42.133768 
L 364.855617 56.446506 
L 365.019272 50.742225 
L 365.1011 55.89746 
L 365.182927 42.029198 
L 365.264755 42.634042 
L 365.346582 48.506608 
L 365.42841 35.293238 
L 365.510237 41.815223 
L 365.592065 37.58937 
L 365.673893 43.908372 
L 365.919375 32.690081 
L 366.164858 36.618675 
L 366.246685 29.310469 
L 366.492168 46.354579 
L 366.573995 47.04985 
L 366.655823 42.364383 
L 366.737651 48.261801 
L 366.819478 43.46968 
L 366.901306 49.269446 
L 366.983133 44.388747 
L 367.064961 44.788506 
L 367.146788 58.863377 
L 367.228616 58.453472 
L 367.310443 52.761505 
L 367.392271 57.739692 
L 367.474098 43.720565 
L 367.637753 49.917861 
L 367.719581 50.300217 
L 367.801408 45.331152 
L 367.965064 51.257015 
L 368.046891 51.521594 
L 368.292374 67.543693 
L 368.374201 69.440108 
L 368.456029 81.332251 
L 368.537856 78.937454 
L 368.865166 59.012898 
L 368.946994 58.12303 
L 369.110649 40.540602 
L 369.274304 47.279815 
L 369.519787 48.977854 
L 369.601614 57.833035 
L 369.683442 57.519214 
L 369.765269 51.918488 
L 369.847097 56.972899 
L 369.928924 56.735684 
L 370.092579 51.008531 
L 370.174407 64.528135 
L 370.338062 57.484734 
L 370.41989 70.431024 
L 370.501717 63.690858 
L 370.583545 70.774308 
L 370.665372 68.847894 
L 370.829027 73.874567 
L 370.910855 71.674428 
L 370.992682 74.982003 
L 371.07451 64.771817 
L 371.238165 73.714508 
L 371.319992 76.841811 
L 371.483648 60.082282 
L 371.72913 72.743233 
L 371.810958 70.645027 
L 372.05644 50.798543 
L 372.138268 50.642177 
L 372.220095 55.810923 
L 372.301923 41.990875 
L 372.547405 59.041917 
L 372.711061 71.040201 
L 372.792888 64.254185 
L 372.874716 76.597308 
L 373.038371 67.527548 
L 373.120198 79.580669 
L 373.283853 70.007737 
L 373.365681 73.4642 
L 373.447508 71.775258 
L 373.692991 59.177986 
L 373.938474 58.01411 
L 374.102129 44.457863 
L 374.183956 44.866877 
L 374.429439 30.557783 
L 374.511266 37.504852 
L 374.593094 33.691991 
L 374.674921 40.362016 
L 374.756749 36.297161 
L 374.920404 59.774863 
L 375.002232 53.993838 
L 375.084059 58.868382 
L 375.165887 58.474672 
L 375.247714 52.809765 
L 375.411369 60.557188 
L 375.493197 59.545736 
L 375.575024 63.92961 
L 375.656852 49.413332 
L 375.738679 63.06414 
L 375.820507 56.995877 
L 375.902334 69.975564 
L 375.984162 68.601481 
L 376.065989 67.349173 
L 376.229645 51.494511 
L 376.3933 64.030718 
L 376.475127 63.183899 
L 376.556955 70.780088 
L 376.638782 69.336651 
L 376.72061 62.717795 
L 376.802437 75.189294 
L 376.884265 73.356482 
L 377.211575 54.583301 
L 377.37523 66.597949 
L 377.457058 60.225029 
L 377.538885 67.613719 
L 377.784368 56.196304 
L 377.866195 55.577853 
L 377.948023 63.377605 
L 378.02985 62.124399 
L 378.35716 58.129001 
L 378.520816 49.002368 
L 378.602643 62.682999 
L 378.684471 56.663195 
L 378.766298 69.665663 
L 378.848126 68.327684 
L 379.011781 65.997202 
L 379.093608 59.686644 
L 379.175436 64.061961 
L 379.339091 54.836406 
L 379.420918 54.81252 
L 379.502746 49.494155 
L 379.666401 70.728707 
L 379.748229 69.300078 
L 379.911884 61.515971 
L 379.993711 60.435101 
L 380.075539 64.745551 
L 380.157366 58.552845 
L 380.239194 66.089177 
L 380.402849 52.579516 
L 380.730159 77.149405 
L 380.893814 64.834477 
L 380.975642 63.464509 
L 381.057469 70.566124 
L 381.139297 60.34024 
L 381.221124 67.718259 
L 381.302952 66.09472 
L 381.384779 69.906515 
L 381.466607 68.558083 
L 381.712089 65.189626 
L 381.957572 77.921568 
L 382.0394 62.232965 
L 382.121227 66.387811 
L 382.203055 60.065983 
L 382.284882 64.412919 
L 382.448537 57.486274 
L 382.530365 70.403915 
L 382.69402 62.467492 
L 382.775847 66.602992 
L 382.857675 51.928482 
L 382.939502 56.997015 
L 383.103157 56.619797 
L 383.266813 47.971387 
L 383.512295 64.152236 
L 383.594123 58.042648 
L 383.67595 62.572207 
L 383.757778 56.604422 
L 383.839605 61.261758 
L 383.921433 60.693088 
L 384.166915 59.275268 
L 384.248743 45.276082 
L 384.412398 59.615073 
L 384.657881 50.144526 
L 384.739708 45.290325 
L 384.821536 45.676639 
L 384.985191 67.53674 
L 385.067018 66.422688 
L 385.230673 59.210531 
L 385.312501 71.961989 
L 385.476156 55.501092 
L 385.557984 63.308025 
L 385.639811 62.107946 
L 385.721639 66.285156 
L 385.885294 59.11369 
L 385.967121 63.557085 
L 386.048949 62.805578 
L 386.539914 59.523019 
L 386.621741 67.439647 
L 386.867224 56.895171 
L 387.030879 51.350259 
L 387.112707 56.487425 
L 387.276362 51.021014 
L 387.440017 59.145454 
L 387.521844 50.049961 
L 387.603672 58.341021 
L 387.603672 58.341021 
" clip-path="url(#pa0bbebd138)" style="fill: none; stroke: #1f77b4; stroke-width: 1.5; stroke-linecap: square"/>
   </g>
   <g id="patch_3">
    <path d="M 60.080781 139.811563 
L 60.080781 10.8 
" style="fill: none; stroke: #000000; stroke-width: 0.8; stroke-linejoin: miter; stroke-linecap: square"/>
   </g>
   <g id="patch_4">
    <path d="M 403.2 139.811563 
L 403.2 10.8 
" style="fill: none; stroke: #000000; stroke-width: 0.8; stroke-linejoin: miter; stroke-linecap: square"/>
   </g>
   <g id="patch_5">
    <path d="M 60.080781 139.811563 
L 403.2 139.811563 
" style="fill: none; stroke: #000000; stroke-width: 0.8; stroke-linejoin: miter; stroke-linecap: square"/>
   </g>
   <g id="patch_6">
    <path d="M 60.080781 10.8 
L 403.2 10.8 
" style="fill: none; stroke: #000000; stroke-width: 0.8; stroke-linejoin: miter; stroke-linecap: square"/>
   </g>
  </g>
 </g>
 <defs>
  <clipPath id="pa0bbebd138">
   <rect x="60.080781" y="10.8" width="343.119219" height="129.011562"/>
  </clipPath>
 </defs>
</svg>
